G04*
G04 #@! TF.GenerationSoftware,Altium Limited,Altium Designer,19.1.6 (110)*
G04*
G04 Layer_Color=32896*
%FSLAX44Y44*%
%MOMM*%
G71*
G01*
G75*
%ADD11C,0.6000*%
%ADD12C,0.2540*%
%ADD14C,0.2000*%
%ADD82C,0.4000*%
%ADD83C,0.1000*%
G36*
X464759Y566501D02*
Y566130D01*
Y565759D01*
X258853D01*
Y566130D01*
Y566501D01*
Y566872D01*
X464759D01*
Y566501D01*
D02*
G37*
G36*
X400576Y553516D02*
Y553145D01*
Y552774D01*
Y552403D01*
Y552032D01*
Y551661D01*
Y551290D01*
X398350D01*
Y551661D01*
Y552032D01*
Y552403D01*
Y552774D01*
Y553145D01*
Y553516D01*
Y553887D01*
X400576D01*
Y553516D01*
D02*
G37*
G36*
X298921Y552774D02*
Y552403D01*
Y552032D01*
Y551661D01*
Y551290D01*
Y550919D01*
X296324D01*
Y551290D01*
Y551661D01*
Y552032D01*
Y552403D01*
Y552774D01*
Y553145D01*
X298921D01*
Y552774D01*
D02*
G37*
G36*
X329343Y554629D02*
Y554258D01*
Y553887D01*
Y553516D01*
Y553145D01*
Y552774D01*
Y552403D01*
Y552032D01*
Y551661D01*
Y551290D01*
Y550919D01*
Y550548D01*
Y550177D01*
Y549806D01*
Y549435D01*
Y549064D01*
Y548693D01*
Y548322D01*
Y547951D01*
Y547580D01*
Y547209D01*
Y546838D01*
Y546467D01*
Y546096D01*
Y545725D01*
Y545354D01*
Y544983D01*
Y544612D01*
Y544241D01*
Y543870D01*
Y543499D01*
Y543128D01*
Y542757D01*
Y542386D01*
Y542015D01*
Y541644D01*
Y541273D01*
Y540902D01*
Y540531D01*
Y540160D01*
Y539789D01*
Y539418D01*
Y539047D01*
Y538676D01*
Y538305D01*
Y537934D01*
Y537563D01*
Y537192D01*
Y536821D01*
Y536450D01*
Y536079D01*
X328230D01*
Y536450D01*
X327859D01*
Y536821D01*
X327488D01*
Y536450D01*
X327117D01*
Y536079D01*
X314503D01*
Y536450D01*
Y536821D01*
X313761D01*
Y537192D01*
X313390D01*
Y537563D01*
X313019D01*
Y537934D01*
X312648D01*
Y538305D01*
X312277D01*
Y538676D01*
Y539047D01*
Y539418D01*
Y539789D01*
Y540160D01*
Y540531D01*
Y540902D01*
Y541273D01*
Y541644D01*
Y542015D01*
Y542386D01*
Y542757D01*
Y543128D01*
Y543499D01*
Y543870D01*
Y544241D01*
Y544612D01*
Y544983D01*
Y545354D01*
Y545725D01*
Y546096D01*
Y546467D01*
Y546838D01*
X312648D01*
Y547209D01*
Y547580D01*
X313019D01*
Y547209D01*
X313390D01*
Y547580D01*
Y547951D01*
X313761D01*
Y548322D01*
X314132D01*
Y548693D01*
X314503D01*
Y549064D01*
X326746D01*
Y548693D01*
X327117D01*
Y549064D01*
Y549435D01*
Y549806D01*
Y550177D01*
Y550548D01*
Y550919D01*
Y551290D01*
Y551661D01*
Y552032D01*
Y552403D01*
Y552774D01*
Y553145D01*
Y553516D01*
Y553887D01*
Y554258D01*
Y554629D01*
Y555000D01*
X329343D01*
Y554629D01*
D02*
G37*
G36*
X310793Y548693D02*
Y548322D01*
Y547951D01*
Y547580D01*
Y547209D01*
Y546838D01*
Y546467D01*
Y546096D01*
Y545725D01*
Y545354D01*
Y544983D01*
Y544612D01*
Y544241D01*
Y543870D01*
Y543499D01*
Y543128D01*
Y542757D01*
Y542386D01*
Y542015D01*
Y541644D01*
Y541273D01*
Y540902D01*
Y540531D01*
Y540160D01*
Y539789D01*
Y539418D01*
Y539047D01*
Y538676D01*
Y538305D01*
Y537934D01*
Y537563D01*
Y537192D01*
Y536821D01*
Y536450D01*
Y536079D01*
X308196D01*
Y536450D01*
Y536821D01*
Y537192D01*
Y537563D01*
Y537934D01*
Y538305D01*
Y538676D01*
Y539047D01*
Y539418D01*
Y539789D01*
Y540160D01*
Y540531D01*
Y540902D01*
Y541273D01*
Y541644D01*
Y542015D01*
Y542386D01*
Y542757D01*
Y543128D01*
Y543499D01*
Y543870D01*
Y544241D01*
Y544612D01*
Y544983D01*
Y545354D01*
Y545725D01*
Y546096D01*
X307825D01*
Y546467D01*
X307454D01*
Y546838D01*
X300405D01*
Y547209D01*
Y547580D01*
Y547951D01*
Y548322D01*
Y548693D01*
Y549064D01*
X308567D01*
Y548693D01*
X309309D01*
Y549064D01*
X310793D01*
Y548693D01*
D02*
G37*
G36*
X359395Y562420D02*
X359766D01*
Y562049D01*
Y561678D01*
X360137D01*
Y561307D01*
X360508D01*
Y560936D01*
Y560565D01*
X360879D01*
Y560194D01*
Y559823D01*
X361250D01*
Y559452D01*
X361621D01*
Y559081D01*
X361992D01*
Y558710D01*
Y558339D01*
X362363D01*
Y557968D01*
Y557597D01*
X362734D01*
Y557226D01*
X363105D01*
Y556855D01*
X363476D01*
Y556484D01*
Y556113D01*
Y555742D01*
X364218D01*
Y555371D01*
Y555000D01*
X364589D01*
Y554629D01*
X364960D01*
Y554258D01*
Y553887D01*
X365331D01*
Y553516D01*
Y553145D01*
X365702D01*
Y552774D01*
Y552403D01*
X366073D01*
Y552032D01*
X366815D01*
Y551661D01*
Y551290D01*
X367186D01*
Y550919D01*
X367557D01*
Y550548D01*
Y550177D01*
X367928D01*
Y549806D01*
Y549435D01*
Y549064D01*
Y548693D01*
Y548322D01*
Y547951D01*
Y547580D01*
Y547209D01*
Y546838D01*
Y546467D01*
Y546096D01*
Y545725D01*
Y545354D01*
Y544983D01*
Y544612D01*
Y544241D01*
Y543870D01*
Y543499D01*
Y543128D01*
Y542757D01*
Y542386D01*
Y542015D01*
Y541644D01*
Y541273D01*
Y540902D01*
Y540531D01*
Y540160D01*
Y539789D01*
Y539418D01*
Y539047D01*
Y538676D01*
Y538305D01*
Y537934D01*
Y537563D01*
Y537192D01*
Y536821D01*
Y536450D01*
X356056D01*
Y536079D01*
Y535708D01*
Y535337D01*
Y534966D01*
Y534595D01*
Y534224D01*
Y533853D01*
Y533482D01*
Y533111D01*
Y532740D01*
Y532369D01*
Y531998D01*
Y531627D01*
Y531256D01*
Y530885D01*
Y530514D01*
Y530143D01*
Y529772D01*
Y529401D01*
Y529030D01*
Y528659D01*
Y528288D01*
Y527917D01*
Y527546D01*
Y527175D01*
Y526804D01*
Y526433D01*
Y526062D01*
Y525691D01*
Y525320D01*
Y524949D01*
Y524578D01*
Y524207D01*
Y523836D01*
Y523465D01*
Y523094D01*
Y522723D01*
Y522352D01*
Y521981D01*
X355685D01*
Y522352D01*
Y522723D01*
Y523094D01*
X355314D01*
Y523465D01*
X354943D01*
Y523836D01*
Y524207D01*
X354201D01*
Y524578D01*
Y524949D01*
Y525320D01*
X353459D01*
Y525691D01*
Y526062D01*
Y526433D01*
X353088D01*
Y526804D01*
X352716D01*
Y527175D01*
Y527546D01*
X352346D01*
Y527917D01*
X351975D01*
Y528288D01*
Y528659D01*
X351604D01*
Y529030D01*
X350862D01*
Y529401D01*
Y529772D01*
Y530143D01*
X350490D01*
Y530514D01*
X350120D01*
Y530885D01*
X349749D01*
Y531256D01*
Y531627D01*
X349378D01*
Y531998D01*
Y532369D01*
X349007D01*
Y532740D01*
X348635D01*
Y533111D01*
Y533482D01*
X348265D01*
Y533853D01*
Y534224D01*
X347523D01*
Y534595D01*
X347151D01*
Y534966D01*
Y535337D01*
Y535708D01*
Y536079D01*
Y536450D01*
Y536821D01*
Y537192D01*
Y537563D01*
Y537934D01*
Y538305D01*
Y538676D01*
Y539047D01*
Y539418D01*
Y539789D01*
Y540160D01*
Y540531D01*
Y540902D01*
Y541273D01*
Y541644D01*
Y542015D01*
Y542386D01*
Y542757D01*
Y543128D01*
Y543499D01*
Y543870D01*
Y544241D01*
Y544612D01*
Y544983D01*
Y545354D01*
Y545725D01*
Y546096D01*
Y546467D01*
Y546838D01*
Y547209D01*
Y547580D01*
Y547951D01*
Y548322D01*
Y548693D01*
Y549064D01*
X356056D01*
Y548693D01*
Y548322D01*
Y547951D01*
Y547580D01*
Y547209D01*
Y546838D01*
Y546467D01*
Y546096D01*
Y545725D01*
Y545354D01*
Y544983D01*
Y544612D01*
Y544241D01*
Y543870D01*
Y543499D01*
Y543128D01*
Y542757D01*
X356427D01*
Y542386D01*
X359024D01*
Y542757D01*
Y543128D01*
Y543499D01*
Y543870D01*
Y544241D01*
Y544612D01*
Y544983D01*
Y545354D01*
Y545725D01*
Y546096D01*
Y546467D01*
Y546838D01*
Y547209D01*
Y547580D01*
Y547951D01*
Y548322D01*
Y548693D01*
Y549064D01*
Y549435D01*
Y549806D01*
Y550177D01*
Y550548D01*
Y550919D01*
Y551290D01*
Y551661D01*
Y552032D01*
Y552403D01*
Y552774D01*
Y553145D01*
Y553516D01*
Y553887D01*
Y554258D01*
Y554629D01*
Y555000D01*
Y555371D01*
Y555742D01*
Y556113D01*
Y556484D01*
Y556855D01*
Y557226D01*
Y557597D01*
Y557968D01*
Y558339D01*
Y558710D01*
Y559081D01*
Y559452D01*
Y559823D01*
Y560194D01*
Y560565D01*
Y560936D01*
Y561307D01*
Y561678D01*
Y562049D01*
Y562420D01*
Y562791D01*
X359395D01*
Y562420D01*
D02*
G37*
G36*
X445838Y555371D02*
Y555000D01*
Y554629D01*
Y554258D01*
Y553887D01*
Y553516D01*
Y553145D01*
Y552774D01*
Y552403D01*
Y552032D01*
Y551661D01*
Y551290D01*
Y550919D01*
Y550548D01*
Y550177D01*
Y549806D01*
Y549435D01*
Y549064D01*
Y548693D01*
Y548322D01*
Y547951D01*
Y547580D01*
Y547209D01*
Y546838D01*
Y546467D01*
Y546096D01*
Y545725D01*
Y545354D01*
Y544983D01*
Y544612D01*
Y544241D01*
Y543870D01*
Y543499D01*
Y543128D01*
Y542757D01*
Y542386D01*
Y542015D01*
Y541644D01*
Y541273D01*
Y540902D01*
Y540531D01*
Y540160D01*
Y539789D01*
Y539418D01*
Y539047D01*
X445467D01*
Y538676D01*
X445096D01*
Y538305D01*
X444725D01*
Y537934D01*
X444354D01*
Y537563D01*
X443983D01*
Y537192D01*
X443612D01*
Y536821D01*
X427288D01*
Y537192D01*
X426546D01*
Y537563D01*
Y537934D01*
X425804D01*
Y538305D01*
X425433D01*
Y538676D01*
X425062D01*
Y539047D01*
Y539418D01*
X424691D01*
Y539789D01*
Y540160D01*
Y540531D01*
Y540902D01*
Y541273D01*
Y541644D01*
Y542015D01*
Y542386D01*
Y542757D01*
Y543128D01*
Y543499D01*
Y543870D01*
Y544241D01*
Y544612D01*
Y544983D01*
Y545354D01*
Y545725D01*
Y546096D01*
Y546467D01*
Y546838D01*
Y547209D01*
Y547580D01*
Y547951D01*
Y548322D01*
Y548693D01*
Y549064D01*
Y549435D01*
Y549806D01*
Y550177D01*
Y550548D01*
Y550919D01*
Y551290D01*
Y551661D01*
Y552032D01*
Y552403D01*
Y552774D01*
Y553145D01*
Y553516D01*
Y553887D01*
Y554258D01*
Y554629D01*
Y555000D01*
Y555371D01*
Y555742D01*
X427288D01*
Y555371D01*
Y555000D01*
Y554629D01*
Y554258D01*
Y553887D01*
Y553516D01*
Y553145D01*
Y552774D01*
Y552403D01*
Y552032D01*
Y551661D01*
Y551290D01*
Y550919D01*
Y550548D01*
Y550177D01*
Y549806D01*
Y549435D01*
Y549064D01*
Y548693D01*
Y548322D01*
Y547951D01*
Y547580D01*
Y547209D01*
Y546838D01*
Y546467D01*
Y546096D01*
Y545725D01*
Y545354D01*
Y544983D01*
Y544612D01*
Y544241D01*
Y543870D01*
Y543499D01*
Y543128D01*
Y542757D01*
Y542386D01*
Y542015D01*
Y541644D01*
Y541273D01*
Y540902D01*
Y540531D01*
Y540160D01*
Y539789D01*
X427659D01*
Y539418D01*
X428030D01*
Y539047D01*
X442870D01*
Y539418D01*
Y539789D01*
X443241D01*
Y540160D01*
X443612D01*
Y540531D01*
Y540902D01*
Y541273D01*
Y541644D01*
Y542015D01*
Y542386D01*
Y542757D01*
Y543128D01*
Y543499D01*
Y543870D01*
Y544241D01*
Y544612D01*
Y544983D01*
Y545354D01*
Y545725D01*
Y546096D01*
Y546467D01*
Y546838D01*
Y547209D01*
Y547580D01*
Y547951D01*
Y548322D01*
Y548693D01*
Y549064D01*
Y549435D01*
Y549806D01*
Y550177D01*
Y550548D01*
Y550919D01*
Y551290D01*
Y551661D01*
Y552032D01*
Y552403D01*
Y552774D01*
Y553145D01*
Y553516D01*
Y553887D01*
Y554258D01*
Y554629D01*
Y555000D01*
Y555371D01*
Y555742D01*
X445838D01*
Y555371D01*
D02*
G37*
G36*
X394269Y549435D02*
X394640D01*
Y549064D01*
X395011D01*
Y548693D01*
X395382D01*
Y548322D01*
Y547951D01*
X396124D01*
Y547580D01*
X396495D01*
Y547209D01*
Y546838D01*
Y546467D01*
Y546096D01*
Y545725D01*
Y545354D01*
Y544983D01*
Y544612D01*
Y544241D01*
Y543870D01*
Y543499D01*
Y543128D01*
Y542757D01*
Y542386D01*
Y542015D01*
Y541644D01*
Y541273D01*
Y540902D01*
Y540531D01*
Y540160D01*
Y539789D01*
Y539418D01*
Y539047D01*
Y538676D01*
X396124D01*
Y538305D01*
X395753D01*
Y537934D01*
X395382D01*
Y537563D01*
X395011D01*
Y537192D01*
X394640D01*
Y536821D01*
X380542D01*
Y537192D01*
Y537563D01*
Y537934D01*
Y538305D01*
Y538676D01*
Y539047D01*
X393527D01*
Y539418D01*
X393898D01*
Y539047D01*
X394269D01*
Y539418D01*
X393898D01*
Y539789D01*
X394269D01*
Y540160D01*
Y540531D01*
Y540902D01*
Y541273D01*
Y541644D01*
Y542015D01*
Y542386D01*
Y542757D01*
Y543128D01*
Y543499D01*
Y543870D01*
Y544241D01*
Y544612D01*
Y544983D01*
Y545354D01*
Y545725D01*
Y546096D01*
Y546467D01*
X393898D01*
Y546838D01*
X394269D01*
Y547209D01*
X393156D01*
Y547580D01*
X380542D01*
Y547951D01*
Y548322D01*
Y548693D01*
Y549064D01*
Y549435D01*
Y549806D01*
X394269D01*
Y549435D01*
D02*
G37*
G36*
X423949Y555371D02*
X423207D01*
Y555000D01*
X423578D01*
Y554629D01*
X423207D01*
Y554258D01*
Y553887D01*
X422836D01*
Y553516D01*
Y553145D01*
X422465D01*
Y552774D01*
Y552403D01*
X422094D01*
Y552032D01*
Y551661D01*
X421723D01*
Y551290D01*
X421352D01*
Y550919D01*
Y550548D01*
Y550177D01*
X420981D01*
Y549806D01*
Y549435D01*
X420239D01*
Y549064D01*
X420610D01*
Y548693D01*
X420239D01*
Y548322D01*
Y547951D01*
X419868D01*
Y547580D01*
Y547209D01*
X419497D01*
Y546838D01*
Y546467D01*
X419126D01*
Y546096D01*
Y545725D01*
X418755D01*
Y545354D01*
X418384D01*
Y544983D01*
Y544612D01*
Y544241D01*
X418013D01*
Y543870D01*
Y543499D01*
X417271D01*
Y543128D01*
X417642D01*
Y542757D01*
X417271D01*
Y542386D01*
Y542015D01*
X416900D01*
Y541644D01*
Y541273D01*
X416529D01*
Y540902D01*
Y540531D01*
X416158D01*
Y540160D01*
Y539789D01*
X415787D01*
Y539418D01*
X415416D01*
Y539047D01*
Y538676D01*
Y538305D01*
X415045D01*
Y537934D01*
Y537563D01*
X414303D01*
Y537192D01*
X414674D01*
Y536821D01*
X410593D01*
Y537192D01*
X410222D01*
Y537563D01*
X409851D01*
Y537934D01*
Y538305D01*
X409480D01*
Y538676D01*
Y539047D01*
X409109D01*
Y539418D01*
Y539789D01*
X408738D01*
Y540160D01*
Y540531D01*
X408367D01*
Y540902D01*
Y541273D01*
X407996D01*
Y541644D01*
Y542015D01*
X407625D01*
Y542386D01*
Y542757D01*
Y543128D01*
X407254D01*
Y543499D01*
X406883D01*
Y543870D01*
Y544241D01*
X406512D01*
Y544612D01*
Y544983D01*
X406141D01*
Y545354D01*
Y545725D01*
X405770D01*
Y546096D01*
Y546467D01*
X405399D01*
Y546838D01*
Y547209D01*
X405028D01*
Y547580D01*
Y547951D01*
X404657D01*
Y548322D01*
Y548693D01*
Y549064D01*
X404286D01*
Y549435D01*
X403915D01*
Y549806D01*
Y550177D01*
X403544D01*
Y550548D01*
Y550919D01*
X403173D01*
Y551290D01*
Y551661D01*
X402802D01*
Y552032D01*
Y552403D01*
X402431D01*
Y552774D01*
Y553145D01*
X402060D01*
Y553516D01*
Y553887D01*
X401689D01*
Y554258D01*
Y554629D01*
Y555000D01*
X401318D01*
Y555371D01*
X400947D01*
Y555742D01*
X403915D01*
Y555371D01*
Y555000D01*
X404286D01*
Y554629D01*
Y554258D01*
X404657D01*
Y553887D01*
Y553516D01*
X405028D01*
Y553145D01*
Y552774D01*
X405399D01*
Y552403D01*
X405028D01*
Y552032D01*
X405399D01*
Y551661D01*
X405770D01*
Y551290D01*
X406141D01*
Y550919D01*
Y550548D01*
X406512D01*
Y550177D01*
X406141D01*
Y549806D01*
X406883D01*
Y549435D01*
Y549064D01*
X407254D01*
Y548693D01*
Y548322D01*
X407625D01*
Y547951D01*
Y547580D01*
X407996D01*
Y547209D01*
Y546838D01*
X408367D01*
Y546467D01*
X407996D01*
Y546096D01*
X408367D01*
Y545725D01*
X408738D01*
Y545354D01*
X409109D01*
Y544983D01*
Y544612D01*
X409480D01*
Y544241D01*
X409109D01*
Y543870D01*
X409851D01*
Y543499D01*
Y543128D01*
X410222D01*
Y542757D01*
Y542386D01*
X410593D01*
Y542015D01*
Y541644D01*
X410964D01*
Y541273D01*
Y540902D01*
X411335D01*
Y540531D01*
X410964D01*
Y540160D01*
X411335D01*
Y539789D01*
X411706D01*
Y539418D01*
X412077D01*
Y539047D01*
Y538676D01*
X412819D01*
Y539047D01*
Y539418D01*
Y539789D01*
X413190D01*
Y540160D01*
Y540531D01*
X413561D01*
Y540902D01*
Y541273D01*
X413932D01*
Y541644D01*
Y542015D01*
X414303D01*
Y542386D01*
Y542757D01*
X414674D01*
Y543128D01*
Y543499D01*
X415045D01*
Y543870D01*
Y544241D01*
X415416D01*
Y544612D01*
X415787D01*
Y544983D01*
Y545354D01*
Y545725D01*
X416158D01*
Y546096D01*
Y546467D01*
X416529D01*
Y546838D01*
Y547209D01*
X417271D01*
Y547580D01*
X416900D01*
Y547951D01*
X417271D01*
Y548322D01*
Y548693D01*
X417642D01*
Y549064D01*
Y549435D01*
X418013D01*
Y549806D01*
Y550177D01*
X418384D01*
Y550548D01*
X418755D01*
Y550919D01*
Y551290D01*
Y551661D01*
X419126D01*
Y552032D01*
Y552403D01*
X419497D01*
Y552774D01*
Y553145D01*
X419868D01*
Y553516D01*
Y553887D01*
X420239D01*
Y554258D01*
Y554629D01*
X420610D01*
Y555000D01*
Y555371D01*
X420981D01*
Y555742D01*
X423949D01*
Y555371D01*
D02*
G37*
G36*
X345667Y548693D02*
X345297D01*
Y548322D01*
Y547951D01*
X344925D01*
Y547580D01*
Y547209D01*
X344554D01*
Y546838D01*
Y546467D01*
X344184D01*
Y546096D01*
X343812D01*
Y545725D01*
Y545354D01*
Y544983D01*
X343442D01*
Y544612D01*
Y544241D01*
X343070D01*
Y543870D01*
X342700D01*
Y543499D01*
Y543128D01*
Y542757D01*
X342328D01*
Y542386D01*
Y542015D01*
X341958D01*
Y541644D01*
Y541273D01*
X341586D01*
Y540902D01*
Y540531D01*
X341216D01*
Y540160D01*
X340844D01*
Y539789D01*
Y539418D01*
Y539047D01*
X340474D01*
Y538676D01*
Y538305D01*
X340102D01*
Y537934D01*
X339731D01*
Y537563D01*
Y537192D01*
Y536821D01*
X339361D01*
Y536450D01*
Y536079D01*
Y535708D01*
Y535337D01*
X339731D01*
Y534966D01*
Y534595D01*
X340102D01*
Y534224D01*
Y533853D01*
X340474D01*
Y533482D01*
X340102D01*
Y533111D01*
X340844D01*
Y532740D01*
Y532369D01*
X341216D01*
Y531998D01*
Y531627D01*
Y531256D01*
Y530885D01*
X341958D01*
Y530514D01*
Y530143D01*
X341586D01*
Y530514D01*
X341216D01*
Y530143D01*
X338989D01*
Y530514D01*
Y530885D01*
Y531256D01*
Y531627D01*
X338247D01*
Y531998D01*
Y532369D01*
X337877D01*
Y532740D01*
Y533111D01*
Y533482D01*
X337505D01*
Y533853D01*
X337135D01*
Y534224D01*
Y534595D01*
X336763D01*
Y534966D01*
Y535337D01*
X336392D01*
Y535708D01*
Y536079D01*
X336021D01*
Y536450D01*
Y536821D01*
X335650D01*
Y537192D01*
X336021D01*
Y537563D01*
X335279D01*
Y537934D01*
Y538305D01*
X334908D01*
Y538676D01*
Y539047D01*
X334537D01*
Y539418D01*
Y539789D01*
X334166D01*
Y540160D01*
Y540531D01*
X333795D01*
Y540902D01*
Y541273D01*
X333424D01*
Y541644D01*
Y542015D01*
X333053D01*
Y542386D01*
Y542757D01*
X332682D01*
Y543128D01*
Y543499D01*
X332311D01*
Y543870D01*
Y544241D01*
X331940D01*
Y544612D01*
Y544983D01*
X331569D01*
Y545354D01*
Y545725D01*
X331198D01*
Y546096D01*
Y546467D01*
X330827D01*
Y546838D01*
Y547209D01*
X330456D01*
Y547580D01*
Y547951D01*
X330085D01*
Y548322D01*
Y548693D01*
X329714D01*
Y549064D01*
X332311D01*
Y548693D01*
X333053D01*
Y548322D01*
Y547951D01*
X333424D01*
Y547580D01*
Y547209D01*
X333795D01*
Y546838D01*
Y546467D01*
X334166D01*
Y546096D01*
Y545725D01*
X334537D01*
Y545354D01*
X334166D01*
Y544983D01*
X334908D01*
Y544612D01*
Y544241D01*
X335279D01*
Y543870D01*
Y543499D01*
Y543128D01*
Y542757D01*
X336021D01*
Y542386D01*
Y542015D01*
X336392D01*
Y541644D01*
Y541273D01*
X336763D01*
Y540902D01*
Y540531D01*
X337135D01*
Y540160D01*
Y539789D01*
X337505D01*
Y539418D01*
X337135D01*
Y539047D01*
X337505D01*
Y538676D01*
X337877D01*
Y539047D01*
Y539418D01*
X338247D01*
Y539789D01*
Y540160D01*
X338618D01*
Y540531D01*
Y540902D01*
X338989D01*
Y541273D01*
X339361D01*
Y541644D01*
Y542015D01*
Y542386D01*
X339731D01*
Y542757D01*
Y543128D01*
X340102D01*
Y543499D01*
Y543870D01*
X340474D01*
Y544241D01*
Y544612D01*
X340844D01*
Y544983D01*
Y545354D01*
X341216D01*
Y545725D01*
Y546096D01*
X341586D01*
Y546467D01*
Y546838D01*
X341958D01*
Y547209D01*
X342328D01*
Y547580D01*
Y547951D01*
Y548322D01*
X342700D01*
Y548693D01*
Y549064D01*
X345667D01*
Y548693D01*
D02*
G37*
G36*
X400576Y549435D02*
Y549064D01*
Y548693D01*
Y548322D01*
Y547951D01*
Y547580D01*
Y547209D01*
Y546838D01*
Y546467D01*
Y546096D01*
Y545725D01*
Y545354D01*
Y544983D01*
Y544612D01*
Y544241D01*
Y543870D01*
Y543499D01*
Y543128D01*
Y542757D01*
Y542386D01*
Y542015D01*
Y541644D01*
Y541273D01*
Y540902D01*
Y540531D01*
Y540160D01*
Y539789D01*
Y539418D01*
Y539047D01*
Y538676D01*
Y538305D01*
Y537934D01*
Y537563D01*
Y537192D01*
Y536821D01*
X398350D01*
Y537192D01*
Y537563D01*
Y537934D01*
Y538305D01*
Y538676D01*
Y539047D01*
Y539418D01*
Y539789D01*
Y540160D01*
Y540531D01*
Y540902D01*
Y541273D01*
Y541644D01*
Y542015D01*
Y542386D01*
Y542757D01*
Y543128D01*
Y543499D01*
Y543870D01*
Y544241D01*
Y544612D01*
Y544983D01*
Y545354D01*
Y545725D01*
Y546096D01*
Y546467D01*
Y546838D01*
Y547209D01*
Y547580D01*
Y547951D01*
Y548322D01*
Y548693D01*
Y549064D01*
Y549435D01*
Y549806D01*
X400576D01*
Y549435D01*
D02*
G37*
G36*
X298921Y548693D02*
Y548322D01*
Y547951D01*
Y547580D01*
Y547209D01*
Y546838D01*
Y546467D01*
Y546096D01*
Y545725D01*
Y545354D01*
Y544983D01*
Y544612D01*
Y544241D01*
Y543870D01*
Y543499D01*
Y543128D01*
Y542757D01*
Y542386D01*
Y542015D01*
Y541644D01*
Y541273D01*
Y540902D01*
Y540531D01*
Y540160D01*
Y539789D01*
Y539418D01*
Y539047D01*
Y538676D01*
Y538305D01*
Y537934D01*
Y537563D01*
Y537192D01*
Y536821D01*
Y536450D01*
Y536079D01*
X296324D01*
Y536450D01*
Y536821D01*
Y537192D01*
Y537563D01*
Y537934D01*
Y538305D01*
Y538676D01*
Y539047D01*
Y539418D01*
Y539789D01*
Y540160D01*
Y540531D01*
Y540902D01*
Y541273D01*
Y541644D01*
Y542015D01*
Y542386D01*
Y542757D01*
Y543128D01*
Y543499D01*
Y543870D01*
Y544241D01*
Y544612D01*
Y544983D01*
Y545354D01*
Y545725D01*
Y546096D01*
Y546467D01*
Y546838D01*
Y547209D01*
Y547580D01*
Y547951D01*
Y548322D01*
Y548693D01*
Y549064D01*
X298921D01*
Y548693D01*
D02*
G37*
G36*
X280000Y554629D02*
Y554258D01*
Y553887D01*
Y553516D01*
Y553145D01*
Y552774D01*
Y552403D01*
Y552032D01*
Y551661D01*
Y551290D01*
Y550919D01*
Y550548D01*
Y550177D01*
Y549806D01*
Y549435D01*
Y549064D01*
Y548693D01*
X280742D01*
Y549064D01*
X292614D01*
Y548693D01*
X292985D01*
Y548322D01*
X293356D01*
Y547951D01*
X293727D01*
Y547580D01*
X294098D01*
Y547209D01*
X294469D01*
Y546838D01*
X294840D01*
Y546467D01*
Y546096D01*
Y545725D01*
Y545354D01*
Y544983D01*
Y544612D01*
Y544241D01*
Y543870D01*
Y543499D01*
Y543128D01*
Y542757D01*
Y542386D01*
Y542015D01*
Y541644D01*
Y541273D01*
Y540902D01*
Y540531D01*
Y540160D01*
Y539789D01*
Y539418D01*
Y539047D01*
Y538676D01*
Y538305D01*
X294469D01*
Y537934D01*
X293727D01*
Y537563D01*
Y537192D01*
X293356D01*
Y536821D01*
X292614D01*
Y536450D01*
X292243D01*
Y536079D01*
X280000D01*
Y536450D01*
Y536821D01*
X279258D01*
Y536450D01*
X278887D01*
Y536079D01*
X277774D01*
Y536450D01*
Y536821D01*
Y537192D01*
Y537563D01*
Y537934D01*
Y538305D01*
Y538676D01*
Y539047D01*
Y539418D01*
Y539789D01*
Y540160D01*
Y540531D01*
Y540902D01*
Y541273D01*
Y541644D01*
Y542015D01*
Y542386D01*
Y542757D01*
Y543128D01*
Y543499D01*
Y543870D01*
Y544241D01*
Y544612D01*
Y544983D01*
Y545354D01*
Y545725D01*
Y546096D01*
Y546467D01*
Y546838D01*
Y547209D01*
Y547580D01*
Y547951D01*
Y548322D01*
Y548693D01*
Y549064D01*
Y549435D01*
Y549806D01*
Y550177D01*
Y550548D01*
Y550919D01*
Y551290D01*
Y551661D01*
Y552032D01*
Y552403D01*
Y552774D01*
Y553145D01*
Y553516D01*
Y553887D01*
Y554258D01*
Y554629D01*
Y555000D01*
X280000D01*
Y554629D01*
D02*
G37*
G36*
X464759Y519755D02*
Y519384D01*
Y519013D01*
X258853D01*
Y519384D01*
Y519755D01*
Y520126D01*
X464759D01*
Y519755D01*
D02*
G37*
G36*
X328460Y516821D02*
X328788Y516792D01*
X329074Y516750D01*
X329316Y516707D01*
X329502Y516650D01*
X329645Y516607D01*
X329730Y516578D01*
X329745Y516564D01*
X329759D01*
X329973Y516450D01*
X330159Y516336D01*
X330316Y516207D01*
X330458Y516079D01*
X330558Y515965D01*
X330644Y515879D01*
X330687Y515822D01*
X330701Y515793D01*
X330815Y515593D01*
X330915Y515365D01*
X330987Y515137D01*
X331044Y514908D01*
X331087Y514708D01*
X331115Y514551D01*
X331129Y514494D01*
X331144Y514451D01*
Y514423D01*
Y514409D01*
X329031Y514237D01*
X328988Y514466D01*
X328945Y514651D01*
X328888Y514808D01*
X328831Y514922D01*
X328774Y515022D01*
X328731Y515094D01*
X328703Y515122D01*
X328688Y515137D01*
X328588Y515222D01*
X328474Y515279D01*
X328374Y515336D01*
X328260Y515365D01*
X328175Y515379D01*
X328103Y515394D01*
X328032D01*
X327889Y515379D01*
X327775Y515351D01*
X327661Y515308D01*
X327561Y515265D01*
X327489Y515222D01*
X327432Y515179D01*
X327404Y515151D01*
X327389Y515137D01*
X327304Y515037D01*
X327232Y514937D01*
X327190Y514851D01*
X327147Y514751D01*
X327132Y514680D01*
X327118Y514608D01*
Y514566D01*
Y514551D01*
X327132Y514423D01*
X327161Y514309D01*
X327204Y514194D01*
X327247Y514080D01*
X327304Y513995D01*
X327347Y513923D01*
X327375Y513880D01*
X327389Y513866D01*
X327447Y513795D01*
X327518Y513723D01*
X327689Y513552D01*
X327875Y513381D01*
X328075Y513209D01*
X328260Y513067D01*
X328432Y512938D01*
X328489Y512896D01*
X328531Y512853D01*
X328560Y512838D01*
X328574Y512824D01*
X328845Y512610D01*
X329102Y512410D01*
X329331Y512225D01*
X329531Y512039D01*
X329730Y511868D01*
X329888Y511711D01*
X330045Y511554D01*
X330173Y511411D01*
X330287Y511297D01*
X330387Y511183D01*
X330473Y511083D01*
X330530Y510997D01*
X330587Y510940D01*
X330616Y510897D01*
X330644Y510868D01*
Y510854D01*
X330830Y510540D01*
X330987Y510226D01*
X331101Y509941D01*
X331186Y509669D01*
X331244Y509441D01*
X331258Y509341D01*
X331272Y509255D01*
X331287Y509184D01*
X331301Y509141D01*
Y509113D01*
Y509098D01*
X324948D01*
Y510826D01*
X328260D01*
X328060Y511011D01*
X327903Y511168D01*
X327846Y511211D01*
X327803Y511254D01*
X327775Y511268D01*
X327761Y511282D01*
X327661Y511354D01*
X327532Y511454D01*
X327389Y511554D01*
X327247Y511654D01*
X327118Y511754D01*
X327004Y511825D01*
X326933Y511882D01*
X326904Y511896D01*
X326704Y512039D01*
X326533Y512168D01*
X326376Y512310D01*
X326219Y512439D01*
X325962Y512667D01*
X325762Y512867D01*
X325605Y513038D01*
X325505Y513167D01*
X325434Y513252D01*
X325420Y513281D01*
X325277Y513524D01*
X325177Y513766D01*
X325106Y513980D01*
X325063Y514180D01*
X325020Y514352D01*
X325005Y514494D01*
Y514580D01*
Y514594D01*
Y514608D01*
X325020Y514851D01*
X325063Y515065D01*
X325120Y515279D01*
X325177Y515451D01*
X325248Y515593D01*
X325305Y515708D01*
X325348Y515765D01*
X325362Y515793D01*
X325505Y515979D01*
X325662Y516136D01*
X325834Y516279D01*
X325990Y516379D01*
X326133Y516464D01*
X326247Y516535D01*
X326319Y516564D01*
X326333Y516578D01*
X326347D01*
X326604Y516664D01*
X326875Y516721D01*
X327161Y516778D01*
X327447Y516807D01*
X327689Y516821D01*
X327803D01*
X327889Y516835D01*
X328075D01*
X328460Y516821D01*
D02*
G37*
G36*
X336954Y509098D02*
X334398D01*
X331572Y516707D01*
X333970D01*
X335654Y511225D01*
X337368Y516707D01*
X339823D01*
X336954Y509098D01*
D02*
G37*
G36*
X399477Y511097D02*
X399463Y510711D01*
X399406Y510383D01*
X399320Y510112D01*
X399235Y509883D01*
X399149Y509712D01*
X399063Y509584D01*
X399006Y509512D01*
X398992Y509484D01*
X398792Y509313D01*
X398564Y509184D01*
X398335Y509098D01*
X398121Y509041D01*
X397921Y508998D01*
X397764Y508984D01*
X397707Y508970D01*
X397621D01*
X397379Y508984D01*
X397179Y509013D01*
X396979Y509041D01*
X396822Y509084D01*
X396694Y509127D01*
X396608Y509170D01*
X396537Y509184D01*
X396522Y509198D01*
X396351Y509298D01*
X396194Y509412D01*
X396037Y509541D01*
X395894Y509684D01*
X395780Y509798D01*
X395694Y509898D01*
X395637Y509955D01*
X395623Y509983D01*
Y509098D01*
X393639D01*
Y514608D01*
X395751D01*
Y511953D01*
X395766Y511696D01*
X395794Y511468D01*
X395823Y511297D01*
X395866Y511154D01*
X395923Y511040D01*
X395951Y510968D01*
X395980Y510926D01*
X395994Y510911D01*
X396094Y510811D01*
X396194Y510740D01*
X396294Y510697D01*
X396394Y510669D01*
X396494Y510640D01*
X396551Y510626D01*
X396622D01*
X396736Y510640D01*
X396851Y510654D01*
X396950Y510697D01*
X397022Y510740D01*
X397079Y510769D01*
X397122Y510811D01*
X397150Y510826D01*
X397165Y510840D01*
X397222Y510940D01*
X397265Y511040D01*
X397322Y511282D01*
X397336Y511397D01*
X397350Y511482D01*
Y511539D01*
Y511568D01*
Y514608D01*
X399477D01*
Y511097D01*
D02*
G37*
G36*
X374439Y514723D02*
X374682Y514708D01*
X374925Y514666D01*
X375139Y514608D01*
X375339Y514551D01*
X375524Y514480D01*
X375695Y514409D01*
X375852Y514337D01*
X375995Y514252D01*
X376109Y514180D01*
X376209Y514109D01*
X376295Y514052D01*
X376366Y513995D01*
X376409Y513952D01*
X376438Y513938D01*
X376452Y513923D01*
X376595Y513766D01*
X376723Y513609D01*
X376837Y513438D01*
X376923Y513267D01*
X377009Y513081D01*
X377080Y512910D01*
X377180Y512581D01*
X377209Y512424D01*
X377237Y512282D01*
X377251Y512168D01*
X377266Y512053D01*
X377280Y511968D01*
Y511896D01*
Y511853D01*
Y511839D01*
X377266Y511511D01*
X377223Y511211D01*
X377151Y510940D01*
X377080Y510711D01*
X377009Y510512D01*
X376937Y510369D01*
X376923Y510326D01*
X376894Y510283D01*
X376880Y510269D01*
Y510255D01*
X376723Y510026D01*
X376538Y509812D01*
X376366Y509655D01*
X376209Y509512D01*
X376052Y509398D01*
X375938Y509327D01*
X375867Y509284D01*
X375838Y509270D01*
X375581Y509170D01*
X375296Y509098D01*
X375010Y509041D01*
X374725Y509013D01*
X374482Y508984D01*
X374368D01*
X374282Y508970D01*
X374097D01*
X373654Y508984D01*
X373269Y509027D01*
X373097Y509056D01*
X372940Y509084D01*
X372798Y509113D01*
X372655Y509156D01*
X372541Y509184D01*
X372441Y509213D01*
X372369Y509241D01*
X372298Y509270D01*
X372241Y509298D01*
X372198Y509313D01*
X372184Y509327D01*
X372169D01*
X371927Y509484D01*
X371698Y509669D01*
X371499Y509869D01*
X371327Y510055D01*
X371185Y510240D01*
X371085Y510383D01*
X371042Y510440D01*
X371027Y510483D01*
X370999Y510512D01*
Y510526D01*
X373083Y510711D01*
X373154Y510626D01*
X373226Y510554D01*
X373340Y510440D01*
X373426Y510369D01*
X373440Y510355D01*
X373454D01*
X373668Y510269D01*
X373854Y510226D01*
X373940D01*
X373997Y510212D01*
X374054D01*
X374225Y510226D01*
X374382Y510269D01*
X374525Y510326D01*
X374639Y510397D01*
X374725Y510454D01*
X374796Y510512D01*
X374839Y510554D01*
X374853Y510569D01*
X374925Y510669D01*
X374982Y510783D01*
X375067Y511040D01*
X375096Y511154D01*
X375110Y511240D01*
X375124Y511297D01*
Y511325D01*
X370885D01*
Y511554D01*
X370899Y511939D01*
X370942Y512296D01*
X370999Y512596D01*
X371070Y512853D01*
X371142Y513052D01*
X371170Y513138D01*
X371199Y513195D01*
X371227Y513252D01*
X371242Y513295D01*
X371256Y513310D01*
Y513324D01*
X371399Y513566D01*
X371570Y513781D01*
X371741Y513952D01*
X371912Y514109D01*
X372055Y514223D01*
X372184Y514294D01*
X372269Y514352D01*
X372284Y514366D01*
X372298D01*
X372569Y514494D01*
X372883Y514580D01*
X373197Y514651D01*
X373483Y514694D01*
X373754Y514723D01*
X373868D01*
X373968Y514737D01*
X374168D01*
X374439Y514723D01*
D02*
G37*
G36*
X407000Y509098D02*
X404630D01*
Y511925D01*
X403360D01*
X403103Y511939D01*
X402860Y511953D01*
X402632Y511982D01*
X402432Y512025D01*
X402232Y512068D01*
X402061Y512125D01*
X401904Y512182D01*
X401761Y512253D01*
X401647Y512310D01*
X401533Y512367D01*
X401447Y512424D01*
X401376Y512467D01*
X401319Y512510D01*
X401276Y512539D01*
X401261Y512567D01*
X401247D01*
X401119Y512696D01*
X401019Y512824D01*
X400919Y512967D01*
X400848Y513124D01*
X400719Y513424D01*
X400633Y513709D01*
X400591Y513966D01*
X400562Y514080D01*
Y514180D01*
X400548Y514252D01*
Y514309D01*
Y514352D01*
Y514366D01*
Y514566D01*
X400576Y514766D01*
X400648Y515108D01*
X400748Y515408D01*
X400862Y515650D01*
X400990Y515836D01*
X401090Y515979D01*
X401162Y516064D01*
X401176Y516093D01*
X401190D01*
X401319Y516207D01*
X401461Y516293D01*
X401761Y516450D01*
X402075Y516564D01*
X402389Y516636D01*
X402660Y516678D01*
X402789Y516693D01*
X402889D01*
X402975Y516707D01*
X407000D01*
Y509098D01*
D02*
G37*
G36*
X389185Y514723D02*
X389328Y514708D01*
X389456Y514666D01*
X389571Y514623D01*
X389656Y514580D01*
X389728Y514551D01*
X389770Y514523D01*
X389785Y514509D01*
X389899Y514409D01*
X389999Y514294D01*
X390184Y514023D01*
X390270Y513895D01*
X390327Y513795D01*
X390356Y513723D01*
X390370Y513695D01*
Y514608D01*
X392340D01*
Y509098D01*
X390213D01*
Y510940D01*
Y511183D01*
X390199Y511397D01*
X390184Y511596D01*
X390170Y511782D01*
X390141Y511953D01*
X390113Y512096D01*
X390084Y512225D01*
X390056Y512339D01*
X390027Y512439D01*
X389999Y512524D01*
X389970Y512596D01*
X389942Y512653D01*
X389913Y512724D01*
X389899Y512753D01*
X389799Y512867D01*
X389699Y512953D01*
X389599Y513010D01*
X389485Y513052D01*
X389399Y513081D01*
X389328Y513095D01*
X389171D01*
X389071Y513067D01*
X388871Y513024D01*
X388785Y512995D01*
X388714Y512967D01*
X388671Y512953D01*
X388657Y512938D01*
X388000Y514437D01*
X388200Y514537D01*
X388400Y514608D01*
X388571Y514666D01*
X388728Y514694D01*
X388843Y514723D01*
X388942Y514737D01*
X389028D01*
X389185Y514723D01*
D02*
G37*
G36*
X380477Y509098D02*
X378365D01*
Y516707D01*
X380477D01*
Y509098D01*
D02*
G37*
G36*
X366245D02*
X359822D01*
Y510826D01*
X363890D01*
Y512324D01*
X360221D01*
Y513881D01*
X363890D01*
Y515079D01*
X359936D01*
Y516707D01*
X366245D01*
Y509098D01*
D02*
G37*
G36*
X359094Y514823D02*
X356696D01*
Y509098D01*
X354340D01*
Y514823D01*
X351942D01*
Y516707D01*
X359094D01*
Y514823D01*
D02*
G37*
G36*
X350872Y509098D02*
X346703D01*
X346546Y509113D01*
X346375Y509127D01*
X346204Y509156D01*
X346032Y509170D01*
X345904Y509184D01*
X345847D01*
X345804Y509198D01*
X345775D01*
X345561Y509227D01*
X345376Y509270D01*
X345233Y509313D01*
X345104Y509341D01*
X345005Y509384D01*
X344933Y509412D01*
X344890Y509441D01*
X344876D01*
X344705Y509555D01*
X344562Y509684D01*
X344434Y509812D01*
X344334Y509926D01*
X344248Y510041D01*
X344177Y510126D01*
X344148Y510183D01*
X344134Y510198D01*
X344034Y510383D01*
X343963Y510569D01*
X343920Y510740D01*
X343877Y510911D01*
X343863Y511054D01*
X343848Y511168D01*
Y511240D01*
Y511268D01*
X343863Y511525D01*
X343905Y511768D01*
X343977Y511968D01*
X344048Y512139D01*
X344119Y512282D01*
X344191Y512382D01*
X344234Y512453D01*
X344248Y512467D01*
X344405Y512639D01*
X344605Y512781D01*
X344805Y512896D01*
X345005Y512995D01*
X345176Y513067D01*
X345319Y513110D01*
X345376Y513138D01*
X345419D01*
X345447Y513152D01*
X345461D01*
X345276Y513224D01*
X345104Y513310D01*
X344962Y513395D01*
X344847Y513466D01*
X344748Y513538D01*
X344691Y513595D01*
X344648Y513638D01*
X344633Y513652D01*
X344491Y513838D01*
X344391Y514038D01*
X344305Y514237D01*
X344262Y514409D01*
X344234Y514566D01*
X344205Y514694D01*
Y514780D01*
Y514794D01*
Y514808D01*
X344234Y515094D01*
X344305Y515351D01*
X344391Y515579D01*
X344505Y515779D01*
X344619Y515936D01*
X344705Y516050D01*
X344776Y516122D01*
X344805Y516150D01*
X345047Y516336D01*
X345319Y516479D01*
X345590Y516578D01*
X345861Y516636D01*
X346104Y516678D01*
X346218Y516693D01*
X346303D01*
X346389Y516707D01*
X350872D01*
Y509098D01*
D02*
G37*
G36*
X323849Y509098D02*
X321594D01*
Y511211D01*
X323849D01*
Y509098D01*
D02*
G37*
G36*
X317640Y516821D02*
X317911Y516792D01*
X318168Y516750D01*
X318396Y516707D01*
X318610Y516636D01*
X318810Y516564D01*
X318982Y516478D01*
X319139Y516407D01*
X319281Y516321D01*
X319410Y516236D01*
X319510Y516164D01*
X319595Y516107D01*
X319653Y516050D01*
X319695Y516007D01*
X319724Y515979D01*
X319738Y515965D01*
X319867Y515793D01*
X319995Y515579D01*
X320095Y515365D01*
X320181Y515122D01*
X320323Y514623D01*
X320409Y514123D01*
X320438Y513880D01*
X320466Y513652D01*
X320480Y513452D01*
X320495Y513281D01*
X320509Y513124D01*
Y513024D01*
Y512953D01*
Y512924D01*
Y512596D01*
X320480Y512296D01*
X320466Y512025D01*
X320438Y511782D01*
X320409Y511582D01*
X320395Y511439D01*
X320381Y511382D01*
X320366Y511339D01*
Y511325D01*
Y511311D01*
X320309Y511054D01*
X320238Y510826D01*
X320166Y510626D01*
X320095Y510469D01*
X320038Y510340D01*
X319981Y510240D01*
X319952Y510183D01*
X319938Y510169D01*
X319781Y509955D01*
X319624Y509769D01*
X319467Y509627D01*
X319310Y509498D01*
X319167Y509398D01*
X319067Y509327D01*
X318996Y509284D01*
X318967Y509270D01*
X318739Y509170D01*
X318482Y509098D01*
X318211Y509041D01*
X317968Y509013D01*
X317754Y508984D01*
X317654D01*
X317568Y508970D01*
X317411D01*
X317097Y508984D01*
X316826Y509013D01*
X316555Y509055D01*
X316327Y509127D01*
X316098Y509198D01*
X315912Y509270D01*
X315727Y509355D01*
X315570Y509455D01*
X315441Y509541D01*
X315327Y509627D01*
X315227Y509698D01*
X315142Y509784D01*
X315085Y509841D01*
X315042Y509883D01*
X315028Y509912D01*
X315013Y509926D01*
X314885Y510112D01*
X314771Y510326D01*
X314685Y510554D01*
X314599Y510797D01*
X314471Y511311D01*
X314385Y511796D01*
X314356Y512025D01*
X314342Y512253D01*
X314314Y512439D01*
Y512610D01*
X314299Y512753D01*
Y512867D01*
Y512924D01*
Y512953D01*
X314314Y513295D01*
X314328Y513624D01*
X314371Y513923D01*
X314399Y514180D01*
X314442Y514409D01*
X314457Y514494D01*
X314485Y514580D01*
X314499Y514637D01*
Y514680D01*
X314514Y514708D01*
Y514723D01*
X314556Y514894D01*
X314613Y515037D01*
X314656Y515165D01*
X314699Y515294D01*
X314742Y515379D01*
X314785Y515451D01*
X314799Y515494D01*
X314813Y515508D01*
X314956Y515750D01*
X315042Y515850D01*
X315113Y515950D01*
X315184Y516022D01*
X315242Y516079D01*
X315284Y516122D01*
X315299Y516136D01*
X315427Y516250D01*
X315556Y516350D01*
X315698Y516436D01*
X315827Y516507D01*
X315941Y516564D01*
X316027Y516607D01*
X316084Y516621D01*
X316112Y516636D01*
X316298Y516707D01*
X316512Y516750D01*
X316712Y516792D01*
X316912Y516807D01*
X317083Y516821D01*
X317226Y516835D01*
X317354D01*
X317640Y516821D01*
D02*
G37*
G36*
X384089Y514723D02*
X384289Y514694D01*
X384460Y514651D01*
X384617Y514608D01*
X384731Y514566D01*
X384831Y514523D01*
X384888Y514494D01*
X384917Y514480D01*
X385045Y514394D01*
X385174Y514294D01*
X385302Y514180D01*
X385416Y514066D01*
X385516Y513952D01*
X385588Y513866D01*
X385645Y513809D01*
X385659Y513781D01*
Y514608D01*
X387643D01*
Y507000D01*
X385502D01*
Y509627D01*
X385388Y509512D01*
X385260Y509412D01*
X385131Y509327D01*
X385031Y509255D01*
X384931Y509198D01*
X384860Y509156D01*
X384803Y509141D01*
X384788Y509127D01*
X384631Y509070D01*
X384474Y509041D01*
X384332Y509013D01*
X384189Y508984D01*
X384075D01*
X383989Y508970D01*
X383903D01*
X383718Y508984D01*
X383546Y508998D01*
X383218Y509084D01*
X382933Y509198D01*
X382690Y509327D01*
X382490Y509455D01*
X382347Y509570D01*
X382305Y509612D01*
X382262Y509655D01*
X382248Y509669D01*
X382233Y509684D01*
X382119Y509826D01*
X382005Y509983D01*
X381848Y510326D01*
X381719Y510669D01*
X381648Y511011D01*
X381619Y511168D01*
X381591Y511325D01*
X381577Y511454D01*
Y511568D01*
X381562Y511668D01*
Y511739D01*
Y511782D01*
Y511796D01*
Y512025D01*
X381591Y512239D01*
X381662Y512653D01*
X381762Y512995D01*
X381805Y513167D01*
X381862Y513310D01*
X381919Y513438D01*
X381976Y513552D01*
X382033Y513652D01*
X382076Y513723D01*
X382119Y513795D01*
X382148Y513838D01*
X382162Y513866D01*
X382176Y513881D01*
X382290Y514038D01*
X382419Y514166D01*
X382561Y514280D01*
X382690Y514380D01*
X382833Y514466D01*
X382976Y514523D01*
X383261Y514637D01*
X383504Y514694D01*
X383618Y514708D01*
X383703Y514723D01*
X383775Y514737D01*
X383889D01*
X384089Y514723D01*
D02*
G37*
G36*
X420829Y324919D02*
Y321736D01*
X418474D01*
Y324919D01*
X415519Y329344D01*
X418131D01*
X419658Y326789D01*
X421186Y329344D01*
X423798D01*
X420829Y324919D01*
D02*
G37*
G36*
X412207Y329216D02*
X412350Y328973D01*
X412507Y328773D01*
X412664Y328588D01*
X412792Y328445D01*
X412906Y328345D01*
X412978Y328288D01*
X413006Y328260D01*
X413249Y328088D01*
X413520Y327931D01*
X413791Y327789D01*
X414063Y327660D01*
X414305Y327560D01*
X414405Y327532D01*
X414505Y327489D01*
X414576Y327460D01*
X414634Y327446D01*
X414662Y327432D01*
X414676D01*
Y325704D01*
X414420Y325790D01*
X414177Y325861D01*
X413977Y325947D01*
X413791Y326018D01*
X413649Y326076D01*
X413549Y326118D01*
X413492Y326147D01*
X413463Y326161D01*
X413278Y326261D01*
X413106Y326361D01*
X412935Y326475D01*
X412778Y326575D01*
X412635Y326661D01*
X412535Y326732D01*
X412478Y326789D01*
X412449Y326804D01*
Y321736D01*
X410308D01*
Y329473D01*
X412064D01*
X412207Y329216D01*
D02*
G37*
G36*
X362509Y348723D02*
X362766Y348694D01*
X363023Y348651D01*
X363251Y348580D01*
X363465Y348508D01*
X363665Y348437D01*
X363851Y348337D01*
X364008Y348252D01*
X364150Y348166D01*
X364279Y348080D01*
X364393Y347995D01*
X364479Y347923D01*
X364550Y347852D01*
X364593Y347809D01*
X364621Y347780D01*
X364636Y347766D01*
X364793Y347581D01*
X364921Y347367D01*
X365035Y347138D01*
X365135Y346895D01*
X365207Y346638D01*
X365278Y346396D01*
X365378Y345896D01*
X365421Y345668D01*
X365449Y345454D01*
X365464Y345254D01*
X365478Y345097D01*
X365492Y344954D01*
Y344840D01*
Y344783D01*
Y344754D01*
X365478Y344255D01*
X365449Y344026D01*
X365435Y343812D01*
X365392Y343612D01*
X365364Y343427D01*
X365335Y343255D01*
X365292Y343098D01*
X365249Y342970D01*
X365221Y342841D01*
X365178Y342742D01*
X365150Y342656D01*
X365135Y342584D01*
X365107Y342542D01*
X365093Y342513D01*
Y342499D01*
X364921Y342199D01*
X364750Y341942D01*
X364564Y341728D01*
X364393Y341557D01*
X364236Y341428D01*
X364108Y341328D01*
X364022Y341271D01*
X364008Y341257D01*
X363993D01*
X363708Y341129D01*
X363408Y341029D01*
X363108Y340971D01*
X362808Y340914D01*
X362552Y340886D01*
X362437D01*
X362337Y340872D01*
X362152D01*
X361809Y340886D01*
X361495Y340914D01*
X361224Y340971D01*
X360996Y341029D01*
X360810Y341086D01*
X360682Y341143D01*
X360596Y341171D01*
X360567Y341186D01*
X360339Y341314D01*
X360139Y341457D01*
X359968Y341614D01*
X359825Y341771D01*
X359711Y341899D01*
X359640Y342014D01*
X359582Y342085D01*
X359568Y342113D01*
X359454Y342356D01*
X359368Y342599D01*
X359297Y342827D01*
X359254Y343041D01*
X359226Y343227D01*
X359211Y343370D01*
Y343427D01*
Y343470D01*
Y343484D01*
Y343498D01*
X359226Y343698D01*
X359240Y343898D01*
X359325Y344255D01*
X359440Y344569D01*
X359568Y344840D01*
X359697Y345054D01*
X359754Y345140D01*
X359811Y345211D01*
X359854Y345268D01*
X359897Y345311D01*
X359911Y345325D01*
X359925Y345340D01*
X360053Y345468D01*
X360196Y345582D01*
X360339Y345682D01*
X360496Y345768D01*
X360782Y345896D01*
X361053Y345982D01*
X361295Y346025D01*
X361395Y346039D01*
X361481Y346053D01*
X361552Y346068D01*
X361652D01*
X361838Y346053D01*
X362023Y346039D01*
X362180Y346011D01*
X362309Y345982D01*
X362423Y345939D01*
X362509Y345910D01*
X362566Y345896D01*
X362580Y345882D01*
X362723Y345811D01*
X362866Y345711D01*
X362994Y345625D01*
X363108Y345525D01*
X363208Y345439D01*
X363280Y345368D01*
X363337Y345325D01*
X363351Y345311D01*
X363337Y345525D01*
X363308Y345739D01*
X363294Y345910D01*
X363265Y346082D01*
X363237Y346225D01*
X363223Y346353D01*
X363194Y346467D01*
X363165Y346567D01*
X363151Y346653D01*
X363123Y346724D01*
X363080Y346838D01*
X363065Y346895D01*
X363051Y346910D01*
X362937Y347081D01*
X362808Y347210D01*
X362666Y347309D01*
X362537Y347367D01*
X362423Y347409D01*
X362323Y347424D01*
X362266Y347438D01*
X362238D01*
X362138Y347424D01*
X362038Y347409D01*
X361881Y347352D01*
X361824Y347309D01*
X361781Y347281D01*
X361767Y347267D01*
X361752Y347252D01*
X361681Y347167D01*
X361624Y347081D01*
X361538Y346867D01*
X361510Y346781D01*
X361481Y346696D01*
X361467Y346638D01*
Y346624D01*
X359368Y346881D01*
X359440Y347095D01*
X359525Y347295D01*
X359625Y347467D01*
X359711Y347623D01*
X359782Y347738D01*
X359854Y347823D01*
X359897Y347881D01*
X359911Y347895D01*
X360039Y348037D01*
X360196Y348166D01*
X360339Y348280D01*
X360467Y348366D01*
X360596Y348437D01*
X360696Y348480D01*
X360753Y348508D01*
X360782Y348523D01*
X360996Y348594D01*
X361224Y348651D01*
X361467Y348680D01*
X361695Y348708D01*
X361909Y348723D01*
X362066Y348737D01*
X362223D01*
X362509Y348723D01*
D02*
G37*
G36*
X374000Y344069D02*
X373986Y343855D01*
X373971Y343641D01*
X373929Y343412D01*
X373886Y343213D01*
X373857Y343041D01*
X373814Y342913D01*
X373800Y342856D01*
Y342813D01*
X373786Y342799D01*
Y342784D01*
X373729Y342613D01*
X373657Y342456D01*
X373572Y342299D01*
X373486Y342170D01*
X373415Y342056D01*
X373343Y341971D01*
X373301Y341914D01*
X373286Y341899D01*
X373144Y341757D01*
X373001Y341628D01*
X372872Y341514D01*
X372744Y341414D01*
X372644Y341343D01*
X372558Y341286D01*
X372501Y341257D01*
X372487Y341243D01*
X372316Y341171D01*
X372130Y341100D01*
X371944Y341043D01*
X371773Y341014D01*
X371616Y340971D01*
X371502Y340957D01*
X371416Y340943D01*
X371388D01*
X371145Y340914D01*
X370917Y340900D01*
X370717Y340886D01*
X370531D01*
X370388Y340872D01*
X370174D01*
X369818Y340886D01*
X369503Y340914D01*
X369218Y340943D01*
X368975Y341000D01*
X368790Y341043D01*
X368647Y341071D01*
X368590Y341086D01*
X368547Y341100D01*
X368533Y341114D01*
X368518D01*
X368333Y341200D01*
X368162Y341286D01*
X368005Y341400D01*
X367876Y341500D01*
X367762Y341600D01*
X367662Y341671D01*
X367605Y341728D01*
X367591Y341742D01*
X367434Y341914D01*
X367291Y342099D01*
X367177Y342285D01*
X367077Y342442D01*
X367005Y342584D01*
X366963Y342699D01*
X366934Y342770D01*
X366920Y342799D01*
X366848Y343027D01*
X366791Y343255D01*
X366763Y343470D01*
X366734Y343655D01*
X366720Y343826D01*
X366706Y343955D01*
Y344040D01*
Y344055D01*
Y344069D01*
Y348609D01*
X369047D01*
Y343955D01*
X369061Y343727D01*
X369104Y343541D01*
X369161Y343370D01*
X369218Y343241D01*
X369289Y343127D01*
X369346Y343041D01*
X369389Y342999D01*
X369403Y342984D01*
X369546Y342870D01*
X369703Y342784D01*
X369860Y342727D01*
X370003Y342684D01*
X370146Y342656D01*
X370260Y342642D01*
X370360D01*
X370574Y342656D01*
X370774Y342699D01*
X370931Y342756D01*
X371074Y342813D01*
X371174Y342870D01*
X371259Y342927D01*
X371302Y342970D01*
X371316Y342984D01*
X371431Y343127D01*
X371516Y343284D01*
X371573Y343455D01*
X371616Y343598D01*
X371645Y343741D01*
X371659Y343855D01*
Y343926D01*
Y343955D01*
Y348609D01*
X374000D01*
Y344069D01*
D02*
G37*
G36*
X246222Y259480D02*
X246365Y259237D01*
X246522Y259037D01*
X246679Y258852D01*
X246808Y258709D01*
X246922Y258609D01*
X246993Y258552D01*
X247022Y258524D01*
X247265Y258352D01*
X247536Y258195D01*
X247807Y258053D01*
X248078Y257924D01*
X248321Y257824D01*
X248421Y257796D01*
X248521Y257753D01*
X248592Y257724D01*
X248649Y257710D01*
X248678Y257696D01*
X248692D01*
Y255968D01*
X248435Y256054D01*
X248192Y256125D01*
X247993Y256211D01*
X247807Y256282D01*
X247664Y256339D01*
X247564Y256382D01*
X247507Y256411D01*
X247479Y256425D01*
X247293Y256525D01*
X247122Y256625D01*
X246950Y256739D01*
X246793Y256839D01*
X246651Y256925D01*
X246551Y256996D01*
X246494Y257053D01*
X246465Y257068D01*
Y252000D01*
X244324D01*
Y259737D01*
X246080D01*
X246222Y259480D01*
D02*
G37*
G36*
X239128D02*
X239271Y259237D01*
X239428Y259037D01*
X239585Y258852D01*
X239713Y258709D01*
X239827Y258609D01*
X239899Y258552D01*
X239927Y258524D01*
X240170Y258352D01*
X240441Y258195D01*
X240712Y258053D01*
X240984Y257924D01*
X241226Y257824D01*
X241326Y257796D01*
X241426Y257753D01*
X241498Y257724D01*
X241555Y257710D01*
X241583Y257696D01*
X241597D01*
Y255968D01*
X241341Y256054D01*
X241098Y256125D01*
X240898Y256211D01*
X240712Y256282D01*
X240570Y256339D01*
X240470Y256382D01*
X240413Y256411D01*
X240384Y256425D01*
X240199Y256525D01*
X240027Y256625D01*
X239856Y256739D01*
X239699Y256839D01*
X239556Y256925D01*
X239456Y256996D01*
X239399Y257053D01*
X239371Y257068D01*
Y252000D01*
X237229D01*
Y259737D01*
X238985D01*
X239128Y259480D01*
D02*
G37*
G36*
X257000Y252000D02*
X254630D01*
Y255083D01*
X254431D01*
X254316Y255069D01*
X254202Y255055D01*
X254116Y255026D01*
X254031Y254998D01*
X253960Y254955D01*
X253902Y254926D01*
X253874Y254912D01*
X253860Y254898D01*
X253788Y254841D01*
X253717Y254755D01*
X253574Y254555D01*
X253517Y254470D01*
X253474Y254384D01*
X253446Y254327D01*
X253431Y254312D01*
X252189Y252000D01*
X249520D01*
X250662Y254198D01*
X250705Y254270D01*
X250748Y254341D01*
X250862Y254484D01*
X250905Y254555D01*
X250947Y254612D01*
X250976Y254641D01*
X250990Y254655D01*
X251076Y254769D01*
X251147Y254855D01*
X251219Y254926D01*
X251262Y254983D01*
X251304Y255026D01*
X251333Y255055D01*
X251361Y255069D01*
X251447Y255126D01*
X251547Y255169D01*
X251747Y255255D01*
X251833Y255298D01*
X251904Y255312D01*
X251961Y255340D01*
X251975D01*
X251790Y255397D01*
X251618Y255440D01*
X251476Y255497D01*
X251361Y255540D01*
X251276Y255583D01*
X251204Y255626D01*
X251162Y255640D01*
X251147Y255654D01*
X250976Y255769D01*
X250833Y255897D01*
X250705Y256011D01*
X250605Y256140D01*
X250519Y256240D01*
X250448Y256325D01*
X250419Y256382D01*
X250405Y256397D01*
X250319Y256568D01*
X250248Y256754D01*
X250205Y256939D01*
X250162Y257110D01*
X250148Y257253D01*
X250134Y257382D01*
Y257453D01*
Y257481D01*
X250148Y257738D01*
X250191Y257981D01*
X250248Y258195D01*
X250305Y258367D01*
X250376Y258509D01*
X250434Y258624D01*
X250476Y258681D01*
X250491Y258709D01*
X250633Y258881D01*
X250791Y259037D01*
X250947Y259152D01*
X251090Y259252D01*
X251233Y259323D01*
X251333Y259366D01*
X251404Y259394D01*
X251433Y259409D01*
X251661Y259480D01*
X251932Y259523D01*
X252204Y259566D01*
X252475Y259580D01*
X252718Y259594D01*
X252817Y259608D01*
X257000D01*
Y252000D01*
D02*
G37*
G36*
X308994Y475723D02*
X309294Y475680D01*
X309565Y475637D01*
X309793Y475580D01*
X309979Y475508D01*
X310108Y475466D01*
X310193Y475423D01*
X310208Y475409D01*
X310222D01*
X310450Y475280D01*
X310636Y475123D01*
X310807Y474966D01*
X310950Y474823D01*
X311064Y474681D01*
X311135Y474566D01*
X311192Y474495D01*
X311207Y474481D01*
Y474467D01*
X311321Y474238D01*
X311407Y473995D01*
X311478Y473767D01*
X311521Y473553D01*
X311549Y473367D01*
X311564Y473225D01*
Y473167D01*
Y473125D01*
Y473110D01*
Y473096D01*
X311549Y472896D01*
X311535Y472696D01*
X311449Y472340D01*
X311335Y472025D01*
X311207Y471754D01*
X311078Y471540D01*
X311021Y471455D01*
X310978Y471383D01*
X310921Y471326D01*
X310893Y471283D01*
X310878Y471269D01*
X310864Y471255D01*
X310736Y471126D01*
X310593Y471026D01*
X310450Y470926D01*
X310307Y470841D01*
X310008Y470712D01*
X309751Y470627D01*
X309508Y470584D01*
X309408Y470569D01*
X309322Y470555D01*
X309251Y470541D01*
X309151D01*
X308966Y470555D01*
X308780Y470569D01*
X308623Y470598D01*
X308494Y470627D01*
X308380Y470655D01*
X308295Y470684D01*
X308238Y470712D01*
X308223D01*
X308081Y470784D01*
X307938Y470883D01*
X307795Y470969D01*
X307681Y471069D01*
X307581Y471155D01*
X307509Y471226D01*
X307452Y471269D01*
X307438Y471283D01*
X307467Y471069D01*
X307481Y470869D01*
X307509Y470684D01*
X307538Y470512D01*
X307567Y470370D01*
X307581Y470241D01*
X307610Y470127D01*
X307638Y470027D01*
X307667Y469941D01*
X307681Y469870D01*
X307724Y469756D01*
X307738Y469699D01*
X307752Y469684D01*
X307866Y469513D01*
X307995Y469385D01*
X308123Y469299D01*
X308252Y469242D01*
X308380Y469199D01*
X308466Y469185D01*
X308523Y469170D01*
X308552D01*
X308652Y469185D01*
X308752Y469199D01*
X308894Y469256D01*
X308951Y469285D01*
X308994Y469313D01*
X309023Y469342D01*
X309037D01*
X309108Y469427D01*
X309165Y469527D01*
X309251Y469727D01*
X309280Y469827D01*
X309294Y469913D01*
X309308Y469970D01*
Y469984D01*
X311407Y469713D01*
X311335Y469499D01*
X311250Y469299D01*
X311164Y469113D01*
X311078Y468971D01*
X310993Y468842D01*
X310935Y468757D01*
X310893Y468699D01*
X310878Y468685D01*
X310736Y468542D01*
X310593Y468428D01*
X310450Y468314D01*
X310307Y468228D01*
X310193Y468157D01*
X310093Y468114D01*
X310036Y468086D01*
X310008Y468071D01*
X309793Y468000D01*
X309565Y467957D01*
X309322Y467914D01*
X309094Y467900D01*
X308894Y467886D01*
X308723Y467872D01*
X308580D01*
X308295Y467886D01*
X308038Y467914D01*
X307781Y467957D01*
X307552Y468029D01*
X307338Y468100D01*
X307138Y468171D01*
X306953Y468257D01*
X306796Y468357D01*
X306653Y468442D01*
X306525Y468528D01*
X306410Y468600D01*
X306325Y468685D01*
X306253Y468742D01*
X306210Y468785D01*
X306182Y468814D01*
X306168Y468828D01*
X306011Y469013D01*
X305882Y469228D01*
X305768Y469456D01*
X305668Y469699D01*
X305582Y469956D01*
X305511Y470198D01*
X305411Y470698D01*
X305368Y470926D01*
X305340Y471141D01*
X305326Y471340D01*
X305311Y471497D01*
X305297Y471640D01*
Y471754D01*
Y471811D01*
Y471840D01*
X305311Y472340D01*
X305340Y472568D01*
X305354Y472782D01*
X305397Y472982D01*
X305425Y473167D01*
X305468Y473339D01*
X305497Y473496D01*
X305540Y473624D01*
X305582Y473753D01*
X305611Y473853D01*
X305639Y473938D01*
X305668Y474010D01*
X305697Y474053D01*
X305711Y474081D01*
Y474095D01*
X305882Y474395D01*
X306054Y474652D01*
X306239Y474866D01*
X306425Y475037D01*
X306582Y475166D01*
X306710Y475266D01*
X306796Y475323D01*
X306810Y475337D01*
X306824D01*
X307096Y475466D01*
X307395Y475566D01*
X307709Y475637D01*
X307995Y475694D01*
X308252Y475723D01*
X308366D01*
X308466Y475737D01*
X308652D01*
X308994Y475723D01*
D02*
G37*
G36*
X320000Y471069D02*
X319986Y470855D01*
X319971Y470641D01*
X319929Y470412D01*
X319886Y470213D01*
X319857Y470041D01*
X319814Y469913D01*
X319800Y469856D01*
Y469813D01*
X319786Y469799D01*
Y469784D01*
X319729Y469613D01*
X319657Y469456D01*
X319572Y469299D01*
X319486Y469170D01*
X319415Y469056D01*
X319343Y468971D01*
X319300Y468914D01*
X319286Y468899D01*
X319144Y468757D01*
X319001Y468628D01*
X318872Y468514D01*
X318744Y468414D01*
X318644Y468343D01*
X318558Y468285D01*
X318501Y468257D01*
X318487Y468243D01*
X318316Y468171D01*
X318130Y468100D01*
X317944Y468043D01*
X317773Y468014D01*
X317616Y467971D01*
X317502Y467957D01*
X317416Y467943D01*
X317388D01*
X317145Y467914D01*
X316917Y467900D01*
X316717Y467886D01*
X316531D01*
X316388Y467872D01*
X316174D01*
X315818Y467886D01*
X315503Y467914D01*
X315218Y467943D01*
X314975Y468000D01*
X314790Y468043D01*
X314647Y468071D01*
X314590Y468086D01*
X314547Y468100D01*
X314533Y468114D01*
X314519D01*
X314333Y468200D01*
X314162Y468285D01*
X314005Y468400D01*
X313876Y468500D01*
X313762Y468600D01*
X313662Y468671D01*
X313605Y468728D01*
X313591Y468742D01*
X313434Y468914D01*
X313291Y469099D01*
X313177Y469285D01*
X313077Y469442D01*
X313005Y469585D01*
X312962Y469699D01*
X312934Y469770D01*
X312920Y469799D01*
X312848Y470027D01*
X312791Y470255D01*
X312763Y470470D01*
X312734Y470655D01*
X312720Y470826D01*
X312706Y470955D01*
Y471040D01*
Y471055D01*
Y471069D01*
Y475608D01*
X315047D01*
Y470955D01*
X315061Y470727D01*
X315104Y470541D01*
X315161Y470370D01*
X315218Y470241D01*
X315289Y470127D01*
X315346Y470041D01*
X315389Y469999D01*
X315403Y469984D01*
X315546Y469870D01*
X315703Y469784D01*
X315860Y469727D01*
X316003Y469684D01*
X316146Y469656D01*
X316260Y469642D01*
X316360D01*
X316574Y469656D01*
X316774Y469699D01*
X316931Y469756D01*
X317074Y469813D01*
X317174Y469870D01*
X317259Y469927D01*
X317302Y469970D01*
X317316Y469984D01*
X317430Y470127D01*
X317516Y470284D01*
X317573Y470455D01*
X317616Y470598D01*
X317645Y470741D01*
X317659Y470855D01*
Y470926D01*
Y470955D01*
Y475608D01*
X320000D01*
Y471069D01*
D02*
G37*
G36*
X68609Y157480D02*
X68751Y157237D01*
X68909Y157037D01*
X69065Y156852D01*
X69194Y156709D01*
X69308Y156609D01*
X69380Y156552D01*
X69408Y156524D01*
X69651Y156352D01*
X69922Y156195D01*
X70193Y156053D01*
X70464Y155924D01*
X70707Y155824D01*
X70807Y155796D01*
X70907Y155753D01*
X70978Y155724D01*
X71035Y155710D01*
X71064Y155696D01*
X71078D01*
Y153968D01*
X70821Y154054D01*
X70579Y154125D01*
X70379Y154211D01*
X70193Y154282D01*
X70051Y154340D01*
X69950Y154382D01*
X69893Y154411D01*
X69865Y154425D01*
X69679Y154525D01*
X69508Y154625D01*
X69337Y154739D01*
X69180Y154839D01*
X69037Y154925D01*
X68937Y154996D01*
X68880Y155053D01*
X68851Y155068D01*
Y150000D01*
X66710D01*
Y157737D01*
X68466D01*
X68609Y157480D01*
D02*
G37*
G36*
X80000Y153069D02*
X79986Y152855D01*
X79971Y152641D01*
X79929Y152412D01*
X79886Y152213D01*
X79857Y152041D01*
X79814Y151913D01*
X79800Y151856D01*
Y151813D01*
X79786Y151799D01*
Y151784D01*
X79729Y151613D01*
X79657Y151456D01*
X79572Y151299D01*
X79486Y151171D01*
X79415Y151056D01*
X79343Y150971D01*
X79300Y150914D01*
X79286Y150899D01*
X79144Y150757D01*
X79001Y150628D01*
X78872Y150514D01*
X78744Y150414D01*
X78644Y150343D01*
X78558Y150286D01*
X78501Y150257D01*
X78487Y150243D01*
X78316Y150171D01*
X78130Y150100D01*
X77944Y150043D01*
X77773Y150014D01*
X77616Y149972D01*
X77502Y149957D01*
X77416Y149943D01*
X77388D01*
X77145Y149914D01*
X76917Y149900D01*
X76717Y149886D01*
X76531D01*
X76389Y149872D01*
X76174D01*
X75817Y149886D01*
X75503Y149914D01*
X75218Y149943D01*
X74975Y150000D01*
X74790Y150043D01*
X74647Y150071D01*
X74590Y150086D01*
X74547Y150100D01*
X74533Y150114D01*
X74518D01*
X74333Y150200D01*
X74162Y150286D01*
X74005Y150400D01*
X73876Y150500D01*
X73762Y150599D01*
X73662Y150671D01*
X73605Y150728D01*
X73591Y150742D01*
X73434Y150914D01*
X73291Y151099D01*
X73177Y151285D01*
X73077Y151442D01*
X73005Y151585D01*
X72962Y151699D01*
X72934Y151770D01*
X72920Y151799D01*
X72848Y152027D01*
X72791Y152255D01*
X72763Y152470D01*
X72734Y152655D01*
X72720Y152826D01*
X72706Y152955D01*
Y153041D01*
Y153055D01*
Y153069D01*
Y157608D01*
X75047D01*
Y152955D01*
X75061Y152726D01*
X75104Y152541D01*
X75161Y152370D01*
X75218Y152241D01*
X75289Y152127D01*
X75346Y152041D01*
X75389Y151999D01*
X75403Y151984D01*
X75546Y151870D01*
X75703Y151784D01*
X75860Y151727D01*
X76003Y151684D01*
X76146Y151656D01*
X76260Y151642D01*
X76360D01*
X76574Y151656D01*
X76774Y151699D01*
X76931Y151756D01*
X77074Y151813D01*
X77174Y151870D01*
X77259Y151927D01*
X77302Y151970D01*
X77316Y151984D01*
X77431Y152127D01*
X77516Y152284D01*
X77573Y152455D01*
X77616Y152598D01*
X77645Y152741D01*
X77659Y152855D01*
Y152926D01*
Y152955D01*
Y157608D01*
X80000D01*
Y153069D01*
D02*
G37*
G36*
X200742Y524723D02*
X201071Y524694D01*
X201356Y524651D01*
X201599Y524608D01*
X201785Y524551D01*
X201927Y524509D01*
X202013Y524480D01*
X202027Y524466D01*
X202041D01*
X202256Y524352D01*
X202441Y524237D01*
X202598Y524109D01*
X202741Y523980D01*
X202841Y523866D01*
X202927Y523781D01*
X202969Y523723D01*
X202984Y523695D01*
X203098Y523495D01*
X203198Y523267D01*
X203269Y523038D01*
X203326Y522810D01*
X203369Y522610D01*
X203398Y522453D01*
X203412Y522396D01*
X203426Y522353D01*
Y522324D01*
Y522310D01*
X201313Y522139D01*
X201271Y522367D01*
X201228Y522553D01*
X201171Y522710D01*
X201114Y522824D01*
X201057Y522924D01*
X201014Y522995D01*
X200985Y523024D01*
X200971Y523038D01*
X200871Y523124D01*
X200757Y523181D01*
X200657Y523238D01*
X200543Y523267D01*
X200457Y523281D01*
X200386Y523295D01*
X200314D01*
X200172Y523281D01*
X200057Y523252D01*
X199943Y523209D01*
X199843Y523167D01*
X199772Y523124D01*
X199715Y523081D01*
X199686Y523052D01*
X199672Y523038D01*
X199586Y522938D01*
X199515Y522838D01*
X199472Y522753D01*
X199429Y522653D01*
X199415Y522581D01*
X199401Y522510D01*
Y522467D01*
Y522453D01*
X199415Y522324D01*
X199443Y522210D01*
X199486Y522096D01*
X199529Y521982D01*
X199586Y521896D01*
X199629Y521825D01*
X199658Y521782D01*
X199672Y521768D01*
X199729Y521696D01*
X199800Y521625D01*
X199972Y521454D01*
X200157Y521282D01*
X200357Y521111D01*
X200543Y520968D01*
X200714Y520840D01*
X200771Y520797D01*
X200814Y520754D01*
X200842Y520740D01*
X200857Y520726D01*
X201128Y520512D01*
X201385Y520312D01*
X201613Y520126D01*
X201813Y519941D01*
X202013Y519769D01*
X202170Y519612D01*
X202327Y519455D01*
X202456Y519313D01*
X202570Y519198D01*
X202670Y519084D01*
X202755Y518984D01*
X202812Y518899D01*
X202869Y518842D01*
X202898Y518799D01*
X202927Y518770D01*
Y518756D01*
X203112Y518442D01*
X203269Y518128D01*
X203383Y517842D01*
X203469Y517571D01*
X203526Y517343D01*
X203540Y517243D01*
X203555Y517157D01*
X203569Y517086D01*
X203583Y517043D01*
Y517014D01*
Y517000D01*
X197231D01*
Y518727D01*
X200543D01*
X200343Y518913D01*
X200186Y519070D01*
X200129Y519113D01*
X200086Y519156D01*
X200057Y519170D01*
X200043Y519184D01*
X199943Y519255D01*
X199815Y519355D01*
X199672Y519455D01*
X199529Y519555D01*
X199401Y519655D01*
X199286Y519726D01*
X199215Y519784D01*
X199187Y519798D01*
X198987Y519941D01*
X198815Y520069D01*
X198658Y520212D01*
X198501Y520340D01*
X198244Y520569D01*
X198045Y520769D01*
X197888Y520940D01*
X197788Y521068D01*
X197716Y521154D01*
X197702Y521183D01*
X197559Y521425D01*
X197459Y521668D01*
X197388Y521882D01*
X197345Y522082D01*
X197302Y522253D01*
X197288Y522396D01*
Y522481D01*
Y522496D01*
Y522510D01*
X197302Y522753D01*
X197345Y522967D01*
X197402Y523181D01*
X197459Y523352D01*
X197531Y523495D01*
X197588Y523609D01*
X197631Y523666D01*
X197645Y523695D01*
X197788Y523881D01*
X197945Y524038D01*
X198116Y524180D01*
X198273Y524280D01*
X198416Y524366D01*
X198530Y524437D01*
X198601Y524466D01*
X198616Y524480D01*
X198630D01*
X198887Y524566D01*
X199158Y524623D01*
X199443Y524680D01*
X199729Y524708D01*
X199972Y524723D01*
X200086D01*
X200172Y524737D01*
X200357D01*
X200742Y524723D01*
D02*
G37*
G36*
X219000Y517000D02*
X216630D01*
Y520083D01*
X216430D01*
X216316Y520069D01*
X216202Y520055D01*
X216117Y520026D01*
X216031Y519998D01*
X215959Y519955D01*
X215902Y519926D01*
X215874Y519912D01*
X215860Y519898D01*
X215788Y519841D01*
X215717Y519755D01*
X215574Y519555D01*
X215517Y519469D01*
X215474Y519384D01*
X215446Y519327D01*
X215431Y519313D01*
X214189Y517000D01*
X211520D01*
X212662Y519198D01*
X212705Y519270D01*
X212748Y519341D01*
X212862Y519484D01*
X212905Y519555D01*
X212948Y519612D01*
X212976Y519641D01*
X212990Y519655D01*
X213076Y519769D01*
X213147Y519855D01*
X213219Y519926D01*
X213262Y519983D01*
X213304Y520026D01*
X213333Y520055D01*
X213361Y520069D01*
X213447Y520126D01*
X213547Y520169D01*
X213747Y520255D01*
X213832Y520298D01*
X213904Y520312D01*
X213961Y520340D01*
X213975D01*
X213790Y520397D01*
X213618Y520440D01*
X213476Y520497D01*
X213361Y520540D01*
X213276Y520583D01*
X213204Y520626D01*
X213162Y520640D01*
X213147Y520654D01*
X212976Y520769D01*
X212833Y520897D01*
X212705Y521011D01*
X212605Y521140D01*
X212519Y521240D01*
X212448Y521325D01*
X212419Y521382D01*
X212405Y521397D01*
X212319Y521568D01*
X212248Y521754D01*
X212205Y521939D01*
X212162Y522110D01*
X212148Y522253D01*
X212134Y522382D01*
Y522453D01*
Y522481D01*
X212148Y522738D01*
X212191Y522981D01*
X212248Y523195D01*
X212305Y523367D01*
X212376Y523509D01*
X212434Y523624D01*
X212476Y523681D01*
X212491Y523709D01*
X212633Y523881D01*
X212791Y524038D01*
X212948Y524152D01*
X213090Y524252D01*
X213233Y524323D01*
X213333Y524366D01*
X213404Y524394D01*
X213433Y524409D01*
X213661Y524480D01*
X213932Y524523D01*
X214204Y524566D01*
X214475Y524580D01*
X214718Y524594D01*
X214818Y524608D01*
X219000D01*
Y517000D01*
D02*
G37*
G36*
X211306Y522724D02*
X208908D01*
Y517000D01*
X206552D01*
Y522724D01*
X204154D01*
Y524608D01*
X211306D01*
Y522724D01*
D02*
G37*
G36*
X339222Y228480D02*
X339365Y228237D01*
X339522Y228037D01*
X339679Y227852D01*
X339808Y227709D01*
X339922Y227609D01*
X339993Y227552D01*
X340022Y227524D01*
X340265Y227352D01*
X340536Y227195D01*
X340807Y227052D01*
X341078Y226924D01*
X341321Y226824D01*
X341421Y226796D01*
X341521Y226753D01*
X341592Y226724D01*
X341649Y226710D01*
X341678Y226696D01*
X341692D01*
Y224968D01*
X341435Y225054D01*
X341193Y225125D01*
X340993Y225211D01*
X340807Y225282D01*
X340664Y225340D01*
X340564Y225382D01*
X340507Y225411D01*
X340479Y225425D01*
X340293Y225525D01*
X340122Y225625D01*
X339951Y225739D01*
X339794Y225839D01*
X339651Y225925D01*
X339551Y225996D01*
X339494Y226053D01*
X339465Y226068D01*
Y221000D01*
X337324D01*
Y228737D01*
X339080D01*
X339222Y228480D01*
D02*
G37*
G36*
X350000Y221000D02*
X347630D01*
Y224083D01*
X347430D01*
X347316Y224069D01*
X347202Y224055D01*
X347117Y224026D01*
X347031Y223998D01*
X346959Y223955D01*
X346902Y223926D01*
X346874Y223912D01*
X346860Y223898D01*
X346788Y223841D01*
X346717Y223755D01*
X346574Y223555D01*
X346517Y223470D01*
X346474Y223384D01*
X346446Y223327D01*
X346431Y223312D01*
X345189Y221000D01*
X342520D01*
X343662Y223198D01*
X343705Y223270D01*
X343748Y223341D01*
X343862Y223484D01*
X343905Y223555D01*
X343947Y223612D01*
X343976Y223641D01*
X343990Y223655D01*
X344076Y223769D01*
X344147Y223855D01*
X344219Y223926D01*
X344262Y223983D01*
X344304Y224026D01*
X344333Y224055D01*
X344361Y224069D01*
X344447Y224126D01*
X344547Y224169D01*
X344747Y224255D01*
X344832Y224298D01*
X344904Y224312D01*
X344961Y224340D01*
X344975D01*
X344790Y224397D01*
X344618Y224440D01*
X344476Y224497D01*
X344361Y224540D01*
X344276Y224583D01*
X344204Y224626D01*
X344162Y224640D01*
X344147Y224654D01*
X343976Y224769D01*
X343833Y224897D01*
X343705Y225011D01*
X343605Y225140D01*
X343519Y225240D01*
X343448Y225325D01*
X343419Y225382D01*
X343405Y225397D01*
X343319Y225568D01*
X343248Y225753D01*
X343205Y225939D01*
X343162Y226110D01*
X343148Y226253D01*
X343134Y226382D01*
Y226453D01*
Y226481D01*
X343148Y226738D01*
X343191Y226981D01*
X343248Y227195D01*
X343305Y227367D01*
X343377Y227509D01*
X343434Y227624D01*
X343476Y227681D01*
X343491Y227709D01*
X343633Y227880D01*
X343791Y228037D01*
X343947Y228152D01*
X344090Y228252D01*
X344233Y228323D01*
X344333Y228366D01*
X344404Y228394D01*
X344433Y228409D01*
X344661Y228480D01*
X344933Y228523D01*
X345204Y228566D01*
X345475Y228580D01*
X345718Y228594D01*
X345817Y228608D01*
X350000D01*
Y221000D01*
D02*
G37*
G36*
X335240Y224140D02*
Y222413D01*
X331386D01*
Y221000D01*
X329544D01*
Y222413D01*
X328588D01*
Y224055D01*
X329544D01*
Y228737D01*
X331386D01*
X335240Y224140D01*
D02*
G37*
G36*
X197000Y384000D02*
X194630D01*
Y387083D01*
X194431D01*
X194316Y387069D01*
X194202Y387055D01*
X194116Y387026D01*
X194031Y386998D01*
X193960Y386955D01*
X193902Y386926D01*
X193874Y386912D01*
X193860Y386898D01*
X193788Y386841D01*
X193717Y386755D01*
X193574Y386555D01*
X193517Y386469D01*
X193474Y386384D01*
X193446Y386327D01*
X193431Y386312D01*
X192189Y384000D01*
X189520D01*
X190662Y386198D01*
X190705Y386270D01*
X190748Y386341D01*
X190862Y386484D01*
X190905Y386555D01*
X190947Y386612D01*
X190976Y386641D01*
X190990Y386655D01*
X191076Y386769D01*
X191147Y386855D01*
X191219Y386926D01*
X191262Y386983D01*
X191304Y387026D01*
X191333Y387055D01*
X191362Y387069D01*
X191447Y387126D01*
X191547Y387169D01*
X191747Y387255D01*
X191833Y387298D01*
X191904Y387312D01*
X191961Y387340D01*
X191975D01*
X191790Y387397D01*
X191618Y387440D01*
X191476Y387497D01*
X191362Y387540D01*
X191276Y387583D01*
X191204Y387626D01*
X191162Y387640D01*
X191147Y387654D01*
X190976Y387769D01*
X190833Y387897D01*
X190705Y388011D01*
X190605Y388140D01*
X190519Y388240D01*
X190448Y388325D01*
X190419Y388382D01*
X190405Y388397D01*
X190319Y388568D01*
X190248Y388754D01*
X190205Y388939D01*
X190162Y389110D01*
X190148Y389253D01*
X190134Y389382D01*
Y389453D01*
Y389482D01*
X190148Y389739D01*
X190191Y389981D01*
X190248Y390195D01*
X190305Y390367D01*
X190376Y390509D01*
X190434Y390624D01*
X190476Y390681D01*
X190491Y390709D01*
X190634Y390880D01*
X190791Y391037D01*
X190947Y391152D01*
X191090Y391252D01*
X191233Y391323D01*
X191333Y391366D01*
X191404Y391394D01*
X191433Y391409D01*
X191661Y391480D01*
X191933Y391523D01*
X192204Y391566D01*
X192475Y391580D01*
X192718Y391594D01*
X192817Y391609D01*
X197000D01*
Y384000D01*
D02*
G37*
G36*
X186551Y391723D02*
X186908Y391666D01*
X187222Y391594D01*
X187493Y391508D01*
X187707Y391409D01*
X187793Y391380D01*
X187864Y391337D01*
X187921Y391309D01*
X187964Y391280D01*
X187978Y391266D01*
X187993D01*
X188150Y391152D01*
X188278Y391023D01*
X188407Y390895D01*
X188507Y390766D01*
X188592Y390638D01*
X188664Y390509D01*
X188764Y390252D01*
X188835Y390038D01*
X188849Y389953D01*
X188863Y389867D01*
X188878Y389796D01*
Y389753D01*
Y389724D01*
Y389710D01*
X188863Y389496D01*
X188835Y389296D01*
X188778Y389125D01*
X188721Y388982D01*
X188664Y388853D01*
X188606Y388768D01*
X188578Y388696D01*
X188564Y388682D01*
X188464Y388568D01*
X188349Y388454D01*
X188235Y388354D01*
X188107Y388254D01*
X188007Y388182D01*
X187921Y388125D01*
X187864Y388097D01*
X187836Y388083D01*
X188064Y387983D01*
X188264Y387868D01*
X188435Y387754D01*
X188564Y387640D01*
X188678Y387526D01*
X188749Y387440D01*
X188792Y387383D01*
X188806Y387369D01*
X188906Y387183D01*
X188978Y386998D01*
X189035Y386798D01*
X189063Y386627D01*
X189092Y386469D01*
X189106Y386341D01*
Y386255D01*
Y386241D01*
Y386227D01*
X189092Y385984D01*
X189049Y385742D01*
X189006Y385527D01*
X188935Y385356D01*
X188878Y385199D01*
X188835Y385085D01*
X188792Y385014D01*
X188778Y384985D01*
X188635Y384799D01*
X188492Y384628D01*
X188335Y384485D01*
X188178Y384371D01*
X188035Y384271D01*
X187921Y384214D01*
X187850Y384171D01*
X187821Y384157D01*
X187550Y384057D01*
X187265Y383986D01*
X186951Y383943D01*
X186651Y383914D01*
X186380Y383886D01*
X186265D01*
X186165Y383871D01*
X185723D01*
X185509Y383886D01*
X185309Y383914D01*
X185123Y383943D01*
X184981Y383957D01*
X184866Y383986D01*
X184795Y384000D01*
X184767D01*
X184567Y384043D01*
X184381Y384114D01*
X184210Y384171D01*
X184067Y384243D01*
X183967Y384300D01*
X183881Y384343D01*
X183824Y384371D01*
X183810Y384385D01*
X183667Y384500D01*
X183553Y384614D01*
X183439Y384742D01*
X183339Y384871D01*
X183268Y384985D01*
X183211Y385071D01*
X183182Y385128D01*
X183168Y385156D01*
X183082Y385342D01*
X183011Y385542D01*
X182968Y385713D01*
X182925Y385884D01*
X182911Y386027D01*
X182896Y386127D01*
Y386198D01*
Y386227D01*
X182911Y386441D01*
X182939Y386641D01*
X182996Y386826D01*
X183053Y386983D01*
X183111Y387112D01*
X183168Y387212D01*
X183196Y387269D01*
X183211Y387298D01*
X183339Y387469D01*
X183482Y387626D01*
X183624Y387769D01*
X183782Y387883D01*
X183910Y387968D01*
X184024Y388026D01*
X184096Y388068D01*
X184110Y388083D01*
X184124D01*
X183953Y388197D01*
X183824Y388311D01*
X183696Y388425D01*
X183610Y388525D01*
X183525Y388611D01*
X183482Y388668D01*
X183453Y388711D01*
X183439Y388725D01*
X183339Y388896D01*
X183268Y389067D01*
X183211Y389239D01*
X183182Y389382D01*
X183153Y389510D01*
X183139Y389610D01*
Y389667D01*
Y389696D01*
X183153Y389853D01*
X183168Y390010D01*
X183253Y390295D01*
X183368Y390538D01*
X183510Y390752D01*
X183653Y390923D01*
X183767Y391052D01*
X183853Y391123D01*
X183867Y391152D01*
X183881D01*
X184024Y391252D01*
X184181Y391352D01*
X184538Y391494D01*
X184909Y391594D01*
X185280Y391666D01*
X185452Y391694D01*
X185609Y391708D01*
X185766Y391723D01*
X185880D01*
X185994Y391737D01*
X186137D01*
X186551Y391723D01*
D02*
G37*
G36*
X236000Y209000D02*
X233630D01*
Y212083D01*
X233431D01*
X233316Y212069D01*
X233202Y212055D01*
X233116Y212026D01*
X233031Y211998D01*
X232959Y211955D01*
X232902Y211926D01*
X232874Y211912D01*
X232860Y211898D01*
X232788Y211841D01*
X232717Y211755D01*
X232574Y211555D01*
X232517Y211469D01*
X232474Y211384D01*
X232446Y211327D01*
X232431Y211313D01*
X231189Y209000D01*
X228520D01*
X229662Y211198D01*
X229705Y211270D01*
X229748Y211341D01*
X229862Y211484D01*
X229905Y211555D01*
X229947Y211612D01*
X229976Y211641D01*
X229990Y211655D01*
X230076Y211769D01*
X230147Y211855D01*
X230219Y211926D01*
X230261Y211983D01*
X230304Y212026D01*
X230333Y212055D01*
X230361Y212069D01*
X230447Y212126D01*
X230547Y212169D01*
X230747Y212255D01*
X230833Y212297D01*
X230904Y212312D01*
X230961Y212340D01*
X230975D01*
X230790Y212397D01*
X230618Y212440D01*
X230476Y212497D01*
X230361Y212540D01*
X230276Y212583D01*
X230204Y212626D01*
X230162Y212640D01*
X230147Y212654D01*
X229976Y212768D01*
X229833Y212897D01*
X229705Y213011D01*
X229605Y213140D01*
X229519Y213240D01*
X229448Y213325D01*
X229419Y213382D01*
X229405Y213397D01*
X229319Y213568D01*
X229248Y213754D01*
X229205Y213939D01*
X229162Y214110D01*
X229148Y214253D01*
X229134Y214382D01*
Y214453D01*
Y214482D01*
X229148Y214739D01*
X229191Y214981D01*
X229248Y215195D01*
X229305Y215366D01*
X229377Y215509D01*
X229434Y215623D01*
X229476Y215681D01*
X229491Y215709D01*
X229633Y215880D01*
X229790Y216038D01*
X229947Y216152D01*
X230090Y216252D01*
X230233Y216323D01*
X230333Y216366D01*
X230404Y216394D01*
X230433Y216409D01*
X230661Y216480D01*
X230933Y216523D01*
X231204Y216566D01*
X231475Y216580D01*
X231718Y216594D01*
X231817Y216609D01*
X236000D01*
Y209000D01*
D02*
G37*
G36*
X228078Y214824D02*
X224323D01*
X224537Y214553D01*
X224723Y214296D01*
X225080Y213796D01*
X225365Y213340D01*
X225494Y213125D01*
X225608Y212926D01*
X225708Y212754D01*
X225793Y212597D01*
X225865Y212454D01*
X225922Y212340D01*
X225965Y212240D01*
X225993Y212169D01*
X226022Y212126D01*
Y212112D01*
X226208Y211612D01*
X226364Y211098D01*
X226493Y210570D01*
X226550Y210327D01*
X226607Y210085D01*
X226650Y209856D01*
X226693Y209657D01*
X226721Y209471D01*
X226750Y209314D01*
X226764Y209186D01*
X226779Y209086D01*
X226793Y209028D01*
Y209000D01*
X224680D01*
X224637Y209485D01*
X224580Y209928D01*
X224509Y210313D01*
X224480Y210499D01*
X224437Y210656D01*
X224409Y210799D01*
X224380Y210927D01*
X224352Y211041D01*
X224323Y211141D01*
X224309Y211213D01*
X224295Y211270D01*
X224280Y211298D01*
Y211313D01*
X224123Y211769D01*
X223966Y212197D01*
X223795Y212583D01*
X223709Y212768D01*
X223624Y212926D01*
X223552Y213068D01*
X223481Y213211D01*
X223410Y213325D01*
X223367Y213411D01*
X223310Y213497D01*
X223281Y213554D01*
X223253Y213582D01*
Y213596D01*
X223039Y213911D01*
X222810Y214210D01*
X222582Y214482D01*
X222368Y214710D01*
X222182Y214910D01*
X222025Y215053D01*
X221968Y215110D01*
X221925Y215152D01*
X221911Y215167D01*
X221896Y215181D01*
Y216609D01*
X228078D01*
Y214824D01*
D02*
G37*
G36*
X199123Y216723D02*
X199380Y216694D01*
X199636Y216651D01*
X199865Y216580D01*
X200079Y216509D01*
X200279Y216437D01*
X200464Y216337D01*
X200621Y216252D01*
X200764Y216166D01*
X200893Y216080D01*
X201007Y215995D01*
X201092Y215923D01*
X201164Y215852D01*
X201207Y215809D01*
X201235Y215781D01*
X201250Y215766D01*
X201407Y215581D01*
X201535Y215366D01*
X201649Y215138D01*
X201749Y214895D01*
X201821Y214639D01*
X201892Y214396D01*
X201992Y213896D01*
X202035Y213668D01*
X202063Y213454D01*
X202078Y213254D01*
X202092Y213097D01*
X202106Y212954D01*
Y212840D01*
Y212783D01*
Y212754D01*
X202092Y212255D01*
X202063Y212026D01*
X202049Y211812D01*
X202006Y211612D01*
X201978Y211427D01*
X201949Y211255D01*
X201906Y211098D01*
X201863Y210970D01*
X201835Y210841D01*
X201792Y210742D01*
X201763Y210656D01*
X201749Y210585D01*
X201721Y210542D01*
X201706Y210513D01*
Y210499D01*
X201535Y210199D01*
X201364Y209942D01*
X201178Y209728D01*
X201007Y209557D01*
X200850Y209428D01*
X200721Y209328D01*
X200636Y209271D01*
X200621Y209257D01*
X200607D01*
X200322Y209128D01*
X200022Y209028D01*
X199722Y208971D01*
X199422Y208914D01*
X199165Y208886D01*
X199051D01*
X198951Y208871D01*
X198766D01*
X198423Y208886D01*
X198109Y208914D01*
X197838Y208971D01*
X197610Y209028D01*
X197424Y209086D01*
X197295Y209143D01*
X197210Y209171D01*
X197181Y209186D01*
X196953Y209314D01*
X196753Y209457D01*
X196582Y209614D01*
X196439Y209771D01*
X196325Y209899D01*
X196253Y210014D01*
X196196Y210085D01*
X196182Y210113D01*
X196068Y210356D01*
X195982Y210599D01*
X195911Y210827D01*
X195868Y211041D01*
X195839Y211227D01*
X195825Y211370D01*
Y211427D01*
Y211469D01*
Y211484D01*
Y211498D01*
X195839Y211698D01*
X195854Y211898D01*
X195939Y212255D01*
X196054Y212569D01*
X196182Y212840D01*
X196311Y213054D01*
X196368Y213140D01*
X196425Y213211D01*
X196467Y213268D01*
X196510Y213311D01*
X196525Y213325D01*
X196539Y213340D01*
X196667Y213468D01*
X196810Y213582D01*
X196953Y213682D01*
X197110Y213768D01*
X197395Y213896D01*
X197667Y213982D01*
X197909Y214025D01*
X198009Y214039D01*
X198095Y214053D01*
X198166Y214067D01*
X198266D01*
X198452Y214053D01*
X198637Y214039D01*
X198794Y214010D01*
X198923Y213982D01*
X199037Y213939D01*
X199123Y213911D01*
X199180Y213896D01*
X199194Y213882D01*
X199337Y213811D01*
X199480Y213711D01*
X199608Y213625D01*
X199722Y213525D01*
X199822Y213440D01*
X199893Y213368D01*
X199951Y213325D01*
X199965Y213311D01*
X199951Y213525D01*
X199922Y213739D01*
X199908Y213911D01*
X199879Y214082D01*
X199851Y214225D01*
X199836Y214353D01*
X199808Y214467D01*
X199779Y214567D01*
X199765Y214653D01*
X199736Y214724D01*
X199694Y214838D01*
X199679Y214895D01*
X199665Y214910D01*
X199551Y215081D01*
X199422Y215210D01*
X199280Y215309D01*
X199151Y215366D01*
X199037Y215409D01*
X198937Y215424D01*
X198880Y215438D01*
X198851D01*
X198752Y215424D01*
X198652Y215409D01*
X198494Y215352D01*
X198437Y215309D01*
X198395Y215281D01*
X198380Y215267D01*
X198366Y215252D01*
X198295Y215167D01*
X198238Y215081D01*
X198152Y214867D01*
X198123Y214781D01*
X198095Y214696D01*
X198081Y214639D01*
Y214624D01*
X195982Y214881D01*
X196054Y215095D01*
X196139Y215295D01*
X196239Y215466D01*
X196325Y215623D01*
X196396Y215738D01*
X196467Y215823D01*
X196510Y215880D01*
X196525Y215895D01*
X196653Y216038D01*
X196810Y216166D01*
X196953Y216280D01*
X197081Y216366D01*
X197210Y216437D01*
X197310Y216480D01*
X197367Y216509D01*
X197395Y216523D01*
X197610Y216594D01*
X197838Y216651D01*
X198081Y216680D01*
X198309Y216708D01*
X198523Y216723D01*
X198680Y216737D01*
X198837D01*
X199123Y216723D01*
D02*
G37*
G36*
X210000Y209000D02*
X207630D01*
Y212083D01*
X207430D01*
X207316Y212069D01*
X207202Y212055D01*
X207117Y212026D01*
X207031Y211998D01*
X206959Y211955D01*
X206902Y211926D01*
X206874Y211912D01*
X206860Y211898D01*
X206788Y211841D01*
X206717Y211755D01*
X206574Y211555D01*
X206517Y211469D01*
X206474Y211384D01*
X206446Y211327D01*
X206431Y211313D01*
X205189Y209000D01*
X202520D01*
X203662Y211198D01*
X203705Y211270D01*
X203748Y211341D01*
X203862Y211484D01*
X203905Y211555D01*
X203948Y211612D01*
X203976Y211641D01*
X203990Y211655D01*
X204076Y211769D01*
X204147Y211855D01*
X204219Y211926D01*
X204261Y211983D01*
X204304Y212026D01*
X204333Y212055D01*
X204361Y212069D01*
X204447Y212126D01*
X204547Y212169D01*
X204747Y212255D01*
X204832Y212297D01*
X204904Y212312D01*
X204961Y212340D01*
X204975D01*
X204790Y212397D01*
X204618Y212440D01*
X204476Y212497D01*
X204361Y212540D01*
X204276Y212583D01*
X204204Y212626D01*
X204162Y212640D01*
X204147Y212654D01*
X203976Y212768D01*
X203833Y212897D01*
X203705Y213011D01*
X203605Y213140D01*
X203519Y213240D01*
X203448Y213325D01*
X203419Y213382D01*
X203405Y213397D01*
X203319Y213568D01*
X203248Y213754D01*
X203205Y213939D01*
X203162Y214110D01*
X203148Y214253D01*
X203134Y214382D01*
Y214453D01*
Y214482D01*
X203148Y214739D01*
X203191Y214981D01*
X203248Y215195D01*
X203305Y215366D01*
X203377Y215509D01*
X203434Y215623D01*
X203476Y215681D01*
X203491Y215709D01*
X203633Y215880D01*
X203790Y216038D01*
X203948Y216152D01*
X204090Y216252D01*
X204233Y216323D01*
X204333Y216366D01*
X204404Y216394D01*
X204433Y216409D01*
X204661Y216480D01*
X204932Y216523D01*
X205204Y216566D01*
X205475Y216580D01*
X205718Y216594D01*
X205818Y216609D01*
X210000D01*
Y209000D01*
D02*
G37*
G36*
X159935Y248512D02*
X158136Y248240D01*
X158036Y248340D01*
X157950Y248426D01*
X157879Y248497D01*
X157808Y248554D01*
X157751Y248583D01*
X157708Y248612D01*
X157679Y248640D01*
X157665D01*
X157551Y248697D01*
X157451Y248726D01*
X157265Y248783D01*
X157194D01*
X157137Y248797D01*
X157080D01*
X156909Y248783D01*
X156751Y248740D01*
X156623Y248697D01*
X156509Y248640D01*
X156409Y248569D01*
X156352Y248526D01*
X156309Y248483D01*
X156295Y248469D01*
X156195Y248340D01*
X156123Y248183D01*
X156066Y248026D01*
X156038Y247855D01*
X156009Y247712D01*
X155995Y247598D01*
Y247512D01*
Y247498D01*
Y247484D01*
X156009Y247255D01*
X156038Y247041D01*
X156095Y246870D01*
X156138Y246727D01*
X156195Y246627D01*
X156252Y246542D01*
X156280Y246499D01*
X156295Y246485D01*
X156409Y246370D01*
X156523Y246299D01*
X156651Y246242D01*
X156766Y246199D01*
X156866Y246171D01*
X156951Y246156D01*
X157023D01*
X157165Y246171D01*
X157294Y246199D01*
X157408Y246242D01*
X157508Y246285D01*
X157594Y246327D01*
X157651Y246370D01*
X157694Y246399D01*
X157708Y246413D01*
X157808Y246527D01*
X157879Y246656D01*
X157950Y246784D01*
X157993Y246913D01*
X158022Y247027D01*
X158050Y247113D01*
X158065Y247170D01*
Y247198D01*
X160206Y246956D01*
X160149Y246770D01*
X160092Y246599D01*
X160020Y246442D01*
X159963Y246313D01*
X159921Y246213D01*
X159878Y246142D01*
X159849Y246085D01*
X159835Y246071D01*
X159635Y245814D01*
X159535Y245714D01*
X159435Y245614D01*
X159349Y245542D01*
X159278Y245485D01*
X159235Y245443D01*
X159221Y245428D01*
X158921Y245243D01*
X158764Y245171D01*
X158622Y245114D01*
X158493Y245057D01*
X158393Y245028D01*
X158336Y245014D01*
X158307Y245000D01*
X158093Y244957D01*
X157879Y244929D01*
X157651Y244900D01*
X157451Y244886D01*
X157280D01*
X157137Y244872D01*
X157008D01*
X156637Y244886D01*
X156295Y244929D01*
X155995Y244986D01*
X155752Y245057D01*
X155552Y245114D01*
X155395Y245171D01*
X155352Y245200D01*
X155310Y245214D01*
X155295Y245228D01*
X155281D01*
X155038Y245371D01*
X154839Y245542D01*
X154653Y245714D01*
X154510Y245871D01*
X154396Y246028D01*
X154311Y246142D01*
X154253Y246228D01*
X154239Y246242D01*
Y246256D01*
X154111Y246513D01*
X154025Y246770D01*
X153954Y246999D01*
X153911Y247227D01*
X153882Y247398D01*
X153868Y247541D01*
Y247598D01*
Y247641D01*
Y247655D01*
Y247669D01*
X153882Y247869D01*
X153897Y248055D01*
X153982Y248383D01*
X154096Y248683D01*
X154225Y248940D01*
X154353Y249140D01*
X154467Y249282D01*
X154510Y249340D01*
X154553Y249382D01*
X154567Y249397D01*
X154582Y249411D01*
X154724Y249539D01*
X154867Y249639D01*
X155024Y249739D01*
X155181Y249811D01*
X155481Y249939D01*
X155781Y250025D01*
X156052Y250068D01*
X156166Y250096D01*
X156266D01*
X156337Y250110D01*
X156452D01*
X156694Y250096D01*
X156809Y250082D01*
X156923Y250068D01*
X157008Y250053D01*
X157080Y250039D01*
X157123Y250025D01*
X157137D01*
X157394Y249953D01*
X157508Y249911D01*
X157608Y249868D01*
X157708Y249825D01*
X157779Y249796D01*
X157822Y249782D01*
X157836Y249768D01*
X157651Y250924D01*
X154225D01*
Y252609D01*
X159264D01*
X159935Y248512D01*
D02*
G37*
G36*
X168000Y245000D02*
X165630D01*
Y248083D01*
X165431D01*
X165316Y248069D01*
X165202Y248055D01*
X165117Y248026D01*
X165031Y247998D01*
X164960Y247955D01*
X164902Y247926D01*
X164874Y247912D01*
X164860Y247898D01*
X164788Y247841D01*
X164717Y247755D01*
X164574Y247555D01*
X164517Y247470D01*
X164474Y247384D01*
X164446Y247327D01*
X164431Y247313D01*
X163189Y245000D01*
X160520D01*
X161662Y247198D01*
X161705Y247270D01*
X161748Y247341D01*
X161862Y247484D01*
X161905Y247555D01*
X161947Y247612D01*
X161976Y247641D01*
X161990Y247655D01*
X162076Y247769D01*
X162147Y247855D01*
X162219Y247926D01*
X162262Y247983D01*
X162304Y248026D01*
X162333Y248055D01*
X162361Y248069D01*
X162447Y248126D01*
X162547Y248169D01*
X162747Y248255D01*
X162833Y248298D01*
X162904Y248312D01*
X162961Y248340D01*
X162975D01*
X162790Y248397D01*
X162618Y248440D01*
X162476Y248497D01*
X162361Y248540D01*
X162276Y248583D01*
X162204Y248626D01*
X162162Y248640D01*
X162147Y248654D01*
X161976Y248769D01*
X161833Y248897D01*
X161705Y249011D01*
X161605Y249140D01*
X161519Y249240D01*
X161448Y249325D01*
X161419Y249382D01*
X161405Y249397D01*
X161319Y249568D01*
X161248Y249753D01*
X161205Y249939D01*
X161162Y250110D01*
X161148Y250253D01*
X161134Y250382D01*
Y250453D01*
Y250481D01*
X161148Y250739D01*
X161191Y250981D01*
X161248Y251195D01*
X161305Y251367D01*
X161376Y251509D01*
X161434Y251623D01*
X161476Y251681D01*
X161491Y251709D01*
X161633Y251880D01*
X161791Y252038D01*
X161947Y252152D01*
X162090Y252252D01*
X162233Y252323D01*
X162333Y252366D01*
X162404Y252394D01*
X162433Y252409D01*
X162661Y252480D01*
X162932Y252523D01*
X163204Y252566D01*
X163475Y252580D01*
X163718Y252594D01*
X163818Y252609D01*
X168000D01*
Y245000D01*
D02*
G37*
G36*
X219000Y562000D02*
X216630D01*
Y565083D01*
X216430D01*
X216316Y565069D01*
X216202Y565055D01*
X216117Y565026D01*
X216031Y564998D01*
X215959Y564955D01*
X215902Y564926D01*
X215874Y564912D01*
X215860Y564898D01*
X215788Y564841D01*
X215717Y564755D01*
X215574Y564555D01*
X215517Y564469D01*
X215474Y564384D01*
X215446Y564327D01*
X215431Y564313D01*
X214189Y562000D01*
X211520D01*
X212662Y564198D01*
X212705Y564270D01*
X212748Y564341D01*
X212862Y564484D01*
X212905Y564555D01*
X212948Y564612D01*
X212976Y564641D01*
X212990Y564655D01*
X213076Y564769D01*
X213147Y564855D01*
X213219Y564926D01*
X213262Y564983D01*
X213304Y565026D01*
X213333Y565055D01*
X213361Y565069D01*
X213447Y565126D01*
X213547Y565169D01*
X213747Y565255D01*
X213832Y565298D01*
X213904Y565312D01*
X213961Y565340D01*
X213975D01*
X213790Y565397D01*
X213618Y565440D01*
X213476Y565497D01*
X213361Y565540D01*
X213276Y565583D01*
X213204Y565626D01*
X213162Y565640D01*
X213147Y565654D01*
X212976Y565769D01*
X212833Y565897D01*
X212705Y566011D01*
X212605Y566140D01*
X212519Y566240D01*
X212448Y566325D01*
X212419Y566382D01*
X212405Y566397D01*
X212319Y566568D01*
X212248Y566754D01*
X212205Y566939D01*
X212162Y567110D01*
X212148Y567253D01*
X212134Y567382D01*
Y567453D01*
Y567481D01*
X212148Y567738D01*
X212191Y567981D01*
X212248Y568195D01*
X212305Y568367D01*
X212376Y568509D01*
X212434Y568624D01*
X212476Y568681D01*
X212491Y568709D01*
X212633Y568880D01*
X212791Y569038D01*
X212948Y569152D01*
X213090Y569252D01*
X213233Y569323D01*
X213333Y569366D01*
X213404Y569394D01*
X213433Y569409D01*
X213661Y569480D01*
X213932Y569523D01*
X214204Y569566D01*
X214475Y569580D01*
X214718Y569594D01*
X214818Y569608D01*
X219000D01*
Y562000D01*
D02*
G37*
G36*
X211334Y565140D02*
Y563413D01*
X207480D01*
Y562000D01*
X205639D01*
Y563413D01*
X204682D01*
Y565055D01*
X205639D01*
Y569737D01*
X207480D01*
X211334Y565140D01*
D02*
G37*
G36*
X177551Y166708D02*
X177765Y166694D01*
X177965Y166651D01*
X178150Y166623D01*
X178307Y166580D01*
X178464Y166523D01*
X178593Y166480D01*
X178721Y166437D01*
X178821Y166380D01*
X178921Y166337D01*
X178993Y166309D01*
X179050Y166266D01*
X179093Y166252D01*
X179107Y166223D01*
X179121D01*
X179364Y166009D01*
X179564Y165781D01*
X179721Y165538D01*
X179849Y165310D01*
X179949Y165095D01*
X180020Y164924D01*
X180035Y164853D01*
X180049Y164810D01*
X180063Y164781D01*
Y164767D01*
X178065Y164410D01*
X178036Y164610D01*
X177993Y164767D01*
X177936Y164910D01*
X177893Y165010D01*
X177836Y165095D01*
X177808Y165152D01*
X177779Y165181D01*
X177765Y165195D01*
X177665Y165267D01*
X177565Y165324D01*
X177465Y165367D01*
X177365Y165395D01*
X177265Y165409D01*
X177194Y165424D01*
X177137D01*
X177008Y165409D01*
X176894Y165395D01*
X176794Y165352D01*
X176723Y165324D01*
X176651Y165281D01*
X176609Y165238D01*
X176580Y165224D01*
X176566Y165210D01*
X176495Y165124D01*
X176437Y165038D01*
X176409Y164938D01*
X176380Y164853D01*
X176366Y164767D01*
X176352Y164710D01*
Y164667D01*
Y164653D01*
X176366Y164524D01*
X176395Y164410D01*
X176437Y164296D01*
X176495Y164210D01*
X176552Y164125D01*
X176594Y164068D01*
X176623Y164039D01*
X176637Y164025D01*
X176751Y163939D01*
X176866Y163882D01*
X176980Y163825D01*
X177094Y163796D01*
X177194Y163782D01*
X177265Y163768D01*
X177422D01*
X177522Y163782D01*
X177622D01*
X177722Y162283D01*
X177565Y162326D01*
X177437Y162355D01*
X177323Y162383D01*
X177222Y162397D01*
X177137Y162412D01*
X177037D01*
X176866Y162397D01*
X176723Y162369D01*
X176594Y162312D01*
X176495Y162269D01*
X176409Y162212D01*
X176338Y162155D01*
X176309Y162126D01*
X176295Y162112D01*
X176195Y161998D01*
X176123Y161869D01*
X176080Y161726D01*
X176038Y161598D01*
X176023Y161484D01*
X176009Y161384D01*
Y161327D01*
Y161298D01*
X176023Y161113D01*
X176052Y160941D01*
X176095Y160799D01*
X176152Y160684D01*
X176209Y160585D01*
X176252Y160513D01*
X176280Y160470D01*
X176295Y160456D01*
X176409Y160356D01*
X176523Y160285D01*
X176651Y160228D01*
X176751Y160199D01*
X176851Y160170D01*
X176937Y160156D01*
X177008D01*
X177151Y160170D01*
X177294Y160199D01*
X177408Y160228D01*
X177508Y160285D01*
X177579Y160328D01*
X177651Y160356D01*
X177679Y160385D01*
X177694Y160399D01*
X177779Y160513D01*
X177865Y160642D01*
X177979Y160941D01*
X178008Y161084D01*
X178036Y161198D01*
X178065Y161270D01*
Y161298D01*
X180177Y161013D01*
X180092Y160756D01*
X180006Y160527D01*
X179906Y160328D01*
X179806Y160156D01*
X179721Y160014D01*
X179649Y159914D01*
X179606Y159857D01*
X179592Y159828D01*
X179435Y159657D01*
X179278Y159514D01*
X179107Y159400D01*
X178950Y159300D01*
X178821Y159214D01*
X178707Y159157D01*
X178636Y159129D01*
X178607Y159114D01*
X178365Y159029D01*
X178093Y158972D01*
X177822Y158929D01*
X177565Y158900D01*
X177323Y158886D01*
X177222D01*
X177137Y158871D01*
X176966D01*
X176580Y158886D01*
X176238Y158929D01*
X175952Y158972D01*
X175695Y159043D01*
X175495Y159100D01*
X175352Y159143D01*
X175310Y159171D01*
X175267Y159186D01*
X175253Y159200D01*
X175238D01*
X175010Y159328D01*
X174810Y159485D01*
X174639Y159642D01*
X174496Y159785D01*
X174382Y159928D01*
X174296Y160028D01*
X174253Y160099D01*
X174239Y160128D01*
X174125Y160356D01*
X174039Y160585D01*
X173968Y160799D01*
X173925Y160998D01*
X173897Y161170D01*
X173882Y161298D01*
Y161384D01*
Y161398D01*
Y161413D01*
X173897Y161598D01*
X173911Y161769D01*
X173954Y161926D01*
X173982Y162055D01*
X174025Y162169D01*
X174068Y162240D01*
X174082Y162297D01*
X174096Y162312D01*
X174182Y162454D01*
X174282Y162569D01*
X174382Y162683D01*
X174468Y162769D01*
X174553Y162840D01*
X174625Y162883D01*
X174667Y162911D01*
X174682Y162926D01*
X174781Y162983D01*
X174896Y163025D01*
X175110Y163111D01*
X175210Y163140D01*
X175295Y163168D01*
X175352Y163183D01*
X175367D01*
X175167Y163297D01*
X174996Y163425D01*
X174853Y163539D01*
X174739Y163639D01*
X174653Y163739D01*
X174596Y163811D01*
X174553Y163868D01*
X174539Y163882D01*
X174453Y164039D01*
X174382Y164196D01*
X174339Y164339D01*
X174296Y164482D01*
X174282Y164596D01*
X174268Y164696D01*
Y164753D01*
Y164781D01*
Y164938D01*
X174296Y165081D01*
X174368Y165352D01*
X174482Y165595D01*
X174596Y165795D01*
X174724Y165966D01*
X174839Y166080D01*
X174910Y166152D01*
X174924Y166180D01*
X174939D01*
X175067Y166280D01*
X175224Y166366D01*
X175552Y166509D01*
X175909Y166609D01*
X176266Y166666D01*
X176437Y166694D01*
X176594Y166708D01*
X176723Y166723D01*
X176851D01*
X176951Y166737D01*
X177337D01*
X177551Y166708D01*
D02*
G37*
G36*
X188000Y159000D02*
X185630D01*
Y162083D01*
X185431D01*
X185316Y162069D01*
X185202Y162055D01*
X185117Y162026D01*
X185031Y161998D01*
X184960Y161955D01*
X184902Y161926D01*
X184874Y161912D01*
X184860Y161898D01*
X184788Y161841D01*
X184717Y161755D01*
X184574Y161555D01*
X184517Y161470D01*
X184474Y161384D01*
X184446Y161327D01*
X184431Y161313D01*
X183189Y159000D01*
X180520D01*
X181662Y161198D01*
X181705Y161270D01*
X181748Y161341D01*
X181862Y161484D01*
X181905Y161555D01*
X181947Y161612D01*
X181976Y161641D01*
X181990Y161655D01*
X182076Y161769D01*
X182147Y161855D01*
X182219Y161926D01*
X182262Y161983D01*
X182304Y162026D01*
X182333Y162055D01*
X182362Y162069D01*
X182447Y162126D01*
X182547Y162169D01*
X182747Y162255D01*
X182833Y162297D01*
X182904Y162312D01*
X182961Y162340D01*
X182975D01*
X182790Y162397D01*
X182618Y162440D01*
X182476Y162497D01*
X182362Y162540D01*
X182276Y162583D01*
X182204Y162626D01*
X182162Y162640D01*
X182147Y162654D01*
X181976Y162769D01*
X181833Y162897D01*
X181705Y163011D01*
X181605Y163140D01*
X181519Y163240D01*
X181448Y163325D01*
X181419Y163382D01*
X181405Y163397D01*
X181319Y163568D01*
X181248Y163754D01*
X181205Y163939D01*
X181162Y164110D01*
X181148Y164253D01*
X181134Y164382D01*
Y164453D01*
Y164482D01*
X181148Y164739D01*
X181191Y164981D01*
X181248Y165195D01*
X181305Y165367D01*
X181376Y165509D01*
X181434Y165623D01*
X181476Y165681D01*
X181491Y165709D01*
X181633Y165881D01*
X181791Y166038D01*
X181947Y166152D01*
X182090Y166252D01*
X182233Y166323D01*
X182333Y166366D01*
X182404Y166394D01*
X182433Y166409D01*
X182661Y166480D01*
X182932Y166523D01*
X183204Y166566D01*
X183475Y166580D01*
X183718Y166594D01*
X183818Y166609D01*
X188000D01*
Y159000D01*
D02*
G37*
G36*
X156222Y166480D02*
X156365Y166237D01*
X156522Y166038D01*
X156679Y165852D01*
X156808Y165709D01*
X156922Y165609D01*
X156993Y165552D01*
X157022Y165524D01*
X157265Y165352D01*
X157536Y165195D01*
X157807Y165053D01*
X158078Y164924D01*
X158321Y164824D01*
X158421Y164796D01*
X158521Y164753D01*
X158592Y164724D01*
X158649Y164710D01*
X158678Y164696D01*
X158692D01*
Y162968D01*
X158435Y163054D01*
X158192Y163125D01*
X157993Y163211D01*
X157807Y163283D01*
X157664Y163340D01*
X157564Y163382D01*
X157507Y163411D01*
X157479Y163425D01*
X157293Y163525D01*
X157122Y163625D01*
X156951Y163739D01*
X156793Y163839D01*
X156651Y163925D01*
X156551Y163996D01*
X156494Y164053D01*
X156465Y164068D01*
Y159000D01*
X154324D01*
Y166737D01*
X156080D01*
X156222Y166480D01*
D02*
G37*
G36*
X167000Y159000D02*
X164630D01*
Y162083D01*
X164431D01*
X164316Y162069D01*
X164202Y162055D01*
X164116Y162026D01*
X164031Y161998D01*
X163960Y161955D01*
X163902Y161926D01*
X163874Y161912D01*
X163860Y161898D01*
X163788Y161841D01*
X163717Y161755D01*
X163574Y161555D01*
X163517Y161470D01*
X163474Y161384D01*
X163446Y161327D01*
X163431Y161313D01*
X162189Y159000D01*
X159520D01*
X160662Y161198D01*
X160705Y161270D01*
X160748Y161341D01*
X160862Y161484D01*
X160905Y161555D01*
X160947Y161612D01*
X160976Y161641D01*
X160990Y161655D01*
X161076Y161769D01*
X161147Y161855D01*
X161219Y161926D01*
X161262Y161983D01*
X161304Y162026D01*
X161333Y162055D01*
X161362Y162069D01*
X161447Y162126D01*
X161547Y162169D01*
X161747Y162255D01*
X161833Y162297D01*
X161904Y162312D01*
X161961Y162340D01*
X161975D01*
X161790Y162397D01*
X161618Y162440D01*
X161476Y162497D01*
X161362Y162540D01*
X161276Y162583D01*
X161204Y162626D01*
X161162Y162640D01*
X161147Y162654D01*
X160976Y162769D01*
X160833Y162897D01*
X160705Y163011D01*
X160605Y163140D01*
X160519Y163240D01*
X160448Y163325D01*
X160419Y163382D01*
X160405Y163397D01*
X160319Y163568D01*
X160248Y163754D01*
X160205Y163939D01*
X160162Y164110D01*
X160148Y164253D01*
X160134Y164382D01*
Y164453D01*
Y164482D01*
X160148Y164739D01*
X160191Y164981D01*
X160248Y165195D01*
X160305Y165367D01*
X160376Y165509D01*
X160434Y165623D01*
X160476Y165681D01*
X160491Y165709D01*
X160633Y165881D01*
X160791Y166038D01*
X160947Y166152D01*
X161090Y166252D01*
X161233Y166323D01*
X161333Y166366D01*
X161404Y166394D01*
X161433Y166409D01*
X161661Y166480D01*
X161932Y166523D01*
X162204Y166566D01*
X162475Y166580D01*
X162718Y166594D01*
X162817Y166609D01*
X167000D01*
Y159000D01*
D02*
G37*
G36*
X201142Y547708D02*
X201356Y547694D01*
X201556Y547651D01*
X201742Y547623D01*
X201899Y547580D01*
X202056Y547523D01*
X202184Y547480D01*
X202313Y547437D01*
X202413Y547380D01*
X202513Y547337D01*
X202584Y547309D01*
X202641Y547266D01*
X202684Y547252D01*
X202698Y547223D01*
X202712D01*
X202955Y547009D01*
X203155Y546781D01*
X203312Y546538D01*
X203440Y546310D01*
X203540Y546095D01*
X203612Y545924D01*
X203626Y545853D01*
X203640Y545810D01*
X203655Y545781D01*
Y545767D01*
X201656Y545410D01*
X201628Y545610D01*
X201585Y545767D01*
X201528Y545910D01*
X201485Y546010D01*
X201428Y546095D01*
X201399Y546152D01*
X201371Y546181D01*
X201356Y546195D01*
X201256Y546267D01*
X201157Y546324D01*
X201057Y546367D01*
X200957Y546395D01*
X200857Y546409D01*
X200785Y546424D01*
X200728D01*
X200600Y546409D01*
X200486Y546395D01*
X200386Y546352D01*
X200314Y546324D01*
X200243Y546281D01*
X200200Y546238D01*
X200172Y546224D01*
X200157Y546210D01*
X200086Y546124D01*
X200029Y546038D01*
X200000Y545938D01*
X199972Y545853D01*
X199957Y545767D01*
X199943Y545710D01*
Y545667D01*
Y545653D01*
X199957Y545524D01*
X199986Y545410D01*
X200029Y545296D01*
X200086Y545210D01*
X200143Y545125D01*
X200186Y545068D01*
X200214Y545039D01*
X200229Y545025D01*
X200343Y544939D01*
X200457Y544882D01*
X200571Y544825D01*
X200685Y544796D01*
X200785Y544782D01*
X200857Y544768D01*
X201014D01*
X201114Y544782D01*
X201214D01*
X201313Y543283D01*
X201157Y543326D01*
X201028Y543355D01*
X200914Y543383D01*
X200814Y543397D01*
X200728Y543412D01*
X200628D01*
X200457Y543397D01*
X200314Y543369D01*
X200186Y543312D01*
X200086Y543269D01*
X200000Y543212D01*
X199929Y543155D01*
X199900Y543126D01*
X199886Y543112D01*
X199786Y542998D01*
X199715Y542869D01*
X199672Y542727D01*
X199629Y542598D01*
X199615Y542484D01*
X199601Y542384D01*
Y542327D01*
Y542298D01*
X199615Y542113D01*
X199643Y541941D01*
X199686Y541799D01*
X199743Y541684D01*
X199800Y541585D01*
X199843Y541513D01*
X199872Y541470D01*
X199886Y541456D01*
X200000Y541356D01*
X200114Y541285D01*
X200243Y541228D01*
X200343Y541199D01*
X200443Y541171D01*
X200528Y541156D01*
X200600D01*
X200742Y541171D01*
X200885Y541199D01*
X201000Y541228D01*
X201099Y541285D01*
X201171Y541328D01*
X201242Y541356D01*
X201271Y541385D01*
X201285Y541399D01*
X201371Y541513D01*
X201456Y541642D01*
X201570Y541941D01*
X201599Y542084D01*
X201628Y542198D01*
X201656Y542270D01*
Y542298D01*
X203769Y542013D01*
X203683Y541756D01*
X203598Y541527D01*
X203498Y541328D01*
X203398Y541156D01*
X203312Y541013D01*
X203241Y540914D01*
X203198Y540857D01*
X203183Y540828D01*
X203027Y540657D01*
X202869Y540514D01*
X202698Y540400D01*
X202541Y540300D01*
X202413Y540214D01*
X202299Y540157D01*
X202227Y540129D01*
X202199Y540114D01*
X201956Y540029D01*
X201685Y539972D01*
X201413Y539929D01*
X201157Y539900D01*
X200914Y539886D01*
X200814D01*
X200728Y539871D01*
X200557D01*
X200172Y539886D01*
X199829Y539929D01*
X199543Y539972D01*
X199286Y540043D01*
X199087Y540100D01*
X198944Y540143D01*
X198901Y540171D01*
X198858Y540186D01*
X198844Y540200D01*
X198830D01*
X198601Y540328D01*
X198402Y540485D01*
X198230Y540642D01*
X198087Y540785D01*
X197973Y540928D01*
X197888Y541028D01*
X197845Y541099D01*
X197831Y541128D01*
X197716Y541356D01*
X197631Y541585D01*
X197559Y541799D01*
X197516Y541998D01*
X197488Y542170D01*
X197474Y542298D01*
Y542384D01*
Y542398D01*
Y542412D01*
X197488Y542598D01*
X197502Y542769D01*
X197545Y542926D01*
X197574Y543055D01*
X197616Y543169D01*
X197659Y543240D01*
X197673Y543298D01*
X197688Y543312D01*
X197773Y543455D01*
X197873Y543569D01*
X197973Y543683D01*
X198059Y543769D01*
X198144Y543840D01*
X198216Y543883D01*
X198259Y543911D01*
X198273Y543926D01*
X198373Y543983D01*
X198487Y544025D01*
X198701Y544111D01*
X198801Y544140D01*
X198887Y544168D01*
X198944Y544183D01*
X198958D01*
X198758Y544297D01*
X198587Y544425D01*
X198444Y544539D01*
X198330Y544639D01*
X198244Y544739D01*
X198187Y544811D01*
X198144Y544868D01*
X198130Y544882D01*
X198045Y545039D01*
X197973Y545196D01*
X197930Y545339D01*
X197888Y545481D01*
X197873Y545596D01*
X197859Y545696D01*
Y545753D01*
Y545781D01*
Y545938D01*
X197888Y546081D01*
X197959Y546352D01*
X198073Y546595D01*
X198187Y546795D01*
X198316Y546966D01*
X198430Y547080D01*
X198501Y547152D01*
X198516Y547180D01*
X198530D01*
X198658Y547280D01*
X198815Y547366D01*
X199144Y547509D01*
X199501Y547608D01*
X199858Y547666D01*
X200029Y547694D01*
X200186Y547708D01*
X200314Y547723D01*
X200443D01*
X200543Y547737D01*
X200928D01*
X201142Y547708D01*
D02*
G37*
G36*
X207908Y547480D02*
X208051Y547237D01*
X208208Y547038D01*
X208365Y546852D01*
X208494Y546709D01*
X208608Y546609D01*
X208679Y546552D01*
X208708Y546524D01*
X208951Y546352D01*
X209222Y546195D01*
X209493Y546053D01*
X209764Y545924D01*
X210007Y545824D01*
X210107Y545796D01*
X210207Y545753D01*
X210278Y545724D01*
X210335Y545710D01*
X210364Y545696D01*
X210378D01*
Y543968D01*
X210121Y544054D01*
X209878Y544125D01*
X209678Y544211D01*
X209493Y544282D01*
X209350Y544340D01*
X209250Y544382D01*
X209193Y544411D01*
X209165Y544425D01*
X208979Y544525D01*
X208808Y544625D01*
X208636Y544739D01*
X208479Y544839D01*
X208337Y544925D01*
X208237Y544996D01*
X208180Y545053D01*
X208151Y545068D01*
Y540000D01*
X206010D01*
Y547737D01*
X207766D01*
X207908Y547480D01*
D02*
G37*
G36*
X215488Y547723D02*
X215817Y547694D01*
X216102Y547637D01*
X216373Y547580D01*
X216630Y547494D01*
X216873Y547409D01*
X217073Y547323D01*
X217273Y547223D01*
X217444Y547123D01*
X217587Y547038D01*
X217715Y546952D01*
X217815Y546866D01*
X217901Y546809D01*
X217958Y546752D01*
X217987Y546723D01*
X218001Y546709D01*
X218172Y546509D01*
X218329Y546295D01*
X218458Y546067D01*
X218572Y545824D01*
X218672Y545582D01*
X218757Y545353D01*
X218829Y545110D01*
X218871Y544882D01*
X218914Y544668D01*
X218943Y544468D01*
X218971Y544282D01*
X218986Y544125D01*
X219000Y543997D01*
Y543897D01*
Y543840D01*
Y543811D01*
X218971Y543312D01*
X218914Y542855D01*
X218871Y542641D01*
X218814Y542455D01*
X218772Y542284D01*
X218715Y542113D01*
X218657Y541970D01*
X218615Y541856D01*
X218557Y541741D01*
X218515Y541656D01*
X218486Y541585D01*
X218458Y541527D01*
X218429Y541499D01*
Y541485D01*
X218201Y541171D01*
X217972Y540914D01*
X217744Y540700D01*
X217530Y540514D01*
X217344Y540385D01*
X217201Y540300D01*
X217144Y540271D01*
X217101Y540243D01*
X217087Y540228D01*
X217073D01*
X216759Y540114D01*
X216430Y540029D01*
X216088Y539957D01*
X215760Y539914D01*
X215474Y539886D01*
X215360D01*
X215246Y539871D01*
X215046D01*
X214675Y539886D01*
X214346Y539914D01*
X214061Y539957D01*
X213818Y540014D01*
X213618Y540071D01*
X213476Y540114D01*
X213433Y540129D01*
X213390Y540143D01*
X213376Y540157D01*
X213361D01*
X213119Y540285D01*
X212919Y540414D01*
X212719Y540571D01*
X212562Y540700D01*
X212434Y540828D01*
X212348Y540928D01*
X212277Y540999D01*
X212262Y541028D01*
X212105Y541256D01*
X211963Y541499D01*
X211848Y541741D01*
X211748Y541970D01*
X211677Y542184D01*
X211634Y542341D01*
X211620Y542398D01*
X211606Y542441D01*
X211591Y542470D01*
Y542484D01*
X213647Y543112D01*
X213718Y542855D01*
X213790Y542627D01*
X213875Y542441D01*
X213961Y542284D01*
X214032Y542170D01*
X214104Y542084D01*
X214147Y542027D01*
X214161Y542013D01*
X214304Y541884D01*
X214461Y541799D01*
X214632Y541727D01*
X214803Y541684D01*
X214960Y541656D01*
X215074Y541642D01*
X215189D01*
X215431Y541656D01*
X215645Y541713D01*
X215831Y541784D01*
X215974Y541870D01*
X216102Y541956D01*
X216188Y542027D01*
X216245Y542084D01*
X216259Y542098D01*
X216331Y542198D01*
X216388Y542313D01*
X216488Y542570D01*
X216545Y542855D01*
X216602Y543140D01*
X216630Y543412D01*
Y543526D01*
X216645Y543640D01*
Y543726D01*
Y543783D01*
Y543826D01*
Y543840D01*
X216630Y544197D01*
X216602Y544497D01*
X216545Y544753D01*
X216488Y544968D01*
X216430Y545139D01*
X216373Y545253D01*
X216345Y545310D01*
X216331Y545339D01*
X216245Y545453D01*
X216159Y545553D01*
X215959Y545710D01*
X215760Y545824D01*
X215560Y545896D01*
X215374Y545953D01*
X215231Y545967D01*
X215174Y545981D01*
X214974D01*
X214846Y545953D01*
X214746Y545938D01*
X214646Y545910D01*
X214575Y545881D01*
X214503Y545853D01*
X214475Y545838D01*
X214461Y545824D01*
X214261Y545696D01*
X214104Y545567D01*
X214047Y545510D01*
X214004Y545453D01*
X213990Y545424D01*
X213975Y545410D01*
X213932Y545339D01*
X213890Y545267D01*
X213818Y545096D01*
X213790Y545025D01*
X213761Y544968D01*
X213747Y544925D01*
Y544911D01*
X211663Y545367D01*
X211748Y545582D01*
X211834Y545796D01*
X211934Y545981D01*
X212034Y546152D01*
X212234Y546452D01*
X212434Y546709D01*
X212619Y546909D01*
X212762Y547038D01*
X212819Y547095D01*
X212862Y547123D01*
X212890Y547152D01*
X212905D01*
X213062Y547252D01*
X213233Y547351D01*
X213604Y547494D01*
X213975Y547594D01*
X214332Y547666D01*
X214503Y547694D01*
X214660Y547708D01*
X214803Y547723D01*
X214917D01*
X215017Y547737D01*
X215160D01*
X215488Y547723D01*
D02*
G37*
G36*
X244909Y367480D02*
X245051Y367237D01*
X245208Y367038D01*
X245365Y366852D01*
X245494Y366709D01*
X245608Y366609D01*
X245679Y366552D01*
X245708Y366524D01*
X245951Y366352D01*
X246222Y366195D01*
X246493Y366053D01*
X246764Y365924D01*
X247007Y365824D01*
X247107Y365796D01*
X247207Y365753D01*
X247278Y365724D01*
X247335Y365710D01*
X247364Y365696D01*
X247378D01*
Y363968D01*
X247121Y364054D01*
X246878Y364125D01*
X246679Y364211D01*
X246493Y364282D01*
X246350Y364339D01*
X246250Y364382D01*
X246193Y364411D01*
X246165Y364425D01*
X245979Y364525D01*
X245808Y364625D01*
X245637Y364739D01*
X245480Y364839D01*
X245337Y364925D01*
X245237Y364996D01*
X245180Y365053D01*
X245151Y365067D01*
Y360000D01*
X243010D01*
Y367737D01*
X244766D01*
X244909Y367480D01*
D02*
G37*
G36*
X252488Y367723D02*
X252817Y367694D01*
X253102Y367637D01*
X253373Y367580D01*
X253630Y367494D01*
X253873Y367409D01*
X254073Y367323D01*
X254273Y367223D01*
X254444Y367123D01*
X254587Y367038D01*
X254715Y366952D01*
X254815Y366866D01*
X254901Y366809D01*
X254958Y366752D01*
X254986Y366723D01*
X255001Y366709D01*
X255172Y366509D01*
X255329Y366295D01*
X255458Y366067D01*
X255572Y365824D01*
X255672Y365581D01*
X255757Y365353D01*
X255829Y365110D01*
X255872Y364882D01*
X255914Y364668D01*
X255943Y364468D01*
X255971Y364282D01*
X255986Y364125D01*
X256000Y363997D01*
Y363897D01*
Y363840D01*
Y363811D01*
X255971Y363312D01*
X255914Y362855D01*
X255872Y362641D01*
X255814Y362455D01*
X255772Y362284D01*
X255714Y362113D01*
X255657Y361970D01*
X255615Y361856D01*
X255557Y361741D01*
X255515Y361656D01*
X255486Y361585D01*
X255458Y361527D01*
X255429Y361499D01*
Y361485D01*
X255201Y361171D01*
X254972Y360914D01*
X254744Y360700D01*
X254530Y360514D01*
X254344Y360385D01*
X254201Y360300D01*
X254144Y360271D01*
X254101Y360243D01*
X254087Y360228D01*
X254073D01*
X253759Y360114D01*
X253431Y360028D01*
X253088Y359957D01*
X252760Y359914D01*
X252474Y359886D01*
X252360D01*
X252246Y359871D01*
X252046D01*
X251675Y359886D01*
X251346Y359914D01*
X251061Y359957D01*
X250818Y360014D01*
X250618Y360071D01*
X250476Y360114D01*
X250433Y360129D01*
X250390Y360143D01*
X250376Y360157D01*
X250361D01*
X250119Y360285D01*
X249919Y360414D01*
X249719Y360571D01*
X249562Y360700D01*
X249434Y360828D01*
X249348Y360928D01*
X249277Y360999D01*
X249262Y361028D01*
X249105Y361256D01*
X248962Y361499D01*
X248848Y361741D01*
X248748Y361970D01*
X248677Y362184D01*
X248634Y362341D01*
X248620Y362398D01*
X248606Y362441D01*
X248591Y362469D01*
Y362484D01*
X250647Y363112D01*
X250718Y362855D01*
X250790Y362627D01*
X250875Y362441D01*
X250961Y362284D01*
X251032Y362170D01*
X251104Y362084D01*
X251147Y362027D01*
X251161Y362013D01*
X251304Y361884D01*
X251461Y361799D01*
X251632Y361727D01*
X251803Y361684D01*
X251960Y361656D01*
X252074Y361642D01*
X252189D01*
X252431Y361656D01*
X252645Y361713D01*
X252831Y361784D01*
X252974Y361870D01*
X253102Y361956D01*
X253188Y362027D01*
X253245Y362084D01*
X253259Y362098D01*
X253331Y362198D01*
X253388Y362313D01*
X253488Y362570D01*
X253545Y362855D01*
X253602Y363140D01*
X253630Y363412D01*
Y363526D01*
X253645Y363640D01*
Y363726D01*
Y363783D01*
Y363826D01*
Y363840D01*
X253630Y364197D01*
X253602Y364497D01*
X253545Y364753D01*
X253488Y364968D01*
X253431Y365139D01*
X253373Y365253D01*
X253345Y365310D01*
X253331Y365339D01*
X253245Y365453D01*
X253159Y365553D01*
X252959Y365710D01*
X252760Y365824D01*
X252560Y365896D01*
X252374Y365953D01*
X252231Y365967D01*
X252174Y365981D01*
X251975D01*
X251846Y365953D01*
X251746Y365938D01*
X251646Y365910D01*
X251575Y365881D01*
X251503Y365853D01*
X251475Y365838D01*
X251461Y365824D01*
X251261Y365696D01*
X251104Y365567D01*
X251047Y365510D01*
X251004Y365453D01*
X250989Y365424D01*
X250975Y365410D01*
X250932Y365339D01*
X250890Y365267D01*
X250818Y365096D01*
X250790Y365025D01*
X250761Y364968D01*
X250747Y364925D01*
Y364911D01*
X248663Y365367D01*
X248748Y365581D01*
X248834Y365796D01*
X248934Y365981D01*
X249034Y366152D01*
X249234Y366452D01*
X249434Y366709D01*
X249619Y366909D01*
X249762Y367038D01*
X249819Y367095D01*
X249862Y367123D01*
X249890Y367152D01*
X249905D01*
X250062Y367252D01*
X250233Y367351D01*
X250604Y367494D01*
X250975Y367594D01*
X251332Y367666D01*
X251503Y367694D01*
X251660Y367708D01*
X251803Y367723D01*
X251917D01*
X252017Y367737D01*
X252160D01*
X252488Y367723D01*
D02*
G37*
G36*
X237828D02*
X238099Y367694D01*
X238356Y367651D01*
X238585Y367608D01*
X238799Y367537D01*
X238999Y367466D01*
X239170Y367380D01*
X239327Y367309D01*
X239470Y367223D01*
X239598Y367137D01*
X239698Y367066D01*
X239784Y367009D01*
X239841Y366952D01*
X239884Y366909D01*
X239912Y366880D01*
X239927Y366866D01*
X240055Y366695D01*
X240184Y366481D01*
X240283Y366267D01*
X240369Y366024D01*
X240512Y365524D01*
X240597Y365025D01*
X240626Y364782D01*
X240655Y364554D01*
X240669Y364354D01*
X240683Y364183D01*
X240697Y364025D01*
Y363926D01*
Y363854D01*
Y363826D01*
Y363497D01*
X240669Y363198D01*
X240655Y362926D01*
X240626Y362684D01*
X240597Y362484D01*
X240583Y362341D01*
X240569Y362284D01*
X240555Y362241D01*
Y362227D01*
Y362213D01*
X240498Y361956D01*
X240426Y361727D01*
X240355Y361527D01*
X240283Y361370D01*
X240226Y361242D01*
X240169Y361142D01*
X240141Y361085D01*
X240126Y361071D01*
X239969Y360857D01*
X239812Y360671D01*
X239655Y360528D01*
X239498Y360400D01*
X239356Y360300D01*
X239256Y360228D01*
X239184Y360186D01*
X239156Y360171D01*
X238927Y360071D01*
X238670Y360000D01*
X238399Y359943D01*
X238157Y359914D01*
X237942Y359886D01*
X237843D01*
X237757Y359871D01*
X237600D01*
X237286Y359886D01*
X237015Y359914D01*
X236743Y359957D01*
X236515Y360028D01*
X236287Y360100D01*
X236101Y360171D01*
X235915Y360257D01*
X235758Y360357D01*
X235630Y360443D01*
X235516Y360528D01*
X235416Y360600D01*
X235330Y360685D01*
X235273Y360742D01*
X235230Y360785D01*
X235216Y360814D01*
X235202Y360828D01*
X235073Y361013D01*
X234959Y361228D01*
X234873Y361456D01*
X234788Y361699D01*
X234659Y362213D01*
X234573Y362698D01*
X234545Y362926D01*
X234531Y363155D01*
X234502Y363340D01*
Y363512D01*
X234488Y363654D01*
Y363769D01*
Y363826D01*
Y363854D01*
X234502Y364197D01*
X234516Y364525D01*
X234559Y364825D01*
X234588Y365082D01*
X234631Y365310D01*
X234645Y365396D01*
X234673Y365481D01*
X234688Y365539D01*
Y365581D01*
X234702Y365610D01*
Y365624D01*
X234745Y365796D01*
X234802Y365938D01*
X234845Y366067D01*
X234888Y366195D01*
X234930Y366281D01*
X234973Y366352D01*
X234988Y366395D01*
X235002Y366409D01*
X235145Y366652D01*
X235230Y366752D01*
X235301Y366852D01*
X235373Y366923D01*
X235430Y366980D01*
X235473Y367023D01*
X235487Y367038D01*
X235616Y367152D01*
X235744Y367252D01*
X235887Y367337D01*
X236015Y367409D01*
X236129Y367466D01*
X236215Y367509D01*
X236272Y367523D01*
X236301Y367537D01*
X236486Y367608D01*
X236700Y367651D01*
X236900Y367694D01*
X237100Y367708D01*
X237271Y367723D01*
X237414Y367737D01*
X237543D01*
X237828Y367723D01*
D02*
G37*
G36*
X431294Y228723D02*
X431594Y228680D01*
X431865Y228637D01*
X432093Y228580D01*
X432279Y228508D01*
X432407Y228466D01*
X432493Y228423D01*
X432507Y228409D01*
X432522D01*
X432750Y228280D01*
X432935Y228123D01*
X433107Y227966D01*
X433250Y227823D01*
X433364Y227681D01*
X433435Y227566D01*
X433492Y227495D01*
X433507Y227481D01*
Y227467D01*
X433621Y227238D01*
X433706Y226995D01*
X433778Y226767D01*
X433820Y226553D01*
X433849Y226367D01*
X433863Y226225D01*
Y226168D01*
Y226125D01*
Y226110D01*
Y226096D01*
X433849Y225896D01*
X433835Y225696D01*
X433749Y225340D01*
X433635Y225026D01*
X433507Y224754D01*
X433378Y224540D01*
X433321Y224454D01*
X433278Y224383D01*
X433221Y224326D01*
X433192Y224283D01*
X433178Y224269D01*
X433164Y224255D01*
X433035Y224126D01*
X432893Y224026D01*
X432750Y223926D01*
X432607Y223841D01*
X432307Y223712D01*
X432051Y223627D01*
X431808Y223584D01*
X431708Y223570D01*
X431622Y223555D01*
X431551Y223541D01*
X431451D01*
X431265Y223555D01*
X431080Y223570D01*
X430923Y223598D01*
X430794Y223627D01*
X430680Y223655D01*
X430594Y223684D01*
X430537Y223712D01*
X430523D01*
X430380Y223784D01*
X430238Y223883D01*
X430095Y223969D01*
X429981Y224069D01*
X429881Y224155D01*
X429809Y224226D01*
X429752Y224269D01*
X429738Y224283D01*
X429767Y224069D01*
X429781Y223869D01*
X429809Y223684D01*
X429838Y223512D01*
X429866Y223370D01*
X429881Y223241D01*
X429909Y223127D01*
X429938Y223027D01*
X429966Y222941D01*
X429981Y222870D01*
X430023Y222756D01*
X430038Y222699D01*
X430052Y222684D01*
X430166Y222513D01*
X430295Y222385D01*
X430423Y222299D01*
X430552Y222242D01*
X430680Y222199D01*
X430766Y222185D01*
X430823Y222171D01*
X430851D01*
X430951Y222185D01*
X431051Y222199D01*
X431194Y222256D01*
X431251Y222285D01*
X431294Y222313D01*
X431323Y222342D01*
X431337D01*
X431408Y222428D01*
X431465Y222527D01*
X431551Y222727D01*
X431579Y222827D01*
X431594Y222913D01*
X431608Y222970D01*
Y222984D01*
X433706Y222713D01*
X433635Y222499D01*
X433549Y222299D01*
X433464Y222113D01*
X433378Y221971D01*
X433292Y221842D01*
X433235Y221757D01*
X433192Y221700D01*
X433178Y221685D01*
X433035Y221542D01*
X432893Y221428D01*
X432750Y221314D01*
X432607Y221228D01*
X432493Y221157D01*
X432393Y221114D01*
X432336Y221086D01*
X432307Y221071D01*
X432093Y221000D01*
X431865Y220957D01*
X431622Y220914D01*
X431394Y220900D01*
X431194Y220886D01*
X431023Y220872D01*
X430880D01*
X430594Y220886D01*
X430337Y220914D01*
X430080Y220957D01*
X429852Y221028D01*
X429638Y221100D01*
X429438Y221171D01*
X429253Y221257D01*
X429096Y221357D01*
X428953Y221443D01*
X428824Y221528D01*
X428710Y221600D01*
X428624Y221685D01*
X428553Y221742D01*
X428510Y221785D01*
X428482Y221814D01*
X428467Y221828D01*
X428311Y222013D01*
X428182Y222228D01*
X428068Y222456D01*
X427968Y222699D01*
X427882Y222956D01*
X427811Y223198D01*
X427711Y223698D01*
X427668Y223926D01*
X427640Y224140D01*
X427625Y224340D01*
X427611Y224497D01*
X427597Y224640D01*
Y224754D01*
Y224811D01*
Y224840D01*
X427611Y225340D01*
X427640Y225568D01*
X427654Y225782D01*
X427697Y225982D01*
X427725Y226168D01*
X427768Y226339D01*
X427797Y226496D01*
X427839Y226624D01*
X427882Y226753D01*
X427911Y226853D01*
X427939Y226938D01*
X427968Y227010D01*
X427996Y227052D01*
X428011Y227081D01*
Y227095D01*
X428182Y227395D01*
X428353Y227652D01*
X428539Y227866D01*
X428724Y228037D01*
X428881Y228166D01*
X429010Y228266D01*
X429096Y228323D01*
X429110Y228337D01*
X429124D01*
X429395Y228466D01*
X429695Y228566D01*
X430009Y228637D01*
X430295Y228694D01*
X430552Y228723D01*
X430666D01*
X430766Y228737D01*
X430951D01*
X431294Y228723D01*
D02*
G37*
G36*
X438488D02*
X438817Y228694D01*
X439102Y228637D01*
X439373Y228580D01*
X439630Y228494D01*
X439873Y228409D01*
X440073Y228323D01*
X440273Y228223D01*
X440444Y228123D01*
X440587Y228037D01*
X440715Y227952D01*
X440815Y227866D01*
X440901Y227809D01*
X440958Y227752D01*
X440987Y227723D01*
X441001Y227709D01*
X441172Y227509D01*
X441329Y227295D01*
X441458Y227067D01*
X441572Y226824D01*
X441672Y226581D01*
X441757Y226353D01*
X441829Y226110D01*
X441871Y225882D01*
X441914Y225668D01*
X441943Y225468D01*
X441972Y225282D01*
X441986Y225125D01*
X442000Y224997D01*
Y224897D01*
Y224840D01*
Y224811D01*
X441972Y224312D01*
X441914Y223855D01*
X441871Y223641D01*
X441814Y223455D01*
X441772Y223284D01*
X441715Y223113D01*
X441657Y222970D01*
X441615Y222856D01*
X441558Y222742D01*
X441515Y222656D01*
X441486Y222584D01*
X441458Y222527D01*
X441429Y222499D01*
Y222485D01*
X441201Y222171D01*
X440972Y221914D01*
X440744Y221700D01*
X440530Y221514D01*
X440344Y221385D01*
X440201Y221300D01*
X440144Y221271D01*
X440102Y221243D01*
X440087Y221228D01*
X440073D01*
X439759Y221114D01*
X439431Y221028D01*
X439088Y220957D01*
X438760Y220914D01*
X438474Y220886D01*
X438360D01*
X438246Y220872D01*
X438046D01*
X437675Y220886D01*
X437346Y220914D01*
X437061Y220957D01*
X436818Y221014D01*
X436618Y221071D01*
X436476Y221114D01*
X436433Y221129D01*
X436390Y221143D01*
X436376Y221157D01*
X436362D01*
X436119Y221285D01*
X435919Y221414D01*
X435719Y221571D01*
X435562Y221700D01*
X435434Y221828D01*
X435348Y221928D01*
X435277Y221999D01*
X435262Y222028D01*
X435105Y222256D01*
X434963Y222499D01*
X434848Y222742D01*
X434748Y222970D01*
X434677Y223184D01*
X434634Y223341D01*
X434620Y223398D01*
X434606Y223441D01*
X434591Y223470D01*
Y223484D01*
X436647Y224112D01*
X436718Y223855D01*
X436790Y223627D01*
X436875Y223441D01*
X436961Y223284D01*
X437032Y223170D01*
X437104Y223084D01*
X437147Y223027D01*
X437161Y223013D01*
X437304Y222884D01*
X437461Y222799D01*
X437632Y222727D01*
X437803Y222684D01*
X437960Y222656D01*
X438074Y222642D01*
X438189D01*
X438431Y222656D01*
X438645Y222713D01*
X438831Y222784D01*
X438974Y222870D01*
X439102Y222956D01*
X439188Y223027D01*
X439245Y223084D01*
X439259Y223098D01*
X439331Y223198D01*
X439388Y223312D01*
X439488Y223570D01*
X439545Y223855D01*
X439602Y224140D01*
X439630Y224412D01*
Y224526D01*
X439645Y224640D01*
Y224726D01*
Y224783D01*
Y224826D01*
Y224840D01*
X439630Y225197D01*
X439602Y225497D01*
X439545Y225753D01*
X439488Y225968D01*
X439431Y226139D01*
X439373Y226253D01*
X439345Y226310D01*
X439331Y226339D01*
X439245Y226453D01*
X439159Y226553D01*
X438960Y226710D01*
X438760Y226824D01*
X438560Y226896D01*
X438374Y226953D01*
X438232Y226967D01*
X438174Y226981D01*
X437975D01*
X437846Y226953D01*
X437746Y226938D01*
X437646Y226910D01*
X437575Y226881D01*
X437503Y226853D01*
X437475Y226838D01*
X437461Y226824D01*
X437261Y226696D01*
X437104Y226567D01*
X437047Y226510D01*
X437004Y226453D01*
X436990Y226424D01*
X436975Y226410D01*
X436932Y226339D01*
X436890Y226267D01*
X436818Y226096D01*
X436790Y226025D01*
X436761Y225968D01*
X436747Y225925D01*
Y225910D01*
X434663Y226367D01*
X434748Y226581D01*
X434834Y226796D01*
X434934Y226981D01*
X435034Y227152D01*
X435234Y227452D01*
X435434Y227709D01*
X435619Y227909D01*
X435762Y228037D01*
X435819Y228095D01*
X435862Y228123D01*
X435890Y228152D01*
X435905D01*
X436062Y228252D01*
X436233Y228351D01*
X436604Y228494D01*
X436975Y228594D01*
X437332Y228666D01*
X437503Y228694D01*
X437660Y228708D01*
X437803Y228723D01*
X437917D01*
X438017Y228737D01*
X438160D01*
X438488Y228723D01*
D02*
G37*
G36*
X413488D02*
X413817Y228694D01*
X414102Y228637D01*
X414373Y228580D01*
X414630Y228494D01*
X414873Y228409D01*
X415073Y228323D01*
X415273Y228223D01*
X415444Y228123D01*
X415587Y228037D01*
X415715Y227952D01*
X415815Y227866D01*
X415901Y227809D01*
X415958Y227752D01*
X415987Y227723D01*
X416001Y227709D01*
X416172Y227509D01*
X416329Y227295D01*
X416458Y227067D01*
X416572Y226824D01*
X416672Y226581D01*
X416757Y226353D01*
X416829Y226110D01*
X416871Y225882D01*
X416914Y225668D01*
X416943Y225468D01*
X416972Y225282D01*
X416986Y225125D01*
X417000Y224997D01*
Y224897D01*
Y224840D01*
Y224811D01*
X416972Y224312D01*
X416914Y223855D01*
X416871Y223641D01*
X416814Y223455D01*
X416772Y223284D01*
X416715Y223113D01*
X416657Y222970D01*
X416615Y222856D01*
X416558Y222742D01*
X416515Y222656D01*
X416486Y222584D01*
X416458Y222527D01*
X416429Y222499D01*
Y222485D01*
X416201Y222171D01*
X415972Y221914D01*
X415744Y221700D01*
X415530Y221514D01*
X415344Y221385D01*
X415201Y221300D01*
X415144Y221271D01*
X415102Y221243D01*
X415087Y221228D01*
X415073D01*
X414759Y221114D01*
X414431Y221028D01*
X414088Y220957D01*
X413760Y220914D01*
X413474Y220886D01*
X413360D01*
X413246Y220872D01*
X413046D01*
X412675Y220886D01*
X412346Y220914D01*
X412061Y220957D01*
X411818Y221014D01*
X411618Y221071D01*
X411476Y221114D01*
X411433Y221129D01*
X411390Y221143D01*
X411376Y221157D01*
X411362D01*
X411119Y221285D01*
X410919Y221414D01*
X410719Y221571D01*
X410562Y221700D01*
X410434Y221828D01*
X410348Y221928D01*
X410277Y221999D01*
X410262Y222028D01*
X410105Y222256D01*
X409963Y222499D01*
X409848Y222742D01*
X409748Y222970D01*
X409677Y223184D01*
X409634Y223341D01*
X409620Y223398D01*
X409606Y223441D01*
X409591Y223470D01*
Y223484D01*
X411647Y224112D01*
X411718Y223855D01*
X411790Y223627D01*
X411875Y223441D01*
X411961Y223284D01*
X412032Y223170D01*
X412104Y223084D01*
X412147Y223027D01*
X412161Y223013D01*
X412304Y222884D01*
X412461Y222799D01*
X412632Y222727D01*
X412803Y222684D01*
X412960Y222656D01*
X413074Y222642D01*
X413189D01*
X413431Y222656D01*
X413645Y222713D01*
X413831Y222784D01*
X413974Y222870D01*
X414102Y222956D01*
X414188Y223027D01*
X414245Y223084D01*
X414259Y223098D01*
X414331Y223198D01*
X414388Y223312D01*
X414488Y223570D01*
X414545Y223855D01*
X414602Y224140D01*
X414630Y224412D01*
Y224526D01*
X414645Y224640D01*
Y224726D01*
Y224783D01*
Y224826D01*
Y224840D01*
X414630Y225197D01*
X414602Y225497D01*
X414545Y225753D01*
X414488Y225968D01*
X414431Y226139D01*
X414373Y226253D01*
X414345Y226310D01*
X414331Y226339D01*
X414245Y226453D01*
X414159Y226553D01*
X413960Y226710D01*
X413760Y226824D01*
X413560Y226896D01*
X413374Y226953D01*
X413232Y226967D01*
X413174Y226981D01*
X412975D01*
X412846Y226953D01*
X412746Y226938D01*
X412646Y226910D01*
X412575Y226881D01*
X412503Y226853D01*
X412475Y226838D01*
X412461Y226824D01*
X412261Y226696D01*
X412104Y226567D01*
X412047Y226510D01*
X412004Y226453D01*
X411990Y226424D01*
X411975Y226410D01*
X411932Y226339D01*
X411890Y226267D01*
X411818Y226096D01*
X411790Y226025D01*
X411761Y225968D01*
X411747Y225925D01*
Y225910D01*
X409663Y226367D01*
X409748Y226581D01*
X409834Y226796D01*
X409934Y226981D01*
X410034Y227152D01*
X410234Y227452D01*
X410434Y227709D01*
X410619Y227909D01*
X410762Y228037D01*
X410819Y228095D01*
X410862Y228123D01*
X410890Y228152D01*
X410905D01*
X411062Y228252D01*
X411233Y228351D01*
X411604Y228494D01*
X411975Y228594D01*
X412332Y228666D01*
X412503Y228694D01*
X412660Y228708D01*
X412803Y228723D01*
X412917D01*
X413017Y228737D01*
X413160D01*
X413488Y228723D01*
D02*
G37*
G36*
X406237D02*
X406594Y228666D01*
X406908Y228594D01*
X407179Y228508D01*
X407393Y228409D01*
X407479Y228380D01*
X407550Y228337D01*
X407607Y228309D01*
X407650Y228280D01*
X407664Y228266D01*
X407679D01*
X407836Y228152D01*
X407964Y228023D01*
X408092Y227895D01*
X408192Y227766D01*
X408278Y227638D01*
X408349Y227509D01*
X408449Y227252D01*
X408521Y227038D01*
X408535Y226953D01*
X408549Y226867D01*
X408564Y226796D01*
Y226753D01*
Y226724D01*
Y226710D01*
X408549Y226496D01*
X408521Y226296D01*
X408464Y226125D01*
X408407Y225982D01*
X408349Y225853D01*
X408292Y225768D01*
X408264Y225696D01*
X408250Y225682D01*
X408150Y225568D01*
X408035Y225454D01*
X407921Y225354D01*
X407793Y225254D01*
X407693Y225182D01*
X407607Y225125D01*
X407550Y225097D01*
X407522Y225083D01*
X407750Y224983D01*
X407950Y224869D01*
X408121Y224754D01*
X408250Y224640D01*
X408364Y224526D01*
X408435Y224440D01*
X408478Y224383D01*
X408492Y224369D01*
X408592Y224183D01*
X408663Y223998D01*
X408721Y223798D01*
X408749Y223627D01*
X408778Y223470D01*
X408792Y223341D01*
Y223255D01*
Y223241D01*
Y223227D01*
X408778Y222984D01*
X408735Y222742D01*
X408692Y222527D01*
X408621Y222356D01*
X408564Y222199D01*
X408521Y222085D01*
X408478Y222013D01*
X408464Y221985D01*
X408321Y221799D01*
X408178Y221628D01*
X408021Y221485D01*
X407864Y221371D01*
X407721Y221271D01*
X407607Y221214D01*
X407536Y221171D01*
X407507Y221157D01*
X407236Y221057D01*
X406950Y220986D01*
X406637Y220943D01*
X406337Y220914D01*
X406065Y220886D01*
X405951D01*
X405851Y220872D01*
X405409D01*
X405195Y220886D01*
X404995Y220914D01*
X404809Y220943D01*
X404667Y220957D01*
X404552Y220986D01*
X404481Y221000D01*
X404453D01*
X404253Y221043D01*
X404067Y221114D01*
X403896Y221171D01*
X403753Y221243D01*
X403653Y221300D01*
X403567Y221343D01*
X403510Y221371D01*
X403496Y221385D01*
X403353Y221500D01*
X403239Y221614D01*
X403125Y221742D01*
X403025Y221871D01*
X402954Y221985D01*
X402896Y222071D01*
X402868Y222128D01*
X402854Y222156D01*
X402768Y222342D01*
X402697Y222542D01*
X402654Y222713D01*
X402611Y222884D01*
X402597Y223027D01*
X402583Y223127D01*
Y223198D01*
Y223227D01*
X402597Y223441D01*
X402625Y223641D01*
X402682Y223826D01*
X402739Y223983D01*
X402797Y224112D01*
X402854Y224212D01*
X402882Y224269D01*
X402896Y224298D01*
X403025Y224469D01*
X403168Y224626D01*
X403311Y224769D01*
X403467Y224883D01*
X403596Y224968D01*
X403710Y225026D01*
X403782Y225068D01*
X403796Y225083D01*
X403810D01*
X403639Y225197D01*
X403510Y225311D01*
X403382Y225425D01*
X403296Y225525D01*
X403210Y225611D01*
X403168Y225668D01*
X403139Y225711D01*
X403125Y225725D01*
X403025Y225896D01*
X402954Y226068D01*
X402896Y226239D01*
X402868Y226382D01*
X402839Y226510D01*
X402825Y226610D01*
Y226667D01*
Y226696D01*
X402839Y226853D01*
X402854Y227010D01*
X402939Y227295D01*
X403054Y227538D01*
X403196Y227752D01*
X403339Y227923D01*
X403453Y228052D01*
X403539Y228123D01*
X403553Y228152D01*
X403567D01*
X403710Y228252D01*
X403867Y228351D01*
X404224Y228494D01*
X404595Y228594D01*
X404966Y228666D01*
X405138Y228694D01*
X405295Y228708D01*
X405452Y228723D01*
X405566D01*
X405680Y228737D01*
X405823D01*
X406237Y228723D01*
D02*
G37*
G36*
X177809Y252723D02*
X178065Y252694D01*
X178323Y252651D01*
X178551Y252580D01*
X178765Y252509D01*
X178965Y252437D01*
X179150Y252337D01*
X179307Y252252D01*
X179450Y252166D01*
X179579Y252080D01*
X179693Y251995D01*
X179778Y251923D01*
X179850Y251852D01*
X179893Y251809D01*
X179921Y251780D01*
X179935Y251766D01*
X180093Y251581D01*
X180221Y251367D01*
X180335Y251138D01*
X180435Y250896D01*
X180506Y250639D01*
X180578Y250396D01*
X180678Y249896D01*
X180721Y249668D01*
X180749Y249454D01*
X180763Y249254D01*
X180778Y249097D01*
X180792Y248954D01*
Y248840D01*
Y248783D01*
Y248754D01*
X180778Y248255D01*
X180749Y248026D01*
X180735Y247812D01*
X180692Y247612D01*
X180664Y247427D01*
X180635Y247255D01*
X180592Y247098D01*
X180549Y246970D01*
X180521Y246841D01*
X180478Y246742D01*
X180449Y246656D01*
X180435Y246584D01*
X180407Y246542D01*
X180392Y246513D01*
Y246499D01*
X180221Y246199D01*
X180050Y245942D01*
X179864Y245728D01*
X179693Y245557D01*
X179536Y245428D01*
X179407Y245328D01*
X179322Y245271D01*
X179307Y245257D01*
X179293D01*
X179008Y245128D01*
X178708Y245028D01*
X178408Y244971D01*
X178108Y244914D01*
X177851Y244886D01*
X177737D01*
X177637Y244872D01*
X177452D01*
X177109Y244886D01*
X176795Y244914D01*
X176524Y244971D01*
X176295Y245028D01*
X176110Y245086D01*
X175981Y245143D01*
X175896Y245171D01*
X175867Y245186D01*
X175639Y245314D01*
X175439Y245457D01*
X175268Y245614D01*
X175125Y245771D01*
X175011Y245899D01*
X174939Y246014D01*
X174882Y246085D01*
X174868Y246113D01*
X174754Y246356D01*
X174668Y246599D01*
X174597Y246827D01*
X174554Y247041D01*
X174525Y247227D01*
X174511Y247370D01*
Y247427D01*
Y247470D01*
Y247484D01*
Y247498D01*
X174525Y247698D01*
X174540Y247898D01*
X174625Y248255D01*
X174739Y248569D01*
X174868Y248840D01*
X174996Y249054D01*
X175054Y249140D01*
X175111Y249211D01*
X175153Y249268D01*
X175196Y249311D01*
X175210Y249325D01*
X175225Y249340D01*
X175353Y249468D01*
X175496Y249582D01*
X175639Y249682D01*
X175796Y249768D01*
X176081Y249896D01*
X176353Y249982D01*
X176595Y250025D01*
X176695Y250039D01*
X176781Y250053D01*
X176852Y250068D01*
X176952D01*
X177138Y250053D01*
X177323Y250039D01*
X177480Y250010D01*
X177609Y249982D01*
X177723Y249939D01*
X177809Y249911D01*
X177866Y249896D01*
X177880Y249882D01*
X178023Y249811D01*
X178165Y249711D01*
X178294Y249625D01*
X178408Y249525D01*
X178508Y249440D01*
X178579Y249368D01*
X178636Y249325D01*
X178651Y249311D01*
X178636Y249525D01*
X178608Y249739D01*
X178594Y249911D01*
X178565Y250082D01*
X178537Y250225D01*
X178522Y250353D01*
X178494Y250467D01*
X178465Y250567D01*
X178451Y250653D01*
X178422Y250724D01*
X178380Y250838D01*
X178365Y250896D01*
X178351Y250910D01*
X178237Y251081D01*
X178108Y251210D01*
X177966Y251310D01*
X177837Y251367D01*
X177723Y251409D01*
X177623Y251424D01*
X177566Y251438D01*
X177537D01*
X177437Y251424D01*
X177337Y251409D01*
X177181Y251352D01*
X177123Y251310D01*
X177080Y251281D01*
X177066Y251267D01*
X177052Y251252D01*
X176981Y251167D01*
X176924Y251081D01*
X176838Y250867D01*
X176809Y250781D01*
X176781Y250696D01*
X176766Y250639D01*
Y250624D01*
X174668Y250881D01*
X174739Y251095D01*
X174825Y251295D01*
X174925Y251467D01*
X175011Y251623D01*
X175082Y251738D01*
X175153Y251823D01*
X175196Y251880D01*
X175210Y251895D01*
X175339Y252038D01*
X175496Y252166D01*
X175639Y252280D01*
X175767Y252366D01*
X175896Y252437D01*
X175996Y252480D01*
X176053Y252509D01*
X176081Y252523D01*
X176295Y252594D01*
X176524Y252651D01*
X176766Y252680D01*
X176995Y252708D01*
X177209Y252723D01*
X177366Y252737D01*
X177523D01*
X177809Y252723D01*
D02*
G37*
G36*
X185488D02*
X185817Y252694D01*
X186102Y252637D01*
X186373Y252580D01*
X186630Y252494D01*
X186873Y252409D01*
X187073Y252323D01*
X187273Y252223D01*
X187444Y252123D01*
X187587Y252038D01*
X187715Y251952D01*
X187815Y251866D01*
X187901Y251809D01*
X187958Y251752D01*
X187987Y251723D01*
X188001Y251709D01*
X188172Y251509D01*
X188329Y251295D01*
X188458Y251067D01*
X188572Y250824D01*
X188672Y250581D01*
X188757Y250353D01*
X188829Y250110D01*
X188871Y249882D01*
X188914Y249668D01*
X188943Y249468D01*
X188972Y249282D01*
X188986Y249125D01*
X189000Y248997D01*
Y248897D01*
Y248840D01*
Y248811D01*
X188972Y248312D01*
X188914Y247855D01*
X188871Y247641D01*
X188814Y247455D01*
X188772Y247284D01*
X188715Y247113D01*
X188657Y246970D01*
X188615Y246856D01*
X188557Y246742D01*
X188515Y246656D01*
X188486Y246584D01*
X188458Y246527D01*
X188429Y246499D01*
Y246485D01*
X188201Y246171D01*
X187972Y245914D01*
X187744Y245700D01*
X187530Y245514D01*
X187344Y245385D01*
X187201Y245300D01*
X187144Y245271D01*
X187101Y245243D01*
X187087Y245228D01*
X187073D01*
X186759Y245114D01*
X186430Y245028D01*
X186088Y244957D01*
X185760Y244914D01*
X185474Y244886D01*
X185360D01*
X185246Y244872D01*
X185046D01*
X184675Y244886D01*
X184346Y244914D01*
X184061Y244957D01*
X183818Y245014D01*
X183618Y245071D01*
X183476Y245114D01*
X183433Y245128D01*
X183390Y245143D01*
X183376Y245157D01*
X183361D01*
X183119Y245285D01*
X182919Y245414D01*
X182719Y245571D01*
X182562Y245700D01*
X182434Y245828D01*
X182348Y245928D01*
X182277Y245999D01*
X182262Y246028D01*
X182105Y246256D01*
X181963Y246499D01*
X181848Y246742D01*
X181748Y246970D01*
X181677Y247184D01*
X181634Y247341D01*
X181620Y247398D01*
X181606Y247441D01*
X181591Y247470D01*
Y247484D01*
X183647Y248112D01*
X183718Y247855D01*
X183790Y247627D01*
X183875Y247441D01*
X183961Y247284D01*
X184032Y247170D01*
X184104Y247084D01*
X184147Y247027D01*
X184161Y247013D01*
X184304Y246884D01*
X184461Y246799D01*
X184632Y246727D01*
X184803Y246684D01*
X184960Y246656D01*
X185074Y246642D01*
X185189D01*
X185431Y246656D01*
X185645Y246713D01*
X185831Y246784D01*
X185974Y246870D01*
X186102Y246956D01*
X186188Y247027D01*
X186245Y247084D01*
X186259Y247098D01*
X186331Y247198D01*
X186388Y247313D01*
X186488Y247570D01*
X186545Y247855D01*
X186602Y248140D01*
X186630Y248412D01*
Y248526D01*
X186645Y248640D01*
Y248726D01*
Y248783D01*
Y248826D01*
Y248840D01*
X186630Y249197D01*
X186602Y249497D01*
X186545Y249753D01*
X186488Y249968D01*
X186430Y250139D01*
X186373Y250253D01*
X186345Y250310D01*
X186331Y250339D01*
X186245Y250453D01*
X186159Y250553D01*
X185959Y250710D01*
X185760Y250824D01*
X185560Y250896D01*
X185374Y250953D01*
X185231Y250967D01*
X185174Y250981D01*
X184974D01*
X184846Y250953D01*
X184746Y250938D01*
X184646Y250910D01*
X184575Y250881D01*
X184503Y250853D01*
X184475Y250838D01*
X184461Y250824D01*
X184261Y250696D01*
X184104Y250567D01*
X184047Y250510D01*
X184004Y250453D01*
X183990Y250424D01*
X183975Y250410D01*
X183932Y250339D01*
X183890Y250267D01*
X183818Y250096D01*
X183790Y250025D01*
X183761Y249968D01*
X183747Y249925D01*
Y249911D01*
X181663Y250367D01*
X181748Y250581D01*
X181834Y250796D01*
X181934Y250981D01*
X182034Y251152D01*
X182234Y251452D01*
X182434Y251709D01*
X182619Y251909D01*
X182762Y252038D01*
X182819Y252095D01*
X182862Y252123D01*
X182890Y252152D01*
X182905D01*
X183062Y252252D01*
X183233Y252351D01*
X183604Y252494D01*
X183975Y252594D01*
X184332Y252666D01*
X184503Y252694D01*
X184660Y252708D01*
X184803Y252723D01*
X184917D01*
X185017Y252737D01*
X185160D01*
X185488Y252723D01*
D02*
G37*
G36*
X389621Y224512D02*
X387822Y224240D01*
X387722Y224340D01*
X387636Y224426D01*
X387565Y224497D01*
X387494Y224554D01*
X387437Y224583D01*
X387394Y224611D01*
X387365Y224640D01*
X387351D01*
X387237Y224697D01*
X387137Y224726D01*
X386951Y224783D01*
X386880D01*
X386823Y224797D01*
X386766D01*
X386594Y224783D01*
X386437Y224740D01*
X386309Y224697D01*
X386195Y224640D01*
X386095Y224569D01*
X386038Y224526D01*
X385995Y224483D01*
X385981Y224469D01*
X385881Y224340D01*
X385809Y224183D01*
X385752Y224026D01*
X385724Y223855D01*
X385695Y223712D01*
X385681Y223598D01*
Y223512D01*
Y223498D01*
Y223484D01*
X385695Y223255D01*
X385724Y223041D01*
X385781Y222870D01*
X385824Y222727D01*
X385881Y222627D01*
X385938Y222542D01*
X385966Y222499D01*
X385981Y222485D01*
X386095Y222370D01*
X386209Y222299D01*
X386338Y222242D01*
X386452Y222199D01*
X386552Y222171D01*
X386637Y222156D01*
X386709D01*
X386851Y222171D01*
X386980Y222199D01*
X387094Y222242D01*
X387194Y222285D01*
X387280Y222327D01*
X387337Y222370D01*
X387379Y222399D01*
X387394Y222413D01*
X387494Y222527D01*
X387565Y222656D01*
X387636Y222784D01*
X387679Y222913D01*
X387708Y223027D01*
X387736Y223113D01*
X387751Y223170D01*
Y223198D01*
X389892Y222956D01*
X389835Y222770D01*
X389778Y222599D01*
X389706Y222442D01*
X389649Y222313D01*
X389606Y222213D01*
X389564Y222142D01*
X389535Y222085D01*
X389521Y222071D01*
X389321Y221814D01*
X389221Y221714D01*
X389121Y221614D01*
X389035Y221542D01*
X388964Y221485D01*
X388921Y221443D01*
X388907Y221428D01*
X388607Y221243D01*
X388450Y221171D01*
X388307Y221114D01*
X388179Y221057D01*
X388079Y221028D01*
X388022Y221014D01*
X387993Y221000D01*
X387779Y220957D01*
X387565Y220929D01*
X387337Y220900D01*
X387137Y220886D01*
X386966D01*
X386823Y220872D01*
X386694D01*
X386323Y220886D01*
X385981Y220929D01*
X385681Y220986D01*
X385438Y221057D01*
X385238Y221114D01*
X385081Y221171D01*
X385038Y221200D01*
X384996Y221214D01*
X384981Y221228D01*
X384967D01*
X384724Y221371D01*
X384525Y221542D01*
X384339Y221714D01*
X384196Y221871D01*
X384082Y222028D01*
X383996Y222142D01*
X383939Y222228D01*
X383925Y222242D01*
Y222256D01*
X383797Y222513D01*
X383711Y222770D01*
X383639Y222999D01*
X383597Y223227D01*
X383568Y223398D01*
X383554Y223541D01*
Y223598D01*
Y223641D01*
Y223655D01*
Y223669D01*
X383568Y223869D01*
X383582Y224055D01*
X383668Y224383D01*
X383782Y224683D01*
X383911Y224940D01*
X384039Y225140D01*
X384153Y225282D01*
X384196Y225340D01*
X384239Y225382D01*
X384253Y225397D01*
X384268Y225411D01*
X384410Y225539D01*
X384553Y225639D01*
X384710Y225739D01*
X384867Y225811D01*
X385167Y225939D01*
X385467Y226025D01*
X385738Y226068D01*
X385852Y226096D01*
X385952D01*
X386023Y226110D01*
X386138D01*
X386380Y226096D01*
X386494Y226082D01*
X386609Y226068D01*
X386694Y226053D01*
X386766Y226039D01*
X386809Y226025D01*
X386823D01*
X387080Y225953D01*
X387194Y225910D01*
X387294Y225868D01*
X387394Y225825D01*
X387465Y225796D01*
X387508Y225782D01*
X387522Y225768D01*
X387337Y226924D01*
X383911D01*
Y228608D01*
X388950D01*
X389621Y224512D01*
D02*
G37*
G36*
X394488Y228723D02*
X394817Y228694D01*
X395102Y228637D01*
X395373Y228580D01*
X395630Y228494D01*
X395873Y228409D01*
X396073Y228323D01*
X396273Y228223D01*
X396444Y228123D01*
X396587Y228037D01*
X396715Y227952D01*
X396815Y227866D01*
X396901Y227809D01*
X396958Y227752D01*
X396987Y227723D01*
X397001Y227709D01*
X397172Y227509D01*
X397329Y227295D01*
X397458Y227067D01*
X397572Y226824D01*
X397672Y226581D01*
X397757Y226353D01*
X397829Y226110D01*
X397872Y225882D01*
X397914Y225668D01*
X397943Y225468D01*
X397971Y225282D01*
X397986Y225125D01*
X398000Y224997D01*
Y224897D01*
Y224840D01*
Y224811D01*
X397971Y224312D01*
X397914Y223855D01*
X397872Y223641D01*
X397814Y223455D01*
X397772Y223284D01*
X397715Y223113D01*
X397657Y222970D01*
X397615Y222856D01*
X397557Y222742D01*
X397515Y222656D01*
X397486Y222584D01*
X397458Y222527D01*
X397429Y222499D01*
Y222485D01*
X397201Y222171D01*
X396972Y221914D01*
X396744Y221700D01*
X396530Y221514D01*
X396344Y221385D01*
X396201Y221300D01*
X396144Y221271D01*
X396101Y221243D01*
X396087Y221228D01*
X396073D01*
X395759Y221114D01*
X395430Y221028D01*
X395088Y220957D01*
X394760Y220914D01*
X394474Y220886D01*
X394360D01*
X394246Y220872D01*
X394046D01*
X393675Y220886D01*
X393346Y220914D01*
X393061Y220957D01*
X392818Y221014D01*
X392618Y221071D01*
X392476Y221114D01*
X392433Y221129D01*
X392390Y221143D01*
X392376Y221157D01*
X392361D01*
X392119Y221285D01*
X391919Y221414D01*
X391719Y221571D01*
X391562Y221700D01*
X391434Y221828D01*
X391348Y221928D01*
X391277Y221999D01*
X391262Y222028D01*
X391105Y222256D01*
X390962Y222499D01*
X390848Y222742D01*
X390748Y222970D01*
X390677Y223184D01*
X390634Y223341D01*
X390620Y223398D01*
X390606Y223441D01*
X390591Y223470D01*
Y223484D01*
X392647Y224112D01*
X392718Y223855D01*
X392790Y223627D01*
X392875Y223441D01*
X392961Y223284D01*
X393032Y223170D01*
X393104Y223084D01*
X393147Y223027D01*
X393161Y223013D01*
X393304Y222884D01*
X393461Y222799D01*
X393632Y222727D01*
X393803Y222684D01*
X393960Y222656D01*
X394074Y222642D01*
X394189D01*
X394431Y222656D01*
X394645Y222713D01*
X394831Y222784D01*
X394974Y222870D01*
X395102Y222956D01*
X395188Y223027D01*
X395245Y223084D01*
X395259Y223098D01*
X395331Y223198D01*
X395388Y223312D01*
X395488Y223570D01*
X395545Y223855D01*
X395602Y224140D01*
X395630Y224412D01*
Y224526D01*
X395645Y224640D01*
Y224726D01*
Y224783D01*
Y224826D01*
Y224840D01*
X395630Y225197D01*
X395602Y225497D01*
X395545Y225753D01*
X395488Y225968D01*
X395430Y226139D01*
X395373Y226253D01*
X395345Y226310D01*
X395331Y226339D01*
X395245Y226453D01*
X395159Y226553D01*
X394959Y226710D01*
X394760Y226824D01*
X394560Y226896D01*
X394374Y226953D01*
X394231Y226967D01*
X394174Y226981D01*
X393974D01*
X393846Y226953D01*
X393746Y226938D01*
X393646Y226910D01*
X393575Y226881D01*
X393503Y226853D01*
X393475Y226838D01*
X393461Y226824D01*
X393261Y226696D01*
X393104Y226567D01*
X393047Y226510D01*
X393004Y226453D01*
X392990Y226424D01*
X392975Y226410D01*
X392932Y226339D01*
X392890Y226267D01*
X392818Y226096D01*
X392790Y226025D01*
X392761Y225968D01*
X392747Y225925D01*
Y225910D01*
X390663Y226367D01*
X390748Y226581D01*
X390834Y226796D01*
X390934Y226981D01*
X391034Y227152D01*
X391234Y227452D01*
X391434Y227709D01*
X391619Y227909D01*
X391762Y228037D01*
X391819Y228095D01*
X391862Y228123D01*
X391890Y228152D01*
X391905D01*
X392062Y228252D01*
X392233Y228351D01*
X392604Y228494D01*
X392975Y228594D01*
X393332Y228666D01*
X393503Y228694D01*
X393661Y228708D01*
X393803Y228723D01*
X393917D01*
X394017Y228737D01*
X394160D01*
X394488Y228723D01*
D02*
G37*
G36*
X369488D02*
X369817Y228694D01*
X370102Y228637D01*
X370373Y228580D01*
X370630Y228494D01*
X370873Y228409D01*
X371073Y228323D01*
X371273Y228223D01*
X371444Y228123D01*
X371587Y228037D01*
X371715Y227952D01*
X371815Y227866D01*
X371901Y227809D01*
X371958Y227752D01*
X371987Y227723D01*
X372001Y227709D01*
X372172Y227509D01*
X372329Y227295D01*
X372458Y227067D01*
X372572Y226824D01*
X372672Y226581D01*
X372757Y226353D01*
X372829Y226110D01*
X372872Y225882D01*
X372914Y225668D01*
X372943Y225468D01*
X372971Y225282D01*
X372986Y225125D01*
X373000Y224997D01*
Y224897D01*
Y224840D01*
Y224811D01*
X372971Y224312D01*
X372914Y223855D01*
X372872Y223641D01*
X372814Y223455D01*
X372772Y223284D01*
X372715Y223113D01*
X372657Y222970D01*
X372615Y222856D01*
X372557Y222742D01*
X372515Y222656D01*
X372486Y222584D01*
X372458Y222527D01*
X372429Y222499D01*
Y222485D01*
X372201Y222171D01*
X371972Y221914D01*
X371744Y221700D01*
X371530Y221514D01*
X371344Y221385D01*
X371201Y221300D01*
X371144Y221271D01*
X371101Y221243D01*
X371087Y221228D01*
X371073D01*
X370759Y221114D01*
X370430Y221028D01*
X370088Y220957D01*
X369760Y220914D01*
X369474Y220886D01*
X369360D01*
X369246Y220872D01*
X369046D01*
X368675Y220886D01*
X368346Y220914D01*
X368061Y220957D01*
X367818Y221014D01*
X367618Y221071D01*
X367476Y221114D01*
X367433Y221129D01*
X367390Y221143D01*
X367376Y221157D01*
X367361D01*
X367119Y221285D01*
X366919Y221414D01*
X366719Y221571D01*
X366562Y221700D01*
X366434Y221828D01*
X366348Y221928D01*
X366277Y221999D01*
X366262Y222028D01*
X366105Y222256D01*
X365962Y222499D01*
X365848Y222742D01*
X365748Y222970D01*
X365677Y223184D01*
X365634Y223341D01*
X365620Y223398D01*
X365606Y223441D01*
X365591Y223470D01*
Y223484D01*
X367647Y224112D01*
X367718Y223855D01*
X367790Y223627D01*
X367875Y223441D01*
X367961Y223284D01*
X368032Y223170D01*
X368104Y223084D01*
X368147Y223027D01*
X368161Y223013D01*
X368304Y222884D01*
X368461Y222799D01*
X368632Y222727D01*
X368803Y222684D01*
X368960Y222656D01*
X369074Y222642D01*
X369189D01*
X369431Y222656D01*
X369645Y222713D01*
X369831Y222784D01*
X369974Y222870D01*
X370102Y222956D01*
X370188Y223027D01*
X370245Y223084D01*
X370259Y223098D01*
X370331Y223198D01*
X370388Y223312D01*
X370488Y223570D01*
X370545Y223855D01*
X370602Y224140D01*
X370630Y224412D01*
Y224526D01*
X370645Y224640D01*
Y224726D01*
Y224783D01*
Y224826D01*
Y224840D01*
X370630Y225197D01*
X370602Y225497D01*
X370545Y225753D01*
X370488Y225968D01*
X370430Y226139D01*
X370373Y226253D01*
X370345Y226310D01*
X370331Y226339D01*
X370245Y226453D01*
X370159Y226553D01*
X369959Y226710D01*
X369760Y226824D01*
X369560Y226896D01*
X369374Y226953D01*
X369231Y226967D01*
X369174Y226981D01*
X368974D01*
X368846Y226953D01*
X368746Y226938D01*
X368646Y226910D01*
X368575Y226881D01*
X368503Y226853D01*
X368475Y226838D01*
X368461Y226824D01*
X368261Y226696D01*
X368104Y226567D01*
X368047Y226510D01*
X368004Y226453D01*
X367990Y226424D01*
X367975Y226410D01*
X367932Y226339D01*
X367890Y226267D01*
X367818Y226096D01*
X367790Y226025D01*
X367761Y225968D01*
X367747Y225925D01*
Y225910D01*
X365663Y226367D01*
X365748Y226581D01*
X365834Y226796D01*
X365934Y226981D01*
X366034Y227152D01*
X366234Y227452D01*
X366434Y227709D01*
X366619Y227909D01*
X366762Y228037D01*
X366819Y228095D01*
X366862Y228123D01*
X366890Y228152D01*
X366905D01*
X367062Y228252D01*
X367233Y228351D01*
X367604Y228494D01*
X367975Y228594D01*
X368332Y228666D01*
X368503Y228694D01*
X368661Y228708D01*
X368803Y228723D01*
X368917D01*
X369017Y228737D01*
X369160D01*
X369488Y228723D01*
D02*
G37*
G36*
X365020Y224140D02*
Y222413D01*
X361166D01*
Y221000D01*
X359325D01*
Y222413D01*
X358368D01*
Y224055D01*
X359325D01*
Y228737D01*
X361166D01*
X365020Y224140D01*
D02*
G37*
G36*
X34883Y157340D02*
X35025Y157097D01*
X35182Y156897D01*
X35339Y156712D01*
X35468Y156569D01*
X35582Y156469D01*
X35653Y156412D01*
X35682Y156384D01*
X35924Y156212D01*
X36196Y156055D01*
X36467Y155913D01*
X36738Y155784D01*
X36981Y155684D01*
X37081Y155656D01*
X37181Y155613D01*
X37252Y155584D01*
X37309Y155570D01*
X37338Y155556D01*
X37352D01*
Y153828D01*
X37095Y153914D01*
X36852Y153985D01*
X36653Y154071D01*
X36467Y154142D01*
X36324Y154199D01*
X36224Y154242D01*
X36167Y154271D01*
X36139Y154285D01*
X35953Y154385D01*
X35782Y154485D01*
X35610Y154599D01*
X35454Y154699D01*
X35311Y154785D01*
X35211Y154856D01*
X35154Y154913D01*
X35125Y154928D01*
Y149860D01*
X32984D01*
Y157597D01*
X34740D01*
X34883Y157340D01*
D02*
G37*
G36*
X42462Y157583D02*
X42791Y157554D01*
X43076Y157497D01*
X43347Y157440D01*
X43604Y157354D01*
X43847Y157269D01*
X44047Y157183D01*
X44247Y157083D01*
X44418Y156983D01*
X44561Y156897D01*
X44689Y156812D01*
X44789Y156726D01*
X44875Y156669D01*
X44932Y156612D01*
X44960Y156583D01*
X44975Y156569D01*
X45146Y156369D01*
X45303Y156155D01*
X45432Y155927D01*
X45546Y155684D01*
X45646Y155441D01*
X45731Y155213D01*
X45803Y154970D01*
X45845Y154742D01*
X45888Y154528D01*
X45917Y154328D01*
X45946Y154142D01*
X45960Y153985D01*
X45974Y153857D01*
Y153757D01*
Y153700D01*
Y153671D01*
X45946Y153172D01*
X45888Y152715D01*
X45845Y152501D01*
X45788Y152315D01*
X45746Y152144D01*
X45689Y151973D01*
X45631Y151830D01*
X45589Y151716D01*
X45532Y151601D01*
X45489Y151516D01*
X45460Y151445D01*
X45432Y151387D01*
X45403Y151359D01*
Y151345D01*
X45175Y151031D01*
X44946Y150774D01*
X44718Y150560D01*
X44504Y150374D01*
X44318Y150245D01*
X44175Y150160D01*
X44118Y150131D01*
X44075Y150103D01*
X44061Y150088D01*
X44047D01*
X43733Y149974D01*
X43404Y149888D01*
X43062Y149817D01*
X42734Y149774D01*
X42448Y149746D01*
X42334D01*
X42220Y149732D01*
X42020D01*
X41649Y149746D01*
X41320Y149774D01*
X41035Y149817D01*
X40792Y149874D01*
X40592Y149931D01*
X40450Y149974D01*
X40407Y149988D01*
X40364Y150003D01*
X40350Y150017D01*
X40335D01*
X40093Y150146D01*
X39893Y150274D01*
X39693Y150431D01*
X39536Y150560D01*
X39408Y150688D01*
X39322Y150788D01*
X39251Y150859D01*
X39236Y150888D01*
X39079Y151116D01*
X38937Y151359D01*
X38822Y151601D01*
X38722Y151830D01*
X38651Y152044D01*
X38608Y152201D01*
X38594Y152258D01*
X38580Y152301D01*
X38565Y152330D01*
Y152344D01*
X40621Y152972D01*
X40692Y152715D01*
X40764Y152487D01*
X40849Y152301D01*
X40935Y152144D01*
X41006Y152030D01*
X41078Y151944D01*
X41121Y151887D01*
X41135Y151873D01*
X41278Y151744D01*
X41435Y151659D01*
X41606Y151587D01*
X41777Y151544D01*
X41934Y151516D01*
X42048Y151502D01*
X42163D01*
X42405Y151516D01*
X42619Y151573D01*
X42805Y151644D01*
X42948Y151730D01*
X43076Y151816D01*
X43162Y151887D01*
X43219Y151944D01*
X43233Y151958D01*
X43305Y152058D01*
X43362Y152172D01*
X43462Y152430D01*
X43519Y152715D01*
X43576Y153000D01*
X43604Y153272D01*
Y153386D01*
X43619Y153500D01*
Y153586D01*
Y153643D01*
Y153686D01*
Y153700D01*
X43604Y154057D01*
X43576Y154357D01*
X43519Y154614D01*
X43462Y154828D01*
X43404Y154999D01*
X43347Y155113D01*
X43319Y155170D01*
X43305Y155199D01*
X43219Y155313D01*
X43133Y155413D01*
X42934Y155570D01*
X42734Y155684D01*
X42534Y155756D01*
X42348Y155813D01*
X42206Y155827D01*
X42148Y155841D01*
X41948D01*
X41820Y155813D01*
X41720Y155798D01*
X41620Y155770D01*
X41549Y155741D01*
X41477Y155713D01*
X41449Y155698D01*
X41435Y155684D01*
X41235Y155556D01*
X41078Y155427D01*
X41021Y155370D01*
X40978Y155313D01*
X40964Y155284D01*
X40949Y155270D01*
X40906Y155199D01*
X40864Y155127D01*
X40792Y154956D01*
X40764Y154885D01*
X40735Y154828D01*
X40721Y154785D01*
Y154770D01*
X38637Y155227D01*
X38722Y155441D01*
X38808Y155656D01*
X38908Y155841D01*
X39008Y156012D01*
X39208Y156312D01*
X39408Y156569D01*
X39593Y156769D01*
X39736Y156897D01*
X39793Y156955D01*
X39836Y156983D01*
X39864Y157012D01*
X39879D01*
X40036Y157112D01*
X40207Y157212D01*
X40578Y157354D01*
X40949Y157454D01*
X41306Y157526D01*
X41477Y157554D01*
X41634Y157568D01*
X41777Y157583D01*
X41891D01*
X41991Y157597D01*
X42134D01*
X42462Y157583D01*
D02*
G37*
G36*
X485909Y228480D02*
X486051Y228237D01*
X486208Y228037D01*
X486365Y227852D01*
X486494Y227709D01*
X486608Y227609D01*
X486679Y227552D01*
X486708Y227524D01*
X486950Y227352D01*
X487222Y227195D01*
X487493Y227052D01*
X487764Y226924D01*
X488007Y226824D01*
X488107Y226796D01*
X488207Y226753D01*
X488278Y226724D01*
X488335Y226710D01*
X488364Y226696D01*
X488378D01*
Y224968D01*
X488121Y225054D01*
X487878Y225125D01*
X487679Y225211D01*
X487493Y225282D01*
X487350Y225340D01*
X487250Y225382D01*
X487193Y225411D01*
X487165Y225425D01*
X486979Y225525D01*
X486808Y225625D01*
X486637Y225739D01*
X486479Y225839D01*
X486337Y225925D01*
X486237Y225996D01*
X486180Y226053D01*
X486151Y226068D01*
Y221000D01*
X484010D01*
Y228737D01*
X485766D01*
X485909Y228480D01*
D02*
G37*
G36*
X493488Y228723D02*
X493817Y228694D01*
X494102Y228637D01*
X494373Y228580D01*
X494630Y228494D01*
X494873Y228409D01*
X495073Y228323D01*
X495273Y228223D01*
X495444Y228123D01*
X495587Y228037D01*
X495715Y227952D01*
X495815Y227866D01*
X495901Y227809D01*
X495958Y227752D01*
X495987Y227723D01*
X496001Y227709D01*
X496172Y227509D01*
X496329Y227295D01*
X496458Y227067D01*
X496572Y226824D01*
X496672Y226581D01*
X496757Y226353D01*
X496829Y226110D01*
X496871Y225882D01*
X496914Y225668D01*
X496943Y225468D01*
X496971Y225282D01*
X496986Y225125D01*
X497000Y224997D01*
Y224897D01*
Y224840D01*
Y224811D01*
X496971Y224312D01*
X496914Y223855D01*
X496871Y223641D01*
X496814Y223455D01*
X496772Y223284D01*
X496715Y223113D01*
X496657Y222970D01*
X496615Y222856D01*
X496558Y222742D01*
X496515Y222656D01*
X496486Y222584D01*
X496458Y222527D01*
X496429Y222499D01*
Y222485D01*
X496201Y222171D01*
X495972Y221914D01*
X495744Y221700D01*
X495530Y221514D01*
X495344Y221385D01*
X495201Y221300D01*
X495144Y221271D01*
X495101Y221243D01*
X495087Y221228D01*
X495073D01*
X494759Y221114D01*
X494431Y221028D01*
X494088Y220957D01*
X493760Y220914D01*
X493474Y220886D01*
X493360D01*
X493246Y220872D01*
X493046D01*
X492675Y220886D01*
X492346Y220914D01*
X492061Y220957D01*
X491818Y221014D01*
X491618Y221071D01*
X491476Y221114D01*
X491433Y221129D01*
X491390Y221143D01*
X491376Y221157D01*
X491362D01*
X491119Y221285D01*
X490919Y221414D01*
X490719Y221571D01*
X490562Y221700D01*
X490434Y221828D01*
X490348Y221928D01*
X490277Y221999D01*
X490262Y222028D01*
X490105Y222256D01*
X489963Y222499D01*
X489848Y222742D01*
X489748Y222970D01*
X489677Y223184D01*
X489634Y223341D01*
X489620Y223398D01*
X489606Y223441D01*
X489591Y223470D01*
Y223484D01*
X491647Y224112D01*
X491718Y223855D01*
X491790Y223627D01*
X491875Y223441D01*
X491961Y223284D01*
X492032Y223170D01*
X492104Y223084D01*
X492147Y223027D01*
X492161Y223013D01*
X492304Y222884D01*
X492461Y222799D01*
X492632Y222727D01*
X492803Y222684D01*
X492960Y222656D01*
X493074Y222642D01*
X493189D01*
X493431Y222656D01*
X493645Y222713D01*
X493831Y222784D01*
X493974Y222870D01*
X494102Y222956D01*
X494188Y223027D01*
X494245Y223084D01*
X494259Y223098D01*
X494331Y223198D01*
X494388Y223312D01*
X494488Y223570D01*
X494545Y223855D01*
X494602Y224140D01*
X494630Y224412D01*
Y224526D01*
X494645Y224640D01*
Y224726D01*
Y224783D01*
Y224826D01*
Y224840D01*
X494630Y225197D01*
X494602Y225497D01*
X494545Y225753D01*
X494488Y225968D01*
X494431Y226139D01*
X494373Y226253D01*
X494345Y226310D01*
X494331Y226339D01*
X494245Y226453D01*
X494159Y226553D01*
X493960Y226710D01*
X493760Y226824D01*
X493560Y226896D01*
X493374Y226953D01*
X493231Y226967D01*
X493174Y226981D01*
X492975D01*
X492846Y226953D01*
X492746Y226938D01*
X492646Y226910D01*
X492575Y226881D01*
X492503Y226853D01*
X492475Y226838D01*
X492461Y226824D01*
X492261Y226696D01*
X492104Y226567D01*
X492047Y226510D01*
X492004Y226453D01*
X491990Y226424D01*
X491975Y226410D01*
X491932Y226339D01*
X491890Y226267D01*
X491818Y226096D01*
X491790Y226025D01*
X491761Y225968D01*
X491747Y225925D01*
Y225910D01*
X489663Y226367D01*
X489748Y226581D01*
X489834Y226796D01*
X489934Y226981D01*
X490034Y227152D01*
X490234Y227452D01*
X490434Y227709D01*
X490619Y227909D01*
X490762Y228037D01*
X490819Y228095D01*
X490862Y228123D01*
X490890Y228152D01*
X490905D01*
X491062Y228252D01*
X491233Y228351D01*
X491604Y228494D01*
X491975Y228594D01*
X492332Y228666D01*
X492503Y228694D01*
X492660Y228708D01*
X492803Y228723D01*
X492917D01*
X493017Y228737D01*
X493160D01*
X493488Y228723D01*
D02*
G37*
G36*
X479142D02*
X479499Y228666D01*
X479813Y228594D01*
X480084Y228508D01*
X480299Y228409D01*
X480384Y228380D01*
X480456Y228337D01*
X480513Y228309D01*
X480555Y228280D01*
X480570Y228266D01*
X480584D01*
X480741Y228152D01*
X480869Y228023D01*
X480998Y227895D01*
X481098Y227766D01*
X481184Y227638D01*
X481255Y227509D01*
X481355Y227252D01*
X481426Y227038D01*
X481441Y226953D01*
X481455Y226867D01*
X481469Y226796D01*
Y226753D01*
Y226724D01*
Y226710D01*
X481455Y226496D01*
X481426Y226296D01*
X481369Y226125D01*
X481312Y225982D01*
X481255Y225853D01*
X481198Y225768D01*
X481169Y225696D01*
X481155Y225682D01*
X481055Y225568D01*
X480941Y225454D01*
X480827Y225354D01*
X480698Y225254D01*
X480598Y225182D01*
X480513Y225125D01*
X480456Y225097D01*
X480427Y225083D01*
X480655Y224983D01*
X480855Y224869D01*
X481026Y224754D01*
X481155Y224640D01*
X481269Y224526D01*
X481340Y224440D01*
X481383Y224383D01*
X481398Y224369D01*
X481498Y224183D01*
X481569Y223998D01*
X481626Y223798D01*
X481655Y223627D01*
X481683Y223470D01*
X481697Y223341D01*
Y223255D01*
Y223241D01*
Y223227D01*
X481683Y222984D01*
X481640Y222742D01*
X481598Y222527D01*
X481526Y222356D01*
X481469Y222199D01*
X481426Y222085D01*
X481383Y222013D01*
X481369Y221985D01*
X481226Y221799D01*
X481084Y221628D01*
X480927Y221485D01*
X480770Y221371D01*
X480627Y221271D01*
X480513Y221214D01*
X480441Y221171D01*
X480413Y221157D01*
X480141Y221057D01*
X479856Y220986D01*
X479542Y220943D01*
X479242Y220914D01*
X478971Y220886D01*
X478857D01*
X478757Y220872D01*
X478314D01*
X478100Y220886D01*
X477900Y220914D01*
X477715Y220943D01*
X477572Y220957D01*
X477458Y220986D01*
X477386Y221000D01*
X477358D01*
X477158Y221043D01*
X476973Y221114D01*
X476801Y221171D01*
X476658Y221243D01*
X476558Y221300D01*
X476473Y221343D01*
X476416Y221371D01*
X476401Y221385D01*
X476259Y221500D01*
X476144Y221614D01*
X476030Y221742D01*
X475930Y221871D01*
X475859Y221985D01*
X475802Y222071D01*
X475773Y222128D01*
X475759Y222156D01*
X475673Y222342D01*
X475602Y222542D01*
X475559Y222713D01*
X475516Y222884D01*
X475502Y223027D01*
X475488Y223127D01*
Y223198D01*
Y223227D01*
X475502Y223441D01*
X475531Y223641D01*
X475588Y223826D01*
X475645Y223983D01*
X475702Y224112D01*
X475759Y224212D01*
X475788Y224269D01*
X475802Y224298D01*
X475930Y224469D01*
X476073Y224626D01*
X476216Y224769D01*
X476373Y224883D01*
X476501Y224968D01*
X476616Y225026D01*
X476687Y225068D01*
X476701Y225083D01*
X476716D01*
X476544Y225197D01*
X476416Y225311D01*
X476287Y225425D01*
X476202Y225525D01*
X476116Y225611D01*
X476073Y225668D01*
X476045Y225711D01*
X476030Y225725D01*
X475930Y225896D01*
X475859Y226068D01*
X475802Y226239D01*
X475773Y226382D01*
X475745Y226510D01*
X475731Y226610D01*
Y226667D01*
Y226696D01*
X475745Y226853D01*
X475759Y227010D01*
X475845Y227295D01*
X475959Y227538D01*
X476102Y227752D01*
X476244Y227923D01*
X476359Y228052D01*
X476444Y228123D01*
X476459Y228152D01*
X476473D01*
X476616Y228252D01*
X476773Y228351D01*
X477130Y228494D01*
X477501Y228594D01*
X477872Y228666D01*
X478043Y228694D01*
X478200Y228708D01*
X478357Y228723D01*
X478471D01*
X478586Y228737D01*
X478728D01*
X479142Y228723D01*
D02*
G37*
G36*
X459908Y228480D02*
X460051Y228237D01*
X460208Y228037D01*
X460365Y227852D01*
X460494Y227709D01*
X460608Y227609D01*
X460679Y227552D01*
X460708Y227524D01*
X460951Y227352D01*
X461222Y227195D01*
X461493Y227052D01*
X461764Y226924D01*
X462007Y226824D01*
X462107Y226796D01*
X462207Y226753D01*
X462278Y226724D01*
X462335Y226710D01*
X462364Y226696D01*
X462378D01*
Y224968D01*
X462121Y225054D01*
X461878Y225125D01*
X461679Y225211D01*
X461493Y225282D01*
X461350Y225340D01*
X461250Y225382D01*
X461193Y225411D01*
X461165Y225425D01*
X460979Y225525D01*
X460808Y225625D01*
X460636Y225739D01*
X460480Y225839D01*
X460337Y225925D01*
X460237Y225996D01*
X460180Y226053D01*
X460151Y226068D01*
Y221000D01*
X458010D01*
Y228737D01*
X459766D01*
X459908Y228480D01*
D02*
G37*
G36*
X467488Y228723D02*
X467817Y228694D01*
X468102Y228637D01*
X468373Y228580D01*
X468630Y228494D01*
X468873Y228409D01*
X469073Y228323D01*
X469273Y228223D01*
X469444Y228123D01*
X469587Y228037D01*
X469715Y227952D01*
X469815Y227866D01*
X469901Y227809D01*
X469958Y227752D01*
X469986Y227723D01*
X470001Y227709D01*
X470172Y227509D01*
X470329Y227295D01*
X470458Y227067D01*
X470572Y226824D01*
X470672Y226581D01*
X470757Y226353D01*
X470829Y226110D01*
X470872Y225882D01*
X470914Y225668D01*
X470943Y225468D01*
X470971Y225282D01*
X470986Y225125D01*
X471000Y224997D01*
Y224897D01*
Y224840D01*
Y224811D01*
X470971Y224312D01*
X470914Y223855D01*
X470872Y223641D01*
X470814Y223455D01*
X470772Y223284D01*
X470714Y223113D01*
X470657Y222970D01*
X470615Y222856D01*
X470558Y222742D01*
X470515Y222656D01*
X470486Y222584D01*
X470458Y222527D01*
X470429Y222499D01*
Y222485D01*
X470201Y222171D01*
X469972Y221914D01*
X469744Y221700D01*
X469530Y221514D01*
X469344Y221385D01*
X469201Y221300D01*
X469144Y221271D01*
X469101Y221243D01*
X469087Y221228D01*
X469073D01*
X468759Y221114D01*
X468430Y221028D01*
X468088Y220957D01*
X467760Y220914D01*
X467474Y220886D01*
X467360D01*
X467246Y220872D01*
X467046D01*
X466675Y220886D01*
X466346Y220914D01*
X466061Y220957D01*
X465818Y221014D01*
X465618Y221071D01*
X465476Y221114D01*
X465433Y221129D01*
X465390Y221143D01*
X465376Y221157D01*
X465362D01*
X465119Y221285D01*
X464919Y221414D01*
X464719Y221571D01*
X464562Y221700D01*
X464434Y221828D01*
X464348Y221928D01*
X464277Y221999D01*
X464262Y222028D01*
X464105Y222256D01*
X463963Y222499D01*
X463848Y222742D01*
X463748Y222970D01*
X463677Y223184D01*
X463634Y223341D01*
X463620Y223398D01*
X463606Y223441D01*
X463591Y223470D01*
Y223484D01*
X465647Y224112D01*
X465718Y223855D01*
X465790Y223627D01*
X465875Y223441D01*
X465961Y223284D01*
X466032Y223170D01*
X466104Y223084D01*
X466147Y223027D01*
X466161Y223013D01*
X466304Y222884D01*
X466461Y222799D01*
X466632Y222727D01*
X466803Y222684D01*
X466960Y222656D01*
X467074Y222642D01*
X467189D01*
X467431Y222656D01*
X467645Y222713D01*
X467831Y222784D01*
X467974Y222870D01*
X468102Y222956D01*
X468188Y223027D01*
X468245Y223084D01*
X468259Y223098D01*
X468331Y223198D01*
X468388Y223312D01*
X468488Y223570D01*
X468545Y223855D01*
X468602Y224140D01*
X468630Y224412D01*
Y224526D01*
X468645Y224640D01*
Y224726D01*
Y224783D01*
Y224826D01*
Y224840D01*
X468630Y225197D01*
X468602Y225497D01*
X468545Y225753D01*
X468488Y225968D01*
X468430Y226139D01*
X468373Y226253D01*
X468345Y226310D01*
X468331Y226339D01*
X468245Y226453D01*
X468159Y226553D01*
X467960Y226710D01*
X467760Y226824D01*
X467560Y226896D01*
X467374Y226953D01*
X467231Y226967D01*
X467174Y226981D01*
X466974D01*
X466846Y226953D01*
X466746Y226938D01*
X466646Y226910D01*
X466575Y226881D01*
X466503Y226853D01*
X466475Y226838D01*
X466461Y226824D01*
X466261Y226696D01*
X466104Y226567D01*
X466047Y226510D01*
X466004Y226453D01*
X465989Y226424D01*
X465975Y226410D01*
X465932Y226339D01*
X465890Y226267D01*
X465818Y226096D01*
X465790Y226025D01*
X465761Y225968D01*
X465747Y225925D01*
Y225910D01*
X463663Y226367D01*
X463748Y226581D01*
X463834Y226796D01*
X463934Y226981D01*
X464034Y227152D01*
X464234Y227452D01*
X464434Y227709D01*
X464619Y227909D01*
X464762Y228037D01*
X464819Y228095D01*
X464862Y228123D01*
X464890Y228152D01*
X464905D01*
X465062Y228252D01*
X465233Y228351D01*
X465604Y228494D01*
X465975Y228594D01*
X466332Y228666D01*
X466503Y228694D01*
X466660Y228708D01*
X466803Y228723D01*
X466917D01*
X467017Y228737D01*
X467160D01*
X467488Y228723D01*
D02*
G37*
G36*
X455669Y226824D02*
X451915D01*
X452129Y226553D01*
X452314Y226296D01*
X452671Y225796D01*
X452957Y225340D01*
X453085Y225125D01*
X453199Y224926D01*
X453299Y224754D01*
X453385Y224597D01*
X453456Y224454D01*
X453513Y224340D01*
X453556Y224240D01*
X453585Y224169D01*
X453613Y224126D01*
Y224112D01*
X453799Y223612D01*
X453956Y223098D01*
X454084Y222570D01*
X454142Y222327D01*
X454199Y222085D01*
X454241Y221856D01*
X454284Y221657D01*
X454313Y221471D01*
X454341Y221314D01*
X454356Y221186D01*
X454370Y221086D01*
X454384Y221028D01*
Y221000D01*
X452271D01*
X452229Y221485D01*
X452172Y221928D01*
X452100Y222313D01*
X452072Y222499D01*
X452029Y222656D01*
X452000Y222799D01*
X451972Y222927D01*
X451943Y223041D01*
X451915Y223141D01*
X451900Y223213D01*
X451886Y223270D01*
X451872Y223298D01*
Y223312D01*
X451715Y223769D01*
X451558Y224198D01*
X451386Y224583D01*
X451301Y224769D01*
X451215Y224926D01*
X451144Y225068D01*
X451072Y225211D01*
X451001Y225325D01*
X450958Y225411D01*
X450901Y225497D01*
X450872Y225554D01*
X450844Y225582D01*
Y225597D01*
X450630Y225910D01*
X450401Y226210D01*
X450173Y226481D01*
X449959Y226710D01*
X449773Y226910D01*
X449616Y227052D01*
X449559Y227110D01*
X449516Y227152D01*
X449502Y227167D01*
X449488Y227181D01*
Y228608D01*
X455669D01*
Y226824D01*
D02*
G37*
G36*
X319000Y224069D02*
X318986Y223855D01*
X318971Y223641D01*
X318929Y223412D01*
X318886Y223213D01*
X318857Y223041D01*
X318814Y222913D01*
X318800Y222856D01*
Y222813D01*
X318786Y222799D01*
Y222784D01*
X318729Y222613D01*
X318657Y222456D01*
X318572Y222299D01*
X318486Y222171D01*
X318415Y222056D01*
X318343Y221971D01*
X318300Y221914D01*
X318286Y221899D01*
X318144Y221757D01*
X318001Y221628D01*
X317872Y221514D01*
X317744Y221414D01*
X317644Y221343D01*
X317558Y221285D01*
X317501Y221257D01*
X317487Y221243D01*
X317316Y221171D01*
X317130Y221100D01*
X316944Y221043D01*
X316773Y221014D01*
X316616Y220971D01*
X316502Y220957D01*
X316416Y220943D01*
X316388D01*
X316145Y220914D01*
X315917Y220900D01*
X315717Y220886D01*
X315531D01*
X315389Y220872D01*
X315174D01*
X314818Y220886D01*
X314503Y220914D01*
X314218Y220943D01*
X313975Y221000D01*
X313790Y221043D01*
X313647Y221071D01*
X313590Y221086D01*
X313547Y221100D01*
X313533Y221114D01*
X313519D01*
X313333Y221200D01*
X313162Y221285D01*
X313005Y221400D01*
X312876Y221500D01*
X312762Y221600D01*
X312662Y221671D01*
X312605Y221728D01*
X312591Y221742D01*
X312434Y221914D01*
X312291Y222099D01*
X312177Y222285D01*
X312077Y222442D01*
X312005Y222584D01*
X311963Y222699D01*
X311934Y222770D01*
X311920Y222799D01*
X311848Y223027D01*
X311791Y223255D01*
X311763Y223470D01*
X311734Y223655D01*
X311720Y223826D01*
X311706Y223955D01*
Y224041D01*
Y224055D01*
Y224069D01*
Y228608D01*
X314047D01*
Y223955D01*
X314061Y223727D01*
X314104Y223541D01*
X314161Y223370D01*
X314218Y223241D01*
X314289Y223127D01*
X314346Y223041D01*
X314389Y222999D01*
X314403Y222984D01*
X314546Y222870D01*
X314703Y222784D01*
X314860Y222727D01*
X315003Y222684D01*
X315146Y222656D01*
X315260Y222642D01*
X315360D01*
X315574Y222656D01*
X315774Y222699D01*
X315931Y222756D01*
X316074Y222813D01*
X316174Y222870D01*
X316259Y222927D01*
X316302Y222970D01*
X316316Y222984D01*
X316430Y223127D01*
X316516Y223284D01*
X316573Y223455D01*
X316616Y223598D01*
X316645Y223741D01*
X316659Y223855D01*
Y223926D01*
Y223955D01*
Y228608D01*
X319000D01*
Y224069D01*
D02*
G37*
G36*
X310721Y224140D02*
Y222413D01*
X306866D01*
Y221000D01*
X305025D01*
Y222413D01*
X304069D01*
Y224055D01*
X305025D01*
Y228737D01*
X306866D01*
X310721Y224140D01*
D02*
G37*
%LPC*%
G36*
X326004Y546838D02*
X315245D01*
Y546467D01*
X314874D01*
Y546096D01*
X314503D01*
Y545725D01*
Y545354D01*
Y544983D01*
Y544612D01*
Y544241D01*
Y543870D01*
Y543499D01*
Y543128D01*
Y542757D01*
Y542386D01*
Y542015D01*
Y541644D01*
Y541273D01*
Y540902D01*
Y540531D01*
Y540160D01*
Y539789D01*
Y539418D01*
Y539047D01*
Y538676D01*
X315616D01*
Y538305D01*
X326375D01*
Y537934D01*
X326746D01*
Y538305D01*
X327117D01*
Y538676D01*
Y539047D01*
Y539418D01*
Y539789D01*
Y540160D01*
Y540531D01*
Y540902D01*
Y541273D01*
Y541644D01*
Y542015D01*
Y542386D01*
Y542757D01*
Y543128D01*
Y543499D01*
Y543870D01*
Y544241D01*
Y544612D01*
Y544983D01*
Y545354D01*
Y545725D01*
X326746D01*
Y546096D01*
X326375D01*
Y546467D01*
X326004D01*
Y546838D01*
D02*
G37*
G36*
X309309Y548322D02*
X308938D01*
Y547951D01*
X309309D01*
Y548322D01*
D02*
G37*
G36*
X427659Y539418D02*
X427288D01*
Y539047D01*
X427659D01*
Y539418D01*
D02*
G37*
G36*
X393527Y547951D02*
X393156D01*
Y547580D01*
X393527D01*
Y547951D01*
D02*
G37*
G36*
X332682Y548322D02*
X332311D01*
Y547951D01*
X332682D01*
Y548322D01*
D02*
G37*
G36*
X335650Y542386D02*
X335279D01*
Y542015D01*
X335650D01*
Y542386D01*
D02*
G37*
G36*
X292614Y546838D02*
X280742D01*
Y546467D01*
Y546096D01*
X280371D01*
Y545725D01*
X280000D01*
Y545354D01*
Y544983D01*
Y544612D01*
Y544241D01*
Y543870D01*
Y543499D01*
Y543128D01*
Y542757D01*
Y542386D01*
Y542015D01*
Y541644D01*
Y541273D01*
Y540902D01*
Y540531D01*
Y540160D01*
Y539789D01*
Y539418D01*
X280371D01*
Y539047D01*
X280742D01*
Y538676D01*
Y538305D01*
X291501D01*
Y538676D01*
X291872D01*
Y539047D01*
X292243D01*
Y539418D01*
X292614D01*
Y539789D01*
Y540160D01*
Y540531D01*
Y540902D01*
Y541273D01*
Y541644D01*
Y542015D01*
Y542386D01*
Y542757D01*
Y543128D01*
Y543499D01*
Y543870D01*
Y544241D01*
Y544612D01*
Y544983D01*
Y545354D01*
Y545725D01*
Y546096D01*
X292243D01*
Y546467D01*
X292614D01*
Y546838D01*
D02*
G37*
G36*
X374168Y513481D02*
X374082D01*
X373925Y513466D01*
X373783Y513438D01*
X373668Y513395D01*
X373568Y513352D01*
X373483Y513295D01*
X373426Y513252D01*
X373397Y513224D01*
X373383Y513209D01*
X373283Y513095D01*
X373212Y512953D01*
X373154Y512810D01*
X373112Y512667D01*
X373083Y512539D01*
X373055Y512439D01*
X373040Y512367D01*
Y512339D01*
X375124D01*
X375096Y512510D01*
X375067Y512667D01*
X375024Y512781D01*
X374982Y512896D01*
X374953Y512981D01*
X374910Y513038D01*
X374896Y513067D01*
X374882Y513081D01*
X374767Y513209D01*
X374625Y513310D01*
X374496Y513381D01*
X374368Y513438D01*
X374254Y513466D01*
X374168Y513481D01*
D02*
G37*
G36*
X404630Y515165D02*
X403974D01*
X403745Y515151D01*
X403560Y515122D01*
X403403Y515079D01*
X403274Y515037D01*
X403189Y514994D01*
X403117Y514951D01*
X403089Y514922D01*
X403074Y514908D01*
X402989Y514808D01*
X402932Y514708D01*
X402889Y514608D01*
X402860Y514509D01*
X402846Y514423D01*
X402832Y514352D01*
Y514309D01*
Y514294D01*
X402846Y514166D01*
X402875Y514052D01*
X402917Y513952D01*
X402975Y513866D01*
X403032Y513795D01*
X403074Y513738D01*
X403103Y513709D01*
X403117Y513695D01*
X403232Y513624D01*
X403374Y513566D01*
X403531Y513524D01*
X403688Y513495D01*
X403831Y513481D01*
X403945Y513466D01*
X404630D01*
Y515165D01*
D02*
G37*
G36*
X348502D02*
X347474D01*
X347289Y515151D01*
X347132Y515137D01*
X347003Y515108D01*
X346903Y515079D01*
X346832Y515037D01*
X346775Y515008D01*
X346746Y514994D01*
X346732Y514980D01*
X346660Y514908D01*
X346603Y514823D01*
X346575Y514737D01*
X346546Y514651D01*
X346532Y514580D01*
X346518Y514523D01*
Y514480D01*
Y514466D01*
X346532Y514337D01*
X346546Y514237D01*
X346589Y514137D01*
X346618Y514066D01*
X346660Y513995D01*
X346703Y513952D01*
X346717Y513938D01*
X346732Y513923D01*
X346832Y513866D01*
X346946Y513823D01*
X347203Y513766D01*
X347317Y513752D01*
X347417Y513738D01*
X348502D01*
Y515165D01*
D02*
G37*
G36*
Y512282D02*
X347317D01*
X347103Y512267D01*
X346917Y512253D01*
X346775Y512210D01*
X346660Y512182D01*
X346575Y512139D01*
X346503Y512096D01*
X346475Y512082D01*
X346461Y512068D01*
X346375Y511982D01*
X346318Y511896D01*
X346261Y511811D01*
X346232Y511725D01*
X346218Y511639D01*
X346204Y511582D01*
Y511539D01*
Y511525D01*
X346218Y511397D01*
X346246Y511282D01*
X346289Y511183D01*
X346332Y511111D01*
X346375Y511040D01*
X346418Y510997D01*
X346446Y510968D01*
X346461Y510954D01*
X346561Y510883D01*
X346703Y510826D01*
X346832Y510797D01*
X346974Y510769D01*
X347103Y510754D01*
X347217Y510740D01*
X348502D01*
Y512282D01*
D02*
G37*
G36*
X317454Y515422D02*
X317426D01*
X317240Y515394D01*
X317083Y515336D01*
X316955Y515251D01*
X316840Y515165D01*
X316769Y515065D01*
X316698Y514980D01*
X316669Y514922D01*
X316655Y514894D01*
X316612Y514794D01*
X316569Y514665D01*
X316541Y514523D01*
X316512Y514366D01*
X316455Y514023D01*
X316426Y513695D01*
X316412Y513367D01*
Y513238D01*
X316398Y513110D01*
Y513010D01*
Y512938D01*
Y512881D01*
Y512867D01*
Y512496D01*
X316412Y512196D01*
X316426Y511925D01*
X316455Y511711D01*
X316469Y511554D01*
X316498Y511425D01*
X316512Y511368D01*
Y511339D01*
X316555Y511168D01*
X316612Y511026D01*
X316669Y510897D01*
X316726Y510797D01*
X316783Y510726D01*
X316826Y510669D01*
X316855Y510640D01*
X316869Y510626D01*
X316955Y510554D01*
X317055Y510497D01*
X317140Y510469D01*
X317226Y510440D01*
X317311Y510426D01*
X317369Y510412D01*
X317426D01*
X317597Y510440D01*
X317740Y510497D01*
X317868Y510583D01*
X317982Y510683D01*
X318054Y510769D01*
X318125Y510854D01*
X318154Y510911D01*
X318168Y510940D01*
X318211Y511054D01*
X318254Y511183D01*
X318282Y511325D01*
X318311Y511468D01*
X318354Y511796D01*
X318382Y512125D01*
X318396Y512439D01*
Y512567D01*
X318411Y512696D01*
Y512781D01*
Y512867D01*
Y512910D01*
Y512924D01*
Y513181D01*
X318396Y513424D01*
X318382Y513638D01*
X318368Y513838D01*
X318354Y514009D01*
X318339Y514166D01*
X318311Y514309D01*
X318296Y514437D01*
X318268Y514551D01*
X318254Y514637D01*
X318239Y514708D01*
X318211Y514780D01*
X318197Y514823D01*
Y514851D01*
X318182Y514880D01*
X318082Y515065D01*
X317968Y515194D01*
X317840Y515294D01*
X317711Y515351D01*
X317611Y515394D01*
X317511Y515408D01*
X317454Y515422D01*
D02*
G37*
G36*
X384646Y513181D02*
X384574D01*
X384446Y513167D01*
X384317Y513138D01*
X384217Y513081D01*
X384118Y513024D01*
X384046Y512967D01*
X383989Y512910D01*
X383960Y512881D01*
X383946Y512867D01*
X383861Y512738D01*
X383789Y512581D01*
X383746Y512424D01*
X383703Y512253D01*
X383689Y512110D01*
X383675Y511996D01*
Y511911D01*
Y511896D01*
Y511882D01*
X383689Y511625D01*
X383718Y511411D01*
X383761Y511240D01*
X383803Y511097D01*
X383846Y510983D01*
X383889Y510911D01*
X383918Y510868D01*
X383932Y510854D01*
X384032Y510754D01*
X384132Y510683D01*
X384232Y510626D01*
X384332Y510597D01*
X384417Y510569D01*
X384489Y510554D01*
X384546D01*
X384703Y510569D01*
X384831Y510597D01*
X384960Y510654D01*
X385060Y510711D01*
X385145Y510769D01*
X385202Y510826D01*
X385245Y510854D01*
X385260Y510868D01*
X385345Y510997D01*
X385416Y511154D01*
X385459Y511311D01*
X385502Y511468D01*
X385516Y511611D01*
X385531Y511739D01*
Y511811D01*
Y511839D01*
X385516Y512082D01*
X385488Y512296D01*
X385445Y512467D01*
X385388Y512610D01*
X385345Y512710D01*
X385302Y512796D01*
X385274Y512838D01*
X385260Y512853D01*
X385145Y512967D01*
X385031Y513038D01*
X384917Y513095D01*
X384817Y513138D01*
X384717Y513167D01*
X384646Y513181D01*
D02*
G37*
G36*
X362309Y344754D02*
X362238D01*
X362080Y344740D01*
X361938Y344697D01*
X361824Y344640D01*
X361709Y344583D01*
X361624Y344526D01*
X361567Y344469D01*
X361524Y344426D01*
X361510Y344412D01*
X361410Y344269D01*
X361338Y344112D01*
X361281Y343955D01*
X361253Y343798D01*
X361224Y343655D01*
X361210Y343541D01*
Y343470D01*
Y343455D01*
Y343441D01*
X361224Y343227D01*
X361253Y343027D01*
X361295Y342870D01*
X361353Y342742D01*
X361410Y342627D01*
X361452Y342556D01*
X361481Y342513D01*
X361495Y342499D01*
X361609Y342399D01*
X361724Y342313D01*
X361838Y342256D01*
X361952Y342228D01*
X362052Y342199D01*
X362123Y342185D01*
X362195D01*
X362352Y342199D01*
X362509Y342242D01*
X362637Y342299D01*
X362751Y342356D01*
X362837Y342413D01*
X362909Y342470D01*
X362951Y342513D01*
X362966Y342527D01*
X363065Y342670D01*
X363151Y342827D01*
X363208Y342984D01*
X363237Y343141D01*
X363265Y343270D01*
X363280Y343384D01*
Y343455D01*
Y343484D01*
X363265Y343698D01*
X363237Y343884D01*
X363180Y344055D01*
X363123Y344183D01*
X363080Y344283D01*
X363023Y344369D01*
X362994Y344412D01*
X362980Y344426D01*
X362866Y344540D01*
X362737Y344612D01*
X362609Y344669D01*
X362495Y344711D01*
X362395Y344740D01*
X362309Y344754D01*
D02*
G37*
G36*
X254630Y258067D02*
X253617D01*
X253389Y258053D01*
X253203Y258038D01*
X253060Y258010D01*
X252946Y257967D01*
X252846Y257924D01*
X252789Y257896D01*
X252760Y257881D01*
X252746Y257867D01*
X252661Y257781D01*
X252603Y257696D01*
X252561Y257596D01*
X252532Y257510D01*
X252518Y257424D01*
X252503Y257353D01*
Y257310D01*
Y257296D01*
Y257210D01*
X252532Y257125D01*
X252575Y256982D01*
X252603Y256925D01*
X252632Y256882D01*
X252646Y256868D01*
X252661Y256853D01*
X252775Y256739D01*
X252903Y256668D01*
X252989Y256639D01*
X253017Y256625D01*
X253032D01*
X253189Y256597D01*
X253317Y256568D01*
X253431Y256554D01*
X253517Y256539D01*
X253574Y256525D01*
X254630D01*
Y258067D01*
D02*
G37*
G36*
X308652Y474424D02*
X308580D01*
X308423Y474409D01*
X308280Y474367D01*
X308152Y474310D01*
X308038Y474252D01*
X307952Y474181D01*
X307895Y474124D01*
X307852Y474081D01*
X307838Y474067D01*
X307738Y473924D01*
X307652Y473767D01*
X307595Y473610D01*
X307567Y473467D01*
X307538Y473325D01*
X307524Y473210D01*
Y473139D01*
Y473125D01*
Y473110D01*
X307538Y472896D01*
X307567Y472711D01*
X307624Y472539D01*
X307667Y472411D01*
X307724Y472311D01*
X307781Y472225D01*
X307809Y472183D01*
X307824Y472168D01*
X307938Y472068D01*
X308052Y471983D01*
X308181Y471926D01*
X308295Y471897D01*
X308395Y471869D01*
X308480Y471854D01*
X308552D01*
X308709Y471869D01*
X308837Y471911D01*
X308966Y471954D01*
X309065Y472025D01*
X309151Y472083D01*
X309208Y472125D01*
X309251Y472168D01*
X309265Y472183D01*
X309365Y472325D01*
X309437Y472482D01*
X309480Y472639D01*
X309508Y472796D01*
X309537Y472939D01*
X309551Y473053D01*
Y473125D01*
Y473153D01*
X309537Y473382D01*
X309508Y473567D01*
X309465Y473724D01*
X309408Y473867D01*
X309365Y473967D01*
X309322Y474038D01*
X309294Y474081D01*
X309280Y474095D01*
X309165Y474210D01*
X309051Y474281D01*
X308937Y474338D01*
X308823Y474381D01*
X308723Y474409D01*
X308652Y474424D01*
D02*
G37*
G36*
X216630Y523067D02*
X215617D01*
X215389Y523052D01*
X215203Y523038D01*
X215060Y523010D01*
X214946Y522967D01*
X214846Y522924D01*
X214789Y522896D01*
X214760Y522881D01*
X214746Y522867D01*
X214660Y522781D01*
X214603Y522696D01*
X214561Y522596D01*
X214532Y522510D01*
X214518Y522424D01*
X214503Y522353D01*
Y522310D01*
Y522296D01*
Y522210D01*
X214532Y522125D01*
X214575Y521982D01*
X214603Y521925D01*
X214632Y521882D01*
X214646Y521868D01*
X214660Y521853D01*
X214775Y521739D01*
X214903Y521668D01*
X214989Y521639D01*
X215017Y521625D01*
X215032D01*
X215189Y521596D01*
X215317Y521568D01*
X215431Y521554D01*
X215517Y521539D01*
X215574Y521525D01*
X216630D01*
Y523067D01*
D02*
G37*
G36*
X347630Y227067D02*
X346617D01*
X346389Y227052D01*
X346203Y227038D01*
X346060Y227010D01*
X345946Y226967D01*
X345846Y226924D01*
X345789Y226896D01*
X345760Y226881D01*
X345746Y226867D01*
X345661Y226781D01*
X345603Y226696D01*
X345560Y226596D01*
X345532Y226510D01*
X345518Y226424D01*
X345503Y226353D01*
Y226310D01*
Y226296D01*
Y226210D01*
X345532Y226125D01*
X345575Y225982D01*
X345603Y225925D01*
X345632Y225882D01*
X345646Y225868D01*
X345661Y225853D01*
X345775Y225739D01*
X345903Y225668D01*
X345989Y225639D01*
X346017Y225625D01*
X346032D01*
X346189Y225597D01*
X346317Y225568D01*
X346431Y225554D01*
X346517Y225539D01*
X346574Y225525D01*
X347630D01*
Y227067D01*
D02*
G37*
G36*
X331386Y226453D02*
Y224055D01*
X333441D01*
X331386Y226453D01*
D02*
G37*
G36*
X194630Y390067D02*
X193617D01*
X193389Y390052D01*
X193203Y390038D01*
X193060Y390010D01*
X192946Y389967D01*
X192846Y389924D01*
X192789Y389896D01*
X192760Y389881D01*
X192746Y389867D01*
X192661Y389781D01*
X192603Y389696D01*
X192561Y389596D01*
X192532Y389510D01*
X192518Y389424D01*
X192504Y389353D01*
Y389310D01*
Y389296D01*
Y389210D01*
X192532Y389125D01*
X192575Y388982D01*
X192603Y388925D01*
X192632Y388882D01*
X192646Y388868D01*
X192661Y388853D01*
X192775Y388739D01*
X192903Y388668D01*
X192989Y388639D01*
X193017Y388625D01*
X193032D01*
X193189Y388596D01*
X193317Y388568D01*
X193431Y388554D01*
X193517Y388539D01*
X193574Y388525D01*
X194630D01*
Y390067D01*
D02*
G37*
G36*
X186094Y390452D02*
X186023D01*
X185894Y390438D01*
X185766Y390409D01*
X185666Y390367D01*
X185580Y390324D01*
X185509Y390281D01*
X185452Y390238D01*
X185423Y390210D01*
X185409Y390195D01*
X185323Y390095D01*
X185266Y389995D01*
X185209Y389881D01*
X185180Y389781D01*
X185166Y389696D01*
X185152Y389624D01*
Y389567D01*
Y389553D01*
X185166Y389424D01*
X185195Y389296D01*
X185223Y389196D01*
X185266Y389110D01*
X185323Y389039D01*
X185352Y388982D01*
X185380Y388953D01*
X185395Y388939D01*
X185480Y388868D01*
X185580Y388811D01*
X185680Y388768D01*
X185780Y388739D01*
X185866Y388725D01*
X185937Y388711D01*
X185994D01*
X186137Y388725D01*
X186265Y388754D01*
X186380Y388782D01*
X186479Y388825D01*
X186551Y388868D01*
X186608Y388910D01*
X186637Y388925D01*
X186651Y388939D01*
X186736Y389039D01*
X186793Y389139D01*
X186836Y389253D01*
X186865Y389353D01*
X186879Y389439D01*
X186894Y389510D01*
Y389567D01*
Y389581D01*
X186879Y389724D01*
X186851Y389838D01*
X186822Y389953D01*
X186779Y390038D01*
X186736Y390110D01*
X186694Y390167D01*
X186679Y390195D01*
X186665Y390210D01*
X186565Y390295D01*
X186465Y390352D01*
X186351Y390395D01*
X186251Y390424D01*
X186165Y390438D01*
X186094Y390452D01*
D02*
G37*
G36*
Y387469D02*
X186023D01*
X185880Y387454D01*
X185751Y387412D01*
X185637Y387369D01*
X185537Y387312D01*
X185452Y387240D01*
X185395Y387197D01*
X185352Y387155D01*
X185338Y387140D01*
X185238Y387012D01*
X185152Y386869D01*
X185095Y386741D01*
X185066Y386598D01*
X185038Y386484D01*
X185023Y386398D01*
Y386341D01*
Y386312D01*
X185038Y386127D01*
X185066Y385970D01*
X185123Y385827D01*
X185166Y385713D01*
X185223Y385613D01*
X185280Y385542D01*
X185309Y385499D01*
X185323Y385485D01*
X185437Y385385D01*
X185552Y385299D01*
X185666Y385242D01*
X185780Y385213D01*
X185866Y385185D01*
X185937Y385171D01*
X186008D01*
X186151Y385185D01*
X186280Y385213D01*
X186394Y385271D01*
X186494Y385328D01*
X186579Y385385D01*
X186637Y385442D01*
X186679Y385470D01*
X186694Y385485D01*
X186793Y385613D01*
X186865Y385742D01*
X186922Y385884D01*
X186951Y386013D01*
X186979Y386127D01*
X186993Y386227D01*
Y386284D01*
Y386312D01*
X186979Y386498D01*
X186951Y386669D01*
X186908Y386812D01*
X186851Y386926D01*
X186793Y387026D01*
X186751Y387098D01*
X186722Y387140D01*
X186708Y387155D01*
X186594Y387255D01*
X186479Y387340D01*
X186365Y387397D01*
X186251Y387426D01*
X186165Y387454D01*
X186094Y387469D01*
D02*
G37*
G36*
X233630Y215067D02*
X232617D01*
X232388Y215053D01*
X232203Y215038D01*
X232060Y215010D01*
X231946Y214967D01*
X231846Y214924D01*
X231789Y214895D01*
X231760Y214881D01*
X231746Y214867D01*
X231660Y214781D01*
X231603Y214696D01*
X231560Y214596D01*
X231532Y214510D01*
X231518Y214424D01*
X231503Y214353D01*
Y214310D01*
Y214296D01*
Y214210D01*
X231532Y214125D01*
X231575Y213982D01*
X231603Y213925D01*
X231632Y213882D01*
X231646Y213868D01*
X231660Y213853D01*
X231775Y213739D01*
X231903Y213668D01*
X231989Y213639D01*
X232017Y213625D01*
X232032D01*
X232189Y213596D01*
X232317Y213568D01*
X232431Y213554D01*
X232517Y213539D01*
X232574Y213525D01*
X233630D01*
Y215067D01*
D02*
G37*
G36*
X198923Y212754D02*
X198851D01*
X198694Y212740D01*
X198552Y212697D01*
X198437Y212640D01*
X198323Y212583D01*
X198238Y212526D01*
X198181Y212469D01*
X198138Y212426D01*
X198123Y212412D01*
X198023Y212269D01*
X197952Y212112D01*
X197895Y211955D01*
X197866Y211798D01*
X197838Y211655D01*
X197824Y211541D01*
Y211469D01*
Y211455D01*
Y211441D01*
X197838Y211227D01*
X197866Y211027D01*
X197909Y210870D01*
X197966Y210742D01*
X198023Y210627D01*
X198066Y210556D01*
X198095Y210513D01*
X198109Y210499D01*
X198223Y210399D01*
X198337Y210313D01*
X198452Y210256D01*
X198566Y210228D01*
X198666Y210199D01*
X198737Y210185D01*
X198809D01*
X198966Y210199D01*
X199123Y210242D01*
X199251Y210299D01*
X199365Y210356D01*
X199451Y210413D01*
X199522Y210470D01*
X199565Y210513D01*
X199579Y210527D01*
X199679Y210670D01*
X199765Y210827D01*
X199822Y210984D01*
X199851Y211141D01*
X199879Y211270D01*
X199893Y211384D01*
Y211455D01*
Y211484D01*
X199879Y211698D01*
X199851Y211884D01*
X199793Y212055D01*
X199736Y212183D01*
X199694Y212283D01*
X199636Y212369D01*
X199608Y212412D01*
X199594Y212426D01*
X199480Y212540D01*
X199351Y212612D01*
X199223Y212669D01*
X199108Y212711D01*
X199008Y212740D01*
X198923Y212754D01*
D02*
G37*
G36*
X207630Y215067D02*
X206617D01*
X206388Y215053D01*
X206203Y215038D01*
X206060Y215010D01*
X205946Y214967D01*
X205846Y214924D01*
X205789Y214895D01*
X205760Y214881D01*
X205746Y214867D01*
X205660Y214781D01*
X205603Y214696D01*
X205560Y214596D01*
X205532Y214510D01*
X205518Y214424D01*
X205503Y214353D01*
Y214310D01*
Y214296D01*
Y214210D01*
X205532Y214125D01*
X205575Y213982D01*
X205603Y213925D01*
X205632Y213882D01*
X205646Y213868D01*
X205660Y213853D01*
X205775Y213739D01*
X205903Y213668D01*
X205989Y213639D01*
X206017Y213625D01*
X206032D01*
X206189Y213596D01*
X206317Y213568D01*
X206431Y213554D01*
X206517Y213539D01*
X206574Y213525D01*
X207630D01*
Y215067D01*
D02*
G37*
G36*
X165630Y251067D02*
X164617D01*
X164389Y251052D01*
X164203Y251038D01*
X164060Y251010D01*
X163946Y250967D01*
X163846Y250924D01*
X163789Y250896D01*
X163760Y250881D01*
X163746Y250867D01*
X163661Y250781D01*
X163603Y250696D01*
X163561Y250596D01*
X163532Y250510D01*
X163518Y250424D01*
X163503Y250353D01*
Y250310D01*
Y250296D01*
Y250210D01*
X163532Y250125D01*
X163575Y249982D01*
X163603Y249925D01*
X163632Y249882D01*
X163646Y249868D01*
X163661Y249853D01*
X163775Y249739D01*
X163903Y249668D01*
X163989Y249639D01*
X164017Y249625D01*
X164032D01*
X164189Y249597D01*
X164317Y249568D01*
X164431Y249554D01*
X164517Y249539D01*
X164574Y249525D01*
X165630D01*
Y251067D01*
D02*
G37*
G36*
X216630Y568067D02*
X215617D01*
X215389Y568052D01*
X215203Y568038D01*
X215060Y568010D01*
X214946Y567967D01*
X214846Y567924D01*
X214789Y567896D01*
X214760Y567881D01*
X214746Y567867D01*
X214660Y567781D01*
X214603Y567696D01*
X214561Y567596D01*
X214532Y567510D01*
X214518Y567424D01*
X214503Y567353D01*
Y567310D01*
Y567296D01*
Y567210D01*
X214532Y567125D01*
X214575Y566982D01*
X214603Y566925D01*
X214632Y566882D01*
X214646Y566868D01*
X214660Y566853D01*
X214775Y566739D01*
X214903Y566668D01*
X214989Y566639D01*
X215017Y566625D01*
X215032D01*
X215189Y566596D01*
X215317Y566568D01*
X215431Y566554D01*
X215517Y566539D01*
X215574Y566525D01*
X216630D01*
Y568067D01*
D02*
G37*
G36*
X207480Y567453D02*
Y565055D01*
X209536D01*
X207480Y567453D01*
D02*
G37*
G36*
X185630Y165067D02*
X184617D01*
X184389Y165053D01*
X184203Y165038D01*
X184060Y165010D01*
X183946Y164967D01*
X183846Y164924D01*
X183789Y164895D01*
X183760Y164881D01*
X183746Y164867D01*
X183661Y164781D01*
X183603Y164696D01*
X183561Y164596D01*
X183532Y164510D01*
X183518Y164424D01*
X183503Y164353D01*
Y164310D01*
Y164296D01*
Y164210D01*
X183532Y164125D01*
X183575Y163982D01*
X183603Y163925D01*
X183632Y163882D01*
X183646Y163868D01*
X183661Y163853D01*
X183775Y163739D01*
X183903Y163668D01*
X183989Y163639D01*
X184017Y163625D01*
X184032D01*
X184189Y163596D01*
X184317Y163568D01*
X184431Y163554D01*
X184517Y163539D01*
X184574Y163525D01*
X185630D01*
Y165067D01*
D02*
G37*
G36*
X164630D02*
X163617D01*
X163389Y165053D01*
X163203Y165038D01*
X163060Y165010D01*
X162946Y164967D01*
X162846Y164924D01*
X162789Y164895D01*
X162760Y164881D01*
X162746Y164867D01*
X162661Y164781D01*
X162603Y164696D01*
X162561Y164596D01*
X162532Y164510D01*
X162518Y164424D01*
X162503Y164353D01*
Y164310D01*
Y164296D01*
Y164210D01*
X162532Y164125D01*
X162575Y163982D01*
X162603Y163925D01*
X162632Y163882D01*
X162646Y163868D01*
X162661Y163853D01*
X162775Y163739D01*
X162903Y163668D01*
X162989Y163639D01*
X163017Y163625D01*
X163032D01*
X163189Y163596D01*
X163317Y163568D01*
X163431Y163554D01*
X163517Y163539D01*
X163574Y163525D01*
X164630D01*
Y165067D01*
D02*
G37*
G36*
X237643Y366324D02*
X237614D01*
X237428Y366295D01*
X237271Y366238D01*
X237143Y366152D01*
X237029Y366067D01*
X236957Y365967D01*
X236886Y365881D01*
X236857Y365824D01*
X236843Y365796D01*
X236800Y365696D01*
X236758Y365567D01*
X236729Y365424D01*
X236700Y365267D01*
X236643Y364925D01*
X236615Y364596D01*
X236600Y364268D01*
Y364140D01*
X236586Y364011D01*
Y363911D01*
Y363840D01*
Y363783D01*
Y363769D01*
Y363397D01*
X236600Y363098D01*
X236615Y362826D01*
X236643Y362612D01*
X236658Y362455D01*
X236686Y362327D01*
X236700Y362270D01*
Y362241D01*
X236743Y362070D01*
X236800Y361927D01*
X236857Y361799D01*
X236915Y361699D01*
X236972Y361627D01*
X237015Y361570D01*
X237043Y361542D01*
X237057Y361527D01*
X237143Y361456D01*
X237243Y361399D01*
X237329Y361370D01*
X237414Y361342D01*
X237500Y361328D01*
X237557Y361313D01*
X237614D01*
X237785Y361342D01*
X237928Y361399D01*
X238057Y361485D01*
X238171Y361585D01*
X238242Y361670D01*
X238314Y361756D01*
X238342Y361813D01*
X238356Y361841D01*
X238399Y361956D01*
X238442Y362084D01*
X238470Y362227D01*
X238499Y362370D01*
X238542Y362698D01*
X238570Y363026D01*
X238585Y363340D01*
Y363469D01*
X238599Y363597D01*
Y363683D01*
Y363769D01*
Y363811D01*
Y363826D01*
Y364083D01*
X238585Y364325D01*
X238570Y364539D01*
X238556Y364739D01*
X238542Y364911D01*
X238528Y365067D01*
X238499Y365210D01*
X238485Y365339D01*
X238456Y365453D01*
X238442Y365539D01*
X238428Y365610D01*
X238399Y365681D01*
X238385Y365724D01*
Y365753D01*
X238371Y365781D01*
X238271Y365967D01*
X238157Y366095D01*
X238028Y366195D01*
X237899Y366252D01*
X237800Y366295D01*
X237700Y366310D01*
X237643Y366324D01*
D02*
G37*
G36*
X430951Y227424D02*
X430880D01*
X430723Y227409D01*
X430580Y227367D01*
X430452Y227309D01*
X430337Y227252D01*
X430252Y227181D01*
X430195Y227124D01*
X430152Y227081D01*
X430138Y227067D01*
X430038Y226924D01*
X429952Y226767D01*
X429895Y226610D01*
X429866Y226467D01*
X429838Y226325D01*
X429824Y226210D01*
Y226139D01*
Y226125D01*
Y226110D01*
X429838Y225896D01*
X429866Y225711D01*
X429924Y225539D01*
X429966Y225411D01*
X430023Y225311D01*
X430080Y225225D01*
X430109Y225182D01*
X430123Y225168D01*
X430238Y225068D01*
X430352Y224983D01*
X430480Y224926D01*
X430594Y224897D01*
X430694Y224869D01*
X430780Y224854D01*
X430851D01*
X431008Y224869D01*
X431137Y224911D01*
X431265Y224954D01*
X431365Y225026D01*
X431451Y225083D01*
X431508Y225125D01*
X431551Y225168D01*
X431565Y225182D01*
X431665Y225325D01*
X431736Y225482D01*
X431779Y225639D01*
X431808Y225796D01*
X431836Y225939D01*
X431851Y226053D01*
Y226125D01*
Y226153D01*
X431836Y226382D01*
X431808Y226567D01*
X431765Y226724D01*
X431708Y226867D01*
X431665Y226967D01*
X431622Y227038D01*
X431594Y227081D01*
X431579Y227095D01*
X431465Y227209D01*
X431351Y227281D01*
X431237Y227338D01*
X431123Y227381D01*
X431023Y227409D01*
X430951Y227424D01*
D02*
G37*
G36*
X405780Y227452D02*
X405709D01*
X405580Y227438D01*
X405452Y227409D01*
X405352Y227367D01*
X405266Y227324D01*
X405195Y227281D01*
X405138Y227238D01*
X405109Y227209D01*
X405095Y227195D01*
X405009Y227095D01*
X404952Y226995D01*
X404895Y226881D01*
X404866Y226781D01*
X404852Y226696D01*
X404838Y226624D01*
Y226567D01*
Y226553D01*
X404852Y226424D01*
X404881Y226296D01*
X404909Y226196D01*
X404952Y226110D01*
X405009Y226039D01*
X405038Y225982D01*
X405066Y225953D01*
X405080Y225939D01*
X405166Y225868D01*
X405266Y225811D01*
X405366Y225768D01*
X405466Y225739D01*
X405552Y225725D01*
X405623Y225711D01*
X405680D01*
X405823Y225725D01*
X405951Y225753D01*
X406065Y225782D01*
X406165Y225825D01*
X406237Y225868D01*
X406294Y225910D01*
X406323Y225925D01*
X406337Y225939D01*
X406422Y226039D01*
X406479Y226139D01*
X406522Y226253D01*
X406551Y226353D01*
X406565Y226439D01*
X406579Y226510D01*
Y226567D01*
Y226581D01*
X406565Y226724D01*
X406537Y226838D01*
X406508Y226953D01*
X406465Y227038D01*
X406422Y227110D01*
X406380Y227167D01*
X406365Y227195D01*
X406351Y227209D01*
X406251Y227295D01*
X406151Y227352D01*
X406037Y227395D01*
X405937Y227424D01*
X405851Y227438D01*
X405780Y227452D01*
D02*
G37*
G36*
Y224469D02*
X405709D01*
X405566Y224454D01*
X405437Y224412D01*
X405323Y224369D01*
X405223Y224312D01*
X405138Y224240D01*
X405080Y224198D01*
X405038Y224155D01*
X405023Y224140D01*
X404924Y224012D01*
X404838Y223869D01*
X404781Y223741D01*
X404752Y223598D01*
X404724Y223484D01*
X404709Y223398D01*
Y223341D01*
Y223312D01*
X404724Y223127D01*
X404752Y222970D01*
X404809Y222827D01*
X404852Y222713D01*
X404909Y222613D01*
X404966Y222542D01*
X404995Y222499D01*
X405009Y222485D01*
X405123Y222385D01*
X405238Y222299D01*
X405352Y222242D01*
X405466Y222213D01*
X405552Y222185D01*
X405623Y222171D01*
X405694D01*
X405837Y222185D01*
X405966Y222213D01*
X406080Y222270D01*
X406180Y222327D01*
X406265Y222385D01*
X406323Y222442D01*
X406365Y222470D01*
X406380Y222485D01*
X406479Y222613D01*
X406551Y222742D01*
X406608Y222884D01*
X406637Y223013D01*
X406665Y223127D01*
X406679Y223227D01*
Y223284D01*
Y223312D01*
X406665Y223498D01*
X406637Y223669D01*
X406594Y223812D01*
X406537Y223926D01*
X406479Y224026D01*
X406437Y224098D01*
X406408Y224140D01*
X406394Y224155D01*
X406280Y224255D01*
X406165Y224340D01*
X406051Y224397D01*
X405937Y224426D01*
X405851Y224454D01*
X405780Y224469D01*
D02*
G37*
G36*
X177609Y248754D02*
X177537D01*
X177380Y248740D01*
X177238Y248697D01*
X177123Y248640D01*
X177009Y248583D01*
X176924Y248526D01*
X176866Y248469D01*
X176824Y248426D01*
X176809Y248412D01*
X176709Y248269D01*
X176638Y248112D01*
X176581Y247955D01*
X176552Y247798D01*
X176524Y247655D01*
X176510Y247541D01*
Y247470D01*
Y247455D01*
Y247441D01*
X176524Y247227D01*
X176552Y247027D01*
X176595Y246870D01*
X176652Y246742D01*
X176709Y246627D01*
X176752Y246556D01*
X176781Y246513D01*
X176795Y246499D01*
X176909Y246399D01*
X177023Y246313D01*
X177138Y246256D01*
X177252Y246228D01*
X177352Y246199D01*
X177423Y246185D01*
X177495D01*
X177652Y246199D01*
X177809Y246242D01*
X177937Y246299D01*
X178051Y246356D01*
X178137Y246413D01*
X178208Y246470D01*
X178251Y246513D01*
X178265Y246527D01*
X178365Y246670D01*
X178451Y246827D01*
X178508Y246984D01*
X178537Y247141D01*
X178565Y247270D01*
X178579Y247384D01*
Y247455D01*
Y247484D01*
X178565Y247698D01*
X178537Y247883D01*
X178479Y248055D01*
X178422Y248183D01*
X178380Y248283D01*
X178323Y248369D01*
X178294Y248412D01*
X178280Y248426D01*
X178165Y248540D01*
X178037Y248612D01*
X177908Y248669D01*
X177794Y248711D01*
X177694Y248740D01*
X177609Y248754D01*
D02*
G37*
G36*
X361166Y226453D02*
Y224055D01*
X363222D01*
X361166Y226453D01*
D02*
G37*
G36*
X478685Y227452D02*
X478614D01*
X478486Y227438D01*
X478357Y227409D01*
X478257Y227367D01*
X478172Y227324D01*
X478100Y227281D01*
X478043Y227238D01*
X478014Y227209D01*
X478000Y227195D01*
X477915Y227095D01*
X477858Y226995D01*
X477800Y226881D01*
X477772Y226781D01*
X477758Y226696D01*
X477743Y226624D01*
Y226567D01*
Y226553D01*
X477758Y226424D01*
X477786Y226296D01*
X477815Y226196D01*
X477858Y226110D01*
X477915Y226039D01*
X477943Y225982D01*
X477972Y225953D01*
X477986Y225939D01*
X478072Y225868D01*
X478172Y225811D01*
X478271Y225768D01*
X478371Y225739D01*
X478457Y225725D01*
X478528Y225711D01*
X478586D01*
X478728Y225725D01*
X478857Y225753D01*
X478971Y225782D01*
X479071Y225825D01*
X479142Y225868D01*
X479199Y225910D01*
X479228Y225925D01*
X479242Y225939D01*
X479328Y226039D01*
X479385Y226139D01*
X479428Y226253D01*
X479456Y226353D01*
X479470Y226439D01*
X479485Y226510D01*
Y226567D01*
Y226581D01*
X479470Y226724D01*
X479442Y226838D01*
X479413Y226953D01*
X479371Y227038D01*
X479328Y227110D01*
X479285Y227167D01*
X479271Y227195D01*
X479256Y227209D01*
X479156Y227295D01*
X479057Y227352D01*
X478942Y227395D01*
X478843Y227424D01*
X478757Y227438D01*
X478685Y227452D01*
D02*
G37*
G36*
Y224469D02*
X478614D01*
X478471Y224454D01*
X478343Y224412D01*
X478229Y224369D01*
X478129Y224312D01*
X478043Y224240D01*
X477986Y224198D01*
X477943Y224155D01*
X477929Y224140D01*
X477829Y224012D01*
X477743Y223869D01*
X477686Y223741D01*
X477658Y223598D01*
X477629Y223484D01*
X477615Y223398D01*
Y223341D01*
Y223312D01*
X477629Y223127D01*
X477658Y222970D01*
X477715Y222827D01*
X477758Y222713D01*
X477815Y222613D01*
X477872Y222542D01*
X477900Y222499D01*
X477915Y222485D01*
X478029Y222385D01*
X478143Y222299D01*
X478257Y222242D01*
X478371Y222213D01*
X478457Y222185D01*
X478528Y222171D01*
X478600D01*
X478742Y222185D01*
X478871Y222213D01*
X478985Y222270D01*
X479085Y222327D01*
X479171Y222385D01*
X479228Y222442D01*
X479271Y222470D01*
X479285Y222485D01*
X479385Y222613D01*
X479456Y222742D01*
X479513Y222884D01*
X479542Y223013D01*
X479571Y223127D01*
X479585Y223227D01*
Y223284D01*
Y223312D01*
X479571Y223498D01*
X479542Y223669D01*
X479499Y223812D01*
X479442Y223926D01*
X479385Y224026D01*
X479342Y224098D01*
X479314Y224140D01*
X479299Y224155D01*
X479185Y224255D01*
X479071Y224340D01*
X478957Y224397D01*
X478843Y224426D01*
X478757Y224454D01*
X478685Y224469D01*
D02*
G37*
G36*
X306866Y226453D02*
Y224055D01*
X308922D01*
X306866Y226453D01*
D02*
G37*
%LPD*%
D11*
X99500Y173500D02*
G03*
X99500Y173500I-3000J0D01*
G01*
D12*
X402082Y317666D02*
G03*
X402082Y317666I-724J0D01*
G01*
X409298Y316736D02*
X422298D01*
X409298Y284736D02*
X422298D01*
X67000Y161000D02*
X81000D01*
D14*
X239000Y336800D02*
X253000D01*
X324000Y462500D02*
Y480500D01*
X321000Y459000D02*
X423000D01*
Y413000D02*
Y459000D01*
X321000Y413000D02*
X423000D01*
X321000D02*
Y459000D01*
X479000Y252000D02*
X493000D01*
X197000Y186000D02*
X211000D01*
X222750Y185500D02*
X236750D01*
X355500Y325500D02*
X355500Y262500D01*
X292500D02*
X355500D01*
X292500D02*
Y325500D01*
X355500Y325500D01*
X428000Y252000D02*
X442000D01*
X358000Y195200D02*
X372000D01*
X384000D02*
X398000D01*
X86500Y212500D02*
X117500D01*
X86500Y163500D02*
X117500D01*
Y212500D01*
X86500Y163500D02*
Y212500D01*
X333000Y195000D02*
X347000D01*
X452842Y252000D02*
X466842D01*
X239000Y291000D02*
X253000D01*
X403158Y252000D02*
X417158D01*
X191000Y365000D02*
Y379000D01*
X269000Y214500D02*
X301000D01*
X269000Y165500D02*
Y214500D01*
Y165500D02*
X301000D01*
Y214500D01*
X304500Y215800D02*
X319750D01*
D82*
X372000Y334000D02*
G03*
X372000Y334000I-2000J0D01*
G01*
D83*
X235000Y571000D02*
X241000D01*
X235000Y561000D02*
X241000D01*
X235000Y548000D02*
X241000D01*
X235000Y538000D02*
X241000D01*
X235000Y526000D02*
X241000D01*
X235000Y516000D02*
X241000D01*
X36707Y175000D02*
X42708D01*
X36707Y165000D02*
X42708D01*
X176000Y223000D02*
Y229000D01*
X186000Y223000D02*
Y229000D01*
X156000Y223000D02*
Y229000D01*
X166000Y223000D02*
Y229000D01*
X156000Y182500D02*
Y188500D01*
X166000Y182500D02*
Y188500D01*
X186000Y182000D02*
Y188000D01*
X176000Y182000D02*
Y188000D01*
M02*
