G04*
G04 #@! TF.GenerationSoftware,Altium Limited,Altium Designer,19.1.6 (110)*
G04*
G04 Layer_Color=0*
%FSLAX44Y44*%
%MOMM*%
G71*
G01*
G75*
%ADD84C,0.0500*%
D84*
X235100Y357650D02*
X256900D01*
Y315950D02*
Y357650D01*
X235100Y315950D02*
X256900D01*
X235100D02*
Y357650D01*
X317000Y483000D02*
X427000D01*
Y389000D02*
Y483000D01*
X317000Y389000D02*
X427000D01*
X317000D02*
Y483000D01*
X475100Y272850D02*
X496900D01*
Y231150D02*
Y272850D01*
X475100Y231150D02*
X496900D01*
X475100D02*
Y272850D01*
X265500Y351250D02*
X382500D01*
Y230750D02*
Y351250D01*
X265500Y230750D02*
X382500D01*
X265500D02*
Y351250D01*
X192500Y163250D02*
X215500D01*
X192500D02*
Y208750D01*
X215500D01*
Y163250D02*
Y208750D01*
X218250Y162750D02*
X241250D01*
X218250D02*
Y208250D01*
X241250D01*
Y162750D02*
Y208250D01*
X376500Y241500D02*
Y346500D01*
X271500Y241500D02*
X376500Y241500D01*
X271500Y241500D02*
X271500Y346500D01*
X376500D01*
X424100Y272850D02*
X445900D01*
Y231150D02*
Y272850D01*
X424100Y231150D02*
X445900D01*
X424100D02*
Y272850D01*
X354100Y174350D02*
X375900D01*
X354100D02*
Y216050D01*
X375900D01*
Y174350D02*
Y216050D01*
X380100Y174350D02*
X401900D01*
X380100D02*
Y216050D01*
X401900D01*
Y174350D02*
Y216050D01*
X385950Y422900D02*
X427650D01*
Y401100D02*
Y422900D01*
X385950Y401100D02*
X427650D01*
X385950D02*
Y422900D01*
X379750Y435000D02*
X406250D01*
Y484000D01*
X379750D02*
X406250D01*
X379750Y435000D02*
Y484000D01*
X408500Y435250D02*
X431500D01*
Y480750D01*
X408500D02*
X431500D01*
X408500Y435250D02*
Y480750D01*
X350750Y434500D02*
X377250D01*
Y483500D01*
X350750D02*
X377250D01*
X350750Y434500D02*
Y483500D01*
X294500Y410250D02*
X317500D01*
Y455750D01*
X294500D02*
X317500D01*
X294500Y410250D02*
Y455750D01*
X327500Y435250D02*
X350500D01*
Y480750D01*
X327500D02*
X350500D01*
X327500Y435250D02*
Y480750D01*
X329950Y422900D02*
X371650D01*
Y401100D02*
Y422900D01*
X329950Y401100D02*
X371650D01*
X329950D02*
Y422900D01*
X67750Y349000D02*
X153250D01*
Y277000D02*
Y349000D01*
X67750Y277000D02*
X153250D01*
X67750D02*
Y349000D01*
X400150Y385900D02*
X441850D01*
Y364100D02*
Y385900D01*
X400150Y364100D02*
X441850D01*
X400150D02*
Y385900D01*
X399520Y358626D02*
X441220D01*
Y336826D02*
Y358626D01*
X399520Y336826D02*
X441220D01*
X399520D02*
Y358626D01*
X397250Y303500D02*
Y326500D01*
Y303500D02*
X442750D01*
Y326500D01*
X397250D02*
X442750D01*
X458250Y276947D02*
X517750D01*
Y237647D02*
Y276947D01*
X458250Y237647D02*
X517750D01*
X458250D02*
Y276947D01*
X493750Y199500D02*
Y222500D01*
X448250D02*
X493750D01*
X448250Y199500D02*
Y222500D01*
Y199500D02*
X493750D01*
X493920Y171634D02*
Y194634D01*
X448420D02*
X493920D01*
X448420Y171634D02*
Y194634D01*
Y171634D02*
X493920D01*
X65750Y363500D02*
Y412500D01*
X92250D01*
Y363500D02*
Y412500D01*
X65750Y363500D02*
X92250D01*
X124500Y365250D02*
Y410750D01*
X101500Y365250D02*
X124500D01*
X101500D02*
Y410750D01*
X124500D01*
X103900Y219150D02*
Y260850D01*
X82100Y219150D02*
X103900D01*
X82100D02*
Y260850D01*
X103900D01*
X328500Y172250D02*
Y217750D01*
Y172250D02*
X351500D01*
Y217750D01*
X328500D02*
X351500D01*
X297500Y171250D02*
Y216750D01*
X274500Y171250D02*
X297500D01*
X274500D02*
Y216750D01*
X297500D01*
X448942Y231150D02*
Y272850D01*
Y231150D02*
X470742D01*
Y272850D01*
X448942D02*
X470742D01*
X234500Y268250D02*
Y313750D01*
Y268250D02*
X257500D01*
Y313750D01*
X234500D02*
X257500D01*
X421058Y231150D02*
Y272850D01*
X399258D02*
X421058D01*
X399258Y231150D02*
Y272850D01*
Y231150D02*
X421058D01*
X265500Y410250D02*
Y455750D01*
X288500D01*
Y410250D02*
Y455750D01*
X265500Y410250D02*
X288500D01*
X232750Y316000D02*
X259250D01*
X232750Y267000D02*
Y316000D01*
Y267000D02*
X259250D01*
Y316000D01*
X8150Y268900D02*
X49850D01*
Y247100D02*
Y268900D01*
X8150Y247100D02*
X49850D01*
X8150D02*
Y268900D01*
X324750Y169500D02*
X351250D01*
Y218500D01*
X324750D02*
X351250D01*
X324750Y169500D02*
Y218500D01*
X296750Y219000D02*
X323250D01*
X296750Y170000D02*
Y219000D01*
Y170000D02*
X323250D01*
Y219000D01*
X352750Y218500D02*
X427250D01*
Y163500D02*
Y218500D01*
X352750Y163500D02*
X427250D01*
X352750D02*
Y218500D01*
X168250Y360500D02*
Y383500D01*
X213750D01*
Y360500D02*
Y383500D01*
X168250Y360500D02*
X213750D01*
M02*
