G04*
G04 #@! TF.GenerationSoftware,Altium Limited,Altium Designer,19.1.6 (110)*
G04*
G04 Layer_Color=128*
%FSLAX44Y44*%
%MOMM*%
G71*
G01*
G75*
%ADD19R,1.8000X1.0500*%
%ADD21R,1.7000X0.6500*%
%ADD22O,1.7000X0.6500*%
%ADD27R,1.0500X1.8000*%
%ADD30R,1.8700X1.0300*%
%ADD31R,2.0000X0.4000*%
%ADD32R,1.5250X0.6500*%
%ADD72R,0.4000X1.8000*%
%ADD73R,1.0000X1.0000*%
%ADD74R,0.5000X1.5000*%
%ADD75R,1.5000X0.5000*%
%ADD76R,1.0000X1.0000*%
D19*
X204000Y201000D02*
D03*
Y171000D02*
D03*
X229750Y200500D02*
D03*
Y170500D02*
D03*
X340000Y210000D02*
D03*
Y180000D02*
D03*
X246000Y306000D02*
D03*
Y276000D02*
D03*
D21*
X75000Y168900D02*
D03*
D22*
X129000Y207000D02*
D03*
Y194300D02*
D03*
Y181600D02*
D03*
Y168900D02*
D03*
X75000Y207000D02*
D03*
Y194300D02*
D03*
Y181600D02*
D03*
D27*
X206000Y372000D02*
D03*
X176000D02*
D03*
D30*
X246000Y322600D02*
D03*
Y351000D02*
D03*
X486000Y237800D02*
D03*
Y266200D02*
D03*
X435000Y237800D02*
D03*
Y266200D02*
D03*
X365000Y209400D02*
D03*
Y181000D02*
D03*
X391000Y209400D02*
D03*
Y181000D02*
D03*
X459842Y266200D02*
D03*
Y237800D02*
D03*
X410158D02*
D03*
Y266200D02*
D03*
D31*
X415798Y288736D02*
D03*
Y300736D02*
D03*
Y312736D02*
D03*
D32*
X312120Y209050D02*
D03*
Y196350D02*
D03*
Y183650D02*
D03*
Y170950D02*
D03*
X257880D02*
D03*
Y183650D02*
D03*
Y196350D02*
D03*
Y209050D02*
D03*
D72*
X329750Y400500D02*
D03*
X336250D02*
D03*
X342750D02*
D03*
X349250D02*
D03*
X355750D02*
D03*
X362250D02*
D03*
X368750D02*
D03*
X375250D02*
D03*
X381750D02*
D03*
X388250D02*
D03*
X394750D02*
D03*
X401250D02*
D03*
X407750D02*
D03*
X414250D02*
D03*
Y471500D02*
D03*
X407750D02*
D03*
X401250D02*
D03*
X394750D02*
D03*
X388250D02*
D03*
X381750D02*
D03*
X375250D02*
D03*
X368750D02*
D03*
X362250D02*
D03*
X355750D02*
D03*
X349250D02*
D03*
X342750D02*
D03*
X336250D02*
D03*
X329750D02*
D03*
D73*
X248000Y566000D02*
D03*
X228000D02*
D03*
X248000Y543000D02*
D03*
X228000D02*
D03*
X248000Y521000D02*
D03*
X228000D02*
D03*
X49707Y170000D02*
D03*
X29708D02*
D03*
D74*
X352000Y336500D02*
D03*
X344000D02*
D03*
X336000D02*
D03*
X328000D02*
D03*
X320000D02*
D03*
X312000D02*
D03*
X304000D02*
D03*
X296000D02*
D03*
X296000Y251500D02*
D03*
X304000Y251500D02*
D03*
X312000D02*
D03*
X320000D02*
D03*
X328000Y251500D02*
D03*
X336000D02*
D03*
X344000D02*
D03*
X352000Y251500D02*
D03*
D75*
X281500Y322000D02*
D03*
Y314000D02*
D03*
Y306000D02*
D03*
Y298000D02*
D03*
Y290000D02*
D03*
Y282000D02*
D03*
Y274000D02*
D03*
Y266000D02*
D03*
X366500D02*
D03*
X366500Y274000D02*
D03*
Y282000D02*
D03*
Y290000D02*
D03*
X366500Y298000D02*
D03*
Y306000D02*
D03*
Y314000D02*
D03*
X366500Y322000D02*
D03*
D76*
X181000Y236000D02*
D03*
Y216000D02*
D03*
X161000Y236000D02*
D03*
Y216000D02*
D03*
X161000Y195500D02*
D03*
Y175500D02*
D03*
X181000Y175000D02*
D03*
Y195000D02*
D03*
M02*
