M48
;Layer_Color=9474304
;FILE_FORMAT=4:4
METRIC,TZ
;TYPE=PLATED
T1F00S00C0.3000
T2F00S00C0.4400
T3F00S00C0.7112
T4F00S00C0.8000
T5F00S00C1.0000
T6F00S00C1.2000
T7F00S00C1.7000
T8F00S00C3.3000
T9F00S00C4.2000
%
T01
X80000Y50000
X110000
X140000
X170000
X185000Y80000
X170000Y110000
X110000
X80000
X50000
X20000
X35000Y140000
X65000
X95000
X125000
X110000Y170000
X90932Y168910
X20000Y170000
X65000Y80000
X95000
X200000Y50000
X230000
X260000
X290000
X320000
X350000
X380000
X410000
X440000
X470000
X455000Y80000
X425000
X440000Y110000
X470000
X500000
X515000Y140000
X500000Y170000
X440000
X338000Y180000
X350000Y110000
X335000Y80000
X260000Y110000
X230000
X215000Y140000
X214630Y259080
X207518Y259588
X263144Y272288
X246000Y306000
X245000Y380000
X278000Y372000
X310000Y362000
X306832Y350774
X328000Y324000
X350774Y324104
X384302Y321056
X396240Y336804
X380000Y350000
X365000Y380000
X381999Y413999
X389128Y433324
X405130Y421640
X355999Y424999
X335788Y431292
X306000Y433000
X320000Y410000
X290000
X230000
X200000
X206000Y371000
X215000Y440000
X245000
X250001Y480001
X250000Y487000
X260001Y480001
X270001
X280001
X281497Y501497
X286997
X292497
X297997
X308997
X305001Y490001
X315001
X295001
X275997Y501497
X270497
X264998
X259498
X253997
X260001Y520001
X270001
X280001
X285001Y570001
X275001
X265001
X264998Y583997
X270497
X275997
X281497
X286997
X292497
X297997
X303497
X308997
X320001Y580001
X330001
X377747Y583997
X383247
X388747
X394247
X399747
X405247
X410747
X416247
X421747
X427247
X425001Y570001
X435001
X445001
X455001
X465001
X475001
X485001
X495001
X490001Y580001
X480001
X470001
X460001
X450001
X440001
X415001Y570001
X405001
X395001
X400001Y520001
X410001
X420001
X430001
X440001
X445001Y510001
X455001
X465001
X475001
X485001
X495001
X490001Y520001
X500001
X495001Y530001
X490001Y540001
X500001
X495001Y550001
X500001Y560001
X480001Y500001
X470001
X460001
X450001
X440001
X429997Y501497
X424497
X418997
X413497
X407997
X402497
X396997
X391497
X385997
X380497
X349000Y459000
X277368Y458724
X200000Y470000
X200001Y520001
X205001Y530001
X215001
X210001Y540001
X200001
X205001Y550001
X215001
X210001Y560001
X200001
X205001Y570001
X215001
X210001Y580001
X220001
X230001
X240001
X253997Y583997
X259498
X200001Y580001
X195001Y570001
Y550001
Y530001
X455001Y490001
X465001
X475001
X460001Y480001
X470000Y410000
X500000
X515000Y380000
Y320000
X500000Y230000
X475996Y249936
X435000Y253000
X393000Y247000
X387000Y257000
X375666Y224790
X377952Y199898
X334000Y238000
X322326Y232410
X304000Y241000
X289000Y226000
X320040Y269240
X343000Y276000
X351000Y265000
X425000Y380000
X515000Y200000
X148844Y201930
X95000Y200000
X110000Y230000
X60000Y250000
Y312000
X35000Y320000
X50000Y350000
X80000
X96000Y359000
X95000Y380000
X65000
X50000Y410000
X65000Y440000
X95000
X125000
X110000Y470000
X125000Y500000
X155000
X190001Y520001
Y540001
Y560001
X170000Y410000
X158496Y363474
X128000Y313000
X140000Y290000
X155000Y260000
X20000Y350000
T02
X478700Y319250
Y332250
Y345250
X489300Y338750
Y325750
T03
X51000Y223000
T04
X135177Y477928
X170533Y442572
T05
X456600Y139000
X482000Y139000
X477000Y529600
X477000Y555000
X303000Y394000
X277600Y394000
X204400Y330800
Y305400
Y280000
X179000
Y305400
Y330800
T06
X481500Y296500
Y368000
T07
X211314Y84650
X246314
Y119650
X211314
X281314
Y84650
X316314
Y119650
T08
X30000Y70000
X497700
Y448900
X30000Y381400
T09
X141314Y94650
X386314Y94650
M30
