G04*
G04 #@! TF.GenerationSoftware,Altium Limited,Altium Designer,19.1.6 (110)*
G04*
G04 Layer_Color=16711935*
%FSLAX44Y44*%
%MOMM*%
G71*
G01*
G75*
%ADD37R,1.8800X1.1300*%
%ADD39R,1.7800X0.7300*%
%ADD40O,1.7800X0.7300*%
%ADD45R,1.1300X1.8800*%
%ADD48R,1.9500X1.1100*%
%ADD49R,2.0800X0.4800*%
%ADD50R,1.6050X0.7300*%
%ADD51C,2.0800*%
%ADD52C,0.8800*%
%ADD53C,1.8800*%
G04:AMPARAMS|DCode=54|XSize=1.88mm|YSize=1.88mm|CornerRadius=0.265mm|HoleSize=0mm|Usage=FLASHONLY|Rotation=90.000|XOffset=0mm|YOffset=0mm|HoleType=Round|Shape=RoundedRectangle|*
%AMROUNDEDRECTD54*
21,1,1.8800,1.3500,0,0,90.0*
21,1,1.3500,1.8800,0,0,90.0*
1,1,0.5300,0.6750,0.6750*
1,1,0.5300,0.6750,-0.6750*
1,1,0.5300,-0.6750,-0.6750*
1,1,0.5300,-0.6750,0.6750*
%
%ADD54ROUNDEDRECTD54*%
G04:AMPARAMS|DCode=55|XSize=1.88mm|YSize=1.88mm|CornerRadius=0.265mm|HoleSize=0mm|Usage=FLASHONLY|Rotation=0.000|XOffset=0mm|YOffset=0mm|HoleType=Round|Shape=RoundedRectangle|*
%AMROUNDEDRECTD55*
21,1,1.8800,1.3500,0,0,0.0*
21,1,1.3500,1.8800,0,0,0.0*
1,1,0.5300,0.6750,-0.6750*
1,1,0.5300,-0.6750,-0.6750*
1,1,0.5300,-0.6750,0.6750*
1,1,0.5300,0.6750,0.6750*
%
%ADD55ROUNDEDRECTD55*%
%ADD56C,1.5800*%
%ADD57C,5.2032*%
%ADD58C,2.5800*%
%ADD59C,5.5800*%
%ADD77R,0.4800X1.8800*%
%ADD78R,1.0800X1.0800*%
%ADD79R,0.5800X1.5800*%
%ADD80R,1.5800X0.5800*%
%ADD81R,1.0800X1.0800*%
D37*
X204000Y201000D02*
D03*
Y171000D02*
D03*
X229750Y200500D02*
D03*
Y170500D02*
D03*
X340000Y210000D02*
D03*
Y180000D02*
D03*
X246000Y306000D02*
D03*
Y276000D02*
D03*
D39*
X75000Y168900D02*
D03*
D40*
X129000Y207000D02*
D03*
Y194300D02*
D03*
Y181600D02*
D03*
Y168900D02*
D03*
X75000Y207000D02*
D03*
Y194300D02*
D03*
Y181600D02*
D03*
D45*
X206000Y372000D02*
D03*
X176000D02*
D03*
D48*
X246000Y322600D02*
D03*
Y351000D02*
D03*
X486000Y237800D02*
D03*
Y266200D02*
D03*
X435000Y237800D02*
D03*
Y266200D02*
D03*
X365000Y209400D02*
D03*
Y181000D02*
D03*
X391000Y209400D02*
D03*
Y181000D02*
D03*
X459842Y266200D02*
D03*
Y237800D02*
D03*
X410158D02*
D03*
Y266200D02*
D03*
D49*
X415798Y288736D02*
D03*
Y300736D02*
D03*
Y312736D02*
D03*
D50*
X312120Y209050D02*
D03*
Y196350D02*
D03*
Y183650D02*
D03*
Y170950D02*
D03*
X257880D02*
D03*
Y183650D02*
D03*
Y196350D02*
D03*
Y209050D02*
D03*
D51*
X481500Y296500D02*
D03*
Y368000D02*
D03*
D52*
X478700Y319250D02*
D03*
Y332250D02*
D03*
Y345250D02*
D03*
X489300Y325750D02*
D03*
Y338750D02*
D03*
D53*
X179000Y305400D02*
D03*
Y330800D02*
D03*
X204400D02*
D03*
Y305400D02*
D03*
X179000Y280000D02*
D03*
X477000Y529600D02*
D03*
X303000Y394000D02*
D03*
X456600Y139000D02*
D03*
D54*
X204400Y280000D02*
D03*
X477000Y555000D02*
D03*
D55*
X277600Y394000D02*
D03*
X482000Y139000D02*
D03*
D56*
X135177Y477928D02*
D03*
X170533Y442572D02*
D03*
D57*
X386314Y94650D02*
D03*
X141314Y94650D02*
D03*
D58*
X316314Y84650D02*
D03*
X281314D02*
D03*
X246314D02*
D03*
X316314Y119650D02*
D03*
X281314D02*
D03*
X246314D02*
D03*
X211314Y84650D02*
D03*
Y119650D02*
D03*
D59*
X497700Y70000D02*
D03*
Y448900D02*
D03*
X30000Y381400D02*
D03*
Y70000D02*
D03*
D77*
X329750Y400500D02*
D03*
X336250D02*
D03*
X342750D02*
D03*
X349250D02*
D03*
X355750D02*
D03*
X362250D02*
D03*
X368750D02*
D03*
X375250D02*
D03*
X381750D02*
D03*
X388250D02*
D03*
X394750D02*
D03*
X401250D02*
D03*
X407750D02*
D03*
X414250D02*
D03*
Y471500D02*
D03*
X407750D02*
D03*
X401250D02*
D03*
X394750D02*
D03*
X388250D02*
D03*
X381750D02*
D03*
X375250D02*
D03*
X368750D02*
D03*
X362250D02*
D03*
X355750D02*
D03*
X349250D02*
D03*
X342750D02*
D03*
X336250D02*
D03*
X329750D02*
D03*
D78*
X248000Y566000D02*
D03*
X228000D02*
D03*
X248000Y543000D02*
D03*
X228000D02*
D03*
X248000Y521000D02*
D03*
X228000D02*
D03*
X49707Y170000D02*
D03*
X29708D02*
D03*
D79*
X352000Y336500D02*
D03*
X344000D02*
D03*
X336000D02*
D03*
X328000D02*
D03*
X320000D02*
D03*
X312000D02*
D03*
X304000D02*
D03*
X296000D02*
D03*
X296000Y251500D02*
D03*
X304000Y251500D02*
D03*
X312000D02*
D03*
X320000D02*
D03*
X328000Y251500D02*
D03*
X336000D02*
D03*
X344000D02*
D03*
X352000Y251500D02*
D03*
D80*
X281500Y322000D02*
D03*
Y314000D02*
D03*
Y306000D02*
D03*
Y298000D02*
D03*
Y290000D02*
D03*
Y282000D02*
D03*
Y274000D02*
D03*
Y266000D02*
D03*
X366500D02*
D03*
X366500Y274000D02*
D03*
Y282000D02*
D03*
Y290000D02*
D03*
X366500Y298000D02*
D03*
Y306000D02*
D03*
Y314000D02*
D03*
X366500Y322000D02*
D03*
D81*
X181000Y236000D02*
D03*
Y216000D02*
D03*
X161000Y236000D02*
D03*
Y216000D02*
D03*
X161000Y195500D02*
D03*
Y175500D02*
D03*
X181000Y175000D02*
D03*
Y195000D02*
D03*
M02*
