G04*
G04 #@! TF.GenerationSoftware,Altium Limited,Altium Designer,19.1.6 (110)*
G04*
G04 Layer_Physical_Order=2*
G04 Layer_Color=16711680*
%FSLAX44Y44*%
%MOMM*%
G71*
G01*
G75*
%ADD11C,0.6000*%
%ADD12C,0.2540*%
%ADD19R,1.8000X1.0500*%
%ADD21R,1.7000X0.6500*%
%ADD22O,1.7000X0.6500*%
%ADD27R,1.0500X1.8000*%
%ADD30R,1.8700X1.0300*%
%ADD31R,2.0000X0.4000*%
%ADD32R,1.5250X0.6500*%
%ADD60C,2.0000*%
%ADD61C,2.0000*%
%ADD62C,0.8000*%
%ADD63C,1.8000*%
G04:AMPARAMS|DCode=64|XSize=1.8mm|YSize=1.8mm|CornerRadius=0.225mm|HoleSize=0mm|Usage=FLASHONLY|Rotation=90.000|XOffset=0mm|YOffset=0mm|HoleType=Round|Shape=RoundedRectangle|*
%AMROUNDEDRECTD64*
21,1,1.8000,1.3500,0,0,90.0*
21,1,1.3500,1.8000,0,0,90.0*
1,1,0.4500,0.6750,0.6750*
1,1,0.4500,0.6750,-0.6750*
1,1,0.4500,-0.6750,-0.6750*
1,1,0.4500,-0.6750,0.6750*
%
%ADD64ROUNDEDRECTD64*%
G04:AMPARAMS|DCode=65|XSize=1.8mm|YSize=1.8mm|CornerRadius=0.225mm|HoleSize=0mm|Usage=FLASHONLY|Rotation=0.000|XOffset=0mm|YOffset=0mm|HoleType=Round|Shape=RoundedRectangle|*
%AMROUNDEDRECTD65*
21,1,1.8000,1.3500,0,0,0.0*
21,1,1.3500,1.8000,0,0,0.0*
1,1,0.4500,0.6750,-0.6750*
1,1,0.4500,-0.6750,-0.6750*
1,1,0.4500,-0.6750,0.6750*
1,1,0.4500,0.6750,0.6750*
%
%ADD65ROUNDEDRECTD65*%
%ADD66C,1.5000*%
%ADD67C,5.0000*%
%ADD68C,2.5000*%
%ADD69C,0.5000*%
%ADD70C,1.2700*%
%ADD71C,5.5000*%
%ADD72R,0.4000X1.8000*%
%ADD73R,1.0000X1.0000*%
%ADD74R,0.5000X1.5000*%
%ADD75R,1.5000X0.5000*%
%ADD76R,1.0000X1.0000*%
G36*
X500537Y598486D02*
X504809Y597460D01*
X508868Y595778D01*
X512615Y593483D01*
X515956Y590629D01*
X518810Y587288D01*
X521106Y583541D01*
X522787Y579482D01*
X523813Y575209D01*
X524071Y571925D01*
Y570829D01*
X524071Y570829D01*
Y466230D01*
X521531Y465513D01*
X521234Y465998D01*
X518270Y469469D01*
X514799Y472434D01*
X510906Y474819D01*
X506689Y476566D01*
X502251Y477631D01*
X497700Y477990D01*
X493149Y477631D01*
X488711Y476566D01*
X484494Y474819D01*
X480602Y472434D01*
X477131Y469469D01*
X474166Y465998D01*
X471781Y462106D01*
X470034Y457889D01*
X468969Y453451D01*
X468610Y448900D01*
X468969Y444349D01*
X470034Y439911D01*
X471781Y435694D01*
X474166Y431801D01*
X477131Y428330D01*
X480602Y425366D01*
X484494Y422981D01*
X488711Y421234D01*
X493149Y420168D01*
X497700Y419810D01*
X502251Y420168D01*
X506689Y421234D01*
X510906Y422981D01*
X514799Y425366D01*
X518270Y428330D01*
X521234Y431801D01*
X521531Y432287D01*
X524071Y431570D01*
Y87330D01*
X521531Y86613D01*
X521234Y87099D01*
X518270Y90569D01*
X514799Y93534D01*
X510906Y95919D01*
X506689Y97666D01*
X502251Y98731D01*
X497700Y99090D01*
X493149Y98731D01*
X488711Y97666D01*
X484494Y95919D01*
X480602Y93534D01*
X477131Y90569D01*
X474166Y87099D01*
X471781Y83206D01*
X470034Y78989D01*
X468969Y74551D01*
X468610Y70000D01*
X468969Y65449D01*
X470034Y61011D01*
X471781Y56794D01*
X474166Y52902D01*
X477131Y49430D01*
X480602Y46466D01*
X484494Y44081D01*
X488711Y42334D01*
X493149Y41269D01*
X497700Y40910D01*
X502251Y41269D01*
X506689Y42334D01*
X510906Y44081D01*
X514799Y46466D01*
X518270Y49430D01*
X521234Y52902D01*
X521531Y53387D01*
X524071Y52670D01*
Y50800D01*
X524071Y50800D01*
Y49703D01*
X523813Y46419D01*
X522787Y42147D01*
X521106Y38087D01*
X518810Y34341D01*
X515956Y31000D01*
X512615Y28146D01*
X508868Y25850D01*
X504809Y24169D01*
X500536Y23143D01*
X497253Y22885D01*
X30953D01*
X27669Y23143D01*
X23397Y24169D01*
X19338Y25850D01*
X15591Y28146D01*
X12250Y31000D01*
X9396Y34341D01*
X7100Y38087D01*
X5419Y42147D01*
X4393Y46420D01*
X4135Y49703D01*
Y52244D01*
X5254Y52560D01*
X6675Y52657D01*
X9431Y49430D01*
X12902Y46466D01*
X16794Y44081D01*
X21011Y42334D01*
X25449Y41269D01*
X30000Y40910D01*
X34551Y41269D01*
X38989Y42334D01*
X43206Y44081D01*
X47098Y46466D01*
X50570Y49430D01*
X53534Y52902D01*
X55919Y56794D01*
X57666Y61011D01*
X58731Y65449D01*
X59090Y70000D01*
X58731Y74551D01*
X57666Y78989D01*
X55919Y83206D01*
X53534Y87099D01*
X50570Y90569D01*
X47098Y93534D01*
X43206Y95919D01*
X38989Y97666D01*
X34551Y98731D01*
X30000Y99090D01*
X25449Y98731D01*
X21011Y97666D01*
X16794Y95919D01*
X12902Y93534D01*
X9431Y90569D01*
X6675Y87343D01*
X5254Y87440D01*
X4135Y87756D01*
Y363644D01*
X5254Y363960D01*
X6675Y364057D01*
X9431Y360830D01*
X12902Y357866D01*
X16794Y355481D01*
X21011Y353734D01*
X25449Y352668D01*
X30000Y352310D01*
X34551Y352668D01*
X38989Y353734D01*
X43206Y355481D01*
X47098Y357866D01*
X50570Y360830D01*
X53534Y364301D01*
X55919Y368194D01*
X57666Y372411D01*
X58731Y376849D01*
X59090Y381400D01*
X58731Y385951D01*
X57666Y390389D01*
X55919Y394606D01*
X53534Y398498D01*
X50570Y401969D01*
X47098Y404934D01*
X43206Y407319D01*
X38989Y409066D01*
X34551Y410131D01*
X30000Y410490D01*
X25449Y410131D01*
X25028Y410030D01*
X23709Y412326D01*
X193739Y590122D01*
X193739Y590122D01*
X194596Y591018D01*
X197462Y593487D01*
X201201Y595778D01*
X205261Y597460D01*
X209533Y598486D01*
X212817Y598744D01*
X497253D01*
X500537Y598486D01*
D02*
G37*
%LPC*%
G36*
X255540Y573540D02*
X250500D01*
Y568500D01*
X255540D01*
Y573540D01*
D02*
G37*
G36*
X245500D02*
X240460D01*
Y568500D01*
X245500D01*
Y573540D01*
D02*
G37*
G36*
X255540Y563500D02*
X250500D01*
Y558460D01*
X255540D01*
Y563500D01*
D02*
G37*
G36*
X245500D02*
X240460D01*
Y558460D01*
X245500D01*
Y563500D01*
D02*
G37*
G36*
X435000Y589624D02*
X372000D01*
X370852Y589148D01*
X367852Y586148D01*
X367376Y585000D01*
Y560000D01*
X367852Y558852D01*
X369000Y558376D01*
X377000D01*
X378148Y558852D01*
X378624Y560000D01*
Y574376D01*
X435000D01*
X436148Y574852D01*
X436624Y576000D01*
Y588000D01*
X436148Y589148D01*
X435000Y589624D01*
D02*
G37*
G36*
X255540Y550540D02*
X250500D01*
Y545500D01*
X255540D01*
Y550540D01*
D02*
G37*
G36*
X245500D02*
X240460D01*
Y545500D01*
X245500D01*
Y550540D01*
D02*
G37*
G36*
X255540Y540500D02*
X250500D01*
Y535460D01*
X255540D01*
Y540500D01*
D02*
G37*
G36*
X245500D02*
X240460D01*
Y535460D01*
X245500D01*
Y540500D01*
D02*
G37*
G36*
X477000Y540191D02*
X474259Y539830D01*
X471705Y538772D01*
X469511Y537089D01*
X467828Y534895D01*
X466770Y532341D01*
X466409Y529600D01*
X466770Y526859D01*
X467828Y524305D01*
X469511Y522111D01*
X471705Y520428D01*
X474259Y519370D01*
X477000Y519010D01*
X479741Y519370D01*
X482295Y520428D01*
X484489Y522111D01*
X486172Y524305D01*
X487230Y526859D01*
X487590Y529600D01*
X487230Y532341D01*
X486172Y534895D01*
X484489Y537089D01*
X482295Y538772D01*
X479741Y539830D01*
X477000Y540191D01*
D02*
G37*
G36*
X314000Y592624D02*
X313756Y592624D01*
X247000Y592624D01*
X245852Y592148D01*
X245376Y591000D01*
Y580000D01*
X245852Y578852D01*
X247000Y578376D01*
X303376D01*
Y563624D01*
X263144D01*
X261996Y563148D01*
X261520Y562000D01*
Y528000D01*
X261996Y526852D01*
X263144Y526376D01*
X304376D01*
Y509624D01*
X247000D01*
X245852Y509148D01*
X245376Y508000D01*
X245376Y499287D01*
X242836Y498097D01*
X241584Y499062D01*
Y510590D01*
X243983Y512988D01*
X244136Y513046D01*
X245104Y513946D01*
X245468Y514238D01*
X245780Y514458D01*
X245854Y514500D01*
X246471D01*
X246623Y514437D01*
X246749Y514490D01*
X246882Y514458D01*
X246949Y514500D01*
X254500D01*
Y527500D01*
X241500D01*
Y519949D01*
X241458Y519882D01*
X241490Y519749D01*
X241437Y519623D01*
X241500Y519471D01*
Y518854D01*
X241458Y518780D01*
X241251Y518485D01*
X240537Y517645D01*
X240067Y517159D01*
X240003Y516997D01*
X237626Y514620D01*
X237219Y514371D01*
X234644Y515821D01*
X234611Y515955D01*
X234573Y516288D01*
X234500Y516406D01*
X234500Y516918D01*
Y527500D01*
X230989D01*
X230902Y528684D01*
X230894Y529730D01*
X230824Y529894D01*
Y535294D01*
X230893Y535448D01*
X230905Y535887D01*
X230933Y536213D01*
X230974Y536460D01*
X230984Y536500D01*
X234500D01*
Y549500D01*
X230989D01*
X230973Y549560D01*
X230933Y549800D01*
X230904Y550120D01*
X230893Y550552D01*
X230824Y550707D01*
Y558294D01*
X230893Y558448D01*
X230905Y558887D01*
X230933Y559213D01*
X230974Y559460D01*
X230984Y559500D01*
X234500D01*
Y572500D01*
X221500D01*
Y559500D01*
X225016D01*
X225026Y559460D01*
X225067Y559213D01*
X225096Y558887D01*
X225107Y558448D01*
X225176Y558294D01*
Y550707D01*
X225107Y550552D01*
X225096Y550120D01*
X225067Y549800D01*
X225027Y549560D01*
X225011Y549500D01*
X221500D01*
Y536500D01*
X225016D01*
X225026Y536460D01*
X225067Y536213D01*
X225096Y535887D01*
X225107Y535448D01*
X225176Y535294D01*
Y529894D01*
X225107Y529730D01*
X225098Y528653D01*
X225068Y527804D01*
X225067Y527800D01*
X225027Y527560D01*
X225011Y527500D01*
X221500D01*
Y517040D01*
X221500Y516406D01*
X221427Y516287D01*
X221435Y516098D01*
X221407Y516031D01*
X221500Y514500D01*
X222655D01*
X222773Y514427D01*
X222773Y514427D01*
X222782Y514426D01*
X222834Y514341D01*
X222965Y514016D01*
X223098Y513518D01*
X223211Y512882D01*
X223358Y511090D01*
X223377Y510003D01*
X223412Y509921D01*
Y488970D01*
X223761Y487215D01*
X224756Y485726D01*
X255897Y454585D01*
Y387362D01*
X256246Y385606D01*
X256412Y385358D01*
Y374858D01*
X256761Y373102D01*
X257756Y371614D01*
X278185Y351185D01*
X279673Y350190D01*
X279858Y350153D01*
X288086Y341926D01*
X288118Y341844D01*
X289163Y340757D01*
X290038Y339763D01*
X290762Y338845D01*
X291334Y338010D01*
X291412Y337873D01*
Y336500D01*
X291761Y334744D01*
X292000Y334387D01*
X292000Y329520D01*
X291944Y328722D01*
X291863Y328446D01*
X291299Y327022D01*
X291158Y326842D01*
X290978Y326701D01*
X289554Y326137D01*
X289278Y326056D01*
X288479Y326000D01*
X285252Y326000D01*
X285016Y326023D01*
X284940Y326000D01*
X283490D01*
X283255Y326067D01*
X282607Y326348D01*
X281866Y326765D01*
X281062Y327311D01*
X279164Y328887D01*
X278127Y329883D01*
X278046Y329915D01*
X275945Y332016D01*
X275919Y332054D01*
X263879Y344094D01*
X262390Y345089D01*
X260635Y345438D01*
X257890D01*
Y348500D01*
X246000D01*
X234110D01*
Y345438D01*
X231364D01*
X220558Y356244D01*
X219069Y357239D01*
X217314Y357588D01*
X170087D01*
X168332Y357239D01*
X166843Y356244D01*
X151756Y341157D01*
X150761Y339669D01*
X150412Y337913D01*
Y286901D01*
X141790Y278278D01*
X140795Y276790D01*
X140446Y275034D01*
Y212646D01*
X139750Y212139D01*
X137906Y211521D01*
X136509Y212454D01*
X134250Y212903D01*
X131500D01*
Y207000D01*
X129000D01*
Y204500D01*
X118457D01*
X119576Y202826D01*
X121491Y201546D01*
X122151Y201415D01*
Y198825D01*
X121897Y198774D01*
X120325Y197724D01*
X119276Y196153D01*
X118907Y194300D01*
X119276Y192447D01*
X120325Y190875D01*
X121897Y189826D01*
X123750Y189457D01*
X134250D01*
X136103Y189826D01*
X137675Y190875D01*
X138197Y191658D01*
X138471Y191870D01*
X138476Y191906D01*
X138504Y191929D01*
X138533Y191985D01*
X142039Y195947D01*
X142802Y196716D01*
X142825Y196771D01*
X142879Y196799D01*
X142901Y196864D01*
X145161Y199124D01*
X152204Y192082D01*
X153692Y191087D01*
X154500Y190926D01*
Y189000D01*
X167500D01*
Y202000D01*
X155263D01*
X149657Y207605D01*
X149654Y207623D01*
X149622Y207670D01*
Y273134D01*
X155872Y279383D01*
X158412Y278331D01*
Y273000D01*
X158761Y271244D01*
X159756Y269756D01*
X176412Y253099D01*
Y247104D01*
X176378Y247029D01*
X176301Y244928D01*
X176215Y244139D01*
X176098Y243482D01*
X175965Y242984D01*
X175834Y242659D01*
X175782Y242574D01*
X175774Y242573D01*
X175655Y242500D01*
X174500D01*
Y241321D01*
X174421Y241186D01*
X174413Y241126D01*
X174391Y241110D01*
X174172Y241005D01*
X173803Y240887D01*
X173318Y240784D01*
X171860Y240642D01*
X171000Y240624D01*
X170117Y240642D01*
X169350Y240695D01*
X168707Y240779D01*
X168197Y240887D01*
X167828Y241005D01*
X167609Y241110D01*
X167587Y241126D01*
X167579Y241186D01*
X167579Y241186D01*
X167500Y241321D01*
Y242500D01*
X165970Y242593D01*
X165917Y242571D01*
X165753Y242579D01*
X165618Y242500D01*
X154500D01*
Y229500D01*
X165618D01*
X165753Y229421D01*
X166376Y226970D01*
X166379Y226915D01*
X166412Y226845D01*
Y223540D01*
X163500D01*
Y216000D01*
Y208460D01*
X166567D01*
X166761Y207482D01*
X167756Y205994D01*
X170573Y203176D01*
X170603Y203098D01*
X173047Y200488D01*
X173914Y199425D01*
X174500Y198603D01*
Y196106D01*
X174475Y196070D01*
X174500Y195931D01*
Y188500D01*
X187500D01*
Y198960D01*
X187500Y199571D01*
X187566Y199671D01*
X187500Y201500D01*
X186368D01*
X186268Y201565D01*
X186268Y201566D01*
X186197Y201579D01*
X186108Y201595D01*
X185930Y201672D01*
X185606Y201864D01*
X180931Y205920D01*
X181259Y207480D01*
X181919Y208460D01*
X188540D01*
Y213500D01*
X181000D01*
Y216000D01*
X178500D01*
Y223540D01*
X175588D01*
Y226845D01*
X175621Y226915D01*
X175624Y226970D01*
X176247Y229421D01*
X176382Y229500D01*
X187500D01*
Y239960D01*
X187500Y240594D01*
X187573Y240713D01*
X187565Y240902D01*
X187593Y240970D01*
X187500Y242500D01*
X186345D01*
X186227Y242573D01*
X186227Y242573D01*
X186218Y242574D01*
X186166Y242659D01*
X186035Y242984D01*
X185902Y243482D01*
X185789Y244118D01*
X185642Y245910D01*
X185623Y246998D01*
X185588Y247078D01*
Y255000D01*
X185239Y256756D01*
X184244Y258244D01*
X174908Y267581D01*
X176196Y269668D01*
X176318Y269762D01*
X179000Y269409D01*
X181741Y269770D01*
X184295Y270828D01*
X185644Y271863D01*
X187599Y271193D01*
X188192Y270832D01*
X188221Y270802D01*
X188399Y269911D01*
X189011Y268995D01*
X195003Y263003D01*
X195919Y262391D01*
X197000Y262176D01*
X197000Y262176D01*
X201614D01*
X203449Y259636D01*
X203440Y259588D01*
X203750Y258027D01*
X204264Y257258D01*
X201965Y254959D01*
X201353Y254043D01*
X201138Y252962D01*
X201138Y252962D01*
Y208956D01*
X201069Y208802D01*
X201058Y208363D01*
X201029Y208037D01*
X200989Y207790D01*
X200978Y207750D01*
X193500D01*
Y194250D01*
X214500D01*
Y207750D01*
X206946D01*
X206936Y207790D01*
X206895Y208037D01*
X206866Y208363D01*
X206855Y208802D01*
X206786Y208956D01*
Y251792D01*
X209012Y254018D01*
X210989Y253463D01*
X211552Y253060D01*
Y238252D01*
X211552Y238252D01*
X211767Y237171D01*
X212379Y236255D01*
X227046Y221588D01*
Y209514D01*
X226977Y209350D01*
X226968Y208273D01*
X226945Y207627D01*
X226937Y207537D01*
X226896Y207290D01*
X226886Y207250D01*
X219250D01*
Y193750D01*
X231935D01*
X233293Y191210D01*
X232999Y190770D01*
X222932D01*
X221176Y190421D01*
X219688Y189426D01*
X211942Y181680D01*
X211864Y181651D01*
X209527Y179480D01*
X208553Y178699D01*
X207679Y178089D01*
X207090Y177750D01*
X204635D01*
X204484Y177813D01*
X204360Y177761D01*
X204229Y177792D01*
X204160Y177750D01*
X193500D01*
Y164250D01*
X214500D01*
Y167410D01*
X214542Y167479D01*
X214511Y167610D01*
X214563Y167734D01*
X214500Y167885D01*
Y170340D01*
X214839Y170929D01*
X215436Y171785D01*
X216710Y173288D01*
X218850Y172645D01*
X219250Y172336D01*
Y163750D01*
X240250D01*
Y166910D01*
X240292Y166979D01*
X240261Y167110D01*
X240313Y167234D01*
X240250Y167385D01*
Y169840D01*
X240588Y170429D01*
X241186Y171285D01*
X242976Y173397D01*
X244130Y174592D01*
X244162Y174674D01*
X246941Y177452D01*
X247990Y176423D01*
X248755Y174251D01*
X248755Y173171D01*
Y166200D01*
X267005D01*
Y175700D01*
X251295D01*
X250324Y175700D01*
X249220Y176790D01*
X248715Y178213D01*
X249201Y178900D01*
X267005D01*
Y188400D01*
X257946D01*
X257000Y188588D01*
X251927D01*
X250618Y191128D01*
X250820Y191412D01*
X254000D01*
X254946Y191600D01*
X267005D01*
Y201100D01*
X251295D01*
X250818Y201100D01*
X250812Y201105D01*
X250499Y201105D01*
X250285Y201193D01*
X248755Y201100D01*
Y200730D01*
X247217Y200629D01*
X246558Y200623D01*
X246389Y200552D01*
X244815Y200239D01*
X243327Y199244D01*
X242597Y198514D01*
X240250Y199486D01*
Y207250D01*
X232854D01*
X232848Y207273D01*
X232772Y208304D01*
X232764Y209350D01*
X232694Y209514D01*
Y222758D01*
X232479Y223839D01*
X231867Y224755D01*
X231867Y224755D01*
X217200Y239422D01*
Y255000D01*
X217258Y255104D01*
X217240Y255168D01*
X217268Y255228D01*
X217287Y255687D01*
X217302Y255809D01*
X217321Y255915D01*
X217339Y255986D01*
X217345Y256004D01*
X217355Y256016D01*
X217360Y256036D01*
X217383Y256074D01*
X217387Y256101D01*
X217388Y256103D01*
X217388Y256108D01*
X217389Y256113D01*
X217514Y256196D01*
X218398Y257519D01*
X218646Y258768D01*
X219711Y259403D01*
X221142Y259864D01*
X257003Y224003D01*
X257003Y224003D01*
X257919Y223391D01*
X259000Y223176D01*
X285138D01*
X285287Y223107D01*
X285756Y223090D01*
X285893Y223076D01*
X286016Y223057D01*
X286106Y223037D01*
X286161Y223021D01*
X286171Y223016D01*
X286208Y222992D01*
X286230Y222988D01*
X286249Y222978D01*
X286299Y222974D01*
X286330Y222968D01*
X286348Y222962D01*
X287439Y222232D01*
X289000Y221922D01*
X290561Y222232D01*
X291884Y223116D01*
X292768Y224439D01*
X293078Y226000D01*
X292768Y227561D01*
X291884Y228884D01*
X290561Y229768D01*
X289000Y230078D01*
X287439Y229768D01*
X286348Y229038D01*
X286330Y229032D01*
X286299Y229026D01*
X286249Y229022D01*
X286230Y229012D01*
X286208Y229008D01*
X286171Y228983D01*
X286161Y228979D01*
X286106Y228963D01*
X286016Y228943D01*
X285912Y228927D01*
X285539Y228897D01*
X285318Y228893D01*
X285159Y228824D01*
X260170D01*
X221997Y266997D01*
X221081Y267609D01*
X220000Y267824D01*
X220000Y267824D01*
X214352D01*
X213581Y270364D01*
X213854Y270546D01*
X214682Y271787D01*
X214973Y273250D01*
Y275526D01*
X217513Y276492D01*
X244003Y250003D01*
X244003Y250003D01*
X244919Y249391D01*
X246000Y249176D01*
X289526D01*
X292000Y247135D01*
Y245040D01*
X292000Y244361D01*
X291917Y244210D01*
X291924Y244071D01*
X291907Y244030D01*
X292000Y242500D01*
X293176Y240025D01*
Y239704D01*
X293176Y239704D01*
X293391Y238623D01*
X294003Y237707D01*
X301297Y230413D01*
X301297Y230413D01*
X302213Y229801D01*
X303294Y229586D01*
X303294Y229586D01*
X318464D01*
X318613Y229517D01*
X319081Y229500D01*
X319219Y229486D01*
X319342Y229467D01*
X319432Y229447D01*
X319487Y229431D01*
X319498Y229426D01*
X319534Y229402D01*
X319556Y229398D01*
X319575Y229388D01*
X319625Y229384D01*
X319656Y229378D01*
X319674Y229372D01*
X320765Y228642D01*
X322326Y228332D01*
X323887Y228642D01*
X325210Y229526D01*
X326094Y230849D01*
X326404Y232410D01*
X326359Y232636D01*
X328111Y235176D01*
X330138D01*
X330287Y235107D01*
X330756Y235090D01*
X330893Y235076D01*
X331016Y235057D01*
X331106Y235037D01*
X331161Y235021D01*
X331171Y235016D01*
X331208Y234992D01*
X331230Y234988D01*
X331249Y234978D01*
X331298Y234974D01*
X331330Y234968D01*
X331347Y234962D01*
X332439Y234232D01*
X334000Y233922D01*
X335561Y234232D01*
X336884Y235116D01*
X337768Y236439D01*
X338078Y238000D01*
X338024Y238272D01*
X340417Y239263D01*
X340756Y238756D01*
X343742Y235770D01*
X345230Y234775D01*
X346986Y234426D01*
X370840D01*
X372596Y234775D01*
X374084Y235770D01*
X380727Y242412D01*
X388428D01*
X389076Y241354D01*
X389383Y239872D01*
X378890Y229378D01*
X358540D01*
X356784Y229029D01*
X355296Y228034D01*
X347942Y220681D01*
X347865Y220652D01*
X345533Y218486D01*
X344561Y217709D01*
X343689Y217103D01*
X343072Y216750D01*
X340709D01*
X340484Y216843D01*
X340361Y216792D01*
X340231Y216823D01*
X340111Y216750D01*
X329500D01*
Y208986D01*
X327153Y208014D01*
X323123Y212044D01*
X321635Y213039D01*
X321245Y213116D01*
Y213800D01*
X302995D01*
Y204300D01*
X315757D01*
X316200Y204212D01*
X316311D01*
X316697Y203640D01*
X315347Y201100D01*
X302995D01*
Y197771D01*
X302985Y197756D01*
X302636Y196000D01*
X302985Y194244D01*
X302995Y194229D01*
Y191600D01*
X306278D01*
X307224Y191412D01*
X312000D01*
X312946Y191600D01*
X313054D01*
X314000Y191412D01*
X317383D01*
X317698Y190940D01*
X316340Y188400D01*
X302995D01*
Y179280D01*
X302995Y178900D01*
X302078Y176740D01*
X301955D01*
Y173450D01*
X312120D01*
X322285D01*
Y176740D01*
X322162D01*
X321245Y178900D01*
X321245Y179280D01*
Y186203D01*
X323785Y187561D01*
X323859Y187511D01*
X325615Y187162D01*
X327131D01*
X329500Y186750D01*
X329500Y184622D01*
Y173250D01*
X350500D01*
X350500Y183502D01*
X353040Y184685D01*
X353110Y184626D01*
Y183500D01*
X365000D01*
Y181000D01*
X367500D01*
Y173310D01*
X376890D01*
Y173310D01*
X379110D01*
Y173310D01*
X388500D01*
Y181000D01*
X391000D01*
Y183500D01*
X402890D01*
Y188690D01*
X391537D01*
X390565Y191037D01*
X394244Y194716D01*
X395239Y196204D01*
X395588Y197960D01*
Y198160D01*
X395623Y198238D01*
X395652Y199328D01*
X395732Y200236D01*
X395858Y200995D01*
X396021Y201600D01*
X396203Y202045D01*
X396381Y202335D01*
X396530Y202496D01*
X396652Y202577D01*
X396790Y202626D01*
X397170Y202666D01*
X397325Y202750D01*
X401850D01*
Y216050D01*
X380150D01*
Y202750D01*
X384675D01*
X384830Y202666D01*
X385210Y202626D01*
X385348Y202577D01*
X385470Y202496D01*
X385620Y202335D01*
X385797Y202045D01*
X385979Y201600D01*
X386142Y200995D01*
X386268Y200236D01*
X386310Y199759D01*
X382890Y196338D01*
X357819D01*
X356812Y198587D01*
X356818Y198878D01*
X359117Y201014D01*
X360089Y201791D01*
X360961Y202397D01*
X361578Y202750D01*
X363941D01*
X364166Y202657D01*
X364289Y202708D01*
X364419Y202677D01*
X364539Y202750D01*
X375850D01*
Y216050D01*
X359607D01*
X358635Y218397D01*
X360440Y220202D01*
X380790D01*
X382546Y220551D01*
X384034Y221546D01*
X394865Y232376D01*
X395924Y232364D01*
X397758Y232263D01*
X398438Y232182D01*
X398983Y232084D01*
X399307Y231997D01*
X399308Y231150D01*
X400838Y231057D01*
X400961Y231108D01*
X401216Y231101D01*
X401283Y231150D01*
X418467D01*
X419112Y231150D01*
X419238Y231075D01*
X419416Y231082D01*
X419477Y231057D01*
X421007Y231150D01*
X422579Y231679D01*
X424150Y231150D01*
X425681Y231057D01*
X425742Y231082D01*
X425920Y231075D01*
X426045Y231150D01*
X445850D01*
Y244450D01*
X441325D01*
X441170Y244534D01*
X440790Y244574D01*
X440652Y244623D01*
X440530Y244704D01*
X440381Y244865D01*
X440203Y245155D01*
X440021Y245600D01*
X439858Y246205D01*
X439732Y246964D01*
X439652Y247872D01*
X439623Y248962D01*
X439588Y249041D01*
Y253000D01*
X439239Y254756D01*
X438428Y255970D01*
X438742Y257199D01*
X439425Y258510D01*
X445412D01*
X446890Y258510D01*
X449430Y258510D01*
X457343D01*
Y266200D01*
Y273890D01*
X449430D01*
X447952Y273890D01*
X445412Y273890D01*
X437500D01*
Y266200D01*
X432500D01*
Y273890D01*
X424588D01*
X423110Y273890D01*
X420570Y273890D01*
X412658D01*
Y266200D01*
X407658D01*
Y273890D01*
X400313D01*
X399541Y273890D01*
X398489Y276430D01*
X405760Y283702D01*
X407922D01*
X409678Y284051D01*
X411166Y285046D01*
X411293Y285236D01*
X427298D01*
Y292236D01*
X410116D01*
X409678Y292529D01*
X408256Y292812D01*
X407600Y293543D01*
X406692Y295418D01*
X407066Y296196D01*
X413298D01*
Y300736D01*
Y305276D01*
X411779D01*
X411130Y306076D01*
X411038Y306808D01*
X411046Y307154D01*
X411105Y307504D01*
X411213Y307845D01*
X411423Y308283D01*
X411957Y309089D01*
X412002Y309101D01*
X412205Y309131D01*
X412484Y309145D01*
X412676Y309236D01*
X427298D01*
Y316236D01*
X404298D01*
Y311074D01*
X404211Y310907D01*
X404233Y310835D01*
X404205Y310767D01*
X404298Y310542D01*
Y310355D01*
X404050Y310098D01*
X403987Y309937D01*
X399831Y305781D01*
X399219Y304865D01*
X399004Y303784D01*
X399004Y303784D01*
Y296318D01*
X379576Y276890D01*
X377580D01*
X375500Y278000D01*
Y284960D01*
X376540D01*
Y287500D01*
X366500D01*
Y292500D01*
X376540D01*
Y293412D01*
X380550D01*
X382306Y293761D01*
X383794Y294756D01*
X399992Y310954D01*
X400987Y312442D01*
X401336Y314198D01*
X400987Y315954D01*
X400828Y316191D01*
Y336804D01*
Y372110D01*
X400479Y373866D01*
X399484Y375354D01*
X388706Y386132D01*
X389577Y388854D01*
X390210Y388960D01*
Y388960D01*
X392250D01*
Y400500D01*
Y412040D01*
X390210D01*
Y411691D01*
X387670Y411131D01*
X387443Y411287D01*
X385986Y413540D01*
X386078Y413999D01*
X385767Y415560D01*
X384883Y416883D01*
X383560Y417767D01*
X381999Y418078D01*
X380438Y417767D01*
X379115Y416883D01*
X378231Y415560D01*
X377921Y413999D01*
X377750Y413847D01*
Y400500D01*
X372750D01*
Y412040D01*
X371640D01*
X371574Y412193D01*
Y418888D01*
X383186Y430500D01*
X385266D01*
X385415Y430432D01*
X385883Y430414D01*
X386021Y430400D01*
X386144Y430381D01*
X386234Y430361D01*
X386289Y430345D01*
X386300Y430340D01*
X386336Y430316D01*
X386358Y430312D01*
X386377Y430302D01*
X386427Y430298D01*
X386458Y430292D01*
X386475Y430286D01*
X387567Y429556D01*
X389128Y429246D01*
X390689Y429556D01*
X392012Y430440D01*
X392896Y431763D01*
X393206Y433324D01*
X392896Y434885D01*
X392012Y436208D01*
X390689Y437092D01*
X389128Y437402D01*
X387567Y437092D01*
X386475Y436362D01*
X386458Y436356D01*
X386427Y436350D01*
X386377Y436346D01*
X386358Y436336D01*
X386336Y436332D01*
X386300Y436307D01*
X386289Y436303D01*
X386234Y436287D01*
X386144Y436267D01*
X386040Y436251D01*
X385667Y436221D01*
X385446Y436217D01*
X385287Y436148D01*
X382016D01*
X380935Y435933D01*
X380019Y435321D01*
X366753Y422055D01*
X366141Y421139D01*
X365926Y420058D01*
X365926Y420058D01*
Y417377D01*
X363386Y416324D01*
X358824Y420887D01*
Y421137D01*
X358892Y421286D01*
X358909Y421755D01*
X358923Y421892D01*
X358942Y422015D01*
X358962Y422105D01*
X358979Y422160D01*
X358983Y422171D01*
X359007Y422207D01*
X359012Y422229D01*
X359021Y422248D01*
X359025Y422298D01*
X359032Y422329D01*
X359038Y422347D01*
X359767Y423438D01*
X360078Y424999D01*
X359767Y426560D01*
X358883Y427883D01*
X357560Y428767D01*
X355999Y429077D01*
X354914Y428862D01*
X353758Y430226D01*
X353417Y430956D01*
X357597Y435137D01*
X358209Y436053D01*
X358424Y437134D01*
X358424Y437134D01*
Y459781D01*
X358493Y459930D01*
X358524Y460784D01*
X358548Y461000D01*
X364210D01*
Y459960D01*
X366250D01*
Y471500D01*
Y483040D01*
X364210D01*
Y482000D01*
X330244D01*
X329489Y482755D01*
X329489Y482756D01*
X328494Y484244D01*
X327006Y485239D01*
X325250Y485588D01*
X300152D01*
X298396Y485239D01*
X296908Y484244D01*
X275630Y462966D01*
X275612Y462963D01*
X274124Y461968D01*
X273129Y460480D01*
X272780Y458724D01*
X273129Y456968D01*
X274124Y455480D01*
X275612Y454485D01*
X277368Y454136D01*
X277876D01*
X279632Y454485D01*
X281120Y455480D01*
X302052Y476412D01*
X325250D01*
X326250Y475591D01*
Y461000D01*
X332856D01*
X332892Y460419D01*
X332894Y459982D01*
X332964Y459818D01*
Y435154D01*
X332896Y435005D01*
X332878Y434537D01*
X332864Y434399D01*
X332845Y434276D01*
X332825Y434186D01*
X332809Y434131D01*
X332804Y434120D01*
X332780Y434084D01*
X332776Y434062D01*
X332766Y434043D01*
X332762Y433993D01*
X332756Y433962D01*
X332750Y433945D01*
X332020Y432853D01*
X331710Y431292D01*
X329832Y428782D01*
X314352D01*
X311099Y432035D01*
X311066Y432152D01*
X310990Y432194D01*
X310958Y432274D01*
X310731Y432507D01*
X310560Y432693D01*
X310264Y433052D01*
X310183Y433165D01*
X310124Y433259D01*
X310096Y433313D01*
X310095Y433314D01*
X310080Y433371D01*
X310064Y433391D01*
X310058Y433404D01*
X310036Y433427D01*
X309983Y433494D01*
X309978Y433503D01*
X309768Y434561D01*
X308884Y435884D01*
X307561Y436768D01*
X306000Y437078D01*
X304439Y436768D01*
X303116Y435884D01*
X302232Y434561D01*
X301922Y433000D01*
X302232Y431439D01*
X303116Y430116D01*
X304439Y429232D01*
X305932Y428935D01*
X305955Y428917D01*
X305982Y428909D01*
X306001Y428897D01*
X306037Y428891D01*
X306080Y428869D01*
X306152Y428825D01*
X306231Y428768D01*
X306512Y428531D01*
X306668Y428380D01*
X306829Y428317D01*
X311185Y423961D01*
X311185Y423961D01*
X312101Y423349D01*
X313182Y423134D01*
X344424D01*
X344424Y423134D01*
X345505Y423349D01*
X346421Y423961D01*
X350042Y427582D01*
X350772Y427241D01*
X352137Y426085D01*
X351921Y424999D01*
X352231Y423438D01*
X352961Y422347D01*
X352967Y422329D01*
X352973Y422298D01*
X352977Y422248D01*
X352987Y422229D01*
X352991Y422207D01*
X353016Y422171D01*
X353020Y422160D01*
X353036Y422105D01*
X353056Y422015D01*
X353073Y421911D01*
X353102Y421538D01*
X353106Y421317D01*
X353175Y421158D01*
Y419717D01*
X353175Y419717D01*
X353390Y418636D01*
X354002Y417720D01*
X358182Y413540D01*
X357130Y411000D01*
X353790D01*
Y412040D01*
X351750D01*
Y400500D01*
Y388960D01*
X353790D01*
Y390000D01*
X370710D01*
Y388960D01*
X375509D01*
X377426Y386420D01*
X377412Y386350D01*
X377761Y384594D01*
X378756Y383106D01*
X391652Y370210D01*
Y336804D01*
Y315590D01*
X379080Y303019D01*
X377071Y303500D01*
X366500D01*
Y308500D01*
X376540D01*
Y311040D01*
X375500D01*
Y318000D01*
X375500D01*
Y321021D01*
X377847Y321993D01*
X378773Y321067D01*
X378843Y320899D01*
X380876Y318884D01*
X380967Y318847D01*
X381418Y318172D01*
X382741Y317288D01*
X384302Y316978D01*
X385863Y317288D01*
X387186Y318172D01*
X388070Y319495D01*
X388380Y321056D01*
X388070Y322617D01*
X387186Y323940D01*
X385863Y324824D01*
X384302Y325134D01*
X383078Y324891D01*
X382885Y325047D01*
X382737Y325189D01*
X382680Y325211D01*
X382651Y325265D01*
X382524Y325304D01*
X368831Y338997D01*
X367915Y339609D01*
X366834Y339824D01*
X366834Y339824D01*
X357207D01*
X357052Y339893D01*
X356620Y339904D01*
X356300Y339933D01*
X356059Y339973D01*
X356000Y339989D01*
Y345500D01*
X348588D01*
Y359834D01*
X348239Y361590D01*
X347244Y363078D01*
X315374Y394948D01*
X313886Y395943D01*
X313320Y396055D01*
X313230Y396741D01*
X312172Y399295D01*
X310489Y401489D01*
X308295Y403172D01*
X305741Y404230D01*
X303000Y404591D01*
X300259Y404230D01*
X297705Y403172D01*
X295511Y401489D01*
X293828Y399295D01*
X292770Y396741D01*
X292409Y394000D01*
X292770Y391259D01*
X293678Y389069D01*
X293576Y388186D01*
X292586Y386151D01*
X292185Y386045D01*
X292114Y386069D01*
X291953Y386192D01*
X289873Y388429D01*
X289092Y389403D01*
X288482Y390277D01*
X288174Y390815D01*
Y393394D01*
X288206Y393472D01*
X288174Y393551D01*
Y393676D01*
X288186Y393728D01*
X288174Y393748D01*
Y400750D01*
X287882Y402213D01*
X287054Y403454D01*
X285813Y404282D01*
X284350Y404574D01*
X270850D01*
X269387Y404282D01*
X268146Y403454D01*
X267613Y402656D01*
X265521Y402906D01*
X265073Y403078D01*
Y456485D01*
X264724Y458241D01*
X263730Y459730D01*
X232588Y490871D01*
Y509896D01*
X232623Y509971D01*
X232684Y511643D01*
X233835Y512631D01*
X235487Y512031D01*
X235936Y511637D01*
X235936Y511375D01*
Y497078D01*
X235936Y497078D01*
X236151Y495997D01*
X236763Y495081D01*
X245261Y486583D01*
X245324Y486422D01*
X245837Y485891D01*
X246049Y485653D01*
X246175Y485493D01*
X246176Y485491D01*
X246196Y485458D01*
X246203Y485452D01*
X246210Y485441D01*
X246246Y485418D01*
X247116Y484116D01*
X248439Y483232D01*
X250000Y482922D01*
X251561Y483232D01*
X252884Y484116D01*
X253768Y485439D01*
X254078Y487000D01*
X253768Y488561D01*
X252884Y489884D01*
X251561Y490768D01*
X250398Y490999D01*
X249630Y491836D01*
X249727Y492495D01*
X251013Y494376D01*
X314000Y494376D01*
X315148Y494852D01*
X315624Y496000D01*
Y530401D01*
X428000D01*
X428000Y530401D01*
X431002Y530796D01*
X433800Y531955D01*
X436202Y533798D01*
X445805Y543401D01*
X477000D01*
X480002Y543796D01*
X481525Y544427D01*
X483750D01*
X485213Y544718D01*
X486454Y545546D01*
X487282Y546787D01*
X487573Y548250D01*
Y550476D01*
X488204Y551998D01*
X488599Y555000D01*
X488204Y558002D01*
X487573Y559524D01*
Y561750D01*
X487282Y563213D01*
X486454Y564454D01*
X485213Y565282D01*
X483750Y565573D01*
X481525D01*
X480002Y566204D01*
X477000Y566599D01*
X441000D01*
X441000Y566599D01*
X437998Y566204D01*
X435200Y565045D01*
X432798Y563202D01*
X432798Y563202D01*
X423195Y553599D01*
X315624D01*
Y590756D01*
X315624Y591000D01*
X315623Y591000D01*
X315148Y592148D01*
X314000Y592624D01*
X314000Y592624D01*
D02*
G37*
G36*
X377000Y523624D02*
X369000D01*
X367852Y523148D01*
X367376Y522000D01*
Y497000D01*
X367852Y495852D01*
X369000Y495376D01*
X435000D01*
X436148Y495852D01*
X436624Y497000D01*
Y508000D01*
X436148Y509148D01*
X435000Y509624D01*
X378624D01*
Y522000D01*
X378148Y523148D01*
X377000Y523624D01*
D02*
G37*
G36*
X373290Y483040D02*
X371250D01*
Y471500D01*
Y459960D01*
X373290D01*
Y461000D01*
X417750D01*
Y482000D01*
X373290D01*
Y483040D01*
D02*
G37*
G36*
X170533Y451650D02*
X168183Y451341D01*
X165994Y450434D01*
X164114Y448991D01*
X162671Y447111D01*
X161764Y444922D01*
X161455Y442572D01*
X161764Y440223D01*
X162671Y438033D01*
X164114Y436153D01*
X165994Y434711D01*
X168183Y433804D01*
X170533Y433495D01*
X172882Y433804D01*
X175072Y434711D01*
X176952Y436153D01*
X178394Y438033D01*
X179301Y440223D01*
X179610Y442572D01*
X179301Y444922D01*
X178394Y447111D01*
X176952Y448991D01*
X175072Y450434D01*
X172882Y451341D01*
X170533Y451650D01*
D02*
G37*
G36*
X346750Y412040D02*
X345250D01*
Y400500D01*
Y388960D01*
X346750D01*
Y400500D01*
Y412040D01*
D02*
G37*
G36*
X340250D02*
X338210D01*
Y411000D01*
X326250D01*
Y390000D01*
X338210D01*
Y388960D01*
X340250D01*
Y400500D01*
Y412040D01*
D02*
G37*
G36*
X212750Y382500D02*
X199250D01*
Y361500D01*
X212750D01*
Y382500D01*
D02*
G37*
G36*
X182750D02*
X169250D01*
Y376277D01*
X169175Y376247D01*
X168849Y376162D01*
X168417Y376087D01*
X167129Y375985D01*
X166343Y375971D01*
X166170Y375896D01*
X164614Y375587D01*
X163126Y374592D01*
X155252Y366718D01*
X154257Y365230D01*
X153908Y363474D01*
X154257Y361718D01*
X155252Y360230D01*
X156740Y359235D01*
X158496Y358886D01*
X160252Y359235D01*
X161740Y360230D01*
X166710Y365199D01*
X169250Y364147D01*
Y361500D01*
X182750D01*
Y382500D01*
D02*
G37*
G36*
X257890Y358690D02*
X248500D01*
Y353500D01*
X257890D01*
Y358690D01*
D02*
G37*
G36*
X243500D02*
X234110D01*
Y353500D01*
X243500D01*
Y358690D01*
D02*
G37*
G36*
X405130Y425718D02*
X403569Y425408D01*
X402246Y424524D01*
X401362Y423201D01*
X401052Y421640D01*
X401107Y421362D01*
X401092Y421345D01*
X401087Y421332D01*
X401073Y421311D01*
X401061Y421259D01*
X401053Y421241D01*
X401020Y421185D01*
X400976Y421120D01*
X400754Y420851D01*
X400608Y420700D01*
X400562Y420582D01*
X400455Y420514D01*
X400435Y420430D01*
X399253Y419247D01*
X398641Y418331D01*
X398426Y417250D01*
X398426Y417250D01*
Y412211D01*
X398357Y412059D01*
X398357Y412040D01*
X397250D01*
Y400500D01*
Y388960D01*
X399290D01*
Y390000D01*
X417750D01*
Y394231D01*
X417804Y394329D01*
X417844Y394708D01*
X417892Y394845D01*
X417974Y394967D01*
X418136Y395117D01*
X418429Y395295D01*
X418878Y395478D01*
X419488Y395641D01*
X420253Y395768D01*
X421166Y395848D01*
X422262Y395877D01*
X422340Y395912D01*
X431482D01*
X451342Y376051D01*
Y354838D01*
X451691Y353082D01*
X452686Y351594D01*
X473356Y330923D01*
X473519Y330104D01*
X474735Y328285D01*
X476554Y327069D01*
X476676Y327045D01*
Y324455D01*
X476554Y324431D01*
X474735Y323215D01*
X473519Y321396D01*
X473092Y319250D01*
X473519Y317104D01*
X474735Y315285D01*
X476554Y314069D01*
X478700Y313642D01*
X480846Y314069D01*
X482665Y315285D01*
X483881Y317104D01*
X484308Y319250D01*
X484270Y319442D01*
X486556Y320969D01*
X487154Y320569D01*
X489300Y320142D01*
X491446Y320569D01*
X493265Y321785D01*
X494481Y323604D01*
X494555Y323975D01*
X497711Y327131D01*
X497725Y327153D01*
X501846Y331274D01*
X502841Y332762D01*
X503190Y334518D01*
Y376174D01*
X502841Y377930D01*
X501846Y379418D01*
X491940Y389324D01*
X490452Y390319D01*
X488696Y390668D01*
X468470D01*
X441394Y417744D01*
X439906Y418739D01*
X438150Y419088D01*
X411093D01*
X411033Y419116D01*
X409447Y420833D01*
X409176Y421479D01*
X409208Y421640D01*
X408898Y423201D01*
X408014Y424524D01*
X406691Y425408D01*
X405130Y425718D01*
D02*
G37*
G36*
X96000Y363588D02*
X94244Y363239D01*
X92756Y362244D01*
X91761Y360756D01*
X91412Y359000D01*
Y326000D01*
X91761Y324244D01*
X92756Y322756D01*
X105756Y309756D01*
X107244Y308761D01*
X109000Y308412D01*
X128000D01*
X129756Y308761D01*
X131244Y309756D01*
X132239Y311244D01*
X132588Y313000D01*
X132239Y314756D01*
X131244Y316244D01*
X129756Y317239D01*
X128000Y317588D01*
X110900D01*
X100588Y327901D01*
Y359000D01*
X100239Y360756D01*
X99244Y362244D01*
X97756Y363239D01*
X96000Y363588D01*
D02*
G37*
G36*
X428338Y305276D02*
X418298D01*
Y303236D01*
X428338D01*
Y305276D01*
D02*
G37*
G36*
Y298236D02*
X418298D01*
Y296196D01*
X428338D01*
Y298236D01*
D02*
G37*
G36*
X471732Y273890D02*
X471570Y273890D01*
X462343D01*
Y266200D01*
Y258510D01*
X471570D01*
X471732Y258510D01*
X474110Y258510D01*
X474272Y258510D01*
X483500D01*
Y266200D01*
Y273890D01*
X474272D01*
X474110Y273890D01*
X471732Y273890D01*
D02*
G37*
G36*
X488500Y273890D02*
Y268700D01*
X497890D01*
Y273890D01*
X488500D01*
D02*
G37*
G36*
X497890Y263700D02*
X488500D01*
Y258510D01*
X497890D01*
Y263700D01*
D02*
G37*
G36*
X60000Y316588D02*
X58244Y316239D01*
X56756Y315244D01*
X55761Y313756D01*
X55412Y312000D01*
Y250000D01*
X55761Y248244D01*
X56756Y246756D01*
X58244Y245761D01*
X60000Y245412D01*
X61756Y245761D01*
X63244Y246756D01*
X64239Y248244D01*
X64588Y250000D01*
Y312000D01*
X64239Y313756D01*
X63244Y315244D01*
X61756Y316239D01*
X60000Y316588D01*
D02*
G37*
G36*
X479044Y254524D02*
X475996D01*
X474240Y254175D01*
X472752Y253180D01*
X471757Y251692D01*
X471408Y249936D01*
X471757Y248180D01*
X472752Y246692D01*
X473390Y246265D01*
X473993Y244105D01*
X472248Y243073D01*
X470693Y244079D01*
X470692Y244450D01*
X469162Y244543D01*
X469103Y244519D01*
X468929Y244526D01*
X468801Y244450D01*
X448993D01*
Y231150D01*
X468153D01*
X468793Y231150D01*
X468916Y231075D01*
X469099Y231083D01*
X469162Y231057D01*
X470693Y231150D01*
Y231913D01*
X472638Y232816D01*
X472987Y232887D01*
X475150Y231467D01*
X475150Y231150D01*
X476680Y231057D01*
X476744Y231083D01*
X476926Y231075D01*
X477049Y231150D01*
X496850D01*
Y244450D01*
X494841D01*
X494664Y244539D01*
X493902Y244594D01*
X493188Y244744D01*
X492398Y245007D01*
X491536Y245392D01*
X490607Y245905D01*
X489614Y246547D01*
X488577Y247310D01*
X486284Y249275D01*
X485067Y250451D01*
X484985Y250483D01*
X482288Y253180D01*
X480800Y254175D01*
X479044Y254524D01*
D02*
G37*
G36*
X188540Y223540D02*
X183500D01*
Y218500D01*
X188540D01*
Y223540D01*
D02*
G37*
G36*
X158500D02*
X153460D01*
Y218500D01*
X158500D01*
Y223540D01*
D02*
G37*
G36*
X80250Y212903D02*
X77500D01*
Y209500D01*
X85543D01*
X84424Y211174D01*
X82509Y212454D01*
X80250Y212903D01*
D02*
G37*
G36*
X126500D02*
X123750D01*
X121491Y212454D01*
X119576Y211174D01*
X118457Y209500D01*
X126500D01*
Y212903D01*
D02*
G37*
G36*
X158500Y213500D02*
X153460D01*
Y208460D01*
X158500D01*
Y213500D01*
D02*
G37*
G36*
X267005Y213800D02*
X248755D01*
Y204300D01*
X267005D01*
Y213800D01*
D02*
G37*
G36*
X168540Y183040D02*
X163500D01*
Y178000D01*
X168540D01*
Y183040D01*
D02*
G37*
G36*
X158500D02*
X153460D01*
Y178000D01*
X158500D01*
Y183040D01*
D02*
G37*
G36*
X134250Y186443D02*
X123750D01*
X121897Y186074D01*
X120325Y185025D01*
X119276Y183453D01*
X118907Y181600D01*
X119276Y179747D01*
X120325Y178175D01*
X121897Y177126D01*
X123750Y176757D01*
X134250D01*
X136103Y177126D01*
X137675Y178175D01*
X138724Y179747D01*
X139093Y181600D01*
X138724Y183453D01*
X137675Y185025D01*
X136103Y186074D01*
X134250Y186443D01*
D02*
G37*
G36*
X51000Y230918D02*
X48951Y230648D01*
X47041Y229857D01*
X45401Y228599D01*
X44143Y226959D01*
X43352Y225049D01*
X43082Y223000D01*
X43352Y220951D01*
X44143Y219041D01*
X44190Y218980D01*
X44208Y218826D01*
X44342Y218585D01*
X44439Y218366D01*
X44527Y218113D01*
X44710Y217348D01*
X44771Y216962D01*
X44898Y215287D01*
X44907Y214658D01*
X44942Y214576D01*
Y181099D01*
X44907Y181023D01*
X44837Y178917D01*
X44758Y178119D01*
X44651Y177452D01*
X44526Y176942D01*
X44403Y176606D01*
X44345Y176500D01*
X43208D01*
X43114Y174970D01*
X43147Y174891D01*
X43139Y174688D01*
X43208Y174580D01*
Y163500D01*
X45819D01*
X45939Y163427D01*
X46068Y163458D01*
X46192Y163407D01*
X46417Y163500D01*
X48780D01*
X49397Y163147D01*
X50250Y162554D01*
X52357Y160771D01*
X53549Y159620D01*
X53631Y159587D01*
X56951Y156268D01*
X58440Y155273D01*
X60195Y154924D01*
X114362D01*
X116118Y155273D01*
X117606Y156268D01*
X121501Y160162D01*
X121567Y160184D01*
X121587Y160224D01*
X121629Y160241D01*
X122742Y161313D01*
X123757Y162208D01*
X124691Y162947D01*
X125534Y163527D01*
X126278Y163951D01*
X126523Y164057D01*
X131331D01*
X131595Y163943D01*
X132339Y163519D01*
X133162Y162953D01*
X135140Y161295D01*
X136236Y160240D01*
X136318Y160208D01*
X137726Y158800D01*
X137756Y158756D01*
X139244Y157761D01*
X141000Y157412D01*
X168000D01*
X169756Y157761D01*
X171244Y158756D01*
X177058Y164569D01*
X177135Y164598D01*
X179467Y166764D01*
X180439Y167541D01*
X181311Y168147D01*
X181928Y168500D01*
X184291D01*
X184516Y168407D01*
X184639Y168458D01*
X184769Y168427D01*
X184889Y168500D01*
X187500D01*
Y181500D01*
X174500D01*
Y178889D01*
X174427Y178769D01*
X174458Y178639D01*
X174407Y178516D01*
X174500Y178291D01*
Y175928D01*
X174147Y175311D01*
X173554Y174457D01*
X171771Y172350D01*
X171080Y171635D01*
X168843Y172204D01*
X168540Y172383D01*
Y173000D01*
X161000D01*
X153460D01*
Y167960D01*
X151488Y166588D01*
X142915D01*
X142723Y166781D01*
X142688Y166866D01*
X141890Y167667D01*
X139091Y170579D01*
X138582Y171170D01*
X138505Y171272D01*
X138466Y171339D01*
X138461Y171343D01*
X138460Y171350D01*
X138191Y171552D01*
X137675Y172325D01*
X136103Y173374D01*
X134250Y173743D01*
X123750D01*
X121897Y173374D01*
X120325Y172325D01*
X119917Y171714D01*
X119765Y171647D01*
X115386Y167074D01*
X115354Y166993D01*
X112462Y164100D01*
X96057D01*
X94827Y166640D01*
X95171Y167154D01*
X95520Y168910D01*
X95171Y170666D01*
X94176Y172154D01*
X93926Y172405D01*
X92437Y173400D01*
X90681Y173749D01*
X89555D01*
X89469Y173784D01*
X89466Y173783D01*
X89462Y173784D01*
X83702Y173758D01*
X83680Y173749D01*
X83668D01*
X83646Y173757D01*
X83467Y173750D01*
X83465Y173749D01*
X81023D01*
X80526Y173650D01*
X65000D01*
Y164150D01*
X62481Y164100D01*
X62096D01*
X60138Y166058D01*
X60109Y166135D01*
X57944Y168467D01*
X57167Y169439D01*
X56560Y170311D01*
X56207Y170928D01*
Y173291D01*
X56301Y173516D01*
X56249Y173639D01*
X56281Y173769D01*
X56207Y173889D01*
X56207Y174606D01*
X56283Y174733D01*
X56276Y174910D01*
X56301Y174970D01*
X56207Y176500D01*
X55040D01*
X54913Y176576D01*
X54913Y176576D01*
X54813Y176591D01*
X54734Y176710D01*
X54596Y177025D01*
X54453Y177512D01*
X54333Y178136D01*
X54174Y179917D01*
X54153Y181000D01*
X54118Y181081D01*
Y184641D01*
X56658Y185412D01*
X56954Y184970D01*
X59000Y182924D01*
X59036Y182837D01*
X60671Y181230D01*
X60699Y181219D01*
X60712Y181191D01*
X60957Y180966D01*
X63568Y178356D01*
X65056Y177361D01*
X65271Y177318D01*
X65300Y177298D01*
X65434Y177270D01*
X65527Y177169D01*
X66096Y176901D01*
X66455Y176884D01*
X66787Y176747D01*
X67144Y176746D01*
X67369Y176840D01*
X67611Y176815D01*
X67852Y177012D01*
X68468D01*
X69750Y176757D01*
X80250D01*
X82103Y177126D01*
X83674Y178175D01*
X84724Y179747D01*
X85093Y181600D01*
X84724Y183453D01*
X83674Y185025D01*
X82103Y186074D01*
X81849Y186125D01*
Y188715D01*
X82509Y188846D01*
X84424Y190126D01*
X85543Y191800D01*
X75000D01*
Y196800D01*
X85543D01*
X84424Y198474D01*
X83280Y199239D01*
X83202Y199473D01*
Y201827D01*
X83280Y202061D01*
X84424Y202826D01*
X85543Y204500D01*
X75000D01*
Y207000D01*
X72500D01*
Y212903D01*
X69750D01*
X67491Y212454D01*
X67326Y212344D01*
X64786Y213702D01*
Y213868D01*
X64437Y215624D01*
X63442Y217112D01*
X60992Y219563D01*
X60960Y219644D01*
X60522Y220101D01*
X60160Y220516D01*
X59850Y220912D01*
X59592Y221286D01*
X59384Y221635D01*
X59223Y221959D01*
X59107Y222254D01*
X59031Y222522D01*
X58989Y222761D01*
X58971Y223076D01*
X58884Y223256D01*
X58648Y225049D01*
X57857Y226959D01*
X56599Y228599D01*
X54959Y229857D01*
X53049Y230648D01*
X51000Y230918D01*
D02*
G37*
G36*
X402890Y178500D02*
X393500D01*
Y173310D01*
X402890D01*
Y178500D01*
D02*
G37*
G36*
X362500D02*
X353110D01*
Y173310D01*
X362500D01*
Y178500D01*
D02*
G37*
G36*
X37248Y177540D02*
X32208D01*
Y172500D01*
X37248D01*
Y177540D01*
D02*
G37*
G36*
X27208D02*
X22167D01*
Y172500D01*
X27208D01*
Y177540D01*
D02*
G37*
G36*
X322285Y168450D02*
X314620D01*
Y165160D01*
X322285D01*
Y168450D01*
D02*
G37*
G36*
X309620D02*
X301955D01*
Y165160D01*
X309620D01*
Y168450D01*
D02*
G37*
G36*
X37248Y167500D02*
X32208D01*
Y162460D01*
X37248D01*
Y167500D01*
D02*
G37*
G36*
X27208D02*
X22167D01*
Y162460D01*
X27208D01*
Y167500D01*
D02*
G37*
G36*
X488750Y149573D02*
X475250D01*
X473787Y149282D01*
X472546Y148454D01*
X471718Y147213D01*
X471427Y145750D01*
Y132250D01*
X471718Y130787D01*
X472546Y129546D01*
X473787Y128718D01*
X475250Y128427D01*
X488750D01*
X490213Y128718D01*
X491454Y129546D01*
X492282Y130787D01*
X492573Y132250D01*
Y145750D01*
X492282Y147213D01*
X491454Y148454D01*
X490213Y149282D01*
X488750Y149573D01*
D02*
G37*
G36*
X456600Y149591D02*
X453859Y149230D01*
X451305Y148172D01*
X449111Y146489D01*
X447428Y144295D01*
X446370Y141741D01*
X446009Y139000D01*
X446370Y136259D01*
X447428Y133705D01*
X449111Y131511D01*
X451305Y129828D01*
X453859Y128770D01*
X456600Y128410D01*
X459341Y128770D01*
X461895Y129828D01*
X464089Y131511D01*
X465772Y133705D01*
X466830Y136259D01*
X467191Y139000D01*
X466830Y141741D01*
X465772Y144295D01*
X464089Y146489D01*
X461895Y148172D01*
X459341Y149230D01*
X456600Y149591D01*
D02*
G37*
G36*
X281314Y133771D02*
X277659Y133290D01*
X274254Y131879D01*
X271329Y129635D01*
X269085Y126710D01*
X267674Y123305D01*
X267193Y119650D01*
X267674Y115995D01*
X269085Y112590D01*
X271329Y109665D01*
X274254Y107421D01*
X277659Y106010D01*
X281314Y105529D01*
X284969Y106010D01*
X288374Y107421D01*
X291299Y109665D01*
X293543Y112590D01*
X294954Y115995D01*
X295435Y119650D01*
X294954Y123305D01*
X293543Y126710D01*
X291299Y129635D01*
X288374Y131879D01*
X284969Y133290D01*
X281314Y133771D01*
D02*
G37*
G36*
X246314D02*
X242659Y133290D01*
X239254Y131879D01*
X236329Y129635D01*
X234085Y126710D01*
X232674Y123305D01*
X232193Y119650D01*
X232674Y115995D01*
X234085Y112590D01*
X236329Y109665D01*
X239254Y107421D01*
X242659Y106010D01*
X246314Y105529D01*
X249969Y106010D01*
X253374Y107421D01*
X256299Y109665D01*
X258543Y112590D01*
X259954Y115995D01*
X260435Y119650D01*
X259954Y123305D01*
X258543Y126710D01*
X256299Y129635D01*
X253374Y131879D01*
X249969Y133290D01*
X246314Y133771D01*
D02*
G37*
G36*
X211314D02*
X207659Y133290D01*
X204254Y131879D01*
X201329Y129635D01*
X199085Y126710D01*
X197674Y123305D01*
X197193Y119650D01*
X197674Y115995D01*
X199085Y112590D01*
X201329Y109665D01*
X204254Y107421D01*
X207659Y106010D01*
X211314Y105529D01*
X214969Y106010D01*
X218374Y107421D01*
X221299Y109665D01*
X223543Y112590D01*
X224954Y115995D01*
X225435Y119650D01*
X224954Y123305D01*
X223543Y126710D01*
X221299Y129635D01*
X218374Y131879D01*
X214969Y133290D01*
X211314Y133771D01*
D02*
G37*
G36*
X281314Y98771D02*
X277659Y98290D01*
X274254Y96879D01*
X271329Y94635D01*
X269085Y91710D01*
X267674Y88305D01*
X267193Y84650D01*
X267674Y80995D01*
X269085Y77590D01*
X271329Y74665D01*
X274254Y72421D01*
X277659Y71010D01*
X281314Y70529D01*
X284969Y71010D01*
X288374Y72421D01*
X291299Y74665D01*
X293543Y77590D01*
X294954Y80995D01*
X295435Y84650D01*
X294954Y88305D01*
X293543Y91710D01*
X291299Y94635D01*
X288374Y96879D01*
X284969Y98290D01*
X281314Y98771D01*
D02*
G37*
G36*
X246314D02*
X242659Y98290D01*
X239254Y96879D01*
X236329Y94635D01*
X234085Y91710D01*
X232674Y88305D01*
X232193Y84650D01*
X232674Y80995D01*
X234085Y77590D01*
X236329Y74665D01*
X239254Y72421D01*
X242659Y71010D01*
X246314Y70529D01*
X249969Y71010D01*
X253374Y72421D01*
X256299Y74665D01*
X258543Y77590D01*
X259954Y80995D01*
X260435Y84650D01*
X259954Y88305D01*
X258543Y91710D01*
X256299Y94635D01*
X253374Y96879D01*
X249969Y98290D01*
X246314Y98771D01*
D02*
G37*
G36*
X211314D02*
X207659Y98290D01*
X204254Y96879D01*
X201329Y94635D01*
X199085Y91710D01*
X197674Y88305D01*
X197193Y84650D01*
X197674Y80995D01*
X199085Y77590D01*
X201329Y74665D01*
X204254Y72421D01*
X207659Y71010D01*
X211314Y70529D01*
X214969Y71010D01*
X218374Y72421D01*
X221299Y74665D01*
X223543Y77590D01*
X224954Y80995D01*
X225435Y84650D01*
X224954Y88305D01*
X223543Y91710D01*
X221299Y94635D01*
X218374Y96879D01*
X214969Y98290D01*
X211314Y98771D01*
D02*
G37*
G36*
X386314Y121232D02*
X382156Y120905D01*
X378100Y119931D01*
X374246Y118335D01*
X370690Y116155D01*
X367518Y113446D01*
X364809Y110274D01*
X362629Y106718D01*
X361033Y102864D01*
X360059Y98808D01*
X359732Y94650D01*
X360059Y90492D01*
X361033Y86436D01*
X362629Y82582D01*
X364809Y79026D01*
X367518Y75854D01*
X370690Y73145D01*
X374246Y70965D01*
X378100Y69369D01*
X382156Y68395D01*
X386314Y68068D01*
X390472Y68395D01*
X394528Y69369D01*
X398382Y70965D01*
X401939Y73145D01*
X405110Y75854D01*
X407819Y79026D01*
X409999Y82582D01*
X411595Y86436D01*
X412569Y90492D01*
X412896Y94650D01*
X412569Y98808D01*
X411595Y102864D01*
X409999Y106718D01*
X407819Y110274D01*
X405110Y113446D01*
X401939Y116155D01*
X398382Y118335D01*
X394528Y119931D01*
X390472Y120905D01*
X386314Y121232D01*
D02*
G37*
G36*
X141314Y121232D02*
X137156Y120905D01*
X133100Y119931D01*
X129246Y118335D01*
X125689Y116155D01*
X122518Y113446D01*
X119809Y110274D01*
X117629Y106718D01*
X116033Y102864D01*
X115059Y98808D01*
X114732Y94650D01*
X115059Y90492D01*
X116033Y86436D01*
X117629Y82582D01*
X119809Y79026D01*
X122518Y75854D01*
X125689Y73145D01*
X129246Y70965D01*
X133100Y69369D01*
X137156Y68395D01*
X141314Y68068D01*
X145472Y68395D01*
X149528Y69369D01*
X153382Y70965D01*
X156938Y73145D01*
X160110Y75854D01*
X162819Y79026D01*
X164999Y82582D01*
X166595Y86436D01*
X167569Y90492D01*
X167896Y94650D01*
X167569Y98808D01*
X166595Y102864D01*
X164999Y106718D01*
X162819Y110274D01*
X160110Y113446D01*
X156938Y116155D01*
X153382Y118335D01*
X149528Y119931D01*
X145472Y120905D01*
X141314Y121232D01*
D02*
G37*
%LPD*%
G36*
X435000Y576000D02*
X377000D01*
Y560000D01*
X369000D01*
Y585000D01*
X372000Y588000D01*
X435000D01*
Y576000D01*
D02*
G37*
G36*
X230299Y561035D02*
X230083Y560958D01*
X229892Y560830D01*
X229727Y560650D01*
X229587Y560418D01*
X229473Y560136D01*
X229384Y559801D01*
X229321Y559416D01*
X229283Y558979D01*
X229270Y558490D01*
X226730D01*
X226717Y558979D01*
X226679Y559416D01*
X226616Y559801D01*
X226527Y560136D01*
X226413Y560418D01*
X226273Y560650D01*
X226108Y560830D01*
X225917Y560958D01*
X225701Y561035D01*
X225460Y561061D01*
X230540D01*
X230299Y561035D01*
D02*
G37*
G36*
X229283Y550027D02*
X229321Y549595D01*
X229384Y549214D01*
X229473Y548884D01*
X229587Y548605D01*
X229727Y548376D01*
X229892Y548198D01*
X230083Y548071D01*
X230299Y547995D01*
X230540Y547970D01*
X225460D01*
X225701Y547995D01*
X225917Y548071D01*
X226108Y548198D01*
X226273Y548376D01*
X226413Y548605D01*
X226527Y548884D01*
X226616Y549214D01*
X226679Y549595D01*
X226717Y550027D01*
X226730Y550509D01*
X229270D01*
X229283Y550027D01*
D02*
G37*
G36*
X230299Y538035D02*
X230083Y537958D01*
X229892Y537830D01*
X229727Y537650D01*
X229587Y537418D01*
X229473Y537136D01*
X229384Y536801D01*
X229321Y536416D01*
X229283Y535979D01*
X229270Y535490D01*
X226730D01*
X226717Y535979D01*
X226679Y536416D01*
X226616Y536801D01*
X226527Y537136D01*
X226413Y537418D01*
X226273Y537650D01*
X226108Y537830D01*
X225917Y537958D01*
X225701Y538035D01*
X225460Y538061D01*
X230540D01*
X230299Y538035D01*
D02*
G37*
G36*
X229279Y528618D02*
X229381Y527234D01*
X229384Y527214D01*
X229473Y526884D01*
X229587Y526604D01*
X229727Y526376D01*
X229892Y526198D01*
X230083Y526071D01*
X230299Y525995D01*
X230540Y525970D01*
X229475D01*
X229577Y524585D01*
X229688Y524072D01*
X229816Y523657D01*
X229961Y523340D01*
X230123Y523120D01*
X225877D01*
X226039Y523340D01*
X226184Y523657D01*
X226312Y524072D01*
X226423Y524585D01*
X226517Y525196D01*
X226586Y525970D01*
X225460D01*
X225701Y525995D01*
X225917Y526071D01*
X226108Y526198D01*
X226273Y526376D01*
X226413Y526604D01*
X226527Y526884D01*
X226616Y527214D01*
X226679Y527595D01*
X226689Y527703D01*
X226721Y528618D01*
X226730Y529718D01*
X229270D01*
X229279Y528618D01*
D02*
G37*
G36*
X246623Y516061D02*
X246428Y516202D01*
X246196Y516270D01*
X245929Y516267D01*
X245624Y516193D01*
X245283Y516046D01*
X244906Y515827D01*
X244492Y515537D01*
X244041Y515174D01*
X243030Y514235D01*
X241234Y516031D01*
X241740Y516554D01*
X242537Y517492D01*
X242827Y517906D01*
X243046Y518283D01*
X243193Y518624D01*
X243267Y518929D01*
X243270Y519196D01*
X243202Y519428D01*
X243061Y519623D01*
X246623Y516061D01*
D02*
G37*
G36*
X232595Y515970D02*
X232260Y515790D01*
X231965Y515490D01*
X231709Y515070D01*
X231492Y514530D01*
X231315Y513871D01*
X231177Y513091D01*
X231079Y512191D01*
X231000Y510031D01*
X225000D01*
X224980Y511171D01*
X224823Y513091D01*
X224685Y513871D01*
X224508Y514530D01*
X224291Y515070D01*
X224035Y515490D01*
X223739Y515790D01*
X223405Y515970D01*
X223030Y516031D01*
X232969D01*
X232595Y515970D01*
D02*
G37*
G36*
X314000Y496000D02*
X247000Y496000D01*
X247000Y508000D01*
X306000D01*
Y529000D01*
X305000Y528000D01*
X263144D01*
Y562000D01*
X305000D01*
Y580000D01*
X247000D01*
Y591000D01*
X314000Y591000D01*
X314000Y496000D01*
D02*
G37*
G36*
X247713Y489930D02*
X248083Y489630D01*
X248257Y489517D01*
X248424Y489428D01*
X248584Y489364D01*
X248738Y489325D01*
X248884Y489310D01*
X249023Y489319D01*
X249155Y489353D01*
X247631Y486202D01*
X247600Y486272D01*
X247551Y486357D01*
X247484Y486456D01*
X247293Y486697D01*
X247028Y486995D01*
X246492Y487550D01*
X247517Y490117D01*
X247713Y489930D01*
D02*
G37*
G36*
X350395Y462575D02*
X350396Y462531D01*
X351219D01*
X351063Y462505D01*
X350923Y462429D01*
X350799Y462302D01*
X350692Y462124D01*
X350601Y461895D01*
X350527Y461616D01*
X350497Y461446D01*
X350505Y461405D01*
X350554Y461226D01*
X350612Y461066D01*
X350678Y460924D01*
X350753Y460801D01*
X350837Y460696D01*
X350421Y460717D01*
X350395Y459991D01*
X347855D01*
X347849Y460473D01*
X347821Y460847D01*
X347341Y460871D01*
X347439Y460971D01*
X347526Y461090D01*
X347603Y461228D01*
X347670Y461385D01*
X347727Y461561D01*
X347753Y461671D01*
X347711Y461895D01*
X347648Y462124D01*
X347574Y462302D01*
X347487Y462429D01*
X347390Y462505D01*
X347281Y462531D01*
X347847D01*
X347855Y462722D01*
X350395Y462575D01*
D02*
G37*
G36*
X357558Y462505D02*
X357414Y462429D01*
X357286Y462302D01*
X357176Y462124D01*
X357082Y461895D01*
X357006Y461616D01*
X356946Y461286D01*
X356904Y460905D01*
X356870Y459991D01*
X354330D01*
X354324Y460473D01*
X354242Y461616D01*
X354193Y461895D01*
X354132Y462124D01*
X354061Y462302D01*
X353978Y462429D01*
X353885Y462505D01*
X353781Y462531D01*
X357719D01*
X357558Y462505D01*
D02*
G37*
G36*
X337999D02*
X337801Y462429D01*
X337627Y462302D01*
X337476Y462124D01*
X337348Y461895D01*
X337244Y461616D01*
X337163Y461286D01*
X337104Y460905D01*
X337070Y460473D01*
X337058Y459991D01*
X334518D01*
X334516Y460473D01*
X334402Y462302D01*
X334366Y462429D01*
X334326Y462505D01*
X334281Y462531D01*
X338219D01*
X337999Y462505D01*
D02*
G37*
G36*
X337063Y434675D02*
X337101Y434190D01*
X337135Y433976D01*
X337178Y433780D01*
X337231Y433602D01*
X337293Y433443D01*
X337365Y433303D01*
X337447Y433181D01*
X337538Y433077D01*
X334038D01*
X334129Y433181D01*
X334211Y433303D01*
X334283Y433443D01*
X334345Y433602D01*
X334398Y433780D01*
X334441Y433976D01*
X334475Y434190D01*
X334499Y434423D01*
X334518Y434945D01*
X337058D01*
X337063Y434675D01*
D02*
G37*
G36*
X387343Y431574D02*
X387239Y431665D01*
X387117Y431747D01*
X386977Y431819D01*
X386818Y431881D01*
X386640Y431934D01*
X386444Y431977D01*
X386230Y432011D01*
X385997Y432035D01*
X385475Y432054D01*
Y434594D01*
X385745Y434599D01*
X386230Y434637D01*
X386444Y434671D01*
X386640Y434714D01*
X386818Y434767D01*
X386977Y434829D01*
X387117Y434901D01*
X387239Y434983D01*
X387343Y435074D01*
Y431574D01*
D02*
G37*
G36*
X308515Y432937D02*
X308557Y432787D01*
X308624Y432624D01*
X308716Y432450D01*
X308833Y432263D01*
X308975Y432063D01*
X309335Y431627D01*
X309552Y431390D01*
X309795Y431141D01*
X307794Y429549D01*
X307600Y429737D01*
X307229Y430050D01*
X307053Y430176D01*
X306883Y430282D01*
X306719Y430367D01*
X306561Y430432D01*
X306409Y430476D01*
X306264Y430500D01*
X306124Y430503D01*
X308499Y433074D01*
X308515Y432937D01*
D02*
G37*
G36*
X357658Y423110D02*
X357576Y422989D01*
X357505Y422848D01*
X357442Y422689D01*
X357389Y422512D01*
X357346Y422315D01*
X357313Y422101D01*
X357289Y421868D01*
X357269Y421346D01*
X354729D01*
X354725Y421616D01*
X354686Y422101D01*
X354652Y422315D01*
X354609Y422512D01*
X354557Y422689D01*
X354494Y422848D01*
X354422Y422989D01*
X354341Y423110D01*
X354249Y423214D01*
X357749D01*
X357658Y423110D01*
D02*
G37*
G36*
X383658Y412129D02*
X383560Y412028D01*
X383473Y411909D01*
X383396Y411771D01*
X383329Y411614D01*
X383273Y411438D01*
X383227Y411244D01*
X383191Y411030D01*
X383189Y411014D01*
X383237Y410384D01*
X383288Y410104D01*
X383352Y409876D01*
X383426Y409698D01*
X383512Y409571D01*
X383610Y409495D01*
X383719Y409469D01*
X379781D01*
X379937Y409495D01*
X380077Y409571D01*
X380201Y409698D01*
X380308Y409876D01*
X380399Y410104D01*
X380473Y410384D01*
X380530Y410714D01*
X380571Y411092D01*
X380565Y411181D01*
X380534Y411397D01*
X380494Y411594D01*
X380445Y411773D01*
X380388Y411933D01*
X380322Y412075D01*
X380246Y412198D01*
X380162Y412303D01*
X383658Y412129D01*
D02*
G37*
G36*
X370027Y411527D02*
X370083Y410714D01*
X370132Y410384D01*
X370195Y410104D01*
X370272Y409876D01*
X370363Y409698D01*
X370468Y409571D01*
X370587Y409495D01*
X370719Y409469D01*
X366781D01*
X366913Y409495D01*
X367032Y409571D01*
X367137Y409698D01*
X367228Y409876D01*
X367305Y410104D01*
X367368Y410384D01*
X367417Y410714D01*
X367452Y411095D01*
X367480Y412010D01*
X370020D01*
X370027Y411527D01*
D02*
G37*
G36*
X363733D02*
X363807Y410384D01*
X363851Y410104D01*
X363905Y409876D01*
X363969Y409698D01*
X364043Y409571D01*
X364126Y409495D01*
X364220Y409469D01*
X360280D01*
X360453Y409495D01*
X360607Y409571D01*
X360743Y409698D01*
X360861Y409876D01*
X360961Y410104D01*
X361043Y410384D01*
X361106Y410714D01*
X361152Y411095D01*
X361179Y411527D01*
X361188Y412010D01*
X363728D01*
X363733Y411527D01*
D02*
G37*
G36*
X383279Y393968D02*
X383459Y391530D01*
X383719D01*
X383634Y391505D01*
X383558Y391429D01*
X383490Y391302D01*
X383479Y391266D01*
X383577Y389935D01*
X383688Y389422D01*
X383816Y389007D01*
X383961Y388690D01*
X384123Y388470D01*
X379877D01*
X380039Y388690D01*
X380184Y389007D01*
X380312Y389422D01*
X380423Y389935D01*
X380517Y390546D01*
X380536Y390755D01*
X380493Y390896D01*
X380388Y391124D01*
X380265Y391302D01*
X380122Y391429D01*
X379961Y391505D01*
X379781Y391530D01*
X380606D01*
X380653Y392062D01*
X380722Y393968D01*
X380730Y395068D01*
X383270D01*
X383279Y393968D01*
D02*
G37*
G36*
X286246Y393008D02*
X286080Y392459D01*
X286083Y391824D01*
X286255Y391104D01*
X286598Y390298D01*
X287110Y389407D01*
X287792Y388430D01*
X288643Y387368D01*
X290856Y384987D01*
X286613Y380744D01*
X285380Y381935D01*
X283170Y383808D01*
X282193Y384490D01*
X281302Y385002D01*
X280496Y385345D01*
X279776Y385518D01*
X279141Y385521D01*
X278592Y385354D01*
X278128Y385018D01*
X286583Y393472D01*
X286246Y393008D01*
D02*
G37*
G36*
X312509Y361837D02*
X312537Y361693D01*
X312585Y361543D01*
X312654Y361387D01*
X312742Y361224D01*
X312850Y361055D01*
X312978Y360879D01*
X313126Y360697D01*
X313481Y360315D01*
X311685Y358519D01*
X311491Y358706D01*
X311121Y359022D01*
X310945Y359150D01*
X310776Y359258D01*
X310613Y359346D01*
X310457Y359415D01*
X310306Y359463D01*
X310163Y359492D01*
X310025Y359500D01*
X312500Y361975D01*
X312509Y361837D01*
D02*
G37*
G36*
X309340Y350611D02*
X309369Y350467D01*
X309417Y350317D01*
X309486Y350161D01*
X309574Y349998D01*
X309682Y349829D01*
X309810Y349653D01*
X309958Y349471D01*
X310313Y349089D01*
X308517Y347293D01*
X308323Y347480D01*
X307953Y347796D01*
X307777Y347924D01*
X307608Y348032D01*
X307445Y348120D01*
X307289Y348189D01*
X307139Y348237D01*
X306995Y348265D01*
X306857Y348274D01*
X309332Y350749D01*
X309340Y350611D01*
D02*
G37*
G36*
X321282Y346027D02*
X321318Y345595D01*
X321378Y345214D01*
X321462Y344884D01*
X321570Y344604D01*
X321702Y344376D01*
X321858Y344198D01*
X322038Y344071D01*
X322242Y343995D01*
X322469Y343969D01*
X317530D01*
X317758Y343995D01*
X317962Y344071D01*
X318142Y344198D01*
X318298Y344376D01*
X318430Y344604D01*
X318538Y344884D01*
X318622Y345214D01*
X318682Y345595D01*
X318718Y346027D01*
X318730Y346510D01*
X321270D01*
X321282Y346027D01*
D02*
G37*
G36*
X312779Y345695D02*
X312848Y345004D01*
X312909Y344722D01*
X312987Y344484D01*
X313082Y344289D01*
X313195Y344137D01*
X313325Y344028D01*
X313472Y343962D01*
X313636Y343939D01*
X309531Y343969D01*
X309663Y343991D01*
X309782Y344055D01*
X309887Y344162D01*
X309978Y344311D01*
X310055Y344504D01*
X310118Y344739D01*
X310167Y345016D01*
X310202Y345337D01*
X310230Y346106D01*
X312770D01*
X312779Y345695D01*
D02*
G37*
G36*
X293354Y347406D02*
X296137Y345030D01*
X296705Y344648D01*
X297222Y344351D01*
X297689Y344139D01*
X298105Y344012D01*
X298470Y343969D01*
X293561Y334484D01*
X293777Y335069D01*
X293850Y335712D01*
X293780Y336414D01*
X293567Y337174D01*
X293211Y337993D01*
X292712Y338871D01*
X292071Y339808D01*
X291286Y340803D01*
X290358Y341857D01*
X289288Y342970D01*
X292530Y348212D01*
X293354Y347406D01*
D02*
G37*
G36*
X354495Y339299D02*
X354571Y339083D01*
X354698Y338892D01*
X354876Y338727D01*
X355104Y338587D01*
X355384Y338473D01*
X355714Y338384D01*
X356095Y338321D01*
X356527Y338283D01*
X357010Y338270D01*
Y335730D01*
X356527Y335717D01*
X356095Y335679D01*
X355714Y335616D01*
X355384Y335527D01*
X355104Y335412D01*
X354876Y335273D01*
X354698Y335108D01*
X354571Y334917D01*
X354495Y334701D01*
X354469Y334460D01*
Y339540D01*
X354495Y339299D01*
D02*
G37*
G36*
X381811Y323828D02*
X382178Y323530D01*
X382349Y323420D01*
X382512Y323336D01*
X382667Y323277D01*
X382813Y323245D01*
X382951Y323238D01*
X383081Y323256D01*
X383202Y323301D01*
X382019Y320037D01*
X379986Y322052D01*
X381615Y324015D01*
X381811Y323828D01*
D02*
G37*
G36*
X278081Y327676D02*
X280085Y326012D01*
X281010Y325383D01*
X281884Y324891D01*
X282707Y324535D01*
X283479Y324315D01*
X284200Y324230D01*
X284869Y324282D01*
X285488Y324469D01*
X274030Y319531D01*
X273996Y320262D01*
X273892Y320990D01*
X273718Y321714D01*
X273474Y322435D01*
X273161Y323151D01*
X272779Y323864D01*
X272327Y324572D01*
X271805Y325277D01*
X271214Y325978D01*
X270554Y326676D01*
X277003Y328712D01*
X278081Y327676D01*
D02*
G37*
G36*
X412043Y310749D02*
X411684Y310695D01*
X411325Y310605D01*
X410966Y310479D01*
X410606Y310317D01*
X410247Y310120D01*
X409888Y309886D01*
X409529Y309617D01*
X409170Y309312D01*
X408811Y308970D01*
X405218D01*
X405548Y309312D01*
X406028Y309886D01*
X406178Y310120D01*
X406269Y310317D01*
X406300Y310479D01*
X406272Y310605D01*
X406184Y310695D01*
X406036Y310749D01*
X405829Y310767D01*
X412403D01*
X412043Y310749D01*
D02*
G37*
G36*
X187959Y303688D02*
X188038Y301297D01*
X188150Y300246D01*
X188311Y299291D01*
X188520Y298432D01*
X188778Y297668D01*
X189084Y297001D01*
X189439Y296430D01*
X189842Y295954D01*
X187989Y294215D01*
X187531Y294603D01*
X186971Y294953D01*
X186308Y295266D01*
X185544Y295541D01*
X184676Y295779D01*
X183707Y295979D01*
X182636Y296141D01*
X180186Y296353D01*
X178807Y296402D01*
X187992Y305027D01*
X187959Y303688D01*
D02*
G37*
G36*
X347222Y294894D02*
X346628Y294046D01*
X346203Y293197D01*
X345949Y292348D01*
X345864Y291500D01*
X345949Y290651D01*
X346203Y289803D01*
X346628Y288954D01*
X347148Y288211D01*
X347767Y287715D01*
X348704Y287079D01*
X349675Y286527D01*
X350682Y286061D01*
X351724Y285679D01*
X352801Y285382D01*
X353913Y285170D01*
X355060Y285042D01*
X356243Y285000D01*
X349000Y282000D01*
X346879Y279879D01*
X346341Y285613D01*
X343743Y283015D01*
X342903Y283787D01*
X342080Y284407D01*
X341275Y284874D01*
X340487Y285189D01*
X339716Y285352D01*
X338963Y285362D01*
X338226Y285220D01*
X337507Y284925D01*
X336806Y284478D01*
X336121Y283879D01*
X337379Y293621D01*
X347985Y295743D01*
X347222Y294894D01*
D02*
G37*
G36*
X213408Y282299D02*
X213485Y282083D01*
X213614Y281892D01*
X213794Y281727D01*
X214025Y281588D01*
X214308Y281473D01*
X214642Y281384D01*
X215028Y281321D01*
X215465Y281283D01*
X215953Y281270D01*
Y278730D01*
X215465Y278717D01*
X215028Y278679D01*
X214642Y278616D01*
X214308Y278527D01*
X214025Y278412D01*
X213794Y278273D01*
X213614Y278108D01*
X213485Y277917D01*
X213408Y277701D01*
X213382Y277460D01*
Y282540D01*
X213408Y282299D01*
D02*
G37*
G36*
X341215Y274250D02*
X341111Y274341D01*
X340989Y274423D01*
X340849Y274495D01*
X340690Y274557D01*
X340512Y274610D01*
X340316Y274653D01*
X340102Y274687D01*
X339869Y274711D01*
X339347Y274730D01*
Y277270D01*
X339617Y277275D01*
X340102Y277313D01*
X340316Y277347D01*
X340512Y277390D01*
X340690Y277443D01*
X340849Y277505D01*
X340989Y277577D01*
X341111Y277659D01*
X341215Y277750D01*
Y274250D01*
D02*
G37*
G36*
X238261Y284274D02*
X240467Y282407D01*
X241443Y281729D01*
X242334Y281220D01*
X243140Y280880D01*
X243861Y280710D01*
X244498D01*
X245049Y280880D01*
X245516Y281220D01*
X237031Y272734D01*
X237370Y273201D01*
X237540Y273752D01*
Y274389D01*
X237370Y275110D01*
X237031Y275916D01*
X236521Y276807D01*
X235843Y277783D01*
X234994Y278844D01*
X232788Y281220D01*
X237031Y285462D01*
X238261Y284274D01*
D02*
G37*
G36*
X373995Y276254D02*
X374071Y276061D01*
X374198Y275891D01*
X374376Y275744D01*
X374604Y275619D01*
X374884Y275517D01*
X375214Y275438D01*
X375595Y275381D01*
X376027Y275347D01*
X376510Y275336D01*
Y272796D01*
X376027Y272783D01*
X375595Y272745D01*
X375214Y272682D01*
X374884Y272593D01*
X374604Y272480D01*
X374376Y272340D01*
X374198Y272176D01*
X374071Y271986D01*
X373995Y271771D01*
X373969Y271530D01*
Y276469D01*
X373995Y276254D01*
D02*
G37*
G36*
X254854Y275372D02*
X254829Y275097D01*
X254863Y274798D01*
X254956Y274475D01*
X255109Y274128D01*
X255322Y273757D01*
X255593Y273362D01*
X255925Y272942D01*
X256315Y272498D01*
X256766Y272031D01*
X256220Y268984D01*
X255640Y269546D01*
X254628Y270417D01*
X254196Y270726D01*
X253812Y270951D01*
X253477Y271091D01*
X253191Y271147D01*
X252954Y271119D01*
X252766Y271007D01*
X252627Y270811D01*
X254939Y275623D01*
X254854Y275372D01*
D02*
G37*
G36*
X321699Y267351D02*
X321617Y267229D01*
X321545Y267089D01*
X321483Y266930D01*
X321430Y266752D01*
X321387Y266556D01*
X321353Y266342D01*
X321329Y266109D01*
X321310Y265587D01*
X318770D01*
X318765Y265857D01*
X318727Y266342D01*
X318693Y266556D01*
X318650Y266752D01*
X318597Y266930D01*
X318535Y267089D01*
X318463Y267229D01*
X318381Y267351D01*
X318290Y267455D01*
X321790D01*
X321699Y267351D01*
D02*
G37*
G36*
X288995Y268242D02*
X289071Y268038D01*
X289198Y267858D01*
X289376Y267702D01*
X289604Y267570D01*
X289884Y267462D01*
X290214Y267378D01*
X290595Y267318D01*
X291027Y267282D01*
X291509Y267270D01*
Y264730D01*
X291027Y264718D01*
X290595Y264682D01*
X290214Y264622D01*
X289884Y264538D01*
X289604Y264430D01*
X289376Y264298D01*
X289198Y264142D01*
X289071Y263962D01*
X288995Y263758D01*
X288969Y263531D01*
Y268470D01*
X288995Y268242D01*
D02*
G37*
G36*
X274030Y263531D02*
X274005Y263568D01*
X273929Y263602D01*
X273802Y263632D01*
X273624Y263658D01*
X273116Y263698D01*
X271490Y263730D01*
Y266270D01*
X271977Y266283D01*
X272413Y266321D01*
X272797Y266384D01*
X273131Y266473D01*
X273414Y266588D01*
X273645Y266727D01*
X273826Y266892D01*
X273955Y267083D01*
X274034Y267299D01*
X274061Y267540D01*
X274030Y263531D01*
D02*
G37*
G36*
X321322Y261027D02*
X321356Y260595D01*
X321414Y260214D01*
X321496Y259884D01*
X321600Y259604D01*
X321727Y259376D01*
X321878Y259198D01*
X322052Y259071D01*
X322249Y258995D01*
X322469Y258969D01*
X317530D01*
X317766Y258995D01*
X317977Y259071D01*
X318163Y259198D01*
X318324Y259376D01*
X318460Y259604D01*
X318572Y259884D01*
X318658Y260214D01*
X318720Y260595D01*
X318758Y261027D01*
X318770Y261509D01*
X321310D01*
X321322Y261027D01*
D02*
G37*
G36*
X216190Y257126D02*
X216086Y257030D01*
X215994Y256914D01*
X215912Y256779D01*
X215842Y256625D01*
X215782Y256452D01*
X215733Y256259D01*
X215695Y256047D01*
X215668Y255816D01*
X215646Y255296D01*
X213106Y255598D01*
X213102Y255870D01*
X213042Y256574D01*
X213006Y256771D01*
X212963Y256950D01*
X212911Y257111D01*
X212851Y257253D01*
X212783Y257377D01*
X212708Y257482D01*
X216190Y257126D01*
D02*
G37*
G36*
X360470Y253958D02*
X359329Y253928D01*
X358310Y253838D01*
X357410Y253688D01*
X356629Y253478D01*
X355970Y253208D01*
X355429Y252878D01*
X355009Y252488D01*
X354710Y252038D01*
X354529Y251528D01*
X354469Y250958D01*
Y258969D01*
X354529Y259157D01*
X354710Y259325D01*
X355009Y259474D01*
X355429Y259602D01*
X355970Y259711D01*
X356629Y259800D01*
X358310Y259918D01*
X360470Y259958D01*
Y253958D01*
D02*
G37*
G36*
X293561Y249460D02*
X293535Y249701D01*
X293458Y249917D01*
X293330Y250108D01*
X293150Y250273D01*
X292918Y250413D01*
X292636Y250527D01*
X292301Y250616D01*
X291916Y250679D01*
X291479Y250717D01*
X290991Y250730D01*
Y253270D01*
X291479Y253283D01*
X291916Y253321D01*
X292301Y253384D01*
X292636Y253473D01*
X292918Y253587D01*
X293150Y253727D01*
X293330Y253892D01*
X293458Y254083D01*
X293535Y254299D01*
X293561Y254540D01*
Y249460D01*
D02*
G37*
G36*
X438030Y247780D02*
X438120Y246760D01*
X438270Y245860D01*
X438480Y245079D01*
X438750Y244420D01*
X439080Y243880D01*
X439470Y243460D01*
X439920Y243160D01*
X440430Y242980D01*
X441000Y242920D01*
X429000D01*
X429570Y242980D01*
X430080Y243160D01*
X430530Y243460D01*
X430920Y243880D01*
X431250Y244420D01*
X431520Y245079D01*
X431730Y245860D01*
X431880Y246760D01*
X431970Y247780D01*
X432000Y248920D01*
X438000D01*
X438030Y247780D01*
D02*
G37*
G36*
X298242Y244005D02*
X298038Y243929D01*
X297858Y243802D01*
X297702Y243624D01*
X297570Y243396D01*
X297462Y243116D01*
X297378Y242786D01*
X297318Y242405D01*
X297282Y241973D01*
X297270Y241490D01*
X294730D01*
X294718Y241973D01*
X294682Y242405D01*
X294622Y242786D01*
X294538Y243116D01*
X294430Y243396D01*
X294298Y243624D01*
X294142Y243802D01*
X293962Y243929D01*
X293758Y244005D01*
X293531Y244030D01*
X298470D01*
X298242Y244005D01*
D02*
G37*
G36*
X305275Y244383D02*
X305303Y244030D01*
X306469D01*
X306242Y244005D01*
X306038Y243929D01*
X305858Y243802D01*
X305702Y243624D01*
X305570Y243396D01*
X305490Y243189D01*
X305505Y243151D01*
X305577Y243011D01*
X305659Y242889D01*
X305750Y242785D01*
X305378D01*
X305318Y242405D01*
X305282Y241973D01*
X305270Y241490D01*
X302730D01*
X302718Y241973D01*
X302682Y242405D01*
X302622Y242785D01*
X302250D01*
X302341Y242889D01*
X302423Y243011D01*
X302495Y243151D01*
X302510Y243189D01*
X302430Y243396D01*
X302298Y243624D01*
X302142Y243802D01*
X301962Y243929D01*
X301758Y244005D01*
X301530Y244030D01*
X302700D01*
X302711Y244131D01*
X302730Y244653D01*
X305270D01*
X305275Y244383D01*
D02*
G37*
G36*
X425681Y232680D02*
X425620Y233083D01*
X425440Y233444D01*
X425140Y233762D01*
X424720Y234037D01*
X424180Y234270D01*
X423521Y234461D01*
X422741Y234609D01*
X422602Y234626D01*
X422417Y234609D01*
X421637Y234461D01*
X420977Y234270D01*
X420437Y234037D01*
X420017Y233762D01*
X419717Y233444D01*
X419537Y233083D01*
X419477Y232680D01*
Y242920D01*
X419537Y242517D01*
X419717Y242157D01*
X420017Y241839D01*
X420437Y241563D01*
X420977Y241330D01*
X421637Y241139D01*
X422417Y240991D01*
X422556Y240974D01*
X422741Y240991D01*
X423521Y241139D01*
X424180Y241330D01*
X424720Y241563D01*
X425140Y241839D01*
X425440Y242157D01*
X425620Y242517D01*
X425681Y242920D01*
Y232680D01*
D02*
G37*
G36*
X184020Y245830D02*
X184177Y243909D01*
X184315Y243130D01*
X184492Y242470D01*
X184709Y241929D01*
X184965Y241509D01*
X185261Y241210D01*
X185595Y241029D01*
X185970Y240970D01*
X176031D01*
X176405Y241029D01*
X176740Y241210D01*
X177035Y241509D01*
X177291Y241929D01*
X177508Y242470D01*
X177685Y243130D01*
X177823Y243909D01*
X177921Y244809D01*
X178000Y246970D01*
X184000D01*
X184020Y245830D01*
D02*
G37*
G36*
X176031Y235646D02*
X180000Y233000D01*
X178860Y232940D01*
X177840Y232760D01*
X176940Y232460D01*
X176160Y232040D01*
X176031Y231934D01*
Y231031D01*
X175980Y231405D01*
X175829Y231740D01*
X175814Y231757D01*
X175500Y231500D01*
X174960Y230840D01*
X174540Y230060D01*
X174240Y229160D01*
X174060Y228140D01*
X174000Y227000D01*
X168000D01*
X167940Y228140D01*
X167760Y229160D01*
X167460Y230060D01*
X167040Y230840D01*
X166500Y231500D01*
X166186Y231757D01*
X166171Y231740D01*
X166020Y231405D01*
X165970Y231031D01*
Y231934D01*
X165840Y232040D01*
X165060Y232460D01*
X164160Y232760D01*
X163140Y232940D01*
X162000Y233000D01*
X165970Y235646D01*
Y240970D01*
X166020Y240595D01*
X166171Y240261D01*
X166422Y239965D01*
X166774Y239709D01*
X167227Y239492D01*
X167780Y239315D01*
X168434Y239177D01*
X169189Y239079D01*
X170044Y239020D01*
X171000Y239000D01*
X171956Y239020D01*
X173566Y239177D01*
X174219Y239315D01*
X174773Y239492D01*
X175226Y239709D01*
X175578Y239965D01*
X175829Y240261D01*
X175980Y240595D01*
X176031Y240970D01*
Y235646D01*
D02*
G37*
G36*
X306509Y240837D02*
X306537Y240693D01*
X306585Y240543D01*
X306654Y240387D01*
X306742Y240224D01*
X306850Y240055D01*
X306978Y239879D01*
X307126Y239697D01*
X307481Y239315D01*
X305685Y237519D01*
X305491Y237706D01*
X305121Y238022D01*
X304945Y238150D01*
X304776Y238258D01*
X304613Y238346D01*
X304457Y238415D01*
X304307Y238463D01*
X304163Y238491D01*
X304025Y238500D01*
X306500Y240975D01*
X306509Y240837D01*
D02*
G37*
G36*
X332215Y236250D02*
X332111Y236341D01*
X331989Y236423D01*
X331849Y236495D01*
X331690Y236557D01*
X331512Y236610D01*
X331316Y236653D01*
X331102Y236687D01*
X330869Y236711D01*
X330347Y236730D01*
Y239270D01*
X330617Y239275D01*
X331102Y239313D01*
X331316Y239347D01*
X331512Y239390D01*
X331690Y239443D01*
X331849Y239505D01*
X331989Y239577D01*
X332111Y239659D01*
X332215Y239750D01*
Y236250D01*
D02*
G37*
G36*
X400838Y232680D02*
X400778Y232931D01*
X400598Y233155D01*
X400298Y233354D01*
X399878Y233525D01*
X399338Y233670D01*
X398678Y233789D01*
X397898Y233881D01*
X395978Y233987D01*
X394838Y234000D01*
Y240000D01*
X395978Y240029D01*
X396998Y240117D01*
X397898Y240263D01*
X398678Y240467D01*
X399338Y240730D01*
X399878Y241051D01*
X400298Y241431D01*
X400598Y241868D01*
X400778Y242365D01*
X400838Y242920D01*
Y232680D01*
D02*
G37*
G36*
X320541Y230660D02*
X320437Y230751D01*
X320315Y230833D01*
X320175Y230905D01*
X320016Y230967D01*
X319838Y231020D01*
X319642Y231063D01*
X319428Y231097D01*
X319195Y231121D01*
X318673Y231140D01*
Y233680D01*
X318943Y233685D01*
X319428Y233723D01*
X319642Y233757D01*
X319838Y233800D01*
X320016Y233853D01*
X320175Y233915D01*
X320315Y233987D01*
X320437Y234069D01*
X320541Y234160D01*
Y230660D01*
D02*
G37*
G36*
X287215Y224250D02*
X287111Y224341D01*
X286989Y224423D01*
X286849Y224495D01*
X286690Y224557D01*
X286512Y224610D01*
X286316Y224653D01*
X286102Y224687D01*
X285869Y224711D01*
X285347Y224730D01*
Y227270D01*
X285617Y227275D01*
X286102Y227313D01*
X286316Y227347D01*
X286512Y227390D01*
X286690Y227443D01*
X286849Y227505D01*
X286989Y227577D01*
X287111Y227659D01*
X287215Y227750D01*
Y224250D01*
D02*
G37*
G36*
X353212Y215219D02*
X352024Y213989D01*
X350158Y211783D01*
X349479Y210807D01*
X348969Y209916D01*
X348630Y209110D01*
X348460Y208389D01*
Y207752D01*
X348630Y207201D01*
X348969Y206734D01*
X340484Y215219D01*
X340951Y214880D01*
X341502Y214710D01*
X342139D01*
X342860Y214880D01*
X343666Y215219D01*
X344557Y215729D01*
X345533Y216408D01*
X346594Y217256D01*
X348969Y219462D01*
X353212Y215219D01*
D02*
G37*
G36*
X205245Y208271D02*
X205283Y207834D01*
X205346Y207449D01*
X205435Y207114D01*
X205550Y206832D01*
X205689Y206600D01*
X205854Y206420D01*
X206045Y206292D01*
X206261Y206215D01*
X206502Y206189D01*
X201422D01*
X201663Y206215D01*
X201879Y206292D01*
X202070Y206420D01*
X202235Y206600D01*
X202374Y206832D01*
X202489Y207114D01*
X202578Y207449D01*
X202641Y207834D01*
X202679Y208271D01*
X202692Y208759D01*
X205232D01*
X205245Y208271D01*
D02*
G37*
G36*
X364166Y204280D02*
X363699Y204620D01*
X363148Y204790D01*
X362511D01*
X361790Y204620D01*
X360984Y204280D01*
X360093Y203771D01*
X359117Y203093D01*
X358056Y202244D01*
X355681Y200038D01*
X351438Y204280D01*
X352626Y205511D01*
X354493Y207717D01*
X355171Y208693D01*
X355681Y209584D01*
X356020Y210390D01*
X356190Y211111D01*
Y211748D01*
X356020Y212299D01*
X355681Y212766D01*
X364166Y204280D01*
D02*
G37*
G36*
X231148Y208238D02*
X231236Y207063D01*
X231254Y206949D01*
X231343Y206614D01*
X231458Y206332D01*
X231597Y206100D01*
X231762Y205920D01*
X231953Y205792D01*
X232169Y205715D01*
X232410Y205689D01*
X231337D01*
X231447Y204205D01*
X231558Y203692D01*
X231686Y203277D01*
X231831Y202960D01*
X231993Y202740D01*
X227747D01*
X227909Y202960D01*
X228054Y203277D01*
X228182Y203692D01*
X228293Y204205D01*
X228387Y204816D01*
X228465Y205689D01*
X227330D01*
X227571Y205715D01*
X227787Y205792D01*
X227978Y205920D01*
X228143Y206100D01*
X228283Y206332D01*
X228397Y206614D01*
X228486Y206949D01*
X228549Y207334D01*
X228566Y207527D01*
X228591Y208238D01*
X228600Y209338D01*
X231140D01*
X231148Y208238D01*
D02*
G37*
G36*
X396430Y204221D02*
X395920Y204041D01*
X395470Y203741D01*
X395080Y203321D01*
X394750Y202780D01*
X394480Y202120D01*
X394270Y201341D01*
X394120Y200441D01*
X394030Y199421D01*
X394000Y198281D01*
X388000D01*
X387970Y199421D01*
X387880Y200441D01*
X387730Y201341D01*
X387520Y202120D01*
X387250Y202780D01*
X386920Y203321D01*
X386530Y203741D01*
X386080Y204041D01*
X385570Y204221D01*
X385000Y204280D01*
X397000D01*
X396430Y204221D01*
D02*
G37*
G36*
X141650Y197859D02*
X140854Y197057D01*
X137184Y192911D01*
X137062Y192676D01*
X128610Y197517D01*
X129177Y197283D01*
X129806Y197197D01*
X130499Y197257D01*
X131253Y197464D01*
X132071Y197818D01*
X132950Y198319D01*
X133893Y198966D01*
X134898Y199761D01*
X135965Y200702D01*
X137095Y201790D01*
X141650Y197859D01*
D02*
G37*
G36*
X179371Y205124D02*
X184653Y200542D01*
X185190Y200224D01*
X185629Y200033D01*
X185970Y199970D01*
X176061Y195722D01*
X176549Y196035D01*
X176833Y196466D01*
X176915Y197017D01*
X176793Y197687D01*
X176467Y198475D01*
X175938Y199384D01*
X175205Y200411D01*
X174270Y201557D01*
X171788Y204207D01*
X178147Y206334D01*
X179371Y205124D01*
D02*
G37*
G36*
X250285Y193130D02*
X250248Y193106D01*
X250137Y193083D01*
X249951Y193064D01*
X248948Y193021D01*
X246571Y193000D01*
Y199000D01*
X247277Y199006D01*
X249357Y199142D01*
X249691Y199205D01*
X249951Y199279D01*
X250137Y199364D01*
X250248Y199461D01*
X250285Y199569D01*
Y193130D01*
D02*
G37*
G36*
Y186870D02*
X250316Y180714D01*
X250282Y180769D01*
X250183Y180817D01*
X250017Y180860D01*
X249785Y180897D01*
X249486Y180929D01*
X248193Y180989D01*
X247000Y181000D01*
Y187000D01*
X250285Y186870D01*
D02*
G37*
G36*
X217212Y176220D02*
X216021Y174986D01*
X214148Y172777D01*
X213466Y171800D01*
X212954Y170909D01*
X212612Y170103D01*
X212439Y169382D01*
X212436Y168748D01*
X212603Y168198D01*
X212939Y167734D01*
X204484Y176189D01*
X204948Y175853D01*
X205498Y175686D01*
X206133Y175689D01*
X206853Y175862D01*
X207659Y176204D01*
X208550Y176716D01*
X209527Y177398D01*
X210589Y178250D01*
X212969Y180462D01*
X217212Y176220D01*
D02*
G37*
G36*
X242962Y175720D02*
X241771Y174486D01*
X239898Y172277D01*
X239216Y171300D01*
X238704Y170409D01*
X238362Y169603D01*
X238189Y168883D01*
X238186Y168248D01*
X238353Y167698D01*
X238689Y167234D01*
X230234Y175689D01*
X230698Y175353D01*
X231248Y175186D01*
X231882Y175189D01*
X232603Y175362D01*
X233409Y175704D01*
X234300Y176216D01*
X235277Y176898D01*
X236339Y177750D01*
X238720Y179962D01*
X242962Y175720D01*
D02*
G37*
G36*
X377000Y508000D02*
X435000D01*
Y497000D01*
X369000D01*
Y522000D01*
X377000D01*
Y508000D01*
D02*
G37*
G36*
X170781Y366937D02*
X170736Y367206D01*
X170604Y367445D01*
X170383Y367657D01*
X170075Y367840D01*
X169678Y367995D01*
X169193Y368122D01*
X168619Y368221D01*
X167958Y368292D01*
X166370Y368348D01*
Y374348D01*
X167208Y374362D01*
X168619Y374475D01*
X169193Y374574D01*
X169678Y374701D01*
X170075Y374856D01*
X170383Y375039D01*
X170604Y375251D01*
X170736Y375490D01*
X170781Y375759D01*
Y366937D01*
D02*
G37*
G36*
X405466Y419163D02*
X405345Y419138D01*
X405215Y419094D01*
X405077Y419032D01*
X404931Y418952D01*
X404777Y418854D01*
X404614Y418737D01*
X404265Y418448D01*
X404078Y418276D01*
X403882Y418086D01*
X401780Y419576D01*
X401966Y419770D01*
X402274Y420142D01*
X402395Y420319D01*
X402494Y420489D01*
X402571Y420654D01*
X402626Y420813D01*
X402659Y420966D01*
X402671Y421114D01*
X402660Y421255D01*
X405466Y419163D01*
D02*
G37*
G36*
X409027Y411317D02*
X409083Y410587D01*
X409132Y410290D01*
X409195Y410040D01*
X409272Y409834D01*
X409363Y409675D01*
X409468Y409561D01*
X409587Y409492D01*
X409720Y409469D01*
X405780D01*
X405913Y409492D01*
X406032Y409561D01*
X406137Y409675D01*
X406228Y409834D01*
X406305Y410040D01*
X406368Y410290D01*
X406417Y410587D01*
X406452Y410929D01*
X406480Y411750D01*
X409020D01*
X409027Y411317D01*
D02*
G37*
G36*
X402527Y411527D02*
X402583Y410714D01*
X402632Y410384D01*
X402695Y410104D01*
X402772Y409876D01*
X402863Y409698D01*
X402968Y409571D01*
X403087Y409495D01*
X403219Y409469D01*
X399281D01*
X399413Y409495D01*
X399532Y409571D01*
X399637Y409698D01*
X399728Y409876D01*
X399805Y410104D01*
X399868Y410384D01*
X399917Y410714D01*
X399952Y411095D01*
X399980Y412010D01*
X402520D01*
X402527Y411527D01*
D02*
G37*
G36*
X416249Y405930D02*
X416430Y405420D01*
X416732Y404970D01*
X417154Y404580D01*
X417697Y404250D01*
X418360Y403980D01*
X419144Y403770D01*
X420048Y403620D01*
X421074Y403530D01*
X422220Y403500D01*
Y397500D01*
X421074Y397470D01*
X420048Y397380D01*
X419144Y397230D01*
X418360Y397020D01*
X417697Y396750D01*
X417154Y396420D01*
X416732Y396030D01*
X416430Y395580D01*
X416249Y395070D01*
X416189Y394500D01*
Y398053D01*
X415914Y397639D01*
X415793Y397419D01*
X415695Y397212D01*
X415619Y397019D01*
X415564Y396838D01*
X415531Y396672D01*
X415520Y396518D01*
X412980D01*
X412969Y396672D01*
X412936Y396838D01*
X412882Y397019D01*
X412805Y397212D01*
X412706Y397419D01*
X412586Y397639D01*
X412280Y398120D01*
X412094Y398380D01*
X411886Y398653D01*
X416189D01*
Y406500D01*
X416249Y405930D01*
D02*
G37*
G36*
X485191Y248074D02*
X487567Y246038D01*
X488691Y245211D01*
X489773Y244510D01*
X490812Y243938D01*
X491809Y243492D01*
X492764Y243174D01*
X493676Y242983D01*
X494546Y242920D01*
X477575D01*
X478339Y242962D01*
X478933Y243089D01*
X479357Y243301D01*
X479612Y243598D01*
X479697Y243980D01*
X479612Y244447D01*
X479357Y244998D01*
X478933Y245635D01*
X478339Y246356D01*
X477575Y247162D01*
X483939Y249284D01*
X485191Y248074D01*
D02*
G37*
G36*
X469222Y242506D02*
X469402Y242136D01*
X469702Y241810D01*
X470122Y241527D01*
X470662Y241288D01*
X471322Y241092D01*
X472102Y240940D01*
X472804Y240855D01*
X473741Y240940D01*
X474520Y241092D01*
X475181Y241288D01*
X475720Y241527D01*
X476141Y241810D01*
X476441Y242136D01*
X476620Y242506D01*
X476680Y242920D01*
Y232680D01*
X476620Y233073D01*
X476441Y233423D01*
X476141Y233733D01*
X475720Y234001D01*
X475181Y234228D01*
X474520Y234414D01*
X473741Y234558D01*
X473038Y234639D01*
X472102Y234558D01*
X471322Y234414D01*
X470662Y234228D01*
X470122Y234001D01*
X469702Y233733D01*
X469402Y233423D01*
X469222Y233073D01*
X469162Y232680D01*
Y242920D01*
X469222Y242506D01*
D02*
G37*
G36*
X57373Y222575D02*
X57446Y222159D01*
X57567Y221733D01*
X57737Y221300D01*
X57957Y220858D01*
X58225Y220408D01*
X58542Y219949D01*
X58909Y219481D01*
X59324Y219005D01*
X59788Y218521D01*
X55581Y214243D01*
X55096Y214707D01*
X54152Y215486D01*
X53693Y215801D01*
X53241Y216066D01*
X53076Y216147D01*
X52966Y215901D01*
X52809Y215424D01*
X52687Y214898D01*
X52600Y214323D01*
X52547Y213699D01*
X52530Y213027D01*
X46530Y214680D01*
X46521Y215359D01*
X46385Y217150D01*
X46304Y217665D01*
X46087Y218570D01*
X45951Y218960D01*
X45798Y219310D01*
X45626Y219617D01*
X52436Y217997D01*
X57350Y222983D01*
X57373Y222575D01*
D02*
G37*
G36*
X65112Y187584D02*
X67180Y185854D01*
X68101Y185227D01*
X68947Y184760D01*
X69718Y184453D01*
X70414Y184305D01*
X71034Y184316D01*
X71580Y184487D01*
X72050Y184817D01*
X66938Y179976D01*
X67220Y179173D01*
X67288Y178638D01*
X67144Y178370D01*
X66787Y178370D01*
X66217Y178638D01*
X65435Y179174D01*
X64439Y179977D01*
X61809Y182388D01*
X60175Y183995D01*
X63966Y188689D01*
X65112Y187584D01*
D02*
G37*
G36*
X52551Y179830D02*
X52723Y177910D01*
X52874Y177129D01*
X53067Y176469D01*
X53303Y175930D01*
X53582Y175509D01*
X53904Y175210D01*
X54269Y175030D01*
X54677Y174970D01*
X44738D01*
X45079Y175030D01*
X45383Y175210D01*
X45652Y175509D01*
X45885Y175930D01*
X46082Y176469D01*
X46243Y177129D01*
X46369Y177910D01*
X46458Y178810D01*
X46530Y180970D01*
X52530D01*
X52551Y179830D01*
D02*
G37*
G36*
X184516Y170030D02*
X184049Y170370D01*
X183498Y170540D01*
X182861D01*
X182140Y170370D01*
X181334Y170030D01*
X180443Y169521D01*
X179467Y168843D01*
X178406Y167994D01*
X176031Y165788D01*
X171788Y170030D01*
X172976Y171261D01*
X174843Y173467D01*
X175521Y174443D01*
X176031Y175334D01*
X176370Y176140D01*
X176540Y176861D01*
Y177498D01*
X176370Y178049D01*
X176031Y178516D01*
X184516Y170030D01*
D02*
G37*
G36*
X137149Y170375D02*
X137316Y170152D01*
X137890Y169486D01*
X140729Y166532D01*
X141537Y165720D01*
X137362Y161410D01*
X136226Y162504D01*
X134146Y164247D01*
X133202Y164896D01*
X132322Y165397D01*
X131505Y165751D01*
X130752Y165956D01*
X130063Y166013D01*
X129438Y165922D01*
X128942Y165711D01*
X128988Y165683D01*
X128933Y165707D01*
X128877Y165683D01*
X128924Y165711D01*
X128430Y165925D01*
X127807Y166018D01*
X127120Y165963D01*
X126368Y165759D01*
X125551Y165406D01*
X124671Y164904D01*
X123725Y164254D01*
X122716Y163454D01*
X121641Y162507D01*
X120503Y161410D01*
X116559Y165951D01*
X120938Y170524D01*
X128933Y165716D01*
X137062Y170524D01*
X137149Y170375D01*
D02*
G37*
G36*
X89469Y166161D02*
X88329Y166156D01*
X83709Y165853D01*
X83530Y165772D01*
X83469Y165681D01*
Y172120D01*
X83530Y172127D01*
X83709Y172134D01*
X89469Y172161D01*
Y166161D01*
D02*
G37*
G36*
X54338Y173049D02*
X54168Y172498D01*
Y171861D01*
X54338Y171140D01*
X54677Y170334D01*
X55186Y169443D01*
X55865Y168467D01*
X56714Y167406D01*
X58920Y165030D01*
X54677Y160788D01*
X53447Y161976D01*
X51241Y163843D01*
X50265Y164521D01*
X49374Y165030D01*
X48568Y165370D01*
X47846Y165540D01*
X47210D01*
X46658Y165370D01*
X46192Y165030D01*
X54677Y173516D01*
X54338Y173049D01*
D02*
G37*
D11*
X488696Y386080D02*
X498602Y376174D01*
Y334518D02*
Y376174D01*
X494467Y330382D02*
X498602Y334518D01*
X466570Y386080D02*
X488696D01*
X438150Y414500D02*
X466570Y386080D01*
X410179Y414500D02*
X438150D01*
X145161Y205613D02*
X145415Y205867D01*
X133848Y194300D02*
X145161Y205613D01*
X145034Y206248D02*
X145415Y205867D01*
X145161Y205613D02*
X148844Y201930D01*
X145034Y205740D02*
X145161Y205613D01*
X144526Y205740D02*
X145034D01*
X155448Y195326D02*
X160782D01*
X148844Y201930D02*
X155448Y195326D01*
X145034Y275034D02*
X155000Y285000D01*
X145034Y206248D02*
Y275034D01*
X433382Y400500D02*
X455930Y377952D01*
Y354838D02*
Y377952D01*
Y354838D02*
X478135Y332633D01*
X478429D01*
X414250Y400500D02*
X433382D01*
X478429Y332633D02*
X478790Y332994D01*
X494467Y330375D02*
Y330382D01*
X489973Y325882D02*
X494467Y330375D01*
X489712Y325882D02*
X489973D01*
X60198Y188214D02*
Y213868D01*
X50800Y223266D02*
X60198Y213868D01*
X50038Y223266D02*
X50800D01*
X66812Y181600D02*
X75000D01*
X60198Y188214D02*
X66812Y181600D01*
X49530Y221641D02*
X50038Y222149D01*
X49530Y172530D02*
Y221641D01*
X114362Y159512D02*
X123760Y168910D01*
X60195Y159512D02*
X114362D01*
X49707Y170000D02*
X60195Y159512D01*
X123760Y168910D02*
X124460D01*
X90681Y169161D02*
X90932Y168910D01*
X81023Y169161D02*
X90681D01*
X80772Y168910D02*
X81023Y169161D01*
X358540Y224790D02*
X375666D01*
X344750Y211000D02*
X358540Y224790D01*
X380790D02*
X393000Y237000D01*
X375666Y224790D02*
X380790D01*
X181000Y195000D02*
Y199238D01*
X171000Y209238D02*
X181000Y199238D01*
X171000Y209238D02*
Y236000D01*
X324924Y298000D02*
X332924Y306000D01*
X362000D01*
X281500Y298000D02*
X324924D01*
X396240Y314706D02*
Y336804D01*
Y372110D01*
X382000Y386350D02*
X396240Y372110D01*
Y314706D02*
X396748Y314198D01*
X380550Y298000D02*
X396748Y314198D01*
X366500Y298000D02*
X380550D01*
X381570Y266000D02*
X403860Y288290D01*
X366500Y266000D02*
X381570D01*
X403860Y288290D02*
X407922D01*
X344000Y336500D02*
Y359834D01*
X312130Y391704D02*
X344000Y359834D01*
X304296Y391704D02*
X312130D01*
X336000Y336500D02*
Y356912D01*
X312912Y380000D02*
X336000Y356912D01*
X291600Y380000D02*
X312912D01*
X328000Y338686D02*
Y354244D01*
X310244Y372000D02*
X328000Y354244D01*
X305858Y372000D02*
X310244D01*
X350774Y320655D02*
X357429Y314000D01*
X350774Y320655D02*
Y324104D01*
X391000Y197960D02*
Y209400D01*
X384790Y191750D02*
X391000Y197960D01*
X325615Y191750D02*
X384790D01*
X378826Y247000D02*
X393000D01*
X370840Y239014D02*
X378826Y247000D01*
X346986Y239014D02*
X370840D01*
X344000Y242000D02*
X346986Y239014D01*
X481744Y237744D02*
X481800Y237800D01*
X459898Y237744D02*
X481744D01*
X459842Y237800D02*
X459898Y237744D01*
X475996Y249936D02*
X479044D01*
X481800Y237800D02*
X486490Y242490D01*
X479044Y249936D02*
X486490Y242490D01*
X277368Y458724D02*
X277876D01*
X300152Y481000D01*
X325250D01*
X270764Y313944D02*
X281444D01*
X264675Y320033D02*
X270764Y313944D01*
X264675Y320033D02*
Y325875D01*
X257700Y332850D02*
X264675Y325875D01*
X226150Y332850D02*
X257700D01*
X272675Y328797D02*
X279472Y322000D01*
X272675Y328797D02*
Y328810D01*
X281444Y313944D02*
X281500Y314000D01*
X229750Y200500D02*
X229870Y200620D01*
X236753Y186182D02*
X246571Y196000D01*
X222932Y186182D02*
X236753D01*
X207750Y171000D02*
X222932Y186182D01*
X179000Y281000D02*
X180000D01*
X158496Y363474D02*
X166370Y371348D01*
X173228D01*
X263144Y272288D02*
X264856Y274000D01*
X281500D01*
X155000Y285000D02*
Y337913D01*
X170087Y353000D01*
X129000Y194300D02*
X133848D01*
X171000Y236000D02*
X181000D01*
X161000D02*
X171000D01*
X204000Y305000D02*
X204400Y304600D01*
X206000Y371000D02*
X207000Y372000D01*
X96000Y326000D02*
Y359000D01*
Y326000D02*
X109000Y313000D01*
X60000Y250000D02*
Y312000D01*
X393000Y237000D02*
X410000D01*
X410158Y237800D02*
X434200D01*
X351000Y265000D02*
Y280000D01*
X349000Y282000D02*
X351000Y280000D01*
X339500Y291500D02*
X349000Y282000D01*
X339500Y291500D02*
X346000Y298000D01*
X349000Y282000D02*
X366500D01*
X334000Y286000D02*
X339500Y291500D01*
X366500Y266000D02*
X366500Y266000D01*
X346000Y298000D02*
X365000D01*
X310000Y286000D02*
X334000D01*
X298000Y274000D02*
X310000Y286000D01*
X281500Y274000D02*
X298000D01*
X281500Y274000D02*
X281500Y274000D01*
X366958Y256958D02*
X387000Y256958D01*
X353958Y256958D02*
X366958D01*
X344000Y242000D02*
X344000Y247000D01*
X353000Y256000D02*
X353958Y256958D01*
X305858Y372000D02*
X305858Y372000D01*
X352500Y256000D02*
X353000D01*
X278000Y372000D02*
X305858D01*
X328000Y324000D02*
X328168Y338582D01*
X246500Y275500D02*
X248250Y273750D01*
X204400Y304600D02*
X205896Y303104D01*
X215146D01*
X242250Y276000D01*
X246000D01*
X481800Y237800D02*
X481800D01*
X435000D02*
Y253000D01*
X109000Y313000D02*
X128000D01*
X408340Y412660D02*
X410179Y414500D01*
X228000Y488970D02*
X260485Y456485D01*
Y387362D02*
Y456485D01*
X228000Y488970D02*
Y521000D01*
X228000Y521000D02*
X228000Y521000D01*
X227000Y522000D02*
X228000Y521000D01*
X214000Y345000D02*
X226150Y332850D01*
X173401Y345000D02*
X214000D01*
X163000Y334599D02*
X173401Y345000D01*
X357429Y314000D02*
X361000D01*
X486000Y237800D02*
X486200D01*
X487000Y237000D01*
X261000Y374858D02*
Y387000D01*
Y374858D02*
X281429Y354429D01*
X170087Y353000D02*
X217314D01*
X229464Y340850D01*
X260635D01*
X272675Y328810D01*
X181000Y238000D02*
Y255000D01*
X181000Y238000D02*
X181000Y238000D01*
X180000Y238000D02*
X181000D01*
X163000Y273000D02*
X181000Y255000D01*
X163000Y273000D02*
Y334599D01*
X256321Y317000D02*
X260000Y313321D01*
X255800Y317000D02*
X256321D01*
X260000Y299000D02*
Y313321D01*
X250800Y322000D02*
X255800Y317000D01*
X249000Y322000D02*
X250800D01*
X260000Y299000D02*
X268500Y290500D01*
X281000D01*
X302000Y394000D02*
X304296Y391704D01*
X278000Y393600D02*
X291600Y380000D01*
X278000Y393600D02*
Y394000D01*
X281429Y354429D02*
X282071D01*
X296000Y340500D01*
X206000Y371000D02*
Y371000D01*
X296000Y336500D02*
Y340500D01*
X129000Y168900D02*
X134115D01*
X141000Y162015D01*
X134015Y169000D02*
X134115Y168900D01*
X141000Y162000D02*
Y162015D01*
X132000Y169000D02*
X134015D01*
X141000Y162000D02*
X168000D01*
X181000Y175000D01*
X314000Y196000D02*
X321365D01*
X325615Y191750D01*
X316000Y209000D02*
X316200Y208800D01*
X319879D01*
X328929Y199750D01*
X351150D01*
X360800Y209400D01*
X365000D01*
X481800Y237800D02*
X486000D01*
X246571Y196000D02*
X254000D01*
X204000Y171000D02*
X207750D01*
X247000Y184000D02*
X257000D01*
X233500Y170500D02*
X247000Y184000D01*
X229750Y170500D02*
X233500D01*
X228000Y201000D02*
X229000Y200000D01*
X307224Y196000D02*
X312000D01*
D12*
X214376Y258826D02*
X214630Y259080D01*
X214376Y238252D02*
Y258826D01*
Y238252D02*
X229870Y222758D01*
X414250Y396518D02*
Y400500D01*
X207518Y256518D02*
Y259588D01*
X203962Y252962D02*
X207518Y256518D01*
X203962Y197212D02*
Y252962D01*
X410718Y312674D02*
X415798D01*
X401828Y303784D02*
X410718Y312674D01*
X401828Y295148D02*
Y303784D01*
X380746Y274066D02*
X401828Y295148D01*
X382778Y321056D02*
X384302D01*
X366834Y337000D02*
X382778Y321056D01*
X352000Y337000D02*
X366834D01*
X366566Y274066D02*
X380746D01*
X382000Y386350D02*
Y401000D01*
X382016Y433324D02*
X389128D01*
X368750Y420058D02*
X382016Y433324D01*
X368750Y400500D02*
Y420058D01*
X381875Y413875D02*
X381999Y413999D01*
X381875Y408125D02*
Y413875D01*
X229870Y200620D02*
Y222758D01*
X320040Y251540D02*
Y269240D01*
X320000Y251500D02*
X320040Y251540D01*
X296000Y239704D02*
X303294Y232410D01*
X322326D01*
X204400Y278600D02*
X205800Y280000D01*
X306832Y350774D02*
X311500Y346106D01*
Y340000D02*
Y346106D01*
X344424Y425958D02*
X355600Y437134D01*
X313182Y425958D02*
X344424D01*
X307570Y431570D02*
X313182Y425958D01*
X248838Y487000D02*
X250000D01*
X238760Y497078D02*
X248838Y487000D01*
X238760Y497078D02*
Y511760D01*
X248000Y521000D01*
X405130Y421130D02*
Y421640D01*
X401250Y417250D02*
X405130Y421130D01*
X355600Y437134D02*
Y471350D01*
X355750Y471500D01*
X362458Y400708D02*
Y413258D01*
X355999Y419717D02*
X362458Y413258D01*
X355999Y419717D02*
Y424999D01*
X362250Y400500D02*
X362458Y400708D01*
X335788Y471038D02*
X336250Y471500D01*
X335788Y431292D02*
Y471038D01*
X180000Y304000D02*
X191008Y292992D01*
Y270992D02*
Y292992D01*
Y270992D02*
X197000Y265000D01*
X279472Y322000D02*
X281500D01*
X366500Y274000D02*
X366566Y274066D01*
X203962Y197212D02*
X208861Y202111D01*
X349125Y459125D02*
Y471875D01*
X281000Y266000D02*
X301000D01*
X280500Y265000D02*
X281500Y266000D01*
X262000Y265000D02*
X280500D01*
X251000Y276000D02*
X262000Y265000D01*
X304000Y241000D02*
Y250000D01*
Y241000D02*
X307000Y238000D01*
X334000D01*
X246000Y252000D02*
X297000D01*
X218000Y280000D02*
X246000Y252000D01*
X220000Y265000D02*
X259000Y226000D01*
X197000Y265000D02*
X220000D01*
X205800Y280000D02*
X218000D01*
X204400Y278600D02*
Y280000D01*
X180000Y304000D02*
Y305000D01*
X259000Y226000D02*
X289000D01*
X311000Y276000D02*
X343000D01*
X301000Y266000D02*
X311000Y276000D01*
X302770Y252730D02*
X304000Y251500D01*
X302770Y250770D02*
X303000Y251000D01*
X281500Y298000D02*
X281501Y297999D01*
X296000Y239704D02*
Y248000D01*
X320000Y250000D02*
X321230Y248770D01*
X247000Y276000D02*
X251000D01*
X204400Y304600D02*
Y305400D01*
X204000Y305800D02*
X204400Y305400D01*
X204000Y305800D02*
Y306000D01*
Y201000D02*
X207750D01*
X296000Y251500D02*
X296500D01*
X297000Y252000D01*
X204000Y280400D02*
X204400Y280000D01*
X204000Y280400D02*
Y281000D01*
X381875Y408125D02*
X382000Y408000D01*
X401250Y400500D02*
Y417250D01*
X349000Y459000D02*
X349125Y459125D01*
X349000Y472000D02*
X349125Y471875D01*
X248000Y521000D02*
Y523000D01*
X228000Y543000D02*
Y566000D01*
Y521000D02*
Y543000D01*
X407750Y400500D02*
Y411750D01*
X248000Y323000D02*
X249800D01*
X320000Y342000D02*
Y352000D01*
X310000Y362000D02*
X320000Y352000D01*
X407750Y400500D02*
X408480Y401230D01*
X279000Y394000D02*
X284480Y388520D01*
X305000Y396184D02*
Y397000D01*
X355690Y478310D02*
X356000Y478000D01*
X325250Y481000D02*
X327250D01*
X330000Y478250D01*
Y477000D02*
Y478250D01*
D19*
X204000Y201000D02*
D03*
Y171000D02*
D03*
X229750Y200500D02*
D03*
Y170500D02*
D03*
X340000Y210000D02*
D03*
Y180000D02*
D03*
X246000Y306000D02*
D03*
Y276000D02*
D03*
D21*
X75000Y168900D02*
D03*
D22*
X129000Y207000D02*
D03*
Y194300D02*
D03*
Y181600D02*
D03*
Y168900D02*
D03*
X75000Y207000D02*
D03*
Y194300D02*
D03*
Y181600D02*
D03*
D27*
X206000Y372000D02*
D03*
X176000D02*
D03*
D30*
X246000Y322600D02*
D03*
Y351000D02*
D03*
X486000Y237800D02*
D03*
Y266200D02*
D03*
X435000Y237800D02*
D03*
Y266200D02*
D03*
X365000Y209400D02*
D03*
Y181000D02*
D03*
X391000Y209400D02*
D03*
Y181000D02*
D03*
X459842Y266200D02*
D03*
Y237800D02*
D03*
X410158D02*
D03*
Y266200D02*
D03*
D31*
X415798Y288736D02*
D03*
Y300736D02*
D03*
Y312736D02*
D03*
D32*
X312120Y209050D02*
D03*
Y196350D02*
D03*
Y183650D02*
D03*
Y170950D02*
D03*
X257880D02*
D03*
Y183650D02*
D03*
Y196350D02*
D03*
Y209050D02*
D03*
D60*
X305000Y544000D02*
X307000Y542000D01*
X428000D01*
X441000Y555000D01*
X477000D01*
D61*
X481500Y296500D02*
D03*
Y368000D02*
D03*
D62*
X478700Y319250D02*
D03*
Y332250D02*
D03*
Y345250D02*
D03*
X489300Y325750D02*
D03*
Y338750D02*
D03*
D63*
X179000Y305400D02*
D03*
Y330800D02*
D03*
X204400D02*
D03*
Y305400D02*
D03*
X179000Y280000D02*
D03*
X477000Y529600D02*
D03*
X303000Y394000D02*
D03*
X456600Y139000D02*
D03*
D64*
X204400Y280000D02*
D03*
X477000Y555000D02*
D03*
D65*
X277600Y394000D02*
D03*
X482000Y139000D02*
D03*
D66*
X135177Y477928D02*
D03*
X170533Y442572D02*
D03*
D67*
X386314Y94650D02*
D03*
X141314Y94650D02*
D03*
D68*
X316314Y84650D02*
D03*
X281314D02*
D03*
X246314D02*
D03*
X316314Y119650D02*
D03*
X281314D02*
D03*
X246314D02*
D03*
X211314Y84650D02*
D03*
Y119650D02*
D03*
D69*
X500000Y410000D02*
D03*
X515000Y380000D02*
D03*
Y320000D02*
D03*
X500000Y230000D02*
D03*
X515000Y200000D02*
D03*
X500000Y170000D02*
D03*
X515000Y140000D02*
D03*
X500000Y110000D02*
D03*
X470000Y410000D02*
D03*
Y110000D02*
D03*
Y50000D02*
D03*
X440000Y170000D02*
D03*
Y110000D02*
D03*
X455000Y80000D02*
D03*
X440000Y50000D02*
D03*
X425000Y380000D02*
D03*
Y80000D02*
D03*
X410000Y50000D02*
D03*
X380000Y350000D02*
D03*
Y50000D02*
D03*
X365000Y380000D02*
D03*
X350000Y110000D02*
D03*
Y50000D02*
D03*
X320000Y410000D02*
D03*
X335000Y80000D02*
D03*
X320000Y50000D02*
D03*
X290000Y410000D02*
D03*
Y50000D02*
D03*
X260000Y110000D02*
D03*
Y50000D02*
D03*
X245000Y440000D02*
D03*
X230000Y410000D02*
D03*
X245000Y380000D02*
D03*
X230000Y110000D02*
D03*
Y50000D02*
D03*
X200000Y470000D02*
D03*
X215000Y440000D02*
D03*
X200000Y410000D02*
D03*
X215000Y140000D02*
D03*
X200000Y50000D02*
D03*
X170000Y410000D02*
D03*
Y110000D02*
D03*
X185000Y80000D02*
D03*
X170000Y50000D02*
D03*
X155000Y500000D02*
D03*
X140000Y290000D02*
D03*
X155000Y260000D02*
D03*
X140000Y50000D02*
D03*
X125000Y500000D02*
D03*
X110000Y470000D02*
D03*
X125000Y440000D02*
D03*
X110000Y230000D02*
D03*
Y170000D02*
D03*
X125000Y140000D02*
D03*
X110000Y110000D02*
D03*
Y50000D02*
D03*
X95000Y440000D02*
D03*
Y380000D02*
D03*
X80000Y350000D02*
D03*
X95000Y200000D02*
D03*
Y140000D02*
D03*
X80000Y110000D02*
D03*
X95000Y80000D02*
D03*
X80000Y50000D02*
D03*
X65000Y440000D02*
D03*
X50000Y410000D02*
D03*
X65000Y380000D02*
D03*
X50000Y350000D02*
D03*
X65000Y140000D02*
D03*
X50000Y110000D02*
D03*
X65000Y80000D02*
D03*
X20000Y350000D02*
D03*
X35000Y320000D02*
D03*
X20000Y170000D02*
D03*
X35000Y140000D02*
D03*
X20000Y110000D02*
D03*
X500001Y560001D02*
D03*
Y540001D02*
D03*
Y520001D02*
D03*
X490001Y580001D02*
D03*
X495001Y570001D02*
D03*
Y550001D02*
D03*
X490001Y540001D02*
D03*
X495001Y530001D02*
D03*
X490001Y520001D02*
D03*
X495001Y510001D02*
D03*
X480001Y580001D02*
D03*
X485001Y570001D02*
D03*
Y510001D02*
D03*
X480001Y500001D02*
D03*
X470001Y580001D02*
D03*
X475001Y570001D02*
D03*
Y510001D02*
D03*
X470001Y500001D02*
D03*
X475001Y490001D02*
D03*
X460001Y580001D02*
D03*
X465001Y570001D02*
D03*
Y510001D02*
D03*
X460001Y500001D02*
D03*
X465001Y490001D02*
D03*
X460001Y480001D02*
D03*
X450001Y580001D02*
D03*
X455001Y570001D02*
D03*
Y510001D02*
D03*
X450001Y500001D02*
D03*
X455001Y490001D02*
D03*
X440001Y580001D02*
D03*
X445001Y570001D02*
D03*
X440001Y520001D02*
D03*
X445001Y510001D02*
D03*
X440001Y500001D02*
D03*
X435001Y570001D02*
D03*
X430001Y520001D02*
D03*
X425001Y570001D02*
D03*
X420001Y520001D02*
D03*
X415001Y570001D02*
D03*
X410001Y520001D02*
D03*
X405001Y570001D02*
D03*
X400001Y520001D02*
D03*
X395001Y570001D02*
D03*
X330001Y580001D02*
D03*
X320001D02*
D03*
X315001Y490001D02*
D03*
X305001D02*
D03*
X295001D02*
D03*
X285001Y570001D02*
D03*
X280001Y520001D02*
D03*
Y480001D02*
D03*
X275001Y570001D02*
D03*
X270001Y520001D02*
D03*
Y480001D02*
D03*
X265001Y570001D02*
D03*
X260001Y520001D02*
D03*
Y480001D02*
D03*
X250001D02*
D03*
X240001Y580001D02*
D03*
X230001D02*
D03*
X220001D02*
D03*
X210001D02*
D03*
X215001Y570001D02*
D03*
X210001Y560001D02*
D03*
X215001Y550001D02*
D03*
X210001Y540001D02*
D03*
X215001Y530001D02*
D03*
X200001Y580001D02*
D03*
X205001Y570001D02*
D03*
X200001Y560001D02*
D03*
X205001Y550001D02*
D03*
X200001Y540001D02*
D03*
X205001Y530001D02*
D03*
X200001Y520001D02*
D03*
X195001Y570001D02*
D03*
X190001Y560001D02*
D03*
X195001Y550001D02*
D03*
X190001Y540001D02*
D03*
X195001Y530001D02*
D03*
X190001Y520001D02*
D03*
X148844Y201930D02*
D03*
X90932Y168910D02*
D03*
X377952Y199898D02*
D03*
X375666Y224790D02*
D03*
X214630Y259080D02*
D03*
X207518Y259588D02*
D03*
X396240Y336804D02*
D03*
X384302Y321056D02*
D03*
X350774Y324104D02*
D03*
X381999Y413999D02*
D03*
X320040Y269240D02*
D03*
X322326Y232410D02*
D03*
X475996Y249936D02*
D03*
X306832Y350774D02*
D03*
X277368Y458724D02*
D03*
X405130Y421640D02*
D03*
X389128Y433324D02*
D03*
X335788Y431292D02*
D03*
X158496Y363474D02*
D03*
X263144Y272288D02*
D03*
X96000Y359000D02*
D03*
X60000Y312000D02*
D03*
X289000Y226000D02*
D03*
X304000Y241000D02*
D03*
X351000Y265000D02*
D03*
X343000Y276000D02*
D03*
X407997Y501497D02*
D03*
X402497D02*
D03*
X334000Y238000D02*
D03*
X387000Y257000D02*
D03*
X393000Y247000D02*
D03*
X278000Y372000D02*
D03*
X328000Y324000D02*
D03*
X435000Y253000D02*
D03*
X60000Y250000D02*
D03*
X128000Y313000D02*
D03*
X349000Y459000D02*
D03*
X355999Y424999D02*
D03*
X250000Y487000D02*
D03*
X429997Y501497D02*
D03*
X427247Y583997D02*
D03*
X424497Y501497D02*
D03*
X421747Y583997D02*
D03*
X418997Y501497D02*
D03*
X416247Y583997D02*
D03*
X413497Y501497D02*
D03*
X410747Y583997D02*
D03*
X405247D02*
D03*
X399747D02*
D03*
X396997Y501497D02*
D03*
X394247Y583997D02*
D03*
X391497Y501497D02*
D03*
X388747Y583997D02*
D03*
X385997Y501497D02*
D03*
X383247Y583997D02*
D03*
X380497Y501497D02*
D03*
X377747Y583997D02*
D03*
X303497D02*
D03*
X297997D02*
D03*
X292497D02*
D03*
X286997D02*
D03*
X281497D02*
D03*
X275997D02*
D03*
X270497D02*
D03*
X264998D02*
D03*
X259498D02*
D03*
X253997D02*
D03*
X308997D02*
D03*
Y501497D02*
D03*
X297997D02*
D03*
X292497D02*
D03*
X286997D02*
D03*
X281497D02*
D03*
X275997D02*
D03*
X270497D02*
D03*
X264998D02*
D03*
X259498D02*
D03*
X253997D02*
D03*
X306000Y433000D02*
D03*
X310000Y362000D02*
D03*
X206000Y371000D02*
D03*
X246000Y306000D02*
D03*
X338000Y180000D02*
D03*
D70*
X51000Y223000D02*
D03*
D71*
X497700Y70000D02*
D03*
Y448900D02*
D03*
X30000Y381400D02*
D03*
Y70000D02*
D03*
D72*
X329750Y400500D02*
D03*
X336250D02*
D03*
X342750D02*
D03*
X349250D02*
D03*
X355750D02*
D03*
X362250D02*
D03*
X368750D02*
D03*
X375250D02*
D03*
X381750D02*
D03*
X388250D02*
D03*
X394750D02*
D03*
X401250D02*
D03*
X407750D02*
D03*
X414250D02*
D03*
Y471500D02*
D03*
X407750D02*
D03*
X401250D02*
D03*
X394750D02*
D03*
X388250D02*
D03*
X381750D02*
D03*
X375250D02*
D03*
X368750D02*
D03*
X362250D02*
D03*
X355750D02*
D03*
X349250D02*
D03*
X342750D02*
D03*
X336250D02*
D03*
X329750D02*
D03*
D73*
X248000Y566000D02*
D03*
X228000D02*
D03*
X248000Y543000D02*
D03*
X228000D02*
D03*
X248000Y521000D02*
D03*
X228000D02*
D03*
X49707Y170000D02*
D03*
X29708D02*
D03*
D74*
X352000Y336500D02*
D03*
X344000D02*
D03*
X336000D02*
D03*
X328000D02*
D03*
X320000D02*
D03*
X312000D02*
D03*
X304000D02*
D03*
X296000D02*
D03*
X296000Y251500D02*
D03*
X304000Y251500D02*
D03*
X312000D02*
D03*
X320000D02*
D03*
X328000Y251500D02*
D03*
X336000D02*
D03*
X344000D02*
D03*
X352000Y251500D02*
D03*
D75*
X281500Y322000D02*
D03*
Y314000D02*
D03*
Y306000D02*
D03*
Y298000D02*
D03*
Y290000D02*
D03*
Y282000D02*
D03*
Y274000D02*
D03*
Y266000D02*
D03*
X366500D02*
D03*
X366500Y274000D02*
D03*
Y282000D02*
D03*
Y290000D02*
D03*
X366500Y298000D02*
D03*
Y306000D02*
D03*
Y314000D02*
D03*
X366500Y322000D02*
D03*
D76*
X181000Y236000D02*
D03*
Y216000D02*
D03*
X161000Y236000D02*
D03*
Y216000D02*
D03*
X161000Y195500D02*
D03*
Y175500D02*
D03*
X181000Y175000D02*
D03*
Y195000D02*
D03*
M02*
