G04*
G04 #@! TF.GenerationSoftware,Altium Limited,Altium Designer,19.1.6 (110)*
G04*
G04 Layer_Color=32768*
%FSLAX44Y44*%
%MOMM*%
G71*
G01*
G75*
%ADD12C,0.2540*%
%ADD83C,0.1000*%
%ADD84C,0.0500*%
D12*
X409298Y284736D02*
X422298D01*
X409298D02*
Y316736D01*
X422298D01*
Y284736D02*
Y316736D01*
X426100Y267065D02*
X447900D01*
X426100Y230965D02*
Y267065D01*
Y230965D02*
X447900D01*
Y267065D01*
X253500Y226000D02*
Y258000D01*
X240500Y226000D02*
X253500D01*
X240500D02*
Y258000D01*
X253500D01*
X75780Y459543D02*
X152148Y383175D01*
X75780Y459543D02*
X152855Y536618D01*
X229223Y460250D01*
X152148Y383175D02*
X229223Y460250D01*
D83*
X463500Y284250D02*
Y380250D01*
X499500D01*
X463500Y284250D02*
X499500D01*
Y380250D01*
X238000Y352800D02*
X254000D01*
Y320800D02*
Y352800D01*
X238000Y320800D02*
X254000D01*
X238000D02*
Y352800D01*
X321000Y456000D02*
X327500Y462500D01*
X321000D02*
X423000D01*
Y409500D02*
Y462500D01*
X321000Y409500D02*
X423000D01*
X321000D02*
Y462500D01*
X478000Y268000D02*
X494000D01*
Y236000D02*
Y268000D01*
X478000Y236000D02*
X494000D01*
X478000D02*
Y268000D01*
X286500Y348750D02*
X361500D01*
Y233250D02*
Y348750D01*
X286500Y233250D02*
X361500D01*
X286500D02*
Y348750D01*
Y336050D02*
X299200Y348750D01*
X207000Y363000D02*
Y379000D01*
X175000D02*
X207000D01*
X175000Y363000D02*
Y379000D01*
Y363000D02*
X207000D01*
X7000Y297000D02*
X61000D01*
Y273000D02*
Y297000D01*
X7000Y273000D02*
X61000D01*
X7000D02*
Y297000D01*
X255000Y559000D02*
Y573000D01*
X221000Y559000D02*
X255000D01*
X221000D02*
Y573000D01*
X255000D01*
X221000Y550000D02*
X255000D01*
X221000Y536000D02*
Y550000D01*
Y536000D02*
X255000D01*
Y550000D01*
Y514000D02*
Y528000D01*
X221000Y514000D02*
X255000D01*
X221000D02*
Y528000D01*
X255000D01*
X196000Y170250D02*
X212000D01*
X196000D02*
Y201750D01*
X212000D01*
Y170250D02*
Y201750D01*
X221750Y169750D02*
X237750D01*
X221750D02*
Y201250D01*
X237750D01*
Y169750D02*
Y201250D01*
X351000Y329000D02*
X359000Y321000D01*
Y329000D02*
X359000Y259000D01*
X289000D02*
X359000D01*
X289000D02*
Y329000D01*
X359000Y329000D01*
X427000Y268000D02*
X443000D01*
Y236000D02*
Y268000D01*
X427000Y236000D02*
X443000D01*
X427000D02*
Y268000D01*
X357000Y179200D02*
X373000D01*
X357000D02*
Y211200D01*
X373000D01*
Y179200D02*
Y211200D01*
X383000Y179200D02*
X399000D01*
X383000D02*
Y211200D01*
X399000D01*
Y179200D02*
Y211200D01*
X390800Y420000D02*
X422800D01*
Y404000D02*
Y420000D01*
X390800Y404000D02*
X422800D01*
X390800D02*
Y420000D01*
X385000Y448830D02*
X390330Y443500D01*
X385000D02*
X401000D01*
Y475500D01*
X385000D02*
X401000D01*
X385000Y443500D02*
Y475500D01*
X412000Y442250D02*
X428000D01*
Y473750D01*
X412000D02*
X428000D01*
X412000Y442250D02*
Y473750D01*
X356000Y448330D02*
X361330Y443000D01*
X356000D02*
X372000D01*
Y475000D01*
X356000D02*
X372000D01*
X356000Y443000D02*
Y475000D01*
X298000Y417250D02*
X314000D01*
Y448750D01*
X298000D02*
X314000D01*
X298000Y417250D02*
Y448750D01*
X331000Y442250D02*
X347000D01*
Y473750D01*
X331000D02*
X347000D01*
X331000Y442250D02*
Y473750D01*
X334800Y420000D02*
X366800D01*
Y404000D02*
Y420000D01*
X334800Y404000D02*
X366800D01*
X334800D02*
Y420000D01*
X17000Y180000D02*
Y234000D01*
X41000D01*
Y180000D02*
Y234000D01*
X17000Y180000D02*
X41000D01*
X93000Y345500D02*
X128000D01*
Y280500D02*
Y345500D01*
X93000Y280500D02*
X128000D01*
X93000D02*
Y345500D01*
Y322500D02*
X116000Y345500D01*
X405000Y383000D02*
X437000D01*
Y367000D02*
Y383000D01*
X405000Y367000D02*
X437000D01*
X405000D02*
Y383000D01*
X404370Y355726D02*
X436370D01*
Y339726D02*
Y355726D01*
X404370Y339726D02*
X436370D01*
X404370D02*
Y355726D01*
X404250Y307000D02*
Y323000D01*
Y307000D02*
X435750D01*
Y323000D01*
X404250D02*
X435750D01*
X465250Y273496D02*
X510750D01*
Y241096D02*
Y273496D01*
X465250Y241096D02*
X510750D01*
X465250D02*
Y273496D01*
X486750Y203000D02*
Y219000D01*
X455250D02*
X486750D01*
X455250Y203000D02*
Y219000D01*
Y203000D02*
X486750D01*
X486920Y175134D02*
Y191134D01*
X455420D02*
X486920D01*
X455420Y175134D02*
Y191134D01*
Y175134D02*
X486920D01*
X22708Y163000D02*
Y177000D01*
X56708D01*
Y163000D02*
Y177000D01*
X22708Y163000D02*
X56708D01*
X71000Y372000D02*
Y404000D01*
X87000D01*
Y372000D02*
Y404000D01*
X71000Y372000D02*
X87000D01*
X71000Y377330D02*
X76330Y372000D01*
X121000Y372250D02*
Y403750D01*
X105000Y372250D02*
X121000D01*
X105000D02*
Y403750D01*
X121000D01*
X101000Y224000D02*
Y256000D01*
X85000Y224000D02*
X101000D01*
X85000D02*
Y256000D01*
X101000D01*
X332000Y179250D02*
Y210750D01*
Y179250D02*
X348000D01*
Y210750D01*
X332000D02*
X348000D01*
X294000Y178250D02*
Y209750D01*
X278000Y178250D02*
X294000D01*
X278000D02*
Y209750D01*
X294000D01*
X451842Y236000D02*
Y268000D01*
Y236000D02*
X467842D01*
Y268000D01*
X451842D02*
X467842D01*
X238000Y275250D02*
Y306750D01*
Y275250D02*
X254000D01*
Y306750D01*
X238000D02*
X254000D01*
X418158Y236000D02*
Y268000D01*
X402158D02*
X418158D01*
X402158Y236000D02*
Y268000D01*
Y236000D02*
X418158D01*
X269000Y417250D02*
Y448750D01*
X285000D01*
Y417250D02*
Y448750D01*
X269000Y417250D02*
X285000D01*
X174000Y209000D02*
X188000D01*
X174000D02*
Y243000D01*
X188000D01*
Y209000D02*
Y243000D01*
X168000Y209000D02*
Y243000D01*
X154000D02*
X168000D01*
X154000Y209000D02*
Y243000D01*
Y209000D02*
X168000D01*
X248670Y307500D02*
X254000Y302170D01*
X238000Y307500D02*
X254000D01*
X238000Y275500D02*
Y307500D01*
Y275500D02*
X254000D01*
Y307500D01*
X112000Y272000D02*
X136000D01*
X112000Y218000D02*
Y272000D01*
Y218000D02*
X136000D01*
Y272000D01*
X168000Y168500D02*
Y202500D01*
X154000D02*
X168000D01*
X154000Y168500D02*
Y202500D01*
Y168500D02*
X168000D01*
X13000Y266000D02*
X45000D01*
Y250000D02*
Y266000D01*
X13000Y250000D02*
X45000D01*
X13000D02*
Y266000D01*
X330000Y183330D02*
X335330Y178000D01*
X330000D02*
X346000D01*
Y210000D01*
X330000D02*
X346000D01*
X330000Y178000D02*
Y210000D01*
X312670Y210500D02*
X318000Y205170D01*
X302000Y210500D02*
X318000D01*
X302000Y178500D02*
Y210500D01*
Y178500D02*
X318000D01*
Y210500D01*
X370500Y215500D02*
X409500D01*
Y166500D02*
Y215500D01*
X370500Y166500D02*
X409500D01*
X370500D02*
Y215500D01*
Y202800D02*
X383200Y215500D01*
X174000Y168000D02*
Y202000D01*
Y168000D02*
X188000D01*
Y202000D01*
X174000D02*
X188000D01*
X175250Y364000D02*
Y380000D01*
X206750D01*
Y364000D02*
Y380000D01*
X175250Y364000D02*
X206750D01*
D84*
X60000Y217500D02*
X144000D01*
X60000Y158500D02*
X144000D01*
Y217500D01*
X60000Y158500D02*
Y217500D01*
Y158500D02*
Y217500D01*
X144000Y158500D02*
Y217500D01*
X60000D02*
X144000D01*
X60000Y158500D02*
X144000D01*
X288500Y503750D02*
X393500D01*
Y578250D01*
X288500D02*
X393500D01*
X288500Y503750D02*
Y578250D01*
X247750Y217500D02*
X322250D01*
X247750Y162500D02*
Y217500D01*
Y162500D02*
X322250D01*
Y217500D01*
M02*
