G04*
G04 #@! TF.GenerationSoftware,Altium Limited,Altium Designer,19.1.6 (110)*
G04*
G04 Layer_Color=8388736*
%FSLAX44Y44*%
%MOMM*%
G71*
G01*
G75*
%ADD33R,1.9300X0.7300*%
%ADD34R,1.1100X1.9500*%
%ADD35R,1.4800X1.8800*%
%ADD36R,1.8300X1.7800*%
%ADD37R,1.8800X1.1300*%
%ADD38R,1.8800X1.4800*%
%ADD39R,1.7800X0.7300*%
%ADD40O,1.7800X0.7300*%
%ADD41R,1.8300X1.0300*%
%ADD42R,1.8300X3.2800*%
%ADD43R,1.3500X0.8420*%
%ADD44R,2.6200X2.7500*%
%ADD45R,1.1300X1.8800*%
%ADD46R,0.9300X3.5100*%
%ADD47R,0.7300X1.6050*%
%ADD48R,1.9500X1.1100*%
%ADD49R,2.0800X0.4800*%
%ADD50R,1.6050X0.7300*%
%ADD51C,2.0800*%
%ADD52C,0.8800*%
%ADD53C,1.8800*%
G04:AMPARAMS|DCode=54|XSize=1.88mm|YSize=1.88mm|CornerRadius=0.265mm|HoleSize=0mm|Usage=FLASHONLY|Rotation=90.000|XOffset=0mm|YOffset=0mm|HoleType=Round|Shape=RoundedRectangle|*
%AMROUNDEDRECTD54*
21,1,1.8800,1.3500,0,0,90.0*
21,1,1.3500,1.8800,0,0,90.0*
1,1,0.5300,0.6750,0.6750*
1,1,0.5300,0.6750,-0.6750*
1,1,0.5300,-0.6750,-0.6750*
1,1,0.5300,-0.6750,0.6750*
%
%ADD54ROUNDEDRECTD54*%
G04:AMPARAMS|DCode=55|XSize=1.88mm|YSize=1.88mm|CornerRadius=0.265mm|HoleSize=0mm|Usage=FLASHONLY|Rotation=0.000|XOffset=0mm|YOffset=0mm|HoleType=Round|Shape=RoundedRectangle|*
%AMROUNDEDRECTD55*
21,1,1.8800,1.3500,0,0,0.0*
21,1,1.3500,1.8800,0,0,0.0*
1,1,0.5300,0.6750,-0.6750*
1,1,0.5300,-0.6750,-0.6750*
1,1,0.5300,-0.6750,0.6750*
1,1,0.5300,0.6750,0.6750*
%
%ADD55ROUNDEDRECTD55*%
%ADD56C,1.5800*%
%ADD57C,5.2032*%
%ADD58C,2.5800*%
%ADD59C,5.5800*%
D33*
X277250Y341800D02*
D03*
Y329100D02*
D03*
Y316400D02*
D03*
Y303700D02*
D03*
Y291000D02*
D03*
Y278300D02*
D03*
Y265600D02*
D03*
Y252900D02*
D03*
Y240200D02*
D03*
X370750D02*
D03*
Y252900D02*
D03*
Y265600D02*
D03*
Y278300D02*
D03*
Y291000D02*
D03*
Y303700D02*
D03*
Y316400D02*
D03*
Y329100D02*
D03*
Y341800D02*
D03*
D34*
X176800Y371000D02*
D03*
X205200D02*
D03*
X392600Y412000D02*
D03*
X421000D02*
D03*
X336600D02*
D03*
X365000D02*
D03*
X406800Y375000D02*
D03*
X435200D02*
D03*
X406170Y347726D02*
D03*
X434570D02*
D03*
X14800Y258000D02*
D03*
X43200D02*
D03*
D35*
X51000Y285000D02*
D03*
X17000D02*
D03*
D36*
X393000Y471000D02*
D03*
Y448000D02*
D03*
X364000Y470500D02*
D03*
Y447500D02*
D03*
X79000Y376500D02*
D03*
Y399500D02*
D03*
X246000Y280000D02*
D03*
Y303000D02*
D03*
X338000Y205500D02*
D03*
Y182500D02*
D03*
X310000Y183000D02*
D03*
Y206000D02*
D03*
D37*
X420000Y473000D02*
D03*
Y443000D02*
D03*
X306000Y448000D02*
D03*
Y418000D02*
D03*
X339000Y473000D02*
D03*
Y443000D02*
D03*
X113000Y403000D02*
D03*
Y373000D02*
D03*
X286000Y209000D02*
D03*
Y179000D02*
D03*
X277000Y418000D02*
D03*
Y448000D02*
D03*
D38*
X29000Y224000D02*
D03*
Y190000D02*
D03*
X124000Y262000D02*
D03*
Y228000D02*
D03*
D39*
X75000Y207100D02*
D03*
D40*
Y194400D02*
D03*
Y181700D02*
D03*
Y169000D02*
D03*
X129000Y207100D02*
D03*
Y194400D02*
D03*
Y181700D02*
D03*
Y169000D02*
D03*
D41*
X79000Y336000D02*
D03*
Y313000D02*
D03*
Y290000D02*
D03*
D42*
X142000Y313000D02*
D03*
D43*
X437000Y232490D02*
D03*
D44*
Y256000D02*
D03*
D45*
X435000Y315000D02*
D03*
X405000D02*
D03*
X456000Y211000D02*
D03*
X486000D02*
D03*
X456170Y183134D02*
D03*
X486170D02*
D03*
D46*
X465000Y257297D02*
D03*
X511000D02*
D03*
D47*
X296550Y568120D02*
D03*
X309250D02*
D03*
X321950D02*
D03*
X334650D02*
D03*
X347350D02*
D03*
X360050D02*
D03*
X372750D02*
D03*
X385450D02*
D03*
Y513880D02*
D03*
X372750D02*
D03*
X360050D02*
D03*
X347350D02*
D03*
X334650D02*
D03*
X321950D02*
D03*
X309250D02*
D03*
X296550D02*
D03*
D48*
X93000Y254200D02*
D03*
Y225800D02*
D03*
D49*
X247000Y230000D02*
D03*
Y242000D02*
D03*
Y254000D02*
D03*
D50*
X362880Y210050D02*
D03*
Y197350D02*
D03*
Y184650D02*
D03*
Y171950D02*
D03*
X417120D02*
D03*
Y184650D02*
D03*
Y197350D02*
D03*
Y210050D02*
D03*
D51*
X481500Y296500D02*
D03*
Y368000D02*
D03*
D52*
X478700Y319250D02*
D03*
Y332250D02*
D03*
Y345250D02*
D03*
X489300Y325750D02*
D03*
Y338750D02*
D03*
D53*
X179000Y305400D02*
D03*
Y330800D02*
D03*
X204400D02*
D03*
Y305400D02*
D03*
X179000Y280000D02*
D03*
X477000Y529600D02*
D03*
X303000Y394000D02*
D03*
X456600Y139000D02*
D03*
D54*
X204400Y280000D02*
D03*
X477000Y555000D02*
D03*
D55*
X277600Y394000D02*
D03*
X482000Y139000D02*
D03*
D56*
X135177Y477928D02*
D03*
X170533Y442572D02*
D03*
D57*
X386314Y94650D02*
D03*
X141314Y94650D02*
D03*
D58*
X316314Y84650D02*
D03*
X281314D02*
D03*
X246314D02*
D03*
X316314Y119650D02*
D03*
X281314D02*
D03*
X246314D02*
D03*
X211314Y84650D02*
D03*
Y119650D02*
D03*
D59*
X497700Y70000D02*
D03*
Y448900D02*
D03*
X30000Y381400D02*
D03*
Y70000D02*
D03*
M02*
